<?xml version="1.0" encoding="utf-8"?>
<!-- Decoded by SVGB to SVG converter version 0.9.5 -->
<!DOCTYPE svg PUBLIC "-//W3C//DTD SVG 1.0//EN" "http://www.w3.org/TR/2001/REC-SVG-20010904/DTD/svg10.dtd">
<svg xmlns="http://www.w3.org/2000/svg" version="1.1" id="Слой_1" x="0" y="0" width="96" height="96" viewBox="0 0 96 96" xml:space="preserve">
  <rect fill="none" width="96" height="96"/>
  <path opacity="0.5" d="M88,48C88,77.635,77.641,88,48.002,88C18.364,88,8,77.635,8,48C8.001,18.364,18.366,8,48.003,8C77.641,8,88,18.364,88,48z"/>
  <linearGradient id="SVGID_1_" gradientUnits="userSpaceOnUse" x1="909.3008" y1="-2039.833" x2="909.3008" y2="-1960.8497" gradientTransform="matrix(1 0 0 -1 -861.3008 -1952.7998)">
    <stop offset="0" stop-color="#506927"/>
    <stop offset="1" stop-color="#94C147"/>
  </linearGradient>
  <path fill="url(#SVGID_1_)" d="M87.45,47.5C87.45,77.098,77.234,86.95,48.002,86.95C18.772,86.95,8.55,77.097,8.55,47.5C8.55,17.903,18.774,8.05,48.003,8.05C77.234,8.05,87.45,17.903,87.45,47.5z"/>
  <path opacity="0.1" d="M31.365,71.734C31.696,71.89,32.037,72.042,32.386,72.185C26.691,65.473,23.25,56.791,23.25,47.3C23.25,38.095,26.487,29.65,31.876,23.026C31.529,23.179,31.193,23.341,30.866,23.51C25.785,30.095,22.75,38.34,22.75,47.3C22.75,56.555,25.98,65.048,31.365,71.734z"/>
  <path opacity="0.1" d="M27.92,69.557C28.317,69.886,28.736,70.196,29.172,70.49C24.506,63.949,21.75,55.952,21.75,47.302C21.75,38.981,24.304,31.264,28.652,24.864C28.194,25.199,27.766,25.562,27.354,25.941C23.493,32.144,21.25,39.458,21.25,47.302C21.25,55.523,23.709,63.17,27.92,69.557z"/>
  <linearGradient id="SVGID_2_" gradientUnits="userSpaceOnUse" x1="355.875" y1="816.6504" x2="355.875" y2="768.4404" gradientTransform="matrix(1 0 0 1 -329.3203 -744.9199)">
    <stop offset="0" stop-color="#FFFFFF"/>
    <stop offset="1" stop-color="#E6E6E6"/>
  </linearGradient>
  <path opacity="0.15" fill="url(#SVGID_2_)" d="M29.158,70.479C29.843,70.94,30.575,71.358,31.358,71.731C25.977,65.045,22.75,56.552,22.75,47.302C22.75,38.347,25.775,30.103,30.85,23.52C30.051,23.932,29.303,24.386,28.613,24.894C24.281,31.287,21.751,38.998,21.751,47.302C21.75,55.943,24.5,63.938,29.158,70.479z"/>
  <linearGradient id="SVGID_3_" gradientUnits="userSpaceOnUse" x1="355.1484" y1="815.877" x2="355.1484" y2="769.2725" gradientTransform="matrix(1 0 0 1 -329.3203 -744.9199)">
    <stop offset="0" stop-color="#FFFFFF" stopOpacity="0"/>
    <stop offset="1" stop-color="#FFFFFF"/>
  </linearGradient>
  <path opacity="0.15" fill="url(#SVGID_3_)" d="M29.158,70.479C29.402,70.643,29.652,70.802,29.908,70.958C24.994,64.354,22.084,56.169,22.084,47.305C22.084,38.749,24.802,30.833,29.409,24.353C29.137,24.529,28.868,24.708,28.611,24.897C24.279,31.289,21.749,39,21.749,47.304C21.75,55.943,24.5,63.938,29.158,70.479z"/>
  <linearGradient id="SVGID_4_" gradientUnits="userSpaceOnUse" x1="356.209" y1="816.6504" x2="356.209" y2="768.4404" gradientTransform="matrix(1 0 0 1 -329.3203 -744.9199)">
    <stop offset="0" stop-color="#FFFFFF"/>
    <stop offset="1" stop-color="#FFFFFF" stopOpacity="0"/>
  </linearGradient>
  <path opacity="0.15" fill="url(#SVGID_4_)" d="M30.671,71.391C30.894,71.509,31.126,71.62,31.358,71.731C25.977,65.045,22.75,56.552,22.75,47.302C22.75,38.347,25.775,30.103,30.85,23.52C30.604,23.647,30.366,23.78,30.13,23.916C25.288,30.453,22.421,38.542,22.421,47.303C22.42,56.38,25.504,64.732,30.671,71.391z"/>
  <path opacity="0.1" d="M33.75,47.302C33.75,60.13,42.381,70.936,54.15,74.249C54.64,74.206,55.121,74.156,55.589,74.102C55.59,74.102,55.591,74.102,55.592,74.102C43.369,71.305,34.247,60.373,34.247,47.302C34.247,34.632,42.819,23.969,54.477,20.781C54.471,20.781,54.465,20.78,54.46,20.78C54.018,20.738,53.566,20.699,53.106,20.668C41.877,24.308,33.75,34.853,33.75,47.302z"/>
  <path opacity="0.1" d="M31.75,47.302C31.75,59.34,38.847,69.712,49.08,74.49C49.476,74.484,49.872,74.478,50.258,74.469C39.677,69.984,32.25,59.516,32.25,47.302C32.25,35.416,39.288,25.187,49.416,20.515C49.042,20.509,48.664,20.504,48.28,20.503C38.479,25.438,31.75,35.579,31.75,47.302z"/>
  <linearGradient id="SVGID_5_" gradientUnits="userSpaceOnUse" x1="372.5205" y1="819.3877" x2="372.5205" y2="765.4355" gradientTransform="matrix(1 0 0 1 -329.3203 -744.9199)">
    <stop offset="0" stop-color="#FFFFFF"/>
    <stop offset="1" stop-color="#E6E6E6"/>
  </linearGradient>
  <path opacity="0.15" fill="url(#SVGID_5_)" d="M32.25,47.302C32.25,59.507,39.664,69.983,50.232,74.468C51.605,74.432,52.909,74.36,54.15,74.249C42.379,70.936,33.75,60.13,33.75,47.302C33.75,34.853,41.877,24.308,53.111,20.666C51.929,20.584,50.689,20.535,49.394,20.515C39.275,25.19,32.25,35.422,32.25,47.302z"/>
  <linearGradient id="SVGID_6_" gradientUnits="userSpaceOnUse" x1="373.0205" y1="819.2734" x2="373.0205" y2="765.5098" gradientTransform="matrix(1 0 0 1 -329.3203 -744.9199)">
    <stop offset="0" stop-color="#FFFFFF"/>
    <stop offset="1" stop-color="#FFFFFF" stopOpacity="0"/>
  </linearGradient>
  <path opacity="0.15" fill="url(#SVGID_6_)" d="M33.25,47.302C33.25,59.906,41.438,70.594,52.782,74.354C53.247,74.327,53.702,74.291,54.15,74.25C42.379,70.937,33.75,60.131,33.75,47.303C33.75,34.854,41.877,24.309,53.111,20.667C52.683,20.637,52.248,20.611,51.804,20.59C40.97,24.625,33.25,35.061,33.25,47.302z"/>
  <linearGradient id="SVGID_7_" gradientUnits="userSpaceOnUse" x1="371.1875" y1="819.3877" x2="371.1875" y2="765.4355" gradientTransform="matrix(1 0 0 1 -329.3203 -744.9199)">
    <stop offset="0" stop-color="#FFFFFF" stopOpacity="0"/>
    <stop offset="1" stop-color="#FFFFFF"/>
  </linearGradient>
  <path opacity="0.15" fill="url(#SVGID_7_)" d="M32.25,47.302C32.25,59.507,39.664,69.983,50.232,74.468C50.656,74.457,51.075,74.446,51.484,74.426C40.537,70.279,32.75,59.701,32.75,47.302C32.75,35.253,40.099,24.923,50.559,20.543C50.175,20.531,49.788,20.521,49.395,20.515C39.275,25.19,32.25,35.422,32.25,47.302z"/>
  <g>
    <path opacity="0.15" d="M61.756,31.012C52.546,31.012,45.081,38.52,45.081,47.776C45.081,57.033,52.547,64.54,61.756,64.54C70.965,64.54,78.432,57.033,78.432,47.776C78.432,38.52,70.966,31.012,61.756,31.012zM61.885,62.461C54.143,62.461,47.864,56.184,47.864,48.44C47.864,40.697,54.143,34.418,61.885,34.418C69.629,34.418,75.908,40.698,75.908,48.44C75.908,56.184,69.629,62.461,61.885,62.461z"/>
    <path opacity="0.45" d="M61.756,31.404C52.768,31.404,45.479,38.694,45.479,47.682C45.479,56.669,52.768,63.958,61.756,63.958C70.744,63.958,78.033,56.669,78.033,47.682C78.033,38.693,70.745,31.404,61.756,31.404zM61.756,62.686C53.838,62.686,47.416,56.264,47.416,48.347C47.416,40.43,53.838,34.008,61.756,34.008C69.675,34.008,76.096,40.43,76.096,48.347C76.096,56.264,69.675,62.686,61.756,62.686z"/>
    <path opacity="0.15" d="M68.986,43.083L68.548,43.083L68.548,40.29C68.548,37.546,66.154,35.302,63.411,35.302L60.089,35.302C57.346,35.302,54.952,37.546,54.952,40.29L54.952,43.083L54.514,43.083C53.6041,43.083,52.5801,43.831,52.5801,44.747L52.5801,56.016C52.5801,57.26,53.268,58.052,54.514,58.052L68.987,58.052C70.233,58.052,70.923,57.26,70.923,56.016L70.923,44.747C70.92,43.833,69.896,43.083,68.986,43.083zM58.363,41.465C58.363,40.092,58.962,39.378,60.339,39.378L63.161,39.378C64.538,39.378,65.137,40.092,65.137,41.465L65.137,43.083L58.364,43.083L58.364,41.465L58.363,41.465z"/>
    <path opacity="0.45" d="M68.674,43.288L68.154,43.288L68.154,40.104C68.154,37.566,65.826,35.49,63.288,35.49L60.214,35.49C57.676,35.49,55.348,37.566,55.348,40.104L55.348,43.288L54.827,43.288C53.9821,43.288,53.038,43.98,53.038,44.827L53.038,55.828C53.038,56.672,53.982,57.363,54.827,57.363L68.675,57.363C69.52,57.363,70.464,56.672,70.464,55.828L70.464,44.827C70.463,43.979,69.518,43.288,68.674,43.288zM58.154,40.729C58.154,39.459,58.939,38.798,60.213,38.798L63.287,38.798C64.56,38.798,65.346,39.459,65.346,40.729L65.346,43.288L58.155,43.288L58.155,40.729L58.154,40.729zM62.271,50.436L62.271,53.29L61.228,53.29L61.228,50.436C60.549,50.135,60.201,49.75,60.201,49.297C60.201,48.568,60.687,47.75,61.75,47.75C62.813,47.75,63.299,48.566,63.299,49.297C63.299,49.75,62.948,50.135,62.271,50.436z"/>
    <linearGradient id="SVGID_8_" gradientUnits="userSpaceOnUse" x1="226.4102" y1="-254.1289" x2="226.4102" y2="-222.3945" gradientTransform="matrix(1 0 0 -1 -164.6602 -190.96)">
      <stop offset="0" stop-color="#DADADA"/>
      <stop offset="0.6606" stop-color="#E5E5E5"/>
      <stop offset="1" stop-color="#FFFFFF"/>
    </linearGradient>
    <path fill="url(#SVGID_8_)" d="M61.75,31.435C52.987,31.435,45.883,38.541,45.883,47.302C45.883,56.066,52.987,63.169,61.75,63.169C70.514,63.169,77.618,56.065,77.618,47.302C77.618,38.541,70.512,31.435,61.75,31.435zM61.75,61.325C54.006,61.325,47.729,55.045,47.729,47.302C47.729,39.559,54.006,33.281,61.75,33.281C69.494,33.281,75.773,39.561,75.773,47.302C75.773,55.044,69.493,61.325,61.75,61.325zM68.674,43.538L67.904,43.538L67.904,40.354C67.904,37.816,65.826,35.74,63.288,35.74L60.214,35.74C57.676,35.74,55.598,37.816,55.598,40.354L55.598,43.538L54.827,43.538C53.9821,43.538,53.288,44.23,53.288,45.077L53.288,55.078C53.288,55.922,53.982,56.613,54.827,56.613L68.675,56.613C69.52,56.613,70.214,55.922,70.214,55.078L70.214,45.077C70.213,44.229,69.518,43.538,68.674,43.538zM62.521,50.686L62.521,53.54L60.978,53.54L60.978,50.686C60.3,50.386,59.826,49.709,59.826,48.922C59.826,47.859,60.687,47,61.75,47C62.813,47,63.674,47.858,63.674,48.922C63.674,49.709,63.197,50.386,62.521,50.686zM65.596,43.538L57.905,43.538L57.905,40.354C57.905,39.084,58.94,38.048,60.215,38.048L63.289,38.048C64.561,38.048,65.599,39.084,65.599,40.354L65.599,43.538L65.596,43.538z"/>
    <path fill="#FFFFFF" d="M61.75,61.325C54.143,61.325,47.966,55.222,47.79,47.634C47.787,47.745,47.773,47.853,47.773,47.966C47.773,55.711,54.029,61.989,61.75,61.989C69.471,61.989,75.729,55.711,75.729,47.966C75.729,47.855,75.713,47.746,75.709,47.634C75.535,55.223,69.356,61.325,61.75,61.325zM61.75,31.385C52.987,31.385,45.883,38.513,45.883,47.302C45.883,47.414,45.899,47.523,45.901,47.634C46.078,38.999,53.101,32.048,61.751,32.048C70.402,32.048,77.423,39,77.601,47.634C77.603,47.523,77.619,47.414,77.619,47.302C77.618,38.513,70.512,31.385,61.75,31.385z"/>
  </g>
  <linearGradient id="SVGID_9_" gradientUnits="userSpaceOnUse" x1="3956.4766" y1="6947.1885" x2="3956.4766" y2="6869.0332" gradientTransform="matrix(1 0 0 1 -3908.4766 -6860.4844)">
    <stop offset="0" stop-color="#000000" stopOpacity="0.4"/>
    <stop offset="1" stop-color="#FFFFFF"/>
  </linearGradient>
  <path opacity="0.4" fill="url(#SVGID_9_)" d="M47.997,8.05C18.771,8.05,8.55,17.902,8.55,47.499C8.55,77.102,18.77,86.95,47.997,86.95C77.225,86.95,87.45,77.098,87.45,47.499C87.45,17.902,77.225,8.05,47.997,8.05zM47.999,86C19.215,86,9.5,76.654,9.5,47.495C9.5,18.338,19.215,9,47.999,9C76.779,9,86.5,18.339,86.5,47.496C86.5,76.654,76.777,86,47.999,86z"/>
  <path opacity="0.15" d="M32.917,31.385C32.917,31.385,27.899,30.751,25.137,35.459L17.513,48.417C17.513,48.417,16.083,50.625,18.166,51.834L20.749,53.282L20.749,55.209L18.707,58.918C18.707,58.918,17.332,61.2089,19.582,63.0009C21.832,64.793,23.707,62.729,24.124,61.989C24.124,61.989,24.499,63.831,26.416,64.5409C28.333,65.2509,29.916,63.221,29.916,63.221L31.848,60C31.848,60,33.954,60.041,34.602,58.958L40.06,49.663L42.595,49.663C42.595,49.663,45.177,49.607,45.13,46.492C45.13,46.492,46.211,42.001,42.595,41.771C42.595,41.771,43.038,38.731,41.438,36.625L43.884,35.542C43.884,35.542,44.564,35.125,44.022,34.063C44.022,34.063,43.689,33.5841,43.001,33.8551L40.458,35C40.458,35,38.75,32.37,34.343,31.404L34.093,28.563C34.093,28.563,33.983,28.047,33.35,28.11C32.717,28.173,32.718,28.688,32.718,28.688L32.917,31.385z"/>
  <g>
    <path opacity="0.45" d="M42.345,43.43C43.549,43.54,44.024,43.911,44.852,44.945C45.178,43.881,44.692,42.075,42.661,41.981C42.61,42.273,42.429,43.145,42.345,43.43z"/>
    <path opacity="0.45" d="M29.405,50.805C27.889,50.805,27.013,52.03,27.013,53.231L27.013,56.653L25.176,59.837C24.551,60.92,24.526,62.707,26.192,63.665C27.259,64.28,28.75,63.825,29.384,62.727L31.795,58.553L31.795,53.108C31.795,51.867,30.813,50.805,29.405,50.805z"/>
    <path opacity="0.45" d="M42.517,43.913L34.021,43.913C32.155,43.913,31.598,45.496,31.598,46.678C31.598,47.862,32.822,49.07,34.021,49.07L42.517,49.07C43.718,49.07,44.941,47.862,44.941,46.678C44.94,45.163,44.05,43.913,42.517,43.913z"/>
    <path opacity="0.45" d="M30.94,46.553C30.94,44.775,31.906,43.457,33.711,43.458L38.976,43.458L25.334,35.626L17.849,48.501C17.246,49.548,17.417,50.814,18.68,51.54L21.014,52.902L21.014,55.402L19.177,58.584C18.552,59.667,18.527,61.454,20.193,62.412C21.26,63.027,22.751,62.572,23.385,61.474L25.796,57.299L25.796,55.695L26.361,56.025L26.361,54.02C26.361,51.878,27.68,50.624,29.456,50.624C31.2369,50.624,32.4289,51.962,32.4289,53.77L32.4289,59.166C32.8609,59.08,33.8819,58.819,34.1199,58.409L39.3879,49.274L33.961,49.274C32.491,49.275,30.94,47.999,30.94,46.553z"/>
    <path opacity="0.45" d="M42.109,43.43C42.817,41.137,42.596,38.473,41.146,36.408L43.553,35.268C43.906,35.079,43.999,34.672,43.716,34.125C43.643,33.984,43.215,33.93,43.057,34.003L40.422,35.191C39.66,34.23,38.81,33.504,37.651,32.834C36.494,32.166,35.393,31.749,34.181,31.567L33.938,28.645C33.922,28.472,33.808,28.193,33.378,28.228C32.982,28.26,32.854,28.492,32.867,28.691L33.103,31.498C30.284,31.25,27.393,32.499,25.58,35.094L39.883,43.428L42.109,43.428L42.109,43.43zM33.218,35.551C32.943,36.029,32.331,36.193,31.853,35.917C31.375,35.642,31.21,35.03,31.487,34.552C31.764,34.073,32.375,33.909,32.854,34.185C33.333,34.463,33.494,35.073,33.218,35.551zM38.563,39.791C38.085,39.514,37.92,38.905,38.199,38.426C38.474,37.948,39.084,37.784,39.563,38.059C40.042,38.336,40.204,38.947,39.928,39.425C39.652,39.902,39.04,40.067,38.563,39.791z"/>
  </g>
  <linearGradient id="SVGID_10_" gradientUnits="userSpaceOnUse" x1="360.6895" y1="808.041" x2="360.6895" y2="776.349" gradientTransform="matrix(1 0 0 1 -329.3203 -744.9199)">
    <stop offset="0" stop-color="#DADADA"/>
    <stop offset="0.6606" stop-color="#E5E5E5"/>
    <stop offset="1" stop-color="#FFFFFF"/>
  </linearGradient>
  <path fill="url(#SVGID_10_)" d="M42.04,42.93C42.772,40.629,42.27,38.043,40.771,35.908L43.428,34.643C43.585,34.568,43.657,34.393,43.591,34.25C43.523,34.108,43.341,34.054,43.182,34.128L40.422,35.441C39.66,34.48,38.685,33.629,37.526,32.959C36.369,32.291,35.143,31.874,33.931,31.692L33.688,28.645C33.672,28.472,33.535,28.34,33.378,28.353C33.22,28.365,33.106,28.516,33.117,28.691L33.353,31.623C30.439,31.366,27.653,32.467,26.08,34.719L40.3,42.93L42.04,42.93zM33.218,34.801C32.943,35.279,32.331,35.443,31.853,35.167C31.375,34.892,31.21,34.28,31.487,33.802C31.764,33.323,32.375,33.159,32.854,33.435C33.333,33.713,33.494,34.323,33.218,34.801zM39.927,38.674C39.652,39.152,39.039,39.317,38.562,39.04C38.084,38.763,37.919,38.154,38.198,37.675C38.473,37.197,39.083,37.033,39.562,37.308C40.041,37.586,40.203,38.196,39.927,38.674zM42.595,42.976C43.511,43.06,44.312,43.521,44.852,44.195C44.831,43.068,43.924,42.159,42.786,42.106C42.735,42.398,42.679,42.69,42.595,42.976zM25.563,55.752L21.282,53.281L21.282,55.724L19.445,58.904C18.844,59.945,19.188,61.267,20.212,61.859C21.278,62.472,22.52,62.146,23.154,61.046L25.564,56.872L25.563,55.752L25.563,55.752zM42.517,44.038L34.021,44.038C32.822,44.038,31.848,44.996,31.848,46.178C31.848,47.362,32.822,48.32,34.021,48.32L42.517,48.32C43.718,48.32,44.691,47.362,44.691,46.178C44.69,44.997,43.717,44.038,42.517,44.038zM29.405,50.93C28.222,50.93,27.263,51.905,27.263,53.106L27.263,56.778L25.426,59.962C24.825,61.003,25.168,62.227,26.192,62.816C27.259,63.431,28.5,63.101,29.134,62.003L31.545,57.929L31.545,53.109C31.545,51.867,30.813,50.93,29.405,50.93zM30.69,46.178C30.69,44.4,32.156,42.957,33.961,42.958L37.726,42.958L25.459,35.876L18.099,48.626C17.661,49.386,17.92,50.354,18.68,50.79L26.237,55.152L26.237,53.146C26.237,51.336,27.68,49.875,29.457,49.875C31.238,49.875,32.68,51.338,32.68,53.146L32.68,58.417C33.112,58.331,33.508,58.07,33.746,57.66L38.514,49.4L33.962,49.4C32.157,49.4,30.69,47.958,30.69,46.178z"/>
  <g>
    <path fill="#FFFFFF" d="M42.362,41.035C42.42,39.417,41.942,37.766,41.011,36.293L40.772,36.407C41.765,37.823,42.311,39.438,42.362,41.035z"/>
    <path fill="#FFFFFF" d="M31.854,35.667C32.333,35.943,32.944,35.779,33.219,35.301C33.36,35.056,33.383,34.778,33.311,34.525C33.289,34.619,33.269,34.713,33.218,34.801C32.943,35.279,32.331,35.443,31.853,35.167C31.62,35.032,31.464,34.816,31.395,34.577C31.297,34.995,31.463,35.442,31.854,35.667z"/>
    <path fill="#FFFFFF" d="M38.563,39.541C39.04,39.817,39.653,39.652,39.928,39.175C40.069,38.93,40.092,38.652,40.02,38.4C39.998,38.493,39.978,38.588,39.927,38.675C39.652,39.153,39.039,39.318,38.562,39.041C38.329,38.906,38.174,38.691,38.104,38.452C38.007,38.869,38.172,39.314,38.563,39.541z"/>
    <path fill="#FFFFFF" d="M42.517,44.038L34.021,44.038C32.822,44.038,31.848,44.996,31.848,46.178C31.848,46.264,31.864,46.347,31.874,46.43C32,45.367,32.908,44.537,34.021,44.537L42.517,44.537C43.629,44.537,44.537,45.364,44.665,46.425C44.675,46.342,44.69,46.262,44.69,46.177C44.69,44.997,43.717,44.038,42.517,44.038z"/>
    <path fill="#FFFFFF" d="M30.716,46.431C30.71,46.514,30.691,46.594,30.691,46.679C30.691,48.459,32.157,49.902,33.962,49.902L38.225,49.902L38.514,49.402L33.962,49.402C32.244,49.4,30.85,48.091,30.716,46.431z"/>
    <polygon opacity="0.2" points="21.282,53.781 25.563,56.252 25.563,55.752 21.282,53.281"/>
    <path fill="#FFFFFF" d="M33.355,32.125L33.315,31.624C30.415,31.381,27.648,32.479,26.082,34.721L26.36,34.882C27.968,32.867,30.598,31.881,33.355,32.125z"/>
    <path fill="#FFFFFF" d="M19.445,59.404L21.282,56.224L21.282,55.724L19.445,58.904C19.204,59.324,19.121,59.786,19.168,60.228C19.203,59.948,19.293,59.668,19.445,59.404z"/>
    <path fill="#FFFFFF" d="M29.405,50.93C28.222,50.93,27.263,51.905,27.263,53.106L27.263,56.778L25.426,59.962C25.185,60.38,25.102,60.843,25.149,61.286C25.185,61.005,25.275,60.723,25.426,60.462L27.264,57.278L27.264,53.606C27.264,52.405,28.223,51.43,29.405,51.43C30.813,51.43,31.546,52.368,31.546,53.606L31.546,53.106C31.545,51.867,30.813,50.93,29.405,50.93z"/>
    <rect x="32.677" y="53.645" fill="#FFFFFF" width="0.005" height="4.774"/>
    <path fill="#FFFFFF" d="M33.379,28.854C33.536,28.841,33.674,28.973,33.69,29.146L33.932,32.193C35.145,32.374,36.37,32.791,37.528,33.46C38.686,34.13,39.661,34.981,40.424,35.942L43.184,34.629C43.274,34.587,43.365,34.595,43.445,34.628C43.587,34.547,43.656,34.387,43.5929,34.251C43.525,34.109,43.3429,34.055,43.1839,34.129L40.424,35.442C39.662,34.481,38.687,33.63,37.528,32.96C36.371,32.292,35.145,31.875,33.933,31.693L33.69,28.646C33.674,28.473,33.537,28.341,33.38,28.354C33.222,28.366,33.108,28.517,33.119,28.692L33.151,29.085C33.183,28.964,33.258,28.863,33.379,28.854z"/>
    <path fill="#FFFFFF" d="M18.099,49.126L25.459,36.376L36.86,42.958L37.725,42.958L25.458,35.876L18.098,48.626C17.91,48.953,17.857,49.316,17.911,49.663C17.942,49.479,18,49.297,18.099,49.126z"/>
    <path fill="#FFFFFF" d="M42.595,42.976C42.631,42.979,42.664,42.992,42.7,42.997C42.727,42.866,42.763,42.737,42.785,42.606C43.705,42.649,44.464,43.254,44.737,44.078C44.773,44.119,44.817,44.153,44.851,44.195C44.83,43.068,43.923,42.159,42.785,42.106C42.735,42.398,42.679,42.69,42.595,42.976z"/>
  </g>
  <g>
    <rect x="60.979" y="53.539" fill="#FFFFFF" width="1.543" height="0.75"/>
    <path fill="#FFFFFF" d="M62.521,50.686L62.521,51.436C63.197,51.136,63.671,50.459,63.671,49.672C63.671,49.526,63.651,49.389,63.621,49.25C63.512,49.893,63.1,50.43,62.521,50.686z"/>
    <path fill="#FFFFFF" d="M60.213,36.489L63.287,36.489C65.825,36.489,67.904,38.565,67.904,41.103L67.904,40.353C67.904,37.815,65.825,35.739,63.287,35.739L60.213,35.739C57.675,35.739,55.596,37.815,55.596,40.353L55.596,41.103C55.596,38.565,57.675,36.489,60.213,36.489z"/>
    <path fill="#FFFFFF" d="M54.826,44.288L55.596,44.288L55.596,43.538L54.826,43.538C53.982,43.538,53.287,44.23,53.287,45.077L53.287,45.827C53.287,44.979,53.982,44.288,54.826,44.288z"/>
    <path fill="#FFFFFF" d="M60.979,51.436L60.979,50.686C60.401,50.43,59.992,49.893,59.876,49.25C59.846,49.389,59.826,49.525,59.826,49.672C59.826,50.459,60.303,51.136,60.979,51.436z"/>
    <rect x="57.904" y="43.538" fill="#FFFFFF" width="7.691" height="0.75"/>
    <path fill="#FFFFFF" d="M68.674,43.538L67.904,43.538L67.904,44.288L68.674,44.288C69.518,44.288,70.163,44.881,70.163,45.727L70.213,45.077C70.213,44.229,69.518,43.538,68.674,43.538z"/>
  </g>
</svg>
