<?xml version="1.0" encoding="utf-8"?>
<!-- Generator: Adobe Illustrator 17.0.1, SVG Export Plug-In . SVG Version: 6.00 Build 0)  -->
<!DOCTYPE svg PUBLIC "-//W3C//DTD SVG 1.1//EN" "http://www.w3.org/Graphics/SVG/1.1/DTD/svg11.dtd">
<svg version="1.1" id="Слой_1" xmlns="http://www.w3.org/2000/svg" xmlns:xlink="http://www.w3.org/1999/xlink" x="0px" y="0px"
	 width="30px" height="30px" viewBox="0 0 30 30" enable-background="new 0 0 30 30" xml:space="preserve">
<rect fill="none" width="30" height="30"/>
<rect fill="none" width="30" height="30"/>
<path fill-opacity="0.3" d="M7.17,24.396c-0.578,0.58-0.578,1.528,0,2.106l1.054,1.051c0.58,0.577,1.525,0.577,2.104,0l12.5-12.501
	c0.579-0.578,0.579-1.525,0-2.103l-12.5-12.5c-0.578-0.579-1.523-0.579-2.104,0L7.17,1.502c-0.578,0.579-0.578,1.525,0,2.104
	l9.345,9.344c0.58,0.578,0.58,1.525,0,2.103L7.17,24.396z"/>
<path fill-opacity="0.15" d="M9.277,29.985c-0.664,0-1.289-0.256-1.758-0.724L6.465,28.21c-0.97-0.97-0.97-2.549,0-3.521
	l9.345-9.344c0.123-0.123,0.142-0.269,0.142-0.344s-0.019-0.221-0.144-0.346L6.462,5.312c-0.969-0.97-0.968-2.547,0.001-3.517
	l1.054-1.053c0.469-0.469,1.094-0.727,1.76-0.727s1.291,0.258,1.759,0.727l12.5,12.5c0.47,0.468,0.728,1.093,0.728,1.759
	c0.002,0.666-0.258,1.291-0.727,1.759L11.036,29.261C10.568,29.729,9.943,29.985,9.277,29.985L9.277,29.985z"/>
<path fill-opacity="0.15" d="M7.17,25.396c-0.578,0.58-0.578,1.528,0,2.106l1.054,1.051c0.58,0.577,1.525,0.577,2.104,0l12.5-12.501
	c0.579-0.578,0.579-1.525,0-2.103l-12.5-12.5c-0.578-0.579-1.523-0.579-2.104,0L7.17,2.502c-0.578,0.579-0.578,1.524,0,2.104
	l9.345,9.344c0.58,0.578,0.58,1.525,0,2.103L7.17,25.396z"/>
<linearGradient id="SVGID_1_" gradientUnits="userSpaceOnUse" x1="6.4865" y1="15.0002" x2="23.0122" y2="15.0002">
	<stop  offset="0" style="stop-color:#FFFFFF"/>
	<stop  offset="1" style="stop-color:#000000"/>
</linearGradient>
<path fill="url(#SVGID_1_)" d="M7.17,25.396c-0.578,0.58-0.578,1.528,0,2.106l1.054,1.051c0.58,0.577,1.525,0.577,2.104,0
	l12.5-12.501c0.579-0.578,0.579-1.525,0-2.103l-12.5-12.5c-0.578-0.579-1.523-0.579-2.104,0L7.17,2.502
	c-0.578,0.579-0.578,1.524,0,2.104l9.345,9.344c0.58,0.578,0.58,1.525,0,2.103L7.17,25.396z"/>
<rect fill="none" width="30" height="30"/>
</svg>
