<?xml version="1.0" encoding="utf-8"?>
<!-- Generator: Adobe Illustrator 17.0.1, SVG Export Plug-In . SVG Version: 6.00 Build 0)  -->
<!DOCTYPE svg PUBLIC "-//W3C//DTD SVG 1.1//EN" "http://www.w3.org/Graphics/SVG/1.1/DTD/svg11.dtd">
<svg version="1.1" id="Слой_1" xmlns="http://www.w3.org/2000/svg" xmlns:xlink="http://www.w3.org/1999/xlink" x="0px" y="0px"
	 width="266px" height="266px" viewBox="0 0 266 266" enable-background="new 0 0 266 266" xml:space="preserve">
<linearGradient id="SVGID_1_" gradientUnits="userSpaceOnUse" x1="1491.8925" y1="2426.03" x2="1491.8925" y2="2159.5205" gradientTransform="matrix(1 0 0 1 -1359.1393 -2159.5205)">
	<stop  offset="0" style="stop-color:#CFCAC4"/>
	<stop  offset="1" style="stop-color:#EAE9E4"/>
</linearGradient>
<path fill="url(#SVGID_1_)" d="M132.725,0C59.419,0,0,59.654,0,133.264C0,206.852,59.419,266.51,132.729,266.51
	c73.358,0,132.778-59.657,132.778-133.246C265.503,59.664,206.076,0,132.725,0z M132.725,259.496
	C63.29,259.496,6.99,202.974,6.99,133.264c0-69.725,56.296-126.24,125.735-126.24c69.48,0,125.791,56.515,125.791,126.24
	C258.516,202.971,202.206,259.496,132.725,259.496z"/>
<linearGradient id="SVGID_2_" gradientUnits="userSpaceOnUse" x1="1669.6061" y1="-2398.4512" x2="1669.6061" y2="-2132.5107" gradientTransform="matrix(1 0 0 -1 -1536.7389 -2132.5107)">
	<stop  offset="0" style="stop-color:#FFFFFF"/>
	<stop  offset="1" style="stop-color:#FFFFFF"/>
</linearGradient>
<path fill="url(#SVGID_2_)" d="M132.842,0C59.598,0,0.228,59.523,0.228,132.974c0,73.432,59.363,132.967,132.614,132.967
	c73.287,0,132.665-59.531,132.665-132.967C265.506,59.523,206.129,0,132.842,0z M132.842,264.119
	c-72.226,0-130.789-58.722-130.789-131.145c0-72.438,58.559-131.16,130.789-131.16c72.274,0,130.848,58.722,130.848,131.16
	C263.689,205.397,205.115,264.119,132.842,264.119z"/>
</svg>
