<?xml version="1.0" encoding="utf-8"?>
<!-- Generator: Adobe Illustrator 17.0.1, SVG Export Plug-In . SVG Version: 6.00 Build 0)  -->
<!DOCTYPE svg PUBLIC "-//W3C//DTD SVG 1.1//EN" "http://www.w3.org/Graphics/SVG/1.1/DTD/svg11.dtd">
<svg version="1.1" id="Слой_1" xmlns="http://www.w3.org/2000/svg" xmlns:xlink="http://www.w3.org/1999/xlink" x="0px" y="0px"
	 width="85px" height="85px" viewBox="0 0 85 85" enable-background="new 0 0 85 85" xml:space="preserve">
<g>
	<path opacity="0.15" fill="#010101" enable-background="new    " d="M60.735,34.159h-1.113v-7.037
		c0-6.915-6.034-12.569-12.952-12.569h-8.366c-6.91,0-12.939,5.655-12.939,12.569v7.037h-1.106c-2.295,0-4.871,1.885-4.871,4.193
		v25.338c0,4.715,1.733,6.758,4.87,6.758h36.479c3.142,0,4.877-2.043,4.877-6.758V38.352C65.603,36.053,63.024,34.159,60.735,34.159
		z M33.955,29.491c0-3.459,1.509-5.259,4.977-5.259h7.108c3.468,0,4.981,1.797,4.981,5.259v4.668H33.952v-4.069L33.955,29.491
		L33.955,29.491z"/>
	<path opacity="0.25" fill="#010101" enable-background="new    " d="M59.948,34.464h-1.291v-7.827
		c0-6.238-6.155-11.337-12.389-11.337h-7.556c-6.239,0-12.392,5.1-12.392,11.337v7.827H25.04c-2.073,0-4.396,1.702-4.396,3.784
		v25.598c0,2.454,1.983,5.208,4.83,5.208H59.51c2.851,0,4.833-2.758,4.833-5.208V38.245C64.345,36.158,62.021,34.464,59.948,34.464z
		 M34.085,28.21c0-2.966,1.836-4.51,4.81-4.51h7.186c2.975,0,4.807,1.544,4.807,4.51v5.983H34.085V28.21L34.085,28.21z
		 M43.766,52.029v7.013h-2.562v-7.013c-1.668-0.739-2.525-1.686-2.525-2.798c0-1.794,1.194-3.805,3.808-3.805
		s3.808,2.006,3.808,3.805C46.293,50.342,45.428,51.289,43.766,52.029z"/>
	
		<linearGradient id="SVGID_1_" gradientUnits="userSpaceOnUse" x1="1434.1322" y1="2211.2048" x2="1434.1322" y2="2131.3765" gradientTransform="matrix(1 0 0 1 -1391.6393 -2127.0205)">
		<stop  offset="0" style="stop-color:#CFCAC4"/>
		<stop  offset="1" style="stop-color:#EAE9E4"/>
	</linearGradient>
	<path fill="url(#SVGID_1_)" d="M46.109,16.84h-7.249c-5.982,0-10.88,4.895-10.88,10.877v7.51h-1.817
		c-1.992,0-3.627,1.628-3.627,3.633v23.577c0,1.993,1.634,3.626,3.627,3.626h32.65c2.001,0,3.636-1.625,3.636-3.626V38.861
		c-0.001-2.002-1.637-3.633-3.637-3.633h-1.821v-7.51C56.992,21.736,52.091,16.84,46.109,16.84z M44.299,52.081v6.73h-3.633v-6.73
		c-1.597-0.707-2.714-2.303-2.714-4.158c0-2.502,2.029-4.529,4.533-4.529c2.507,0,4.537,2.023,4.537,4.529
		C47.018,49.779,45.896,51.376,44.299,52.081z M33.415,35.228v-7.51c0-2.996,2.438-5.437,5.443-5.437h7.249
		c2.999,0,5.444,2.441,5.444,5.437l0.001,7.51H33.415z"/>
	<path fill="#FFFFFF" d="M40.676,60.551h3.619v-1.76h-3.619C40.676,58.791,40.676,60.551,40.676,60.551z M44.294,52.098v1.765
		c1.59-0.711,2.699-2.295,2.699-4.14c0-0.344-0.046-0.664-0.118-0.99C46.617,50.238,45.653,51.5,44.294,52.098z M56.92,27.656
		c0-5.952-4.88-10.816-10.826-10.816h-7.212c-5.953,0-10.829,4.866-10.829,10.816v1.759c0-5.952,4.876-10.816,10.829-10.816h7.212
		c5.946,0,10.826,4.866,10.826,10.816V27.656z M22.538,38.856v1.76c0-1.988,1.639-3.612,3.63-3.612h1.813v-1.76h-1.811
		C24.179,35.252,22.538,36.873,22.538,38.856z M40.676,52.098c-1.355-0.599-2.315-1.86-2.581-3.366
		c-0.071,0.321-0.119,0.646-0.119,0.99c0,1.847,1.118,3.431,2.702,4.14v-1.765H40.676z M33.424,37.012h18.13v-1.76h-18.13V37.012z
		 M58.814,35.252h-1.819v1.76h1.819c1.998,0,3.634,1.622,3.634,3.612v-1.765C62.448,36.87,60.813,35.252,58.814,35.252z"/>
</g>
</svg>
