<?xml version="1.0" encoding="utf-8"?>
<!-- Generator: Adobe Illustrator 17.0.1, SVG Export Plug-In . SVG Version: 6.00 Build 0)  -->
<!DOCTYPE svg PUBLIC "-//W3C//DTD SVG 1.1//EN" "http://www.w3.org/Graphics/SVG/1.1/DTD/svg11.dtd">
<svg version="1.1" id="Слой_1" xmlns="http://www.w3.org/2000/svg" xmlns:xlink="http://www.w3.org/1999/xlink" x="0px" y="0px"
	 width="85px" height="85px" viewBox="0 0 85 85" enable-background="new 0 0 85 85" xml:space="preserve">
<path opacity="0.1" fill="#010101" enable-background="new    " d="M42.493,0.5C19.297,0.5,0.5,19.302,0.5,42.505
	c0,23.2,18.797,41.995,41.993,41.995C65.699,84.5,84.5,65.705,84.5,42.505C84.5,19.304,65.702,0.5,42.493,0.5z M42.493,76.298
	c-18.66,0-33.79-15.13-33.79-33.794c0-18.664,15.129-33.796,33.79-33.796c18.673,0,33.806,15.132,33.806,33.796
	S61.166,76.298,42.493,76.298z"/>
<path opacity="0.15" fill="#010101" enable-background="new    " d="M42.493,1.088c-22.641,0-40.991,18.356-40.991,41.003
	c0,22.64,18.35,40.993,40.991,40.993c22.658,0,41.007-18.354,41.007-40.993C83.5,19.445,65.15,1.088,42.493,1.088z M42.493,76.576
	c-19.041,0-34.48-15.444-34.48-34.486S23.453,7.603,42.493,7.603c19.056,0,34.498,15.444,34.498,34.486
	C76.989,61.133,61.549,76.576,42.493,76.576z"/>
<path opacity="0.25" fill="#010101" enable-background="new    " d="M42.493,1.674c-22.088,0-39.991,17.908-39.991,40.003
	c0,22.091,17.903,39.997,39.991,39.997c22.102,0,40.007-17.906,40.007-39.997C82.501,19.581,64.596,1.674,42.493,1.674z
	 M42.493,76.854c-19.425,0-35.17-15.752-35.17-35.179c0-19.426,15.745-35.173,35.17-35.173c19.439,0,35.184,15.75,35.184,35.173
	C77.677,61.103,61.932,76.854,42.493,76.854z"/>
<linearGradient id="SVGID_1_" gradientUnits="userSpaceOnUse" x1="1356.5798" y1="2132.5374" x2="1356.5798" y2="2056.5344" gradientTransform="matrix(1 0 0 1 -1314.0789 -2053.5508)">
	<stop  offset="0" style="stop-color:#FFFFFF"/>
	<stop  offset="1" style="stop-color:#FFFFFF"/>
</linearGradient>
<path fill="url(#SVGID_1_)" d="M42.493,2.984C21.509,2.984,4.5,19.996,4.5,40.988c0,20.986,17.009,37.999,37.994,37.999
	c20.999,0,38.008-17.013,38.008-37.999C80.501,19.998,63.49,2.984,42.493,2.984z M42.493,78.486
	c-20.707,0-37.494-16.791-37.494-37.499c0-20.711,16.787-37.503,37.494-37.503c20.717,0,37.508,16.791,37.508,37.503
	S63.21,78.486,42.493,78.486z"/>
<linearGradient id="SVGID_2_" gradientUnits="userSpaceOnUse" x1="1356.5789" y1="2131.0376" x2="1356.5789" y2="2058.0369" gradientTransform="matrix(1 0 0 1 -1314.0789 -2053.5508)">
	<stop  offset="0" style="stop-color:#FFFFFF"/>
	<stop  offset="1" style="stop-color:#FFFFFF"/>
</linearGradient>
<path fill="url(#SVGID_2_)" d="M42.493,4.486c-20.156,0-36.494,16.339-36.494,36.501c0,20.157,16.336,36.499,36.494,36.499
	c20.168,0,36.508-16.341,36.508-36.499C79.001,20.825,62.661,4.486,42.493,4.486z M42.493,76.986
	c-19.876,0-35.992-16.119-35.992-35.999c0-19.884,16.115-36.003,35.992-36.003c19.889,0,36.008,16.119,36.008,36.003
	C78.501,60.867,62.382,76.986,42.493,76.986z"/>
<g>
	<path opacity="0.15" fill="#010101" enable-background="new    " d="M55.324,36.633h-0.783v-4.949c0-4.863-4.244-8.84-9.109-8.84
		h-5.884c-4.86,0-9.1,3.977-9.1,8.84v4.949H29.67c-1.614,0-3.426,1.326-3.426,2.949v17.82c0,3.316,1.219,4.753,3.425,4.753h25.656
		c2.21,0,3.43-1.437,3.43-4.753v-17.82C58.748,37.965,56.934,36.633,55.324,36.633z M36.49,33.35c0-2.433,1.061-3.699,3.5-3.699
		h4.999c2.439,0,3.503,1.264,3.503,3.699v3.283H36.488v-2.862L36.49,33.35L36.49,33.35z"/>
	<path opacity="0.25" fill="#010101" enable-background="new    " d="M54.771,36.848h-0.908v-5.505c0-4.387-4.329-7.973-8.713-7.973
		h-5.314c-4.388,0-8.715,3.587-8.715,7.973v5.505h-0.901c-1.458,0-3.092,1.197-3.092,2.661v18.003c0,1.726,1.395,3.663,3.397,3.663
		h23.938c2.005,0,3.399-1.94,3.399-3.663V39.507C57.863,38.039,56.229,36.848,54.771,36.848z M36.581,32.449
		c0-2.086,1.291-3.172,3.383-3.172h5.054c2.092,0,3.381,1.086,3.381,3.172v4.208H36.581V32.449L36.581,32.449z M43.39,49.201v4.932
		h-1.802v-4.932c-1.173-0.52-1.776-1.186-1.776-1.968c0-1.262,0.84-2.676,2.678-2.676c1.838,0,2.678,1.411,2.678,2.676
		C45.167,48.015,44.559,48.681,43.39,49.201z"/>
	
		<linearGradient id="SVGID_3_" gradientUnits="userSpaceOnUse" x1="1178.9738" y1="-1735.3766" x2="1178.9738" y2="-1679.2333" gradientTransform="matrix(1 0 0 -1 -1136.4792 -1663.5604)">
		<stop  offset="0" style="stop-color:#CFCAC4"/>
		<stop  offset="1" style="stop-color:#EAE9E4"/>
	</linearGradient>
	<path fill="url(#SVGID_3_)" d="M45.038,24.453H39.94c-4.207,0-7.652,3.443-7.652,7.65v5.282H31.01
		c-1.401,0-2.551,1.145-2.551,2.555v16.582c0,1.402,1.149,2.55,2.551,2.55h22.963c1.407,0,2.557-1.143,2.557-2.55V39.94
		c-0.001-1.408-1.151-2.555-2.558-2.555h-1.281v-5.282C52.692,27.896,49.245,24.453,45.038,24.453z M43.765,49.238v4.733H41.21
		v-4.733c-1.123-0.497-1.909-1.62-1.909-2.924c0-1.76,1.427-3.185,3.188-3.185c1.763,0,3.191,1.423,3.191,3.185
		C45.677,47.619,44.888,48.742,43.765,49.238z M36.11,37.385v-5.282c0-2.107,1.715-3.824,3.828-3.824h5.098
		c2.109,0,3.829,1.717,3.829,3.824l0.001,5.282H36.11z"/>
	<path fill="#FFFFFF" d="M41.217,55.195h2.545v-1.238h-2.545V55.195z M43.761,49.25v1.241c1.118-0.5,1.898-1.614,1.898-2.912
		c0-0.242-0.032-0.467-0.083-0.696C45.395,47.942,44.717,48.829,43.761,49.25z M52.641,32.06c0-4.186-3.432-7.607-7.614-7.607
		h-5.072c-4.187,0-7.616,3.422-7.616,7.607v1.237c0-4.186,3.429-7.607,7.616-7.607h5.072c4.182,0,7.614,3.422,7.614,7.607
		C52.641,33.297,52.641,32.06,52.641,32.06z M28.46,39.937v1.238c0-1.398,1.153-2.54,2.553-2.54h1.275v-1.238h-1.274
		C29.614,37.402,28.46,38.542,28.46,39.937z M41.217,49.25c-0.953-0.421-1.628-1.308-1.815-2.367
		c-0.05,0.226-0.084,0.454-0.084,0.696c0,1.299,0.786,2.413,1.9,2.912V49.25z M36.116,38.64h12.751v-1.238H36.116V38.64z
		 M53.973,37.402h-1.279v1.238h1.279c1.405,0,2.556,1.141,2.556,2.54v-1.241C56.529,38.54,55.379,37.402,53.973,37.402z"/>
</g>
<linearGradient id="SVGID_4_" gradientUnits="userSpaceOnUse" x1="1178.9783" y1="-1743.2356" x2="1178.9783" y2="-1667.2328" gradientTransform="matrix(1 0 0 -1 -1136.4792 -1663.5604)">
	<stop  offset="0" style="stop-color:#CFCAC4"/>
	<stop  offset="1" style="stop-color:#EAE9E4"/>
</linearGradient>
<path fill="url(#SVGID_4_)" d="M42.491,3.672c-20.984,0-37.993,17.012-37.993,38.004c0,20.986,17.009,37.999,37.994,37.999
	c20.999,0,38.008-17.013,38.008-37.999C80.499,20.687,63.488,3.672,42.491,3.672z M42.491,77.675
	c-19.876,0-35.992-16.119-35.992-35.999c0-19.884,16.115-36.001,35.992-36.001c19.889,0,36.008,16.117,36.008,36.001
	C78.499,61.555,62.38,77.675,42.491,77.675z"/>
</svg>
