<?xml version="1.0" encoding="utf-8"?>
<!-- Generator: Adobe Illustrator 17.0.1, SVG Export Plug-In . SVG Version: 6.00 Build 0)  -->
<!DOCTYPE svg PUBLIC "-//W3C//DTD SVG 1.1//EN" "http://www.w3.org/Graphics/SVG/1.1/DTD/svg11.dtd">
<svg version="1.1" id="Слой_1" xmlns="http://www.w3.org/2000/svg" xmlns:xlink="http://www.w3.org/1999/xlink" x="0px" y="0px"
	 width="85px" height="85px" viewBox="0 0 85 85" enable-background="new 0 0 85 85" xml:space="preserve">
<g>
	<path opacity="0.1" fill="#010101" enable-background="new    " d="M42.506,0.5C19.298,0.5,0.5,19.301,0.5,42.497
		C0.5,65.696,19.301,84.5,42.506,84.5C65.701,84.5,84.5,65.696,84.5,42.497C84.5,19.299,65.702,0.5,42.506,0.5z"/>
	<path opacity="0.15" fill="#010101" enable-background="new    " d="M42.504,38.404c-3.909,0-5.727,2.9-5.727,5.722
		c0,1.894,1.038,4.502,2.386,5.098v6.219h6.517v-6.219c1.798-0.798,2.552-3.005,2.552-5.098
		C48.231,41.308,46.416,38.404,42.504,38.404z M42.506,1.129c-22.628,0-40.958,18.33-40.958,40.945
		c0,22.617,18.329,40.953,40.956,40.953c22.618,0,40.944-18.334,40.944-40.953C83.449,19.459,65.12,1.129,42.506,1.129z
		 M56.778,53.461c0,1.766-0.437,3.215-2.197,3.215H31.44c-1.764,0-3.209-1.04-3.209-2.808V38.988c0-1.316,0.084-2.396,1.846-2.396
		h2.251V27.08c0-4.387,3.841-6.392,7.787-6.392h5.598c3.94,0,6.922,1.836,6.922,6.219v1.132h-1.182v-1.132
		c0-3.196-2.083-5.43-5.738-5.43H38.69c-3.11,0-5.333,2.951-5.333,5.6v9.513h21.568c1.756,0,1.857,0.623,1.857,2.396L56.778,53.461
		L56.778,53.461z"/>
	<path opacity="0.25" fill="#010101" enable-background="new    " d="M42.504,38.88c-2.757,0-4.986,2.228-4.986,4.98
		c0,1.847,1.01,3.989,2.322,4.571v6.065h5.165v-6.065c1.747-0.779,2.486-2.534,2.486-4.571C47.49,41.104,45.257,38.88,42.504,38.88z
		 M42.506,1.55c-22.047,0-39.908,17.859-39.908,39.895c0,22.042,17.859,39.905,39.906,39.905c22.034,0,39.894-17.861,39.894-39.905
		C82.4,19.408,64.54,1.55,42.506,1.55z M57.415,54.155c0,1.724-1.415,3.137-3.129,3.137H30.729c-1.72,0-3.134-1.411-3.134-3.137
		V38.448c0-1.281,0.082-3.133,1.8-3.133h2.4V26.84c0-4.28,3.741-7.23,7.588-7.23h6.257c3.836,0,7.739,2.784,7.739,7.062v1.926H50.84
		v-1.926c0-2.585-2.165-4.695-5.2-4.695h-6.257c-3.035,0-5.202,2.281-5.202,4.863v8.475h21.423c1.714,0,1.809,1.404,1.809,3.133
		v15.707C57.413,54.155,57.415,54.155,57.415,54.155z"/>
	
		<linearGradient id="SVGID_1_" gradientUnits="userSpaceOnUse" x1="923.8192" y1="1448.7252" x2="923.8192" y2="1373.1239" gradientTransform="matrix(1 0 0 1 -881.3192 -1370.1005)">
		<stop  offset="0" style="stop-color:#D0CBC5"/>
		<stop  offset="1" style="stop-color:#EBEAE5"/>
	</linearGradient>
	<path fill="url(#SVGID_1_)" d="M42.504,39.733c-2.056,0-3.717,1.659-3.717,3.711c0,1.522,0.92,2.829,2.229,3.41v5.506h2.978v-5.507
		c1.308-0.582,2.229-1.886,2.229-3.41C46.217,41.391,44.559,39.733,42.504,39.733z M42.506,3.023
		C21.619,3.023,4.7,19.942,4.7,40.817c0,20.881,16.921,37.808,37.806,37.808c20.875,0,37.794-16.927,37.794-37.808
		C80.3,19.94,63.381,3.023,42.506,3.023z M58.845,55.334c0,1.629-1.342,2.971-2.972,2.971H29.125c-1.636,0-2.972-1.34-2.972-2.971
		V36.023c0-1.635,1.336-2.973,2.972-2.973h1.491v-6.148c0-4.899,4.021-8.91,8.923-8.91h5.933c4.895,0,8.917,4.011,8.917,8.91v2.142
		h-4.456v-2.142c0-2.453-2.001-4.456-4.463-4.456h-5.931c-2.464,0-4.469,2.001-4.469,4.456v6.148h20.8
		c1.626,0,2.972,1.333,2.972,2.973v19.312H58.845z"/>
	
		<linearGradient id="SVGID_2_" gradientUnits="userSpaceOnUse" x1="923.8192" y1="1448.7252" x2="923.8192" y2="1373.1239" gradientTransform="matrix(1 0 0 1 -881.3192 -1370.1005)">
		<stop  offset="0" style="stop-color:#FFFFFF"/>
		<stop  offset="1" style="stop-color:#FFFFFF"/>
	</linearGradient>
	<path fill="url(#SVGID_2_)" d="M42.506,3.023C21.619,3.023,4.7,19.942,4.7,40.817c0,20.881,16.921,37.808,37.806,37.808
		c20.875,0,37.794-16.927,37.794-37.808C80.3,19.94,63.381,3.023,42.506,3.023z M42.506,76.523
		c-19.727,0-35.708-15.976-35.708-35.706c0-19.715,15.98-35.695,35.706-35.695c19.714,0,35.693,15.98,35.693,35.695
		C78.2,60.547,62.222,76.523,42.506,76.523z"/>
	<path fill="#FFFFFF" d="M56,32.619H35.639v-4.843c0-3.83,3.623-3.523,3.623-3.523h6.468c3.237,0,3.493,2.724,3.493,2.724v3.933
		h5.671v-3.847c-0.046-5.057-4.135-9.534-9.675-9.534h-4.853c-9.795,0.086-10.218,8.937-10.218,8.937l-0.084,6.155h-0.952
		c-3.419,0.028-3.582,3.135-3.582,3.135s-0.017,15.713,0,19.812c0.017,4.099,3.582,4.092,3.582,4.092s23.853,0,26.917,0
		c3.069,0,3.444-4,3.444-4s0-16.257,0-19.575C59.471,34.307,58.171,32.715,56,32.619z M58.845,55.334
		c0,1.629-1.342,2.971-2.972,2.971H29.125c-1.636,0-2.972-1.34-2.972-2.971V36.023c0-1.635,1.336-2.973,2.972-2.973h1.491v-6.148
		c0-4.899,4.021-8.91,8.923-8.91h5.933c4.895,0,8.917,4.011,8.917,8.91v2.142h-4.456v-2.142c0-2.453-2.001-4.456-4.463-4.456h-5.931
		c-2.464,0-4.469,2.001-4.469,4.456v6.148h20.8c1.626,0,2.972,1.333,2.972,2.973v19.312H58.845z"/>
	<path fill="#FFFFFF" d="M42.504,40.755c1.844,0,3.36,1.34,3.652,3.099c0.015-0.139,0.059-0.267,0.059-0.411
		c0-2.052-1.661-3.711-3.715-3.711s-3.719,1.659-3.719,3.711c0,0.143,0.046,0.273,0.061,0.411
		C39.136,42.097,40.66,40.755,42.504,40.755z"/>
</g>
</svg>
