<?xml version="1.0" encoding="UTF-8"?>
<!DOCTYPE svg PUBLIC "-//W3C//DTD SVG 1.1 Tiny//EN" "http://www.w3.org/Graphics/SVG/1.1/DTD/svg11-tiny.dtd">
<svg baseProfile="tiny" height="96px" version="1.1" viewBox="0 0 96 96" width="96px" x="0px" xmlns="http://www.w3.org/2000/svg" xmlns:xlink="http://www.w3.org/1999/xlink" y="0px">
<rect fill="none" height="96" width="96"/>
<path d="M88,49c0,29.633-10.363,40-40,40C18.365,89,8,78.633,8,49C8,19.366,18.365,9,48,9C77.637,9,88,19.366,88,49z" fill-opacity="0.4" stroke-opacity="0.4"/>
<linearGradient gradientUnits="userSpaceOnUse" id="SVGID_1_" x1="47.9995" x2="47.9995" y1="8.5454" y2="89.2398">
<stop offset="0" style="stop-color:#A1B2C0"/>
<stop offset="1" style="stop-color:#3D465B"/>
</linearGradient>
<path d="M88,48c0,29.632-10.363,40-40,40C18.365,88,8,77.633,8,48C8,18.366,18.365,8,48,8  C77.637,8,88,18.366,88,48z" fill="url(#SVGID_1_)"/>
<linearGradient gradientUnits="userSpaceOnUse" id="SVGID_2_" x1="47.9995" x2="47.9995" y1="8.5454" y2="89.2398">
<stop offset="0" style="stop-color:#FFFFFF"/>
<stop offset="1" style="stop-color:#FFFFFF;stop-opacity:0"/>
</linearGradient>
<path d="M48,8C18.365,8,8,18.366,8,48c0,29.632,10.365,40,40,40c29.637,0,40-10.367,40-40  C88,18.366,77.637,8,48,8z M48,87C18.842,87,9,77.158,9,48C9,18.842,18.842,9,48,9c29.16,0,39,9.841,39,39C87,77.158,77.16,87,48,87  z" fill="url(#SVGID_2_)" fill-opacity="0.25" stroke-opacity="0.25"/>
<radialGradient cx="165.707" cy="-826.2358" gradientTransform="matrix(0.7071 -0.7071 0.198 0.198 115.4226 349.7662)" gradientUnits="userSpaceOnUse" id="SVGID_3_" r="24.5071">
<stop offset="0" style="stop-color:#FFFFFF;stop-opacity:0.16"/>
<stop offset="0.8" style="stop-color:#FFFFFF;stop-opacity:0.02"/>
<stop offset="1" style="stop-color:#FFFFFF;stop-opacity:0"/>
</radialGradient>
<path d="M86.33,51.672c2.68,2.68-2.906,12.609-12.477,22.182  c-9.572,9.57-19.502,15.154-22.182,12.477c-2.68-2.68,2.906-12.611,12.477-22.182S83.648,48.992,86.33,51.672z" fill="url(#SVGID_3_)" fill-opacity="0.85"/>
<radialGradient cx="73.54" cy="73.0977" gradientUnits="userSpaceOnUse" id="SVGID_4_" r="38.086">
<stop offset="0" style="stop-color:#A1B2C0"/>
<stop offset="1" style="stop-color:#3D465B"/>
</radialGradient>
<path d="M47.08,87.986C74.799,87.742,87.258,76.029,88,49.209C80.322,78.486,49.35,87.48,47.08,87.986z" fill="url(#SVGID_4_)"/>
<linearGradient gradientUnits="userSpaceOnUse" id="SVGID_5_" x1="78.4619" x2="71.7712" y1="79.543" y2="72.8523">
<stop offset="0" style="stop-color:#FFFFFF"/>
<stop offset="1" style="stop-color:#6D6E70"/>
</linearGradient>
<path d="M49.08,87.986c27.719-0.244,38.131-9.957,38.873-36.777C80.275,80.486,51.35,87.48,49.08,87.986z" fill="url(#SVGID_5_)"/>
<path d="M49.08,87.986c27.719-0.244,38.131-9.957,38.873-36.777C85,79,70,85,49.08,87.986z" fill="#231F20" fill-opacity="0.34"/>
<path d="M45.244,79.078c-1.1,0-6.736-0.217-9.658-4.475c-1.998-2.908-2.139-6.65-0.42-11.123l6.049-17.729  c-0.586,0.327-1.254,0.507-1.943,0.507c-0.279,0-0.559-0.029-0.826-0.086l-1.789-0.367c-1.068-0.217-2.016-0.874-2.594-1.804  c-0.58-0.936-0.752-2.078-0.473-3.135c0.084-0.312,2.031-7.251,11.076-7.997C43.592,31.301,43,29.43,43,27.502  C43,22.263,47.262,18,52.5,18s9.5,4.263,9.5,9.502c0,4.205-2.709,7.797-6.557,9.04c0.201,0.236,0.391,0.481,0.564,0.737  c1.998,2.909,2.139,6.651,0.42,11.122l-6.049,17.728c0.586-0.326,1.254-0.506,1.945-0.506c0.268,0,0.535,0.027,0.799,0.08  l1.82,0.375c1.072,0.219,2.018,0.881,2.596,1.811c0.576,0.932,0.748,2.072,0.467,3.129c-0.088,0.33-2.256,8.059-12.691,8.059  L45.244,79.078z" fill-opacity="0.02" stroke-opacity="0.02"/>
<path d="M45.244,78.078c-1.012,0-6.195-0.195-8.834-4.041c-1.801-2.621-1.904-6.051-0.311-10.197l6.271-18.378  c0.416-1.125,0.555-2.203,0.547-2.786c-0.018,0.001-0.053,0.006-0.053,0.006c0.014,0-0.457,0.14-0.992,1.072  c-0.537,0.929-1.533,1.505-2.602,1.505c-0.209,0-0.416-0.021-0.617-0.064l-1.797-0.368c-0.803-0.163-1.512-0.656-1.947-1.353  c-0.434-0.701-0.563-1.557-0.354-2.351c0.08-0.298,2.041-7.317,11.721-7.317c0.146,0,0.328,0.003,0.537,0.012  C45.088,32.26,44,30.006,44,27.502C44,22.814,47.814,19,52.5,19c4.688,0,8.5,3.814,8.5,8.502c0,4.393-3.348,8.019-7.627,8.458  c0.668,0.502,1.287,1.122,1.811,1.885c1.801,2.621,1.904,6.052,0.311,10.197l-6.27,18.377c-0.418,1.127-0.557,2.205-0.547,2.789  c0.016-0.002,0.049-0.006,0.049-0.006c-0.012,0,0.459-0.139,0.996-1.074c0.533-0.93,1.531-1.506,2.602-1.506  c0.197,0,0.398,0.02,0.6,0.061l1.818,0.375c0.805,0.164,1.514,0.658,1.947,1.357c0.432,0.697,0.561,1.553,0.35,2.346  c-0.078,0.299-2.039,7.314-11.725,7.314L45.244,78.078z" fill-opacity="0.05" stroke-opacity="0.05"/>
<path d="M45.244,77.078c-0.924,0-5.654-0.176-8.01-3.607c-1.602-2.332-1.67-5.451-0.201-9.271l6.283-18.415  c0.586-1.578,0.779-3.472,0.412-4c-0.08-0.116-0.447-0.125-0.559-0.125c-0.131,0-0.273,0.01-0.426,0.029  c-0.064,0.007-0.91,0.126-1.738,1.566c-0.357,0.619-1.021,1.003-1.734,1.003c-0.139,0-0.275-0.014-0.408-0.042l-1.807-0.37  c-0.533-0.108-1.008-0.437-1.297-0.902c-0.291-0.468-0.375-1.038-0.236-1.566c0.07-0.267,1.83-6.572,10.754-6.572  c1.32,0,5.785,0.26,8.082,3.606c1.604,2.333,1.67,5.453,0.201,9.272l-6.283,18.415c-0.586,1.578-0.777,3.473-0.41,4.002  c0.08,0.115,0.445,0.123,0.555,0.123c0.133,0,0.275-0.01,0.428-0.027c0.066-0.008,0.912-0.127,1.74-1.568  c0.355-0.619,1.021-1.004,1.734-1.004c0.133,0,0.266,0.014,0.4,0.041l1.816,0.373c0.537,0.109,1.01,0.439,1.299,0.906  c0.287,0.465,0.373,1.035,0.232,1.563c-0.07,0.268-1.828,6.57-10.758,6.57L45.244,77.078z M52.5,35.004  c-4.135,0-7.5-3.365-7.5-7.502S48.365,20,52.5,20c4.137,0,7.5,3.365,7.5,7.502S56.637,35.004,52.5,35.004L52.5,35.004z" fill-opacity="0.05" stroke-opacity="0.05"/>
<path d="M45.244,76.078c-0.838,0-5.113-0.154-7.186-3.174c-1.404-2.043-1.436-4.854-0.092-8.346l6.297-18.451  c0.502-1.352,1.014-3.844,0.285-4.893c-0.164-0.238-0.488-0.554-1.379-0.554c-0.17,0-0.352,0.012-0.547,0.036  c-0.111,0.01-1.383,0.147-2.484,2.061c-0.182,0.314-0.514,0.501-0.867,0.501c-0.066,0-0.133-0.006-0.199-0.021l-1.814-0.371  c-0.27-0.055-0.504-0.218-0.65-0.452c-0.145-0.233-0.188-0.516-0.117-0.782c0.063-0.238,1.623-5.828,9.787-5.828  c0.002,0,0.004,0,0.006,0c0.918,0,5.182,0.158,7.252,3.173c1.404,2.044,1.436,4.853,0.092,8.346l-6.295,18.451  c-0.504,1.352-1.016,3.846-0.287,4.895c0.166,0.238,0.488,0.553,1.377,0.553c0.172,0,0.354-0.012,0.551-0.035  c0.111-0.01,1.383-0.145,2.484-2.063c0.182-0.314,0.516-0.502,0.867-0.502c0.066,0,0.135,0.008,0.201,0.021l1.814,0.373  c0.27,0.055,0.504,0.219,0.648,0.451c0.145,0.234,0.188,0.516,0.117,0.781c-0.063,0.238-1.625,5.826-9.791,5.826L45.244,76.078z   M52.5,34.004c-3.584,0-6.5-2.917-6.5-6.502S48.916,21,52.5,21s6.5,2.917,6.5,6.502S56.084,34.004,52.5,34.004L52.5,34.004z" fill-opacity="0.1" stroke-opacity="0.1"/>
<path d="M49.094,72.18c-5.482,0.676-2.709-6.729-2.709-6.729l6.309-18.486c4.01-10.426-6.416-10.16-6.416-10.16  c-7.486,0-8.82,5.082-8.82,5.082l1.814,0.371c1.426-2.479,3.229-2.555,3.229-2.555c5.482-0.674,2.709,6.727,2.709,6.727L38.9,64.916  c-4.012,10.428,6.414,10.16,6.414,10.16c7.488,0,8.824-5.08,8.824-5.08l-1.814-0.373C50.896,72.105,49.094,72.18,49.094,72.18z   M52.5,22c-3.037,0-5.5,2.463-5.5,5.502c0,3.037,2.463,5.502,5.5,5.502c3.039,0,5.5-2.465,5.5-5.502C58,24.463,55.539,22,52.5,22z" fill-opacity="0.1" stroke-opacity="0.1"/>
<linearGradient gradientUnits="userSpaceOnUse" id="SVGID_6_" x1="47.728" x2="47.728" y1="71.126" y2="369.0841">
<stop offset="0" style="stop-color:#F8FBEE"/>
<stop offset="0.3232" style="stop-color:#F8FBEE"/>
<stop offset="1" style="stop-color:#D2CBC5"/>
</linearGradient>
<path d="M49.094,69.383c-5.482,0.676-2.709-6.729-2.709-6.729l6.309-18.486  c4.01-10.426-6.416-10.16-6.416-10.16c-7.486,0-8.82,5.082-8.82,5.082l1.814,0.371c1.426-2.479,3.229-2.555,3.229-2.555  c5.482-0.674,2.709,6.727,2.709,6.727L38.9,62.119c-4.012,10.428,6.414,10.16,6.414,10.16c7.488,0,8.824-5.08,8.824-5.08  l-1.814-0.373C50.896,69.309,49.094,69.383,49.094,69.383z M52.5,19.204c-3.037,0-5.5,2.463-5.5,5.502  c0,3.037,2.463,5.502,5.5,5.502c3.039,0,5.5-2.465,5.5-5.502C58,21.667,55.539,19.204,52.5,19.204z" fill="url(#SVGID_6_)"/>
<path d="M52.324,66.826c-1.428,2.482-3.23,2.557-3.23,2.557c-2.479,0.305-3.264-1.043-3.385-2.609  c-0.137,1.932,0.387,3.979,3.385,3.609c0,0,1.803-0.074,3.23-2.557l1.42,0.291c0.291-0.541,0.395-0.918,0.395-0.918L52.324,66.826z" fill="#FFFFFF"/>
<path d="M46.277,34.008c-7.486,0-8.82,5.082-8.82,5.082l0.395,0.08c0.783-1.463,2.965-4.162,8.426-4.162  c0,0,6.889-0.176,7.313,5.357C53.959,33.819,46.277,34.008,46.277,34.008z M52.5,19.204c-3.037,0-5.5,2.463-5.5,5.502  c0,0.17,0.01,0.336,0.025,0.5c0.254-2.805,2.605-5.002,5.475-5.002c2.871,0,5.223,2.197,5.475,5.002  c0.016-0.164,0.025-0.33,0.025-0.5C58,21.667,55.539,19.204,52.5,19.204z" fill="#FFFFFF"/>
</svg>
