<?xml version="1.0" encoding="utf-8"?>
<!-- Generator: Adobe Illustrator 16.0.0, SVG Export Plug-In . SVG Version: 6.00 Build 0)  -->
<!DOCTYPE svg PUBLIC "-//W3C//DTD SVG 1.1//EN" "http://www.w3.org/Graphics/SVG/1.1/DTD/svg11.dtd">
<svg version="1.1" id="Layer_1" xmlns="http://www.w3.org/2000/svg" xmlns:xlink="http://www.w3.org/1999/xlink" x="0px" y="0px"
	 width="96px" height="96px" viewBox="0 0 96 96" enable-background="new 0 0 96 96" xml:space="preserve">
<rect x="-0.002" fill="none" width="96" height="96"/>
<g id="DO_NOT_EDIT_-_SHADOW_1_">
	<path id="SHADOW_1_" opacity="0.4" enable-background="new    " d="M88.008,49c0,29.633-10.365,40-40,40s-40-10.367-40-40
		s10.366-40,40-40C77.643,9,88.008,19.364,88.008,49z"/>
</g>
<linearGradient id="SVGID_1_" gradientUnits="userSpaceOnUse" x1="600.0625" y1="741.5303" x2="600.0625" y2="819.109" gradientTransform="matrix(1 0.0056 -0.0056 1 -547.7444 -726.3667)">
	<stop  offset="0" style="stop-color:#0078D0"/>
	<stop  offset="1" style="stop-color:#003D9D"/>
</linearGradient>
<path fill="url(#SVGID_1_)" d="M87.998,48.224c-0.166,29.629-10.586,39.938-40.222,39.774C18.143,87.832,7.836,77.406,8.002,47.777
	C8.166,18.143,18.59,7.836,48.223,8.002C77.859,8.168,88.164,18.59,87.998,48.224z"/>
<linearGradient id="SVGID_2_" gradientUnits="userSpaceOnUse" x1="600.0625" y1="731.2617" x2="600.0625" y2="810.5029" gradientTransform="matrix(1 0.0056 -0.0056 1 -547.7444 -726.3667)">
	<stop  offset="0" style="stop-color:#FFFFFF"/>
	<stop  offset="1" style="stop-color:#FFFFFF;stop-opacity:0"/>
</linearGradient>
<path opacity="0.25" fill="url(#SVGID_2_)" enable-background="new    " d="M48.223,8.002C18.59,7.836,8.166,18.143,8.002,47.775
	C7.836,77.406,18.143,87.832,47.776,87.998c29.636,0.164,40.056-10.145,40.222-39.774C88.164,18.588,77.859,8.168,48.223,8.002z
	 M47.782,86.998C18.625,86.834,8.838,76.938,9.002,47.781C9.164,18.625,19.061,8.838,48.217,9.002
	c29.158,0.163,38.943,10.06,38.781,39.214C86.836,77.373,76.939,87.16,47.782,86.998z"/>
<g id="DARK_BEVEL_1_">
	<path id="SQUIRCLE_1_" display="none" fill="#FFFFFF" fill-opacity="0.05" d="M47.999,88.002c-29.635,0-40-10.367-40-40
		s10.365-39.999,40-39.999c29.636,0,40,10.365,40,39.999C87.998,77.635,77.635,88.002,47.999,88.002z"/>
	<path opacity="0.02" enable-background="new    " d="M9.477,64.273c3.766,17.27,15.146,23.729,38.522,23.729
		s34.755-6.459,38.521-23.729H9.477z"/>
	<path opacity="0.02" enable-background="new    " d="M10.24,67.273c4.418,15.021,15.789,20.729,37.758,20.729
		c21.97,0,33.341-5.707,37.757-20.729H10.24z"/>
	<path opacity="0.02" enable-background="new    " d="M11.256,70.273c5.027,12.791,16.297,17.729,36.743,17.729
		c20.444,0,31.716-4.938,36.742-17.729H11.256z"/>
	<path opacity="0.02" enable-background="new    " d="M12.635,73.273c5.574,10.563,16.604,14.729,35.364,14.729
		c18.759,0,29.789-4.162,35.364-14.729H12.635z"/>
	<path opacity="0.02" enable-background="new    " d="M13.795,75.273c5.89,9.098,16.674,12.729,34.204,12.729
		c17.53,0,28.315-3.631,34.203-12.729H13.795z"/>
	<path opacity="0.02" enable-background="new    " d="M15.254,77.273c6.142,7.627,16.564,10.729,32.745,10.729
		c16.179,0,26.603-3.102,32.744-10.729H15.254z"/>
	<path fill-opacity="0.02" d="M17.057,79.273c6.305,6.178,16.254,8.729,30.942,8.729c14.687,0,24.638-2.551,30.94-8.729H17.057z"/>
</g>
<g id="LIGHT_BEVEL_1_">
	<path opacity="0.01" fill="#FFFFFF" enable-background="new    " d="M47.999,9.002c-29.635,0-40,10.365-40,40
		c0,2.891,0.102,5.588,0.307,8.119l0.22,0.021h78.958l0.209-0.021c0.203-2.53,0.307-5.228,0.307-8.12
		C87.998,19.367,77.635,9.002,47.999,9.002z"/>
	<path opacity="0.01" fill="#FFFFFF" enable-background="new    " d="M47.999,8.002c-29.635,0-40,10.365-40,39.999
		c0,1.052,0.018,2.075,0.043,3.079l0.701,0.063h78.516l0.697-0.063c0.024-1.004,0.043-2.024,0.043-3.077
		C87.998,18.367,77.635,8.002,47.999,8.002z"/>
	<path opacity="0.01" fill="#FFFFFF" enable-background="new    " d="M8.963,46.139h78.072l0.941-0.084
		C87.52,17.92,76.973,8.002,47.999,8.002c-28.973,0-39.521,9.919-39.979,38.054L8.963,46.139z"/>
	<path opacity="0.01" fill="#FFFFFF" enable-background="new    " d="M9.184,41.139h77.628l0.961-0.086
		c-1.629-24.316-12.588-33.05-39.774-33.05c-27.186,0-38.146,8.735-39.776,33.052L9.184,41.139z"/>
	<path opacity="0.01" fill="#FFFFFF" enable-background="new    " d="M9.184,37.139h77.628c0.201,0,0.396-0.035,0.595-0.065
		C84.852,15.776,73.646,8.002,47.999,8.002c-25.646,0-36.854,7.774-39.409,29.072C8.787,37.104,8.982,37.139,9.184,37.139z"/>
	<path opacity="0.01" fill="#FFFFFF" enable-background="new    " d="M47.999,8.002c-24.004,0-35.364,6.805-38.814,25.138h77.627
		C83.361,14.806,72.004,8.002,47.999,8.002z"/>
	<path opacity="0.01" fill="#FFFFFF" enable-background="new    " d="M84.072,29.693l1.6-0.376c0.082-0.021,0.158-0.058,0.238-0.084
		C81.604,13.829,70.219,8.002,47.999,8.002c-22.217,0-33.604,5.827-37.913,21.231c0.08,0.026,0.156,0.063,0.238,0.084l1.6,0.376
		c0.226,0.053,0.455,0.08,0.688,0.08h70.772C83.615,29.773,83.848,29.746,84.072,29.693z"/>
	<path opacity="0.01" fill="#FFFFFF" enable-background="new    " d="M12.611,26.773h70.773l1.601-0.376
		C80.088,13.116,68.791,8.002,47.999,8.002s-32.09,5.115-36.987,18.395L12.611,26.773z"/>
	<path opacity="0.01" fill="#FFFFFF" enable-background="new    " d="M12.611,24.773h70.773c0.306,0,0.595-0.081,0.859-0.208
		C78.996,12.645,67.809,8.002,47.999,8.002C28.19,8.002,17,12.645,11.752,24.565C12.018,24.692,12.307,24.773,12.611,24.773z"/>
	<path opacity="0.01" fill="#FFFFFF" enable-background="new    " d="M83.385,22.773C77.818,12.176,66.783,8.002,47.999,8.002
		c-18.786,0-29.819,4.174-35.387,14.771H83.385z"/>
</g>
<path opacity="0.05" fill-rule="evenodd" clip-rule="evenodd" d="M32.114,16.946c10.071-1.063,20.239-0.886,30.316-0.004
	c3.615,0.314,6.611,3.097,6.611,6.828c0,16.459,0,32.921,0,49.381c0,3.751-3.031,6.67-6.723,6.836
	c-10.014,0.445-20.051,0.52-30.063,0c-3.679-0.189-6.703-3.09-6.703-6.836c0-16.46,0-32.921,0-49.381
	C25.552,20.046,28.531,17.323,32.114,16.946L32.114,16.946z M36.268,49.121l7.069-18.515h7.933l7.053,18.504V26.557H36.268V49.121
	L36.268,49.121z M36.268,60.47v4.445h22.055V60.47h-5.741l-2.151-6.057H44.21l-2.152,6.057H36.268L36.268,60.47z"/>
<path opacity="0.1" fill-rule="evenodd" clip-rule="evenodd" d="M32.233,18.421c10-1.054,20.093-0.878,30.098,0
	c3.026,0.263,5.571,2.555,5.571,5.69c0,16.463,0,32.921,0,49.385c0,3.138-2.551,5.563-5.635,5.697
	c-9.979,0.443-19.977,0.52-29.954,0c-3.073-0.159-5.623-2.56-5.623-5.697c0-16.464,0-32.922,0-49.385
	C26.691,20.976,29.233,18.738,32.233,18.421L32.233,18.421z M47.347,71.785c0.62,0,1.122,0.502,1.122,1.122
	c0,0.619-0.502,1.121-1.122,1.121c-0.617,0-1.118-0.502-1.118-1.121C46.229,72.287,46.73,71.785,47.347,71.785L47.347,71.785z
	 M35.132,55.634l8.99-23.546h6.366l8.975,23.546V25.762h-24.33V55.634L35.132,55.634z M35.132,59.675v6.719h24.33v-6.719h-6.077
	l-2.151-6.055h-7.827l-2.152,6.055H35.132L35.132,59.675z M47.301,42.97l-1.482,4.013h2.967L47.301,42.97L47.301,42.97z"/>
<path opacity="0.3" fill-rule="evenodd" clip-rule="evenodd" d="M32.294,19.002c9.961-1.05,20.019-0.874,29.989,0
	c2.729,0.239,5.052,2.286,5.052,5.126c0,16.459,0,32.921,0,49.385c0,2.83-2.313,5.006-5.093,5.13
	c-9.959,0.438-19.941,0.513-29.899,0c-2.771-0.144-5.083-2.298-5.083-5.13c0-16.464,0-32.925,0-49.385
	C27.259,21.28,29.587,19.29,32.294,19.002L32.294,19.002z M47.324,71.196c-0.949,0-1.718,0.769-1.718,1.718
	c0,0.946,0.768,1.719,1.718,1.719s1.719-0.768,1.719-1.719C49.043,71.965,48.272,71.196,47.324,71.196L47.324,71.196z
	 M34.563,58.737l9.95-26.066h5.582l9.935,26.068V25.556c0-0.188-0.157-0.345-0.345-0.345H34.908c-0.188,0-0.345,0.157-0.345,0.345
	V58.737L34.563,58.737z M34.563,59.123v7.511c0,0.188,0.157,0.345,0.345,0.345h24.776c0.188,0,0.345-0.157,0.345-0.345v-7.511
	h-6.241l-2.153-6.055h-8.63l-2.151,6.055H34.563L34.563,59.123z M47.298,41.344l-2.295,6.225h4.6L47.298,41.344L47.298,41.344z"/>
<path fill-rule="evenodd" clip-rule="evenodd" fill="#FFFFFF" d="M62.658,68.701V30.387V23.36l-2.328,0.898
	c0.166,0.165,0.271,0.392,0.271,0.643v7.902v33.175c0,0.502-0.414,0.917-0.916,0.917H34.908c-0.145,0-0.286-0.039-0.407-0.099
	l-2.27,1.322L62.658,68.701L62.658,68.701z"/>
<path fill-rule="evenodd" clip-rule="evenodd" fill="#A5A6AC" d="M31.514,22.336l0.717,45.782l2.27-1.322
	c-0.3-0.152-0.508-0.462-0.508-0.818v-1.948V24.9c0-0.502,0.413-0.913,0.915-0.913h24.776c0.251,0,0.479,0.101,0.646,0.271
	l2.328-0.898v-0.866L31.514,22.336L31.514,22.336z"/>
<path fill-rule="evenodd" clip-rule="evenodd" fill="#A5A6AC" d="M66.466,21.894c0.192,0.486,0.297,1.023,0.297,1.595v2.079v47.306
	c0,2.527-2.068,4.451-4.545,4.563c-9.948,0.438-19.901,0.513-29.846,0c-2.224-0.117-4.125-1.676-4.484-3.829l2.205-0.91l14.681,0.14
	c0.233,1.181,1.272,2.071,2.521,2.071c1.233,0,2.261-0.866,2.514-2.023l13.979,0.138V22.924L66.466,21.894L66.466,21.894z"/>
<path fill-rule="evenodd" clip-rule="evenodd" fill="#FFFFFF" d="M32.353,18.93c9.94-1.051,19.935-0.87,29.881,0
	c1.89,0.165,3.571,1.282,4.232,2.963l-2.679,1.031l-32.973-0.647l-0.721,50.419l-2.203,0.912c-0.041-0.242-0.063-0.484-0.063-0.735
	V71.27V23.488C27.828,20.941,29.932,19.186,32.353,18.93L32.353,18.93z"/>
<polygon fill-rule="evenodd" clip-rule="evenodd" fill="#A5A6AC" points="35.242,57.915 36.48,57.06 41.601,49.538 53.542,49.598 
	59.351,57.915 54.19,57.915 52.036,51.86 42.603,51.86 40.451,57.915 35.242,57.915 "/>
<polygon fill-rule="evenodd" clip-rule="evenodd" fill="#FFFFFF" points="35.242,57.915 36.48,57.06 39.398,54.982 47.065,34.738 
	55.979,55.184 58.111,57.06 59.351,57.915 49.704,32.602 44.905,32.602 35.242,57.915 "/>
<polygon fill-rule="evenodd" clip-rule="evenodd" fill="#FFFFFF" points="51.64,49.586 42.961,48.352 44.187,47.496 50.422,47.496 
	51.646,48.352 51.64,49.586 "/>
<polygon fill-rule="evenodd" clip-rule="evenodd" fill="#A5A6AC" points="42.961,48.352 44.187,47.496 47.296,39.062 50.422,47.496 
	51.646,48.352 52.973,48.284 46.904,33.935 42.961,48.352 "/>
<linearGradient id="SVGID_3_" gradientUnits="userSpaceOnUse" x1="47.2964" y1="77.6064" x2="47.2964" y2="19.37">
	<stop  offset="0" style="stop-color:#D0CBC5"/>
	<stop  offset="0.8865" style="stop-color:#FAFCEF"/>
</linearGradient>
<path fill-rule="evenodd" clip-rule="evenodd" fill="url(#SVGID_3_)" d="M32.443,19.777c-1.978,0.208-3.763,1.604-3.763,3.711
	c0,16.463,0,32.921,0,49.385c0,2.073,1.723,3.604,3.737,3.707c9.913,0.518,19.848,0.439,29.761,0
	c2.021-0.089,3.733-1.639,3.733-3.707c0-16.464,0-32.922,0-49.385c0-2.097-1.761-3.535-3.753-3.711
	C52.278,18.915,42.318,18.735,32.443,19.777L32.443,19.777z M47.296,36.601l-4.335,11.751h8.684L47.296,36.601L47.296,36.601z
	 M45.494,33.453h3.621l8.997,23.607H54.79l-2.151-6.055H42.001l-2.154,6.055H36.48L45.494,33.453L45.494,33.453z M47.296,69.764
	c1.421,0,2.571,1.152,2.571,2.572c0,1.423-1.149,2.571-2.571,2.571c-1.421,0-2.573-1.148-2.573-2.571
	C44.723,70.916,45.875,69.764,47.296,69.764L47.296,69.764z M34.908,23.148h24.776c0.973,0,1.768,0.795,1.768,1.768v41.078
	c0,0.976-0.795,1.768-1.768,1.768H34.908c-0.974,0-1.767-0.792-1.767-1.768V24.916C33.141,23.943,33.935,23.148,34.908,23.148
	L34.908,23.148z"/>
<path fill-rule="evenodd" clip-rule="evenodd" fill="#FFFFFF" d="M50.485,72.41l-0.003,0.079c-0.018,0.355-0.096,0.72-0.239,1.073
	c-0.679,1.626-2.547,2.394-4.174,1.72c-1.127-0.469-1.84-1.508-1.95-2.645c-0.005-0.07-0.01-0.138-0.011-0.207h0.623
	c0.002,0.061,0.006,0.128,0.014,0.191c0.102,0.901,0.672,1.715,1.568,2.089c1.311,0.55,2.817-0.074,3.36-1.384
	c0.114-0.271,0.175-0.548,0.192-0.822l0.007-0.092L50.485,72.41L50.485,72.41z"/>
<path fill-rule="evenodd" clip-rule="evenodd" fill="#A5A6AC" d="M48.521,69.393c1.251,0.518,1.995,1.739,1.965,3.018l-0.613,0.003
	c0.028-1.034-0.57-2.029-1.584-2.453c-1.312-0.545-2.816,0.079-3.363,1.393c-0.146,0.352-0.206,0.716-0.194,1.078h-0.623
	c-0.014-0.441,0.063-0.891,0.243-1.318C45.027,69.482,46.895,68.714,48.521,69.393L48.521,69.393z"/>
</svg>
