<?xml version="1.0" encoding="UTF-8"?>
<!DOCTYPE svg PUBLIC "-//W3C//DTD SVG 1.1 Tiny//EN" "http://www.w3.org/Graphics/SVG/1.1/DTD/svg11-tiny.dtd">
<svg baseProfile="tiny" height="96px" version="1.1" viewBox="0 0 96 96" width="96px" x="0px" xmlns="http://www.w3.org/2000/svg" xmlns:xlink="http://www.w3.org/1999/xlink" y="0px">
<rect fill="none" height="96" width="96"/>
<path d="M88,49c0,29.633-10.363,40-40,40C18.365,89,8,78.633,8,49C8,19.365,18.365,9,48,9C77.637,9,88,19.365,88,49z" fill-opacity="0.4" stroke-opacity="0.4"/>
<linearGradient gradientUnits="userSpaceOnUse" id="SVGID_1_" x1="47.9995" x2="47.9995" y1="27.8784" y2="67.0191">
<stop offset="0" style="stop-color:#CFD2D3"/>
<stop offset="1" style="stop-color:#A6A9AC"/>
</linearGradient>
<path d="M88,48c0,29.633-10.363,40-40,40C18.365,88,8,77.633,8,48C8,18.365,18.365,8,48,8  C77.637,8,88,18.365,88,48z" fill="url(#SVGID_1_)"/>
<linearGradient gradientUnits="userSpaceOnUse" id="SVGID_2_" x1="47.9995" x2="47.9995" y1="8.2534" y2="87.4985">
<stop offset="0" style="stop-color:#FFFFFF"/>
<stop offset="1" style="stop-color:#FFFFFF;stop-opacity:0"/>
</linearGradient>
<path d="M48,8C18.365,8,8,18.365,8,48c0,29.633,10.365,40,40,40c29.637,0,40-10.367,40-40  C88,18.365,77.637,8,48,8z M48,87C18.842,87,9,77.158,9,48S18.842,9,48,9s39,9.842,39,39S77.158,87,48,87z" fill="url(#SVGID_2_)" fill-opacity="0.3" stroke-opacity="0.3"/>
<path d="M48,80c-16.541,0-30-13.458-30-30s13.459-30,30-30c16.543,0,30,13.458,30,30S64.543,80,48,80L48,80z" fill-opacity="0.05" stroke-opacity="0.05"/>
<path d="M48,79c-15.99,0-29-13.01-29-29c0-15.991,13.01-29,29-29s29,13.009,29,29C77,65.99,63.99,79,48,79L48,79z" fill-opacity="0.1" stroke-opacity="0.1"/>
<path d="M48,78c-15.439,0-28-12.561-28-28s12.561-28,28-28s28,12.561,28,28S63.439,78,48,78L48,78z" fill-opacity="0.1" stroke-opacity="0.1"/>
<circle cx="48" cy="50" fill-opacity="0.2" r="27" stroke-opacity="0.2"/>
<linearGradient gradientUnits="userSpaceOnUse" id="SVGID_3_" x1="47.9995" x2="47.9995" y1="31.313" y2="76.5011">
<stop offset="0" style="stop-color:#FFFFFF"/>
<stop offset="0.5743" style="stop-color:#B1B1B1"/>
<stop offset="1" style="stop-color:#FFFFFF"/>
</linearGradient>
<circle cx="48" cy="48" fill="url(#SVGID_3_)" r="27"/>
<circle cx="48" cy="48" fill="#231F20" r="19"/>
<circle cx="48" cy="48" r="10.094"/>
<linearGradient gradientUnits="userSpaceOnUse" id="SVGID_4_" x1="47.9995" x2="47.9995" y1="27.2939" y2="48.0671">
<stop offset="0" style="stop-color:#FFFFFF"/>
<stop offset="1" style="stop-color:#FFFFFF;stop-opacity:0"/>
</linearGradient>
<ellipse cx="48" cy="42.063" fill="url(#SVGID_4_)" rx="14.25" ry="10.363"/>
</svg>
