<?xml version="1.0" encoding="UTF-8" standalone="no"?>
<svg
   xmlns:dc="http://purl.org/dc/elements/1.1/"
   xmlns:cc="http://creativecommons.org/ns#"
   xmlns:rdf="http://www.w3.org/1999/02/22-rdf-syntax-ns#"
   xmlns:svg="http://www.w3.org/2000/svg"
   xmlns="http://www.w3.org/2000/svg"
   xmlns:xlink="http://www.w3.org/1999/xlink"
   xmlns:sodipodi="http://sodipodi.sourceforge.net/DTD/sodipodi-0.dtd"
   xmlns:inkscape="http://www.inkscape.org/namespaces/inkscape"
   height="96px"
   version="1.1"
   viewBox="0 0 96 96"
   width="96px"
   x="0px"
   y="0px"
   id="svg3153"
   inkscape:version="0.48.4 r9939"
   sodipodi:docname="qgn_menu_phob.svg">
  <metadata
     id="metadata3221">
    <rdf:RDF>
      <cc:Work
         rdf:about="">
        <dc:format>image/svg+xml</dc:format>
        <dc:type
           rdf:resource="http://purl.org/dc/dcmitype/StillImage" />
      </cc:Work>
    </rdf:RDF>
  </metadata>
  <defs
     id="defs3219">
    <linearGradient
       gradientTransform="matrix(1,0,0,-1,-300.9004,-120.5996)"
       gradientUnits="userSpaceOnUse"
       id="SVGID_1_-1"
       x1="348.89941"
       x2="348.89941"
       y1="-128.59959"
       y2="-208.59959">
      <stop
         offset="0"
         stop-color="#b30dac"
         id="stop3039" />
      <stop
         offset="1"
         stop-color="#511475"
         id="stop3041" />
    </linearGradient>
    <linearGradient
       gradientTransform="matrix(1,0,0,-1,-300.9004,-120.5996)"
       gradientUnits="userSpaceOnUse"
       id="SVGID_2_-7"
       x1="348.89941"
       x2="348.89941"
       y1="-128.8535"
       y2="-208.0986">
      <stop
         offset="0"
         stop-color="#ffffff"
         id="stop3046" />
      <stop
         offset="1"
         stop-color="#ffffff"
         stop-opacity="0"
         id="stop3048" />
    </linearGradient>
    <linearGradient
       y2="-208.0986"
       x2="348.89941"
       y1="-128.8535"
       x1="348.89941"
       gradientTransform="matrix(1,0,0,-1,-300.9004,-120.5996)"
       gradientUnits="userSpaceOnUse"
       id="linearGradient3248"
       xlink:href="#SVGID_2_-7"
       inkscape:collect="always" />
  </defs>
  <sodipodi:namedview
     pagecolor="#ffffff"
     bordercolor="#666666"
     borderopacity="1"
     objecttolerance="10"
     gridtolerance="10"
     guidetolerance="10"
     inkscape:pageopacity="0"
     inkscape:pageshadow="2"
     inkscape:window-width="640"
     inkscape:window-height="480"
     id="namedview3217"
     showgrid="false"
     inkscape:zoom="2.7176107"
     inkscape:cx="48"
     inkscape:cy="48"
     inkscape:window-x="562"
     inkscape:window-y="75"
     inkscape:window-maximized="0"
     inkscape:current-layer="svg3153" />
  <g
     transform="translate(-0.16386171,0.03183203)"
     id="g3223">
    <path
       style="fill-opacity:0.4"
       inkscape:connector-curvature="0"
       id="path3036"
       d="M 88,49 C 88,78.632996 77.637,89 48,89 18.365,89 8,78.633 8,49 8,19.365 18.365,9 48,9 77.637,9 88,19.365 88,49 z" />
    <path
       style="fill:url(#SVGID_1_-1)"
       inkscape:connector-curvature="0"
       id="path3043"
       d="M 88,48 C 88,77.632996 77.637,88 48,88 18.365,88 8,77.633 8,48 8,18.365 18.365,8 48,8 77.637,8 88,18.365 88,48 z" />
    <path
       style="fill:url(#linearGradient3248);fill-opacity:0.25"
       inkscape:connector-curvature="0"
       id="path3050"
       d="M 48,8 C 18.365,8 8,18.365 8,48 8,77.632996 18.365,88 48,88 77.637,88 88,77.633 88,48 88,18.365 77.637,8 48,8 z m 0,79 C 18.842,87 9,77.158 9,48 9,18.842003 18.842,9 48,9 77.158005,9 87,18.842 87,48 87,77.158005 77.158,87 48,87 z" />
  </g>
  <rect
     fill="none"
     height="96"
     width="96"
     id="rect3155" />
  <linearGradient
     gradientUnits="userSpaceOnUse"
     id="SVGID_1_"
     x1="48.0005"
     x2="48.0005"
     y1="88"
     y2="8.0005">
    <stop
       offset="0"
       style="stop-color:#02598B"
       id="stop3160" />
    <stop
       offset="0.253"
       style="stop-color:#026D98"
       id="stop3162" />
    <stop
       offset="0.7688"
       style="stop-color:#01A1BB"
       id="stop3164" />
    <stop
       offset="1"
       style="stop-color:#00BACC"
       id="stop3166" />
  </linearGradient>
  <rect
     fill="none"
     height="80"
     width="80"
     x="7.953"
     y="8"
     id="rect3170" />
  <path
     d="M79.412,77.502c-1.1-1.193-2.396-2.198-3.711-2.887c-3.219-1.876-6.629-3.536-10.136-4.937  c-1.505-0.601-2.714-1.846-3.593-3.7c-0.118-0.249-0.216-0.5-0.29-0.743c0.66-0.825,1.258-1.764,1.828-2.87  c0.782-1.531,1.251-3.041,1.619-4.304c2.11-1.457,2.849-4.069,3.217-5.37l0.023-0.09c0.05-0.178,0.119-0.393,0.233-0.744  l0.039-0.123c0.39-1.213,0.923-2.874,1.17-4.482c0.388-2.521-0.143-4.238-0.744-5.307c0.087-0.459,0.223-1.184,0.239-1.276  c0.226-1.225,0.337-2.348,0.34-3.435c0.001-0.346,0.014-0.692,0.025-0.994c0.063-1.295-0.947-6.882-2.006-9.193  c-0.961-2.106-2.429-4.734-5.268-6.379c-1.861-1.079-3.705-1.636-5.488-2.175L56.8,18.459c-0.307-0.092-0.61-0.184-0.91-0.279  c-0.439-0.14-0.884-0.288-1.386-0.458C51.975,16.875,49.358,16,46.285,16c-0.414,0-0.827,0.016-1.241,0.052  c-1.555,0.13-2.799,0.584-3.812,0.954c-0.245,0.09-0.496,0.184-0.735,0.252l-0.1-0.006c-0.301-0.018-0.603-0.033-0.904-0.033  c-0.576,0-1.107,0.05-1.622,0.151c-2.934,0.579-4.324,2.646-4.904,3.673c-2.387,1.034-3.523,3.105-4.079,4.12l-0.139,0.247  c-1.774,3.19-2.559,9.602-2.511,10.396c0.005,0.084,0.005,0.255,0.007,0.58l0.003,0.392c0.009,1.361,0.018,1.836,0.038,2.033  c0.003,1.303,0.124,2.615,0.36,3.906c-0.71,1.662-0.737,3.723-0.088,6.277c0.016,0.065,0.062,0.285,0.086,0.403  c0.753,3.583,1.495,6.482,3.477,8.209c0.371,1.295,0.771,2.579,1.4,3.941c0.674,1.465,1.378,2.642,2.192,3.66  c-0.092,0.352-0.2,0.761-0.203,0.772c-0.226,0.929-0.674,1.741-1.298,2.351c-0.729,0.714-1.928,1.219-3.453,1.859l-0.097,0.041  c-0.378,0.159-0.756,0.319-1.126,0.483l-0.518,0.229c-2.975,1.317-6.05,2.68-8.866,4.759c-0.798,0.591-1.453,1.458-2.008,2.61  C22.386,85.184,32.579,88,48,88c15.486,0,25.701-2.839,31.934-9.77C79.758,77.939,79.589,77.692,79.412,77.502z"
     fill-opacity="0.02"
     stroke-opacity="0.02"
     id="path3172" />
  <path
     d="M78.677,78.18c-1.023-1.11-2.24-2.051-3.479-2.7c-3.175-1.851-6.541-3.49-10.003-4.872  c-1.746-0.697-3.135-2.11-4.125-4.199c-0.229-0.48-0.394-0.976-0.478-1.433c0.096-0.105,0.188-0.213,0.277-0.324  c0.632-0.783,1.204-1.68,1.751-2.741c0.792-1.549,1.235-3.043,1.654-4.488c2.033-1.194,2.748-3.724,3.106-4.991l0.026-0.098  c0.057-0.203,0.138-0.452,0.243-0.779l0.036-0.113c0.38-1.184,0.901-2.806,1.138-4.34c0.374-2.436-0.174-4.005-0.81-4.963  c0,0,0.284-1.508,0.31-1.65c0.215-1.166,0.32-2.231,0.323-3.256c0.001-0.358,0.014-0.718,0.026-1.04  c0.052-1.056-0.875-6.454-1.916-8.729c-0.9-1.972-2.268-4.427-4.86-5.929c-1.758-1.02-3.547-1.561-5.276-2.083l-0.109-0.033  c-0.312-0.094-0.621-0.188-0.925-0.284c-0.445-0.142-0.895-0.292-1.398-0.462C51.734,17.85,49.196,17,46.285,17  c-0.386,0-0.771,0.015-1.158,0.048c-1.422,0.119-2.547,0.53-3.542,0.894c-0.33,0.121-0.67,0.246-0.986,0.323  c-0.071-0.003-0.152-0.008-0.261-0.015c-0.28-0.017-0.563-0.031-0.845-0.031c-0.513,0-0.98,0.044-1.429,0.133  c-2.726,0.538-3.914,2.593-4.393,3.485c-2.281,0.844-3.333,2.759-3.911,3.813l-0.138,0.247c-1.673,3.007-2.426,9.193-2.386,9.858  c0.005,0.095,0.006,0.29,0.008,0.624l0.003,0.394c0.008,1.279,0.017,1.786,0.038,2.037c0.003,1.351,0.139,2.706,0.402,4.035  c-0.738,1.49-0.79,3.43-0.159,5.911c0.021,0.083,0.093,0.433,0.094,0.437c0.74,3.523,1.47,6.361,3.375,7.842  c0.374,1.32,0.778,2.682,1.432,4.097c0.721,1.565,1.484,2.797,2.38,3.832c-0.043,0.179-0.327,1.255-0.327,1.255  c-0.271,1.112-0.813,2.09-1.569,2.828c-0.865,0.849-2.144,1.386-3.763,2.066l-0.097,0.041c-0.373,0.157-0.746,0.314-1.111,0.477  l-0.516,0.229c-2.926,1.296-5.951,2.636-8.679,4.649c-0.753,0.558-1.365,1.418-1.875,2.59C23.168,85.404,33.171,88,48,88  c14.909,0,24.938-2.627,31.226-9.008C79.048,78.665,78.873,78.391,78.677,78.18z"
     fill-opacity="0.03"
     stroke-opacity="0.03"
     id="path3174" />
  <path
     d="M48,88c14.337,0,24.152-2.437,30.478-8.296c-0.163-0.338-0.333-0.628-0.536-0.847  c-0.945-1.025-2.082-1.902-3.248-2.514c-3.13-1.825-6.451-3.443-9.87-4.808c-1.987-0.794-3.555-2.374-4.657-4.698  c-0.354-0.745-0.575-1.527-0.627-2.205c0.191-0.193,0.379-0.395,0.552-0.609c0.591-0.732,1.126-1.572,1.639-2.568  c0.774-1.514,1.206-3.004,1.625-4.45l0.079-0.271c1.941-0.879,2.633-3.329,2.981-4.563l0.029-0.108  c0.066-0.235,0.162-0.529,0.29-0.927c0.37-1.152,0.877-2.73,1.102-4.186c0.36-2.346-0.204-3.746-0.885-4.568  c0.131-0.695,0.354-1.879,0.39-2.074c0.203-1.105,0.304-2.112,0.307-3.078c0.001-0.371,0.014-0.743,0.027-1.086  c0.04-0.814-0.835-6.098-1.826-8.265c-0.839-1.836-2.102-4.118-4.452-5.479c-1.656-0.96-3.389-1.484-5.064-1.991  c-0.353-0.106-0.704-0.212-1.049-0.321c-0.45-0.144-0.904-0.296-1.403-0.464C51.499,18.825,49.037,18,46.285,18  c-0.357,0-0.715,0.014-1.074,0.044c-1.289,0.108-2.34,0.492-3.281,0.836c-0.423,0.155-0.823,0.301-1.229,0.387  c-0.123,0-0.246-0.008-0.424-0.019c-0.26-0.016-0.522-0.029-0.784-0.029c-0.444,0-0.849,0.037-1.235,0.114  c-2.367,0.467-3.343,2.296-3.76,3.079c-0.043,0.08-0.083,0.16-0.12,0.244c-2.181,0.635-3.151,2.401-3.743,3.479l-0.138,0.248  c-1.55,2.786-2.298,8.713-2.261,9.32c0.006,0.113,0.007,0.361,0.009,0.668l0.003,0.396c0.007,1.19,0.016,1.806,0.038,1.993  c0,1.422,0.153,2.847,0.456,4.24c-0.777,1.293-0.855,3.102-0.243,5.51c0.018,0.067,0.103,0.477,0.103,0.477  c0.729,3.471,1.446,6.251,3.264,7.439c0.392,1.387,0.797,2.822,1.473,4.287c0.764,1.658,1.583,2.928,2.555,3.957  c-0.034,0.207-0.111,0.563-0.277,1.174c-0.057,0.211-0.111,0.412-0.161,0.611c-0.315,1.293-0.951,2.436-1.841,3.306  c-1.004,0.983-2.414,1.575-4.086,2.278c-0.395,0.166-0.791,0.332-1.181,0.506l-0.515,0.228c-2.878,1.274-5.854,2.593-8.489,4.54  c-0.685,0.506-1.239,1.339-1.699,2.504C23.973,85.595,33.755,88,48,88z"
     fill-opacity="0.05"
     stroke-opacity="0.05"
     id="path3176" />
  <path
     d="M48,88c13.762,0,23.362-2.24,29.705-7.602c-0.139-0.346-0.294-0.643-0.499-0.863  c-0.867-0.941-1.923-1.753-3.017-2.327c-3.086-1.8-6.362-3.396-9.738-4.743c-2.229-0.891-3.975-2.638-5.188-5.196  c-0.492-1.033-0.756-2.13-0.734-3.034c0.053-0.059,0.124-0.127,0.212-0.217c0.196-0.197,0.394-0.4,0.571-0.621  c0.548-0.68,1.047-1.463,1.526-2.397c0.731-1.429,1.146-2.862,1.555-4.271c0.074-0.257,0.147-0.511,0.222-0.762  c1.823-0.475,2.495-2.855,2.836-4.063l0.031-0.113c0.073-0.259,0.18-0.587,0.3-0.959c0.36-1.122,0.853-2.658,1.065-4.032  c0.346-2.248-0.232-3.452-0.976-4.095c0,0,0.435-2.297,0.485-2.577c0.191-1.048,0.287-1.995,0.29-2.899  c0.001-0.385,0.014-0.769,0.028-1.134c0.03-0.61-0.803-5.757-1.737-7.8c-0.776-1.701-1.938-3.811-4.043-5.029  c-1.556-0.901-3.23-1.408-4.853-1.898c-0.357-0.108-0.713-0.216-1.061-0.326c-0.467-0.147-0.936-0.306-1.416-0.467  C51.261,19.799,48.876,19,46.285,19c-0.329,0-0.659,0.013-0.99,0.041c-1.155,0.097-2.132,0.453-3.008,0.773  c-0.453,0.165-0.881,0.322-1.298,0.428c-0.064,0.017-0.161,0.024-0.288,0.024c-0.153,0-0.308-0.01-0.484-0.021  c-0.24-0.014-0.482-0.027-0.724-0.027c-0.378,0-0.72,0.031-1.042,0.096c-1.902,0.375-2.69,1.854-3.07,2.566  c-0.116,0.219-0.197,0.432-0.257,0.627c-0.047,0.008-0.093,0.016-0.137,0.025c-2.018,0.428-2.896,2.028-3.478,3.086l-0.139,0.25  c-1.399,2.515-2.17,8.248-2.137,8.779c0.008,0.145,0.009,0.493,0.012,0.906l0.002,0.206c0.006,0.968,0.013,1.735,0.038,1.999  c0,1.496,0.178,2.988,0.528,4.445c-0.006,0.008-0.012,0.016-0.019,0.022c-0.814,1.05-0.922,2.697-0.328,5.033  c0.025,0.099,0.063,0.281,0.113,0.521c0.72,3.431,1.43,6.164,3.136,6.979c0.037,0.127,0.073,0.256,0.108,0.384  c0.382,1.354,0.776,2.754,1.421,4.15c0.791,1.717,1.635,2.981,2.655,3.976c0.083,0.353-0.198,1.385-0.32,1.835  c-0.056,0.206-0.108,0.401-0.155,0.588c-0.359,1.474-1.09,2.782-2.112,3.782c-1.14,1.117-2.681,1.764-4.359,2.469  c-0.401,0.17-0.805,0.339-1.203,0.516l-0.511,0.227c-2.829,1.252-5.755,2.548-8.304,4.432c-0.596,0.439-1.095,1.257-1.499,2.396  C24.781,85.789,34.34,88,48,88z"
     fill-opacity="0.1"
     stroke-opacity="0.1"
     id="path3178" />
  <path
     d="M48,88c13.188,0,22.551-2.061,28.892-6.949c-0.102-0.337-0.231-0.633-0.421-0.838  c-0.789-0.856-1.765-1.604-2.785-2.141c-3.042-1.775-6.273-3.35-9.604-4.679c-2.472-0.987-4.396-2.903-5.721-5.695  c-0.59-1.239-0.89-2.579-0.823-3.677c0.012-0.205,0.145-0.357,0.494-0.709c0.173-0.172,0.347-0.35,0.503-0.544  c0.503-0.624,0.966-1.352,1.413-2.225c0.692-1.352,1.095-2.745,1.485-4.093c0.139-0.48,0.273-0.947,0.419-1.404  c0.032,0.002,0.063,0.002,0.094,0.002c1.579,0,2.205-2.224,2.543-3.418l0.032-0.115c0.076-0.268,0.186-0.607,0.31-0.992  c0.351-1.091,0.83-2.584,1.029-3.877c0.284-1.851-0.084-3.018-1.094-3.473c0.089-0.48,0.514-2.712,0.608-3.229  c0.182-0.991,0.271-1.881,0.273-2.722c0.001-0.396,0.014-0.794,0.029-1.181c0.019-0.373-0.754-5.381-1.647-7.334  c-0.716-1.567-1.776-3.504-3.635-4.58c-1.456-0.844-3.076-1.333-4.641-1.807c-0.362-0.109-0.723-0.219-1.074-0.33  c-0.472-0.149-0.946-0.309-1.425-0.47C51.022,20.774,48.715,20,46.285,20c-0.303,0-0.604,0.012-0.906,0.037  c-1.025,0.086-1.897,0.405-2.741,0.713c-0.48,0.177-0.934,0.343-1.403,0.461c-0.148,0.038-0.317,0.056-0.533,0.056  c-0.181,0-0.362-0.011-0.544-0.022c-0.221-0.013-0.442-0.025-0.664-0.025c-0.312,0-0.59,0.025-0.849,0.076  c-1.436,0.283-2.027,1.393-2.381,2.056c-0.168,0.315-0.235,0.624-0.29,0.872c-0.015,0.07-0.031,0.143-0.047,0.204  c-0.069,0.009-0.151,0.015-0.214,0.02c-0.185,0.015-0.363,0.031-0.518,0.065c-1.57,0.333-2.258,1.585-2.811,2.591l-0.14,0.253  c-1.3,2.336-2.032,7.912-2.013,8.237c0.01,0.176,0.012,0.639,0.016,1.162c0.005,0.825,0.011,1.679,0.038,2.005  c0,1.605,0.215,3.199,0.64,4.75c-0.126,0.092-0.24,0.203-0.34,0.332c-0.604,0.777-0.654,2.183-0.147,4.177  c0.026,0.106,0.067,0.301,0.121,0.557c0.824,3.921,1.561,6.152,2.975,6.405c0.087,0.297,0.171,0.595,0.254,0.893  c0.371,1.316,0.755,2.678,1.366,4.003c0.75,1.628,1.541,2.811,2.492,3.724c0.517,0.496,0.16,1.809-0.101,2.767  c-0.054,0.198-0.104,0.387-0.148,0.563c-0.404,1.654-1.229,3.128-2.384,4.26c-1.276,1.25-2.902,1.934-4.623,2.656  c-0.412,0.173-0.825,0.346-1.235,0.528l-0.51,0.226c-2.781,1.231-5.656,2.505-8.115,4.322c-0.644,0.476-1.075,1.631-1.271,2.25  C25.598,85.977,34.92,88,48,88z"
     fill-opacity="0.2"
     stroke-opacity="0.2"
     id="path3180" />
  <path
     d="M48,88c12.605,0,21.713-1.885,28.031-6.32c-0.049-0.319-0.146-0.628-0.297-0.789  c-0.724-0.787-1.605-1.455-2.553-1.955c-3.029-1.768-6.213-3.313-9.472-4.613c-2.886-1.152-4.934-3.414-6.253-6.194  c-0.594-1.248-1.002-2.788-0.918-4.167c0.051-0.833,0.732-1.217,1.217-1.82c0.51-0.632,0.932-1.331,1.302-2.053  c1.063-2.076,1.412-4.308,2.222-6.451c1.248,1.525,2.055-1.61,2.279-2.395c0.51-1.788,2.424-6.642,0.674-7.203  c-0.258-0.083-0.486,0.008-0.659,0.207c0.033-0.429,0.526-2.895,0.817-4.479c0.153-0.841,0.254-1.689,0.257-2.546  c0.001-0.409,0.014-0.818,0.03-1.229c0.004-0.077-0.7-4.992-1.558-6.867c-0.716-1.565-1.685-3.237-3.227-4.131  c-1.683-0.975-3.679-1.466-5.517-2.049c-2.86-0.908-5.854-2.169-8.914-1.912c-1.438,0.121-2.617,0.801-3.982,1.147  c-0.877,0.223-1.759-0.079-2.643,0.096c-0.898,0.177-1.291,0.794-1.691,1.545c-0.203,0.381-0.186,0.827-0.379,1.203  c-0.254,0.486-0.923,0.37-1.364,0.465c-1.228,0.261-1.728,1.356-2.284,2.353c-1.207,2.168-1.896,7.564-1.889,7.693  c0.025,0.439,0.008,2.595,0.056,3.225c0,1.786,0.289,3.642,0.896,5.439c-1.682-0.303-0.959,2.846-0.774,3.572  c0.224,0.877,1.337,7.432,2.817,6.039c0.604,1.897,0.995,3.818,1.838,5.646c0.57,1.24,1.283,2.468,2.275,3.421  c1.092,1.046,0.342,3.027,0.031,4.29c-0.439,1.795-1.328,3.435-2.655,4.735c-1.737,1.702-3.987,2.424-6.153,3.385  c-2.851,1.265-5.916,2.575-8.436,4.438c-0.374,0.276-0.797,1.284-1.004,2.058C26.434,86.145,35.495,88,48,88z"
     fill-opacity="0.3"
     stroke-opacity="0.3"
     id="path3182" />
  <linearGradient
     gradientUnits="userSpaceOnUse"
     id="SVGID_2_"
     x1="47.9995"
     x2="47.9995"
     y1="8.2534"
     y2="87.4985"
     gradientTransform="translate(-39.004851,-5.5195544)">
    <stop
       offset="0"
       style="stop-color:#FFFFFF"
       id="stop3185" />
    <stop
       offset="1"
       style="stop-color:#FFFFFF;stop-opacity:0"
       id="stop3187" />
  </linearGradient>
  <radialGradient
     cx="47.9995"
     cy="33.5469"
     gradientUnits="userSpaceOnUse"
     id="SVGID_3_"
     r="35.5926">
    <stop
       offset="0"
       style="stop-color:#FDFEF9"
       id="stop3192" />
    <stop
       offset="0.2121"
       style="stop-color:#FDFEF9"
       id="stop3194" />
    <stop
       offset="1"
       style="stop-color:#D0CBC5"
       id="stop3196" />
  </radialGradient>
  <path
     d="M71,77c-3.029-1.768-4.031-2.377-7.29-3.678c-2.886-1.152-4.934-3.414-6.253-6.194  c-0.594-1.248-1.002-2.788-0.918-4.167c0.051-0.833,0.732-1.217,1.217-1.82c0.51-0.632,0.932-1.331,1.302-2.053  c1.063-2.076,1.412-4.308,2.222-6.451c1.248,1.525,2.055-1.61,2.279-2.395c0.51-1.788,2.424-6.642,0.674-7.203  c-0.258-0.083-0.486,0.008-0.659,0.207c0.033-0.429,0.526-2.895,0.817-4.479c0.153-0.841,0.254-1.689,0.257-2.546  c0.001-0.409,0.014-0.818,0.03-1.229c0.004-0.077-0.7-4.992-1.558-6.867c-0.716-1.565-1.685-3.237-3.227-4.131  c-1.683-0.975-3.679-1.466-5.517-2.049c-2.86-0.908-5.854-2.169-8.914-1.912c-1.438,0.121-2.617,0.801-3.982,1.147  c-0.877,0.223-1.759-0.079-2.643,0.096c-0.898,0.177-1.291,0.794-1.691,1.545c-0.203,0.381-0.186,0.827-0.379,1.203  c-0.254,0.486-0.923,0.37-1.364,0.465c-1.228,0.261-1.728,1.356-2.284,2.353c-1.207,2.168-1.896,7.564-1.889,7.693  c0.025,0.439,0.008,2.595,0.056,3.225c0,1.786,0.289,3.642,0.896,5.439c-1.682-0.303-0.959,2.846-0.774,3.572  c0.224,0.877,1.337,7.432,2.817,6.039c0.604,1.897,0.995,3.818,1.838,5.646c0.57,1.24,1.283,2.468,2.275,3.421  c1.092,1.046,0.342,3.027,0.031,4.29c-0.439,1.795-1.328,3.435-2.655,4.735c-1.737,1.702-3.963,2.479-6.153,3.385  C23.001,77,18.735,80.816,19,81c1.171,0.813,3.459,2.244,4.744,2.857c6.098,2.906,13.035,3.756,19.712,4.027  c7.547,0.307,15.373,0.098,22.714-1.842c2.824-0.746,5.584-1.787,8.109-3.264C74.838,82.453,76.468,81.368,77,81  C77.256,80.822,73,78,71,77z"
     fill="url(#SVGID_3_)"
     id="path3198" />
  <path
     d="M33.632,45.479l-0.333-1.061l-1.175-0.211c-0.039,0.196-0.04,0.547,0.009,1.002L33.632,45.479  z M62.977,44l0.904,1.418c0.097-0.503,0.136-0.884,0.118-1.137L62.977,43V44z M62.211,29.541c0.686,1.5,1.309,5.376,1.444,6.338  c0.005-0.282,0.009-0.564,0.021-0.852c-0.078-0.609-0.736-4.893-1.465-6.486c-0.594-1.298-1.45-2.889-2.818-3.682  c-1.255-0.727-2.762-1.182-4.218-1.623c-0.371-0.111-0.738-0.223-1.101-0.338c-0.481-0.152-0.967-0.316-1.456-0.479  C50.539,21.721,48.389,21,46.285,21c-0.246,0-0.492,0.01-0.738,0.03c-0.758,0.063-1.47,0.323-2.222,0.599  c-0.507,0.186-1.03,0.377-1.599,0.521c-0.313,0.079-0.639,0.116-1.025,0.116c-0.221,0-0.441-0.013-0.662-0.025  c-0.182-0.011-0.363-0.022-0.546-0.022c-0.153,0-0.308,0.008-0.462,0.038c-0.4,0.079-0.606,0.292-1.002,1.035  c-0.039,0.072-0.069,0.211-0.102,0.358c-0.052,0.236-0.115,0.531-0.272,0.834c-0.442,0.852-1.318,0.92-1.788,0.956  c-0.09,0.007-0.178,0.011-0.256,0.026c-0.642,0.137-0.979,0.696-1.473,1.598l-0.146,0.264c-0.99,1.779-1.686,6.392-1.761,7.219  c0.006,0.18,0.01,0.502,0.014,0.88c0.117-1.066,0.795-5.388,1.747-7.099l0.146-0.263c0.494-0.901,0.831-1.462,1.473-1.598  c0.078-0.017,0.166-0.021,0.256-0.026c0.47-0.037,1.346-0.105,1.788-0.956c0.157-0.304,0.221-0.599,0.272-0.835  c0.032-0.146,0.063-0.285,0.102-0.357c0.396-0.744,0.602-0.957,1.002-1.035c0.154-0.03,0.309-0.039,0.462-0.039  c0.183,0,0.364,0.012,0.546,0.022c0.221,0.013,0.441,0.026,0.662,0.026c0.387,0,0.712-0.037,1.025-0.117  c0.568-0.145,1.092-0.336,1.599-0.521c0.752-0.275,1.464-0.535,2.222-0.598C45.793,22.01,46.039,22,46.285,22  c2.104,0,4.254,0.722,6.333,1.42c0.489,0.163,0.975,0.326,1.456,0.479c0.362,0.115,0.729,0.227,1.101,0.338  c1.456,0.441,2.963,0.896,4.218,1.624C60.761,26.653,61.617,28.244,62.211,29.541z"
     fill="#FFFFFF"
     fill-opacity="0.2"
     stroke-opacity="0.2"
     id="path3200" />
  <radialGradient
     cx="47.8164"
     cy="68.2734"
     gradientUnits="userSpaceOnUse"
     id="SVGID_4_"
     r="9.2964">
    <stop
       offset="0"
       style="stop-color:#000000;stop-opacity:0.5"
       id="stop3203" />
    <stop
       offset="0.4"
       style="stop-color:#000000;stop-opacity:0.5"
       id="stop3205" />
    <stop
       offset="1"
       style="stop-color:#595959;stop-opacity:0"
       id="stop3207" />
  </radialGradient>
  <path
     d="M38.889,63.104c0,0,5.459,4.924,8.209,4.924c0,0,1.334,0.084,2.502-0.166  c1.166-0.25,6.75-4.668,6.75-4.668s-2.188,13.594-8.927,13.578C40.447,76.754,38.889,63.104,38.889,63.104z"
     fill="url(#SVGID_4_)"
     fill-opacity="0.3"
     stroke-opacity="0.3"
     id="path3209" />
  <path
     d="M55.9,61.774c-1.341,1.045-4.957,3.019-5.924,3.226c-1.168,0.25-2.501,0.166-2.501,0.166  c-2.161,0-6.358-1.939-7.903-3.242c0.311,0.628,0.369,1.331,0.303,2.023c1.693,1.401,5.191,4.08,7.223,4.08  c0,0,1.334,0.084,2.502-0.166c0.896-0.192,4.38-2.828,5.957-4.049c-0.02-0.311-0.033-0.62-0.016-0.912  C55.568,62.446,55.715,62.084,55.9,61.774z"
     fill="#FFFFFF"
     fill-opacity="0.05"
     stroke-opacity="0.05"
     id="path3211" />
  <path
     d="M49.6,66.82c-1.168,0.25-2.502,0.166-2.502,0.166c-2.031,0-7.156-3.731-7.223-3.039  c1.693,1.401,5.191,4.08,7.223,4.08c0,0,1.334,0.084,2.502-0.166c0.896-0.192,4.38-2.828,5.957-4.049  C55.537,63.502,50.496,66.629,49.6,66.82z"
     fill="#FFFFFF"
     fill-opacity="0.1"
     stroke-opacity="0.1"
     id="path3213" />
  <rect
     fill="none"
     height="96"
     width="96"
     id="rect3215" />
</svg>
