<?xml version="1.0" encoding="UTF-8"?>
<!DOCTYPE svg PUBLIC "-//W3C//DTD SVG 1.1 Tiny//EN" "http://www.w3.org/Graphics/SVG/1.1/DTD/svg11-tiny.dtd">
<svg baseProfile="tiny" height="96px" version="1.1" viewBox="0 0 96 96" width="96px" x="0px" xmlns="http://www.w3.org/2000/svg" xmlns:xlink="http://www.w3.org/1999/xlink" y="0px">
<path d="M88,49c0,29.633-10.363,40-40,40C18.365,89,8,78.633,8,49C8,19.365,18.365,9,48,9  C77.637,9,88,19.365,88,49z" fill-opacity="0.4"/>
<linearGradient gradientUnits="userSpaceOnUse" id="SVGID_1_" x1="47.9995" x2="47.9995" y1="8" y2="88.0005">
<stop offset="0" style="stop-color:#FFFFFF"/>
<stop offset="1" style="stop-color:#CCCAC6"/>
</linearGradient>
<path d="M88,48c0,29.633-10.363,40-40,40C18.365,88,8,77.633,8,48C8,18.365,18.365,8,48,8  C77.637,8,88,18.365,88,48z" fill="url(#SVGID_1_)"/>
<rect fill="none" height="96" width="96"/>
<linearGradient gradientUnits="userSpaceOnUse" id="SVGID_2_" x1="47.9995" x2="47.9995" y1="8.2534" y2="87.4985">
<stop offset="0" style="stop-color:#FFFFFF"/>
<stop offset="1" style="stop-color:#FFFFFF;stop-opacity:0"/>
</linearGradient>
<path d="M48,8C18.365,8,8,18.365,8,48c0,29.633,10.365,40,40,40c29.637,0,40-10.367,40-40  C88,18.365,77.637,8,48,8z M48,87C18.842,87,9,77.158,9,48S18.842,9,48,9s39,9.842,39,39S77.158,87,48,87z" fill="url(#SVGID_2_)" fill-opacity="0.25" stroke-opacity="0.25"/>
<path d="M69.92,70.42c-0.127,0-0.256-0.049-0.354-0.146L46.939,47.646c-0.195-0.195-0.195-0.512,0-0.707  s0.512-0.195,0.707,0l22.627,22.627c0.195,0.195,0.195,0.512,0,0.707C70.176,70.371,70.049,70.42,69.92,70.42L69.92,70.42z" fill="#F6771E"/>
<path d="M48,58.772c-3.584,0-6.705-2.366-7.688-5.79L28.91,41.579c-1.322-1.318-2.049-3.076-2.049-4.949  s0.727-3.631,2.049-4.951c1.32-1.319,3.078-2.046,4.949-2.046c1.869,0,3.627,0.726,4.945,2.043l9.551,9.551l17.322-17.324  C66.908,22.676,68.539,22,70.273,22c1.738,0,3.369,0.676,4.596,1.902c1.227,1.229,1.902,2.861,1.902,4.597  c0,1.737-0.676,3.369-1.904,4.597L55.889,52.078C55.24,55.919,51.91,58.772,48,58.772L48,58.772z" fill-opacity="0.02" stroke-opacity="0.02"/>
<path d="M48,57.772c-3.213,0-6.02-2.214-6.791-5.308L29.615,40.872c-1.131-1.13-1.754-2.637-1.754-4.242  s0.623-3.113,1.754-4.244c1.135-1.131,2.641-1.753,4.244-1.753c1.602,0,3.109,0.622,4.238,1.751l10.258,10.257l18.029-18.031  C67.426,23.571,68.807,23,70.273,23c1.471,0,2.852,0.571,3.889,1.609c1.037,1.04,1.609,2.422,1.609,3.89  c0,1.47-0.572,2.852-1.609,3.89L54.947,51.605C54.514,55.093,51.533,57.772,48,57.772L48,57.772z" fill-opacity="0.02" stroke-opacity="0.02"/>
<path d="M48,56.772c-2.852,0-5.32-2.045-5.881-4.811L30.324,40.165c-0.943-0.941-1.463-2.197-1.463-3.535  s0.52-2.595,1.463-3.537c0.941-0.941,2.197-1.46,3.535-1.46c1.336,0,2.592,0.519,3.533,1.459l10.963,10.963l18.736-18.738  C67.943,24.468,69.072,24,70.273,24c1.203,0,2.334,0.468,3.182,1.316c0.85,0.851,1.316,1.98,1.316,3.183  c0,1.203-0.467,2.333-1.316,3.183l-19.469,19.47C53.768,54.307,51.166,56.772,48,56.772L48,56.772z" fill-opacity="0.05" stroke-opacity="0.05"/>
<path d="M48,55.772c-2.502,0-4.604-1.856-4.951-4.294L31.031,39.458c-0.754-0.753-1.17-1.758-1.17-2.828  s0.414-2.075,1.17-2.829c0.754-0.754,1.758-1.168,2.828-1.168c1.068,0,2.072,0.414,2.826,1.167l11.67,11.669l19.443-19.445  C68.461,25.363,69.34,25,70.273,25c0.936,0,1.814,0.363,2.475,1.023c0.66,0.661,1.023,1.54,1.023,2.476s-0.363,1.815-1.023,2.476  L53,50.723c0,0.017,0,0.033,0,0.05C53,53.529,50.758,55.772,48,55.772L48,55.772z" fill-opacity="0.1" stroke-opacity="0.1"/>
<path d="M48,54.772c-2.121,0-3.861-1.66-3.992-3.75l-12.27-12.271c-0.566-0.564-0.877-1.317-0.877-2.121  s0.311-1.557,0.877-2.122c0.564-0.564,1.318-0.875,2.121-0.875s1.555,0.311,2.121,0.875l12.273,12.274  c0.061,0.004,0.121,0.01,0.184,0.018L68.506,26.73c0.473-0.471,1.1-0.73,1.768-0.73c0.67,0,1.297,0.26,1.768,0.73  c0.471,0.472,0.73,1.1,0.73,1.769s-0.26,1.297-0.73,1.769L51.973,50.336C51.992,50.483,52,50.628,52,50.772  C52,52.979,50.207,54.772,48,54.772L48,54.772z" fill-opacity="0.1" stroke-opacity="0.1"/>
<path d="M71.334,27.438L71.334,27.438c-0.582-0.584-1.537-0.584-2.121-0.001L48.768,47.884  c-0.246-0.065-0.5-0.111-0.768-0.111c-0.053,0-0.102,0.013-0.154,0.016L35.273,35.216c-0.779-0.777-2.051-0.777-2.828,0  c-0.779,0.777-0.779,2.051,0,2.828l12.57,12.572C45.014,50.669,45,50.719,45,50.772c0,1.656,1.342,3,3,3c1.656,0,3-1.344,3-3  c0-0.267-0.045-0.521-0.111-0.768L71.334,29.56C71.918,28.977,71.918,28.021,71.334,27.438z" fill-opacity="0.3" stroke-opacity="0.3"/>
<linearGradient gradientTransform="matrix(0.7071 -0.7071 0.7071 0.7071 -208.9813 3059.7412)" gradientUnits="userSpaceOnUse" id="SVGID_3_" x1="2309.3584" x2="2344.3584" y1="-1947.9287" y2="-1947.9287">
<stop offset="0" style="stop-color:#58595B"/>
<stop offset="1" style="stop-color:#000000"/>
</linearGradient>
<path d="M71.334,24.666c0.584,0.583,0.584,1.538,0,2.121L48.707,49.414c-0.584,0.583-1.537,0.583-2.121,0  s-0.584-1.538,0-2.121l22.627-22.628C69.797,24.082,70.752,24.082,71.334,24.666L71.334,24.666z" fill="url(#SVGID_3_)"/>
<linearGradient gradientTransform="matrix(0.7071 -0.7071 0.7071 0.7071 -208.9813 3059.7412)" gradientUnits="userSpaceOnUse" id="SVGID_4_" x1="2309.3584" x2="2313.3604" y1="-1957.9277" y2="-1957.9277">
<stop offset="0" style="stop-color:#58595B"/>
<stop offset="1" style="stop-color:#000000"/>
</linearGradient>
<path d="M49.416,46.585c0.777,0.777,0.777,2.051,0,2.828l-0.002,0.001c-0.777,0.777-2.051,0.777-2.828,0  L32.445,35.271c-0.779-0.777-0.779-2.051,0-2.828c0.777-0.777,2.049-0.777,2.828,0L49.416,46.585z" fill="url(#SVGID_4_)"/>
<linearGradient gradientUnits="userSpaceOnUse" id="SVGID_5_" x1="54.292" x2="59.292" y1="10.3501" y2="38.934">
<stop offset="0" style="stop-color:#58595B"/>
<stop offset="1" style="stop-color:#000000"/>
</linearGradient>
<path d="M71.334,24.666c0.584,0.583,0.584,1.538,0,2.121L48.707,49.414c-0.584,0.583-1.537,0.583-2.121,0  s-0.584-1.538,0-2.121l22.627-22.628C69.797,24.082,70.752,24.082,71.334,24.666L71.334,24.666z" fill="url(#SVGID_5_)"/>
<linearGradient gradientUnits="userSpaceOnUse" id="SVGID_6_" x1="32.5508" x2="42.1758" y1="12.6343" y2="45.1342">
<stop offset="0" style="stop-color:#58595B"/>
<stop offset="1" style="stop-color:#000000"/>
</linearGradient>
<path d="M49.416,46.585c0.777,0.777,0.777,2.051,0,2.828l-0.002,0.001c-0.777,0.777-2.051,0.777-2.828,0  L32.445,35.271c-0.779-0.777-0.779-2.051,0-2.828c0.777-0.777,2.049-0.777,2.828,0L49.416,46.585z" fill="url(#SVGID_6_)"/>
<linearGradient gradientUnits="userSpaceOnUse" id="SVGID_7_" x1="57.1484" x2="60.063" y1="35.2275" y2="38.1421">
<stop offset="0" style="stop-color:#FFFFFF"/>
<stop offset="0.7362" style="stop-color:#FFFFFF;stop-opacity:0"/>
<stop offset="1" style="stop-color:#FFFFFF;stop-opacity:0"/>
</linearGradient>
<path d="M71.334,24.666L71.334,24.666c-0.582-0.584-1.537-0.584-2.121-0.001L46.586,47.293  c-0.584,0.583-0.584,1.538,0,2.121s1.537,0.583,2.121,0l22.627-22.627C71.918,26.204,71.918,25.249,71.334,24.666z M70.629,26.079  L48,48.707c-0.125,0.125-0.275,0.145-0.354,0.145s-0.229-0.02-0.354-0.146c-0.125-0.125-0.145-0.274-0.145-0.353  s0.02-0.228,0.145-0.353L69.92,25.372c0.127-0.125,0.275-0.145,0.354-0.145s0.229,0.019,0.354,0.145  c0.127,0.126,0.145,0.276,0.145,0.354S70.754,25.954,70.629,26.079z" fill="url(#SVGID_7_)" fill-opacity="0.4" stroke-opacity="0.4"/>
<linearGradient gradientUnits="userSpaceOnUse" id="SVGID_8_" x1="44.6177" x2="38.0733" y1="37.2412" y2="43.7856">
<stop offset="0" style="stop-color:#FFFFFF"/>
<stop offset="0.7362" style="stop-color:#FFFFFF;stop-opacity:0"/>
<stop offset="1" style="stop-color:#FFFFFF;stop-opacity:0"/>
</linearGradient>
<path d="M49.416,46.585L35.273,32.443c-0.779-0.777-2.051-0.777-2.828,0  c-0.779,0.777-0.779,2.051,0,2.828l14.141,14.143c0.777,0.777,2.051,0.777,2.828,0l0.002-0.001  C50.193,48.636,50.193,47.362,49.416,46.585z M48.709,48.705c-0.188,0.188-0.439,0.292-0.709,0.292s-0.52-0.104-0.707-0.29  L33.15,34.564c-0.186-0.188-0.289-0.438-0.289-0.707s0.104-0.52,0.289-0.706c0.189-0.188,0.439-0.291,0.709-0.291  c0.268,0,0.52,0.104,0.707,0.291l14.143,14.141C48.896,47.479,49,47.73,49,47.999S48.896,48.519,48.709,48.705z" fill="url(#SVGID_8_)" fill-opacity="0.4" stroke-opacity="0.4"/>
<linearGradient gradientUnits="userSpaceOnUse" id="SVGID_9_" x1="47.9995" x2="47.9995" y1="45.5" y2="53.8766">
<stop offset="0" style="stop-color:#FFFFFF"/>
<stop offset="1" style="stop-color:#6D6E70"/>
</linearGradient>
<circle cx="48" cy="48" fill="url(#SVGID_9_)" r="3"/>
<circle cx="48" cy="48" fill="#F1F1F2" r="2"/>
</svg>
