<?xml version="1.0" encoding="UTF-8" standalone="no"?>
<svg
   xmlns:dc="http://purl.org/dc/elements/1.1/"
   xmlns:cc="http://creativecommons.org/ns#"
   xmlns:rdf="http://www.w3.org/1999/02/22-rdf-syntax-ns#"
   xmlns:svg="http://www.w3.org/2000/svg"
   xmlns="http://www.w3.org/2000/svg"
   xmlns:sodipodi="http://sodipodi.sourceforge.net/DTD/sodipodi-0.dtd"
   xmlns:inkscape="http://www.inkscape.org/namespaces/inkscape"
   height="96px"
   version="1.1"
   viewBox="0 0 96 96"
   width="96px"
   x="0px"
   y="0px"
   id="svg3053"
   inkscape:version="0.48.4 r9939"
   sodipodi:docname="qgn_menu_help.svg">
  <metadata
     id="metadata3119">
    <rdf:RDF>
      <cc:Work
         rdf:about="">
        <dc:format>image/svg+xml</dc:format>
        <dc:type
           rdf:resource="http://purl.org/dc/dcmitype/StillImage" />
      </cc:Work>
    </rdf:RDF>
  </metadata>
  <defs
     id="defs3117" />
  <sodipodi:namedview
     pagecolor="#ffffff"
     bordercolor="#666666"
     borderopacity="1"
     objecttolerance="10"
     gridtolerance="10"
     guidetolerance="10"
     inkscape:pageopacity="0"
     inkscape:pageshadow="2"
     inkscape:window-width="1440"
     inkscape:window-height="838"
     id="namedview3115"
     showgrid="false"
     inkscape:zoom="6.1554362"
     inkscape:cx="20.138449"
     inkscape:cy="48"
     inkscape:window-x="-8"
     inkscape:window-y="-8"
     inkscape:window-maximized="1"
     inkscape:current-layer="svg3053" />
  <path
     d="M88,49c0,29.633-10.363,40-40,40C18.365,89,8,78.633,8,49C8,19.365,18.365,9,48,9C77.637,9,88,19.365,88,49z"
     fill-opacity="0.4"
     stroke-opacity="0.4"
     id="path3055" />
  <linearGradient
     gradientUnits="userSpaceOnUse"
     id="SVGID_1_"
     x1="47.9995"
     x2="47.9995"
     y1="8.5449"
     y2="89.2398">
    <stop
       offset="0"
       style="stop-color:#00bacc;stop-opacity:1;"
       id="stop3058" />
    <stop
       id="stop4569"
       style="stop-color:#01a1bb;stop-opacity:1;"
       offset="0.25" />
    <stop
       id="stop4567"
       style="stop-color:#026d98;stop-opacity:1;"
       offset="0.5" />
    <stop
       offset="1"
       style="stop-color:#02598b;stop-opacity:1;"
       id="stop3060" />
  </linearGradient>
  <path
     d="M88,48c0,29.633-10.363,40-40,40C18.365,88,8,77.633,8,48C8,18.365,18.365,8,48,8  C77.637,8,88,18.365,88,48z"
     fill="url(#SVGID_1_)"
     id="path3062" />
  <linearGradient
     gradientUnits="userSpaceOnUse"
     id="SVGID_2_"
     x1="47.9995"
     x2="47.9995"
     y1="8.5449"
     y2="89.2398">
    <stop
       offset="0"
       style="stop-color:#FFFFFF"
       id="stop3065" />
    <stop
       offset="1"
       style="stop-color:#FFFFFF;stop-opacity:0"
       id="stop3067" />
  </linearGradient>
  <path
     d="M48,8C18.365,8,8,18.365,8,48c0,29.633,10.365,40,40,40c29.637,0,40-10.367,40-40  C88,18.365,77.637,8,48,8z M48,87C18.841,87,9,77.158,9,48C9,18.841,18.841,9,48,9s39,9.841,39,39C87,77.158,77.159,87,48,87z"
     fill="url(#SVGID_2_)"
     fill-opacity="0.25"
     stroke-opacity="0.25"
     id="path3069" />
  <radialGradient
     cx="165.7061"
     cy="-826.2383"
     gradientTransform="matrix(0.7071 -0.7071 0.198 0.198 115.4226 349.7662)"
     gradientUnits="userSpaceOnUse"
     id="SVGID_3_"
     r="24.5073">
    <stop
       offset="0"
       style="stop-color:#FFFFFF;stop-opacity:0.16"
       id="stop3072" />
    <stop
       offset="0.8"
       style="stop-color:#FFFFFF;stop-opacity:0.02"
       id="stop3074" />
    <stop
       offset="1"
       style="stop-color:#FFFFFF;stop-opacity:0"
       id="stop3076" />
  </radialGradient>
  <path
     d="M86.329,51.671c2.68,2.681-2.906,12.61-12.477,22.182  c-9.571,9.57-19.501,15.155-22.182,12.477c-2.68-2.68,2.906-12.61,12.478-22.182C73.719,54.577,83.648,48.991,86.329,51.671z"
     fill="url(#SVGID_3_)"
     fill-opacity="0.85"
     id="path3078" />
  <radialGradient
     cx="73.54"
     cy="73.0977"
     gradientUnits="userSpaceOnUse"
     id="SVGID_4_"
     r="38.086">
    <stop
       offset="0"
       style="stop-color:#A1B2C0"
       id="stop3081" />
    <stop
       offset="1"
       style="stop-color:#3D465B"
       id="stop3083" />
  </radialGradient>
  <path
     d="M47.08,87.986C74.798,87.742,87.258,76.029,88,49.209C80.322,78.486,49.35,87.48,47.08,87.986z"
     fill="url(#SVGID_4_)"
     id="path3085" />
  <linearGradient
     gradientUnits="userSpaceOnUse"
     id="SVGID_5_"
     x1="78.4609"
     x2="71.7707"
     y1="79.543"
     y2="72.8527">
    <stop
       offset="0"
       style="stop-color:#026d98;stop-opacity:1;"
       id="stop3088" />
    <stop
       offset="1"
       style="stop-color:#026d98;stop-opacity:1;"
       id="stop3090" />
  </linearGradient>
  <path
     d="M49.08,87.986c27.718-0.244,38.13-9.957,38.872-36.777C80.274,80.486,51.35,87.48,49.08,87.986z"
     fill="url(#SVGID_5_)"
     id="path3092" />
  <path
     d="M49.08,87.986c27.718-0.244,38.13-9.957,38.872-36.777C85,79,70,85,49.08,87.986z"
     fill="#231F20"
     fill-opacity="0.34"
     id="path3094" />
  <rect
     fill="none"
     height="96"
     width="96"
     id="rect3096" />
  <path
     d="M46.246,77.587c-4.423,0-7.759-3.364-7.759-7.827c0-4.036,2.676-7.07,6.52-7.607h-2.024c-1.654,0-3-1.346-3-3  v-2.516c0-6.24,3.271-9.958,7.224-13.836l0.118-0.118c2.331-2.331,4.014-4.013,4.014-6.308c0-2.607-0.912-4.344-5.363-4.344  c-2.752,0-5.522,0.723-8.107,1.503c-0.277,0.085-0.57,0.129-0.867,0.129c-0.643,0-1.279-0.211-1.793-0.595  C34.453,32.511,34,31.61,34,30.663V25.7c0-1.325,0.888-2.509,2.159-2.88C38.838,22.039,42.882,21,47.063,21  c11.075,0,17.687,5.595,17.687,14.967c0,6.484-4.023,10.636-7.573,14.3l-0.68,0.702c-3.485,3.625-4.054,4.477-4.054,6.076v2.107  c0,1.654-1.346,3-3,3h-1.968c3.811,0.537,6.463,3.571,6.463,7.607C53.938,74.223,50.631,77.587,46.246,77.587L46.246,77.587z"
     fill-opacity="0.1"
     stroke-opacity="0.1"
     id="path3098" />
  <path
     d="M46.246,76.587c-3.854,0-6.759-2.935-6.759-6.827c0-3.878,2.843-6.692,6.759-6.692  c3.877,0,6.691,2.814,6.691,6.692C52.938,73.652,50.061,76.587,46.246,76.587L46.246,76.587z M42.982,61.152c-1.103,0-2-0.896-2-2  v-2.516c0-5.853,3.136-9.405,6.924-13.122l0.125-0.125c2.406-2.406,4.307-4.305,4.307-7.015c0-3.696-1.963-5.344-6.363-5.344  c-2.883,0-5.739,0.743-8.396,1.546c-0.187,0.057-0.382,0.086-0.578,0.086c-0.428,0-0.853-0.141-1.194-0.396  C35.303,31.895,35,31.294,35,30.663V25.7c0-0.883,0.592-1.673,1.439-1.92C39.059,23.016,43.01,22,47.063,22  c10.604,0,16.687,5.091,16.687,13.967c0,6.08-3.874,10.077-7.292,13.604l-0.68,0.702c-3.457,3.596-4.335,4.73-4.335,6.771v2.107  c0,1.104-0.897,2-2,2H42.982z"
     fill-opacity="0.1"
     stroke-opacity="0.1"
     id="path3100" />
  <path
     d="M46.246,75.587c-3.283,0-5.759-2.505-5.759-5.827c0-3.299,2.422-5.692,5.759-5.692  c3.298,0,5.691,2.394,5.691,5.692C51.938,73.082,49.491,75.587,46.246,75.587L46.246,75.587z M42.982,60.152c-0.553,0-1-0.447-1-1  v-2.516c0-5.475,2.871-8.726,6.624-12.408l0.133-0.133c2.468-2.466,4.599-4.596,4.599-7.72c0-4.269-2.408-6.344-7.363-6.344  c-3.013,0-5.955,0.764-8.686,1.589c-0.095,0.029-0.192,0.043-0.289,0.043c-0.212,0-0.422-0.067-0.596-0.197  C36.149,31.277,36,30.979,36,30.663V25.7c0-0.444,0.293-0.835,0.72-0.96C39.28,23.993,43.139,23,47.063,23  c10.115,0,15.687,4.605,15.687,12.967c0,5.675-3.725,9.518-7.011,12.909l-0.68,0.702c-3.488,3.627-4.616,5.007-4.616,7.467v2.107  c0,0.553-0.447,1-1,1H42.982z"
     fill-opacity="0.1"
     stroke-opacity="0.1"
     id="path3102" />
  <path
     d="M46.246,65.067c-2.787,0-4.759,1.973-4.759,4.692s1.972,4.827,4.759,4.827c2.788,0,4.691-2.107,4.691-4.827  S49.034,65.067,46.246,65.067z M47.063,24c-3.399,0-6.799,0.748-10.063,1.7v4.963c2.924-0.884,5.915-1.632,8.975-1.632  c4.963,0,8.363,2.04,8.363,7.344c0,3.604-2.447,5.983-5.031,8.567c-3.604,3.535-6.324,6.595-6.324,11.694v2.516h6.46v-2.107  c0-2.924,1.495-4.624,4.896-8.159c3.399-3.536,7.411-7.275,7.411-12.919C61.749,26.991,55.086,24,47.063,24z"
     fill-opacity="0.3"
     stroke-opacity="0.3"
     id="path3104" />
  <linearGradient
     gradientUnits="userSpaceOnUse"
     id="SVGID_6_"
     x1="49.375"
     x2="49.375"
     y1="25.1729"
     y2="102.0434">
    <stop
       offset="0"
       style="stop-color:#F8FBEE"
       id="stop3107" />
    <stop
       offset="0.3232"
       style="stop-color:#F8FBEE"
       id="stop3109" />
    <stop
       offset="1"
       style="stop-color:#D2CBC5"
       id="stop3111" />
  </linearGradient>
  <path
     d="M46.246,63.48c-2.787,0-4.759,1.973-4.759,4.692S43.459,73,46.246,73  c2.788,0,4.691-2.107,4.691-4.827S49.034,63.48,46.246,63.48z M47.063,22.413c-3.399,0-6.799,0.748-10.063,1.7v4.963  c2.924-0.884,5.915-1.632,8.975-1.632c4.963,0,8.363,2.04,8.363,7.344c0,3.604-2.447,5.983-5.031,8.567  c-3.604,3.535-6.324,6.595-6.324,11.694v2.516h6.46v-2.107c0-2.924,1.495-4.624,4.896-8.159c3.399-3.536,7.411-7.275,7.411-12.919  C61.749,25.404,55.086,22.413,47.063,22.413z"
     fill="url(#SVGID_6_)"
     id="path3113" />
</svg>
