<?xml version="1.0" encoding="utf-8"?>
<!-- Generator: Adobe Illustrator 17.0.1, SVG Export Plug-In . SVG Version: 6.00 Build 0)  -->
<!DOCTYPE svg PUBLIC "-//W3C//DTD SVG 1.1//EN" "http://www.w3.org/Graphics/SVG/1.1/DTD/svg11.dtd">
<svg version="1.1"
	 id="Layer_1" sodipodi:docname="StatusPage.svg" inkscape:version="0.48.4 r9939" xmlns:dc="http://purl.org/dc/elements/1.1/" xmlns:cc="http://creativecommons.org/ns#" xmlns:rdf="http://www.w3.org/1999/02/22-rdf-syntax-ns#" xmlns:svg="http://www.w3.org/2000/svg" xmlns:sodipodi="http://sodipodi.sourceforge.net/DTD/sodipodi-0.dtd" xmlns:inkscape="http://www.inkscape.org/namespaces/inkscape"
	 xmlns="http://www.w3.org/2000/svg" xmlns:xlink="http://www.w3.org/1999/xlink" x="0px" y="0px" width="96px" height="96px"
	 viewBox="0 0 96 96" enable-background="new 0 0 96 96" xml:space="preserve">
<sodipodi:namedview  inkscape:pageopacity="0" inkscape:cy="58.544247" inkscape:cx="47.694724" inkscape:zoom="6.1554362" showgrid="false" id="namedview3145" guidetolerance="10" gridtolerance="10" objecttolerance="10" borderopacity="1" bordercolor="#666666" pagecolor="#ffffff" inkscape:window-height="838" inkscape:window-maximized="1" inkscape:window-x="-8" inkscape:window-y="-8" inkscape:pageshadow="2" inkscape:current-layer="Layer_1" inkscape:window-width="1440">
	</sodipodi:namedview>
<rect id="rect3134" fill="none" width="96" height="96"/>
<path id="path3138" fill-opacity="0.4" d="M88,48.545c0,29.634-10.363,40-40,40c-29.634,0-40-10.366-40-40c0-29.635,10.366-40,40-40
	C77.637,8.545,88,18.91,88,48.545z"/>
<linearGradient id="path3152_1_" gradientUnits="userSpaceOnUse" x1="452.7051" y1="-1475.58" x2="452.7051" y2="-1554.8199" gradientTransform="matrix(1 0 0 -1 -404.7051 -1467.3252)">
	<stop  offset="0" style="stop-color:#FFFFFF"/>
	<stop  offset="1" style="stop-color:#FFFFFF;stop-opacity:0"/>
</linearGradient>
<path id="path3152" fill="url(#path3152_1_)" fill-opacity="0.25" d="M48,8C18.366,8,8,18.365,8,48c0,29.634,10.366,40,40,40
	c29.637,0,40-10.366,40-40C88,18.365,77.637,8,48,8z M48,87C18.842,87,9,77.158,9,48S18.842,9,48,9s39,9.842,39,39S77.158,87,48,87z
	"/>
<g>
	
		<linearGradient id="path3145_1_" gradientUnits="userSpaceOnUse" x1="626.98" y1="1144.0254" x2="626.98" y2="1069.1855" gradientTransform="matrix(1 0 0 1 -578.98 -1046.88)">
		<stop  offset="0" style="stop-color:#00669B"/>
		<stop  offset="1" style="stop-color:#5BCBF5"/>
	</linearGradient>
	<path id="path3145" fill="url(#path3145_1_)" d="M88,48.545c0,29.634-10.363,40-40,40c-29.634,0-40-10.366-40-40
		c0-29.635,10.366-40,40-40C77.637,8.545,88,18.91,88,48.545z"/>
	<g>
		<path id="path3310" inkscape:connector-curvature="0" opacity="0.15" enable-background="new    " d="M31.193,81.5
			c-1.281,0-2.606-0.898-3.082-2.089l-1.686-4.209c-0.338-0.846-0.592-2.171-0.592-3.082V23.88c0-0.911,0.255-2.236,0.592-3.082
			l1.686-4.212c0.476-1.189,1.801-2.086,3.082-2.086h32.16c1.281,0,2.606,0.898,3.082,2.088l1.687,4.21
			c0.338,0.846,0.591,2.171,0.591,3.082v48.24c0,0.911-0.253,2.236-0.591,3.082l-1.687,4.212c-0.476,1.189-1.801,2.086-3.082,2.086
			C63.353,81.5,31.193,81.5,31.193,81.5z M38.563,73.46c-0.369,0-0.67,0.301-0.67,0.67c0,0.369,0.301,0.67,0.67,0.67h17.42
			c0.368,0,0.67-0.301,0.67-0.67c0-0.368-0.302-0.67-0.67-0.67H38.563z M62.013,66.76V25.22h-29.48v41.54H62.013z"/>
		<path id="path3312" inkscape:connector-curvature="0" opacity="0.3" enable-background="new    " d="M66.876,22.635l-1.686-4.212
			c-0.273-0.683-1.1-1.244-1.837-1.244h-32.16c-0.737,0-1.564,0.56-1.837,1.245l-1.686,4.212c-0.273,0.683-0.497,1.847-0.497,2.584
			v48.24c0,0.737,0.224,1.9,0.497,2.586l1.686,4.216c0.273,0.678,1.1,1.238,1.837,1.238h32.16c0.737,0,1.564-0.56,1.837-1.246
			l1.686-4.216c0.273-0.678,0.497-1.841,0.497-2.578V25.22C67.373,24.483,67.15,23.32,66.876,22.635z M55.983,77.48h-17.42
			c-1.11,0-2.01-0.9-2.01-2.01s0.9-2.01,2.01-2.01h17.42c1.11,0,2.01,0.9,2.01,2.01S57.093,77.48,55.983,77.48z M63.353,69.44
			h-32.16V25.22h32.16V69.44z"/>
		
			<linearGradient id="path3323_1_" gradientUnits="userSpaceOnUse" x1="861.6734" y1="3629.1018" x2="861.6734" y2="3564.7808" gradientTransform="matrix(1 0 0 1 -814.4004 -3548.9417)">
			<stop  offset="0" style="stop-color:#D0CBC5"/>
			<stop  offset="0.5031" style="stop-color:#FAFCEF"/>
			<stop  offset="0.9693" style="stop-color:#FFFFFF"/>
			<stop  offset="1" style="stop-color:#FFFFFF"/>
		</linearGradient>
		<path id="path3323" inkscape:connector-curvature="0" fill="url(#path3323_1_)" d="M66.876,21.295l-1.686-4.212
			c-0.273-0.683-1.1-1.244-1.837-1.244h-32.16c-0.737,0-1.564,0.56-1.837,1.245l-1.686,4.212c-0.273,0.683-0.497,1.847-0.497,2.584
			v48.24c0,0.737,0.224,1.9,0.497,2.586l1.686,4.216c0.273,0.678,1.1,1.238,1.837,1.238h32.16c0.737,0,1.564-0.56,1.837-1.246
			l1.686-4.216c0.273-0.678,0.497-1.841,0.497-2.578V23.88C67.373,23.143,67.15,21.98,66.876,21.295z M55.983,76.14h-17.42
			c-1.11,0-2.01-0.9-2.01-2.01s0.9-2.01,2.01-2.01h17.42c1.11,0,2.01,0.9,2.01,2.01S57.093,76.14,55.983,76.14z M63.353,68.1h-32.16
			V23.88h32.16V68.1z"/>
		<path id="path3325" inkscape:connector-curvature="0" fill="#FFFFFF" d="M31.193,69.44h32.16V68.1h-32.16V69.44z M55.983,76.14
			h-17.42c-0.874,0-1.609-0.561-1.887-1.34c-0.075,0.21-0.123,0.434-0.123,0.67c0,1.11,0.9,2.01,2.01,2.01h17.42
			c1.11,0,2.01-0.9,2.01-2.01c0-0.236-0.048-0.46-0.123-0.67C57.593,75.579,56.857,76.14,55.983,76.14z M66.876,21.295l-1.686-4.212
			c-0.273-0.683-1.1-1.244-1.837-1.244h-32.16c-0.737,0-1.564,0.56-1.837,1.245l-1.686,4.212c-0.273,0.683-0.497,1.847-0.497,2.584
			v1.34c0-0.737,0.224-1.9,0.497-2.585l1.686-4.212c0.273-0.683,1.1-1.244,1.837-1.244h32.16c0.737,0,1.564,0.56,1.837,1.245
			l1.686,4.212c0.273,0.683,0.497,1.847,0.497,2.584v-1.34C67.373,23.143,67.15,21.98,66.876,21.295z"/>
	</g>
</g>
<g id="g3348" transform="translate(90.130556,23.148959)" display="none">
	<path id="path3350" inkscape:connector-curvature="0" display="inline" opacity="0.15" enable-background="new    " d="
		M29.066,17.278c-0.105,0-0.207,0.02-0.299,0.062c-0.085,0.037-0.166,0.09-0.233,0.158c-0.072,0.071-0.126,0.152-0.164,0.242
		c-0.012,0.029-0.02,0.055-0.025,0.078l0,0l-1.083,3.247h-2.93c-0.101,0-0.203,0.02-0.295,0.059
		c-0.093,0.04-0.173,0.095-0.242,0.165c-0.065,0.064-0.121,0.147-0.159,0.24c-0.037,0.084-0.057,0.184-0.057,0.29
		s0.021,0.207,0.061,0.299c0.035,0.084,0.092,0.169,0.164,0.239c0.03,0.031,0.064,0.054,0.089,0.07l0.002,0.006l2.347,1.689
		l-1.035,3.105c-0.034,0.088-0.051,0.18-0.051,0.272c0,0.098,0.02,0.195,0.058,0.289c0.039,0.092,0.095,0.176,0.165,0.244
		c0.069,0.07,0.149,0.123,0.237,0.161c0.087,0.038,0.19,0.061,0.294,0.061c0.106,0,0.207-0.022,0.3-0.063
		c0.055-0.023,0.098-0.056,0.118-0.071l0.004,0.004l2.735-1.968l2.735,1.968l0.004-0.004c0.022,0.018,0.061,0.047,0.114,0.071
		c0.099,0.042,0.198,0.063,0.303,0.063s0.205-0.021,0.298-0.063c0.085-0.036,0.164-0.089,0.232-0.156
		c0.068-0.067,0.126-0.152,0.165-0.244s0.059-0.19,0.059-0.291c0-0.094-0.017-0.186-0.051-0.274l-1.034-3.104l2.346-1.689
		l0.003-0.007c0.021-0.013,0.048-0.031,0.077-0.057l0.018-0.018c0.068-0.068,0.123-0.15,0.161-0.238
		c0.039-0.092,0.06-0.191,0.06-0.295c0-0.103-0.021-0.202-0.06-0.294c-0.037-0.088-0.091-0.168-0.159-0.238
		c-0.072-0.07-0.152-0.124-0.24-0.162c-0.094-0.039-0.193-0.059-0.292-0.059h-2.929l-1.083-3.247l-0.001-0.001
		c-0.005-0.021-0.013-0.046-0.023-0.073c-0.042-0.097-0.096-0.177-0.164-0.245c-0.068-0.068-0.148-0.123-0.239-0.161
		C29.271,17.298,29.17,17.278,29.066,17.278L29.066,17.278z"/>
</g>
<g id="g3366" transform="translate(90.130556,23.148959)" display="none">
	<path id="path3368" inkscape:connector-curvature="0" display="inline" opacity="0.3" enable-background="new    " d="
		M34.091,22.134c-0.016-0.038-0.039-0.072-0.067-0.1c-0.023-0.029-0.063-0.052-0.101-0.067c-0.037-0.016-0.08-0.024-0.123-0.024
		h-3.245l-1.182-3.547h-0.006c-0.005-0.016-0.004-0.033-0.009-0.048c-0.017-0.037-0.04-0.072-0.068-0.1
		c-0.028-0.029-0.063-0.051-0.101-0.068c-0.037-0.016-0.079-0.024-0.123-0.024c-0.044,0-0.084,0.008-0.122,0.024
		c-0.038,0.017-0.072,0.04-0.102,0.068c-0.028,0.028-0.052,0.063-0.067,0.1c-0.006,0.016-0.005,0.032-0.009,0.048H28.76
		l-1.182,3.547h-3.247c-0.042,0-0.084,0.008-0.122,0.024s-0.072,0.039-0.101,0.067s-0.052,0.063-0.067,0.1
		c-0.017,0.039-0.024,0.08-0.024,0.124c0,0.043,0.007,0.084,0.024,0.123c0.016,0.037,0.039,0.072,0.067,0.1
		c0.012,0.012,0.029,0.02,0.044,0.029l-0.003,0.006l2.608,1.878l-1.142,3.421c-0.015,0.038-0.024,0.08-0.024,0.124
		c0,0.043,0.009,0.085,0.024,0.122c0.016,0.038,0.04,0.072,0.068,0.1s0.062,0.052,0.1,0.068c0.037,0.016,0.08,0.025,0.123,0.025
		c0.044,0,0.086-0.01,0.123-0.025c0.017-0.008,0.03-0.021,0.045-0.029l-0.002,0.008l2.991-2.153l0,0l0,0l2.991,2.153L32.051,28.2
		c0.016,0.008,0.027,0.022,0.044,0.029c0.038,0.016,0.08,0.025,0.124,0.025s0.085-0.01,0.123-0.025
		c0.038-0.017,0.071-0.04,0.1-0.068c0.029-0.027,0.052-0.063,0.068-0.1c0.016-0.037,0.025-0.079,0.025-0.122
		c0-0.044-0.009-0.085-0.025-0.124l-1.141-3.421l2.608-1.878l-0.002-0.006c0.015-0.009,0.031-0.018,0.044-0.029
		c0.023-0.028,0.053-0.063,0.063-0.1c0.021-0.039,0.021-0.08,0.021-0.123C34.115,22.214,34.107,22.172,34.091,22.134z"/>
</g>
<g>
	<path fill-opacity="0.3" d="M35.515,64.699c-0.218,0.218-0.218,0.576,0,0.793l0.397,0.396c0.218,0.217,0.574,0.217,0.793,0
		l4.709-4.709c0.218-0.218,0.218-0.574,0-0.792l-4.709-4.709c-0.218-0.218-0.574-0.218-0.793,0l-0.397,0.397
		c-0.218,0.218-0.218,0.574,0,0.793l3.52,3.52c0.218,0.218,0.218,0.574,0,0.792L35.515,64.699z"/>
	<path fill-opacity="0.15" d="M36.308,66.804c-0.25,0-0.486-0.096-0.662-0.273l-0.397-0.396c-0.365-0.365-0.365-0.96,0-1.326
		l3.52-3.52c0.046-0.046,0.053-0.101,0.053-0.13s-0.007-0.083-0.054-0.13l-3.521-3.519c-0.365-0.365-0.365-0.959,0-1.325
		l0.397-0.397c0.177-0.177,0.412-0.274,0.663-0.274c0.251,0,0.486,0.097,0.663,0.274l4.709,4.709
		c0.177,0.176,0.274,0.412,0.274,0.663c0.001,0.251-0.097,0.486-0.274,0.663l-4.709,4.709
		C36.795,66.708,36.559,66.804,36.308,66.804L36.308,66.804z"/>
	<path fill-opacity="0.15" d="M35.515,65.076c-0.218,0.218-0.218,0.576,0,0.793l0.397,0.396c0.218,0.217,0.574,0.217,0.793,0
		l4.709-4.709c0.218-0.218,0.218-0.574,0-0.792l-4.709-4.709c-0.218-0.218-0.574-0.218-0.793,0l-0.397,0.397
		c-0.218,0.218-0.218,0.574,0,0.793l3.52,3.52c0.218,0.218,0.218,0.574,0,0.792L35.515,65.076z"/>
	<path fill="#FFFFFF" d="M35.515,65.076c-0.218,0.218-0.218,0.576,0,0.793l0.397,0.396c0.218,0.217,0.574,0.217,0.793,0l4.709-4.709
		c0.218-0.218,0.218-0.574,0-0.792l-4.709-4.709c-0.218-0.218-0.574-0.218-0.793,0l-0.397,0.397c-0.218,0.218-0.218,0.574,0,0.793
		l3.52,3.52c0.218,0.218,0.218,0.574,0,0.792L35.515,65.076z"/>
</g>
<g>
	<g opacity="0.35">
		<path fill="#808080" d="M38.938,34.167v8.083h-1.043v-8.083H38.938z"/>
		<path fill="#808080" d="M47.671,38.124c0,2.783-1.691,4.258-3.754,4.258c-2.135,0-3.634-1.655-3.634-4.102
			c0-2.567,1.595-4.246,3.754-4.246C46.243,34.035,47.671,35.726,47.671,38.124z M41.398,38.256c0,1.727,0.935,3.274,2.579,3.274
			c1.655,0,2.59-1.523,2.59-3.358c0-1.607-0.839-3.286-2.579-3.286C42.261,34.886,41.398,36.481,41.398,38.256z"/>
		<path fill="#808080" d="M48.886,40.979c0.468,0.288,1.151,0.528,1.871,0.528c1.067,0,1.691-0.563,1.691-1.379
			c0-0.755-0.433-1.187-1.523-1.607c-1.319-0.468-2.135-1.151-2.135-2.291c0-1.259,1.043-2.195,2.614-2.195
			c0.827,0,1.428,0.192,1.787,0.396l-0.288,0.852c-0.264-0.144-0.804-0.384-1.535-0.384c-1.104,0-1.522,0.66-1.522,1.211
			c0,0.755,0.491,1.127,1.606,1.559c1.367,0.528,2.063,1.188,2.063,2.375c0,1.248-0.924,2.327-2.831,2.327
			c-0.779,0-1.631-0.228-2.063-0.516L48.886,40.979z"/>
		<path fill="#808080" d="M59.635,34.454v0.696l-3.394,7.1H55.15l3.382-6.896V35.33h-3.813v-0.875H59.635z"/>
	</g>
	<g>
		<g>
			<path fill="#FFFFFF" d="M37.938,34.167v8.083h-1.043v-8.083H37.938z"/>
			<path fill="#FFFFFF" d="M46.671,38.124c0,2.783-1.691,4.258-3.754,4.258c-2.135,0-3.634-1.655-3.634-4.102
				c0-2.567,1.595-4.246,3.754-4.246C45.243,34.035,46.671,35.726,46.671,38.124z M40.398,38.256c0,1.727,0.935,3.274,2.579,3.274
				c1.655,0,2.59-1.523,2.59-3.358c0-1.607-0.839-3.286-2.579-3.286C41.261,34.886,40.398,36.481,40.398,38.256z"/>
			<path fill="#FFFFFF" d="M47.886,40.979c0.468,0.288,1.151,0.528,1.871,0.528c1.067,0,1.691-0.563,1.691-1.379
				c0-0.755-0.433-1.187-1.523-1.607c-1.319-0.468-2.135-1.151-2.135-2.291c0-1.259,1.043-2.195,2.614-2.195
				c0.827,0,1.428,0.192,1.787,0.396l-0.288,0.852c-0.264-0.144-0.804-0.384-1.535-0.384c-1.104,0-1.522,0.66-1.522,1.211
				c0,0.755,0.491,1.127,1.606,1.559c1.367,0.528,2.063,1.188,2.063,2.375c0,1.248-0.924,2.327-2.831,2.327
				c-0.779,0-1.631-0.228-2.063-0.516L47.886,40.979z"/>
			<path fill="#FFFFFF" d="M58.635,34.454v0.696l-3.394,7.1H54.15l3.382-6.896V35.33h-3.813v-0.875H58.635z"/>
		</g>
	</g>
</g>
</svg>
