<?xml version="1.0" encoding="utf-8"?>
<!-- Decoded by svgb2svg converter version 1.1.0 -->
<!DOCTYPE svg PUBLIC "-//W3C//DTD SVG 1.0//EN" "http://www.w3.org/TR/2001/REC-SVG-20010904/DTD/svg10.dtd">
<svg xmlns="http://www.w3.org/2000/svg" version="1.1" x="0" y="0" width="96" height="96" viewBox="0 0 96 96" xml:space="preserve">
  <defs/>
  <rect id="BOUNDING_BOX_3_" fill="none" width="96" height="96"/>
  <path id="SHADOW_1_" fill-opacity="0.4" d="M88.023,49C88.023,78.633,77.659,89,48.023,89C18.388,89,8.023,78.633,8.023,49C8.023,19.366,18.389,9,48.023,9C77.659,9,88.023,19.365,88.023,49z"/>
  <linearGradient id="BLUE_4_4_" gradientUnits="userSpaceOnUse" x1="47.9995" y1="8.0107" x2="47.9995" y2="87.9897">
    <stop offset="0.0364" stop-color="#4791D9"/>
    <stop offset="0.2496" stop-color="#4288CF"/>
    <stop offset="0.6102" stop-color="#366EB5"/>
    <stop offset="1" stop-color="#264C91"/>
  </linearGradient>
  <path id="BLUE_4_3_" fill="url(#BLUE_4_4_)" d="M8,47.989C8,77.622,18.365,87.989,48,87.989C77.637,87.989,88,77.622,88,47.989C88,19.004,78.074,8.459,49.909,8.01L46.092,8.01C17.928,8.459,8,19.004,8,47.989z"/>
  <linearGradient id="HIGHLIGHT_BLU4_2_" gradientUnits="userSpaceOnUse" x1="47.9995" y1="8.2559" x2="47.9995" y2="87.5043">
    <stop offset="0.0364" stop-color="#FFFFFF"/>
    <stop offset="0.129" stop-color="#F5F7FA"/>
    <stop offset="0.2858" stop-color="#DBE1ED"/>
    <stop offset="0.4876" stop-color="#AFBDD7"/>
    <stop offset="0.7265" stop-color="#738CB8"/>
    <stop offset="0.9942" stop-color="#284D92"/>
    <stop offset="1" stop-color="#264C91"/>
  </linearGradient>
  <path id="HIGHLIGHT_BLU4_1_" fill-opacity="0.25" fill="url(#HIGHLIGHT_BLU4_2_)" d="M48,8C18.365,8,8,18.365,8,48C8,77.633,18.365,88,48,88C77.637,88,88,77.633,88,48C88,18.365,77.637,8,48,8zM48,87.023C18.842,87.023,9,77.176,9,48C9,18.824,18.842,8.977,48,8.977C77.158,8.977,87,18.824,87,48C87,77.176,77.158,87.023,48,87.023z"/>
  <rect id="BOUNDING_BOX_2_" x="13.5" y="18.5" fill="none" width="67" height="57"/>
  <path fill-opacity="0.3" d="M66.295,27.75L54.205,27.75C52.295,27.75,50.745,29.31,50.745,31.2L50.745,43.3C50.745,45.19,52.295,46.75,54.205,46.75L66.295,46.75C68.195,46.75,69.745,45.19,69.745,43.3L69.745,31.2C69.745,29.31,68.195,27.75,66.295,27.75zM66.745,43.75L53.745,43.75L53.745,30.75L66.745,30.75L66.745,43.75zM42.295,51.75L30.205,51.75C28.295,51.75,26.745,53.311,26.745,55.199L26.745,67.299C26.745,69.19,28.295,70.75,30.205,70.75L42.295,70.75C44.195,70.75,45.745,69.189,45.745,67.299L45.745,55.199C45.745,53.311,44.195,51.75,42.295,51.75zM42.745,67.75L29.745,67.75L29.745,54.75L42.745,54.75L42.745,67.75zM28.565,29.178L28.176,29.555C22.281,35.467,23.582,39.343,28.352,44.124C33.144,48.926,37.059,50.206,42.926,44.33L43.316,43.955C49.222,38.036,47.899,34.148,43.136,29.371C38.348,24.579,34.441,23.29,28.565,29.178zM66.295,51.75L54.205,51.75C52.295,51.75,50.745,53.311,50.745,55.199L50.745,67.299C50.745,69.19,52.295,70.75,54.205,70.75L66.295,70.75C68.195,70.75,69.745,69.189,69.745,67.299L69.745,55.199C69.745,53.311,68.195,51.75,66.295,51.75zM66.745,67.75L53.745,67.75L53.745,54.75L66.745,54.75L66.745,67.75z"/>
  <path fill-opacity="0.15" d="M54.205,70.75C51.746,70.75,49.745,68.754,49.745,66.299L49.745,54.199C49.745,51.746,51.746,49.75,54.205,49.75L66.295,49.75C68.749,49.75,70.745,51.746,70.745,54.199L70.745,66.299C70.745,68.754,68.749,70.75,66.295,70.75L54.205,70.75zM65.745,65.75L65.745,54.75L54.745,54.75L54.745,65.75L65.745,65.75zM30.205,70.75C27.745,70.75,25.745,68.754,25.745,66.299L25.745,54.199C25.745,51.746,27.745,49.75,30.205,49.75L42.295,49.75C44.749,49.75,46.745,51.746,46.745,54.199L46.745,66.299C46.745,68.754,44.748,70.75,42.295,70.75L30.205,70.75zM41.745,65.75L41.745,54.75L30.745,54.75L30.745,65.75L41.745,65.75zM35.714,48.25C32.47,48.25,29.697,45.888,27.644,43.83C22.807,38.982,20.926,34.41,27.468,27.849L27.869,27.46C30.731,24.592,33.249,23.251,35.781,23.251C38.341,23.251,40.752,24.571,43.843,27.664C48.684,32.522,50.569,37.101,44.023,43.662L43.619,44.05C40.763,46.911,38.246,48.25,35.714,48.25L35.714,48.25zM54.205,46.75C51.746,46.75,49.745,44.753,49.745,42.3L49.745,30.2C49.745,27.747,51.746,25.75,54.205,25.75L66.295,25.75C68.749,25.75,70.745,27.747,70.745,30.2L70.745,42.3C70.745,44.754,68.749,46.75,66.295,46.75L54.205,46.75zM65.745,41.75L65.745,30.75L54.745,30.75L54.745,41.75L65.745,41.75z"/>
  <path fill-opacity="0.15" d="M66.295,26.75L54.205,26.75C52.295,26.75,50.745,28.31,50.745,30.2L50.745,42.3C50.745,44.19,52.295,45.75,54.205,45.75L66.295,45.75C68.195,45.75,69.745,44.19,69.745,42.3L69.745,30.2C69.745,28.31,68.195,26.75,66.295,26.75zM66.745,42.75L53.745,42.75L53.745,29.75L66.745,29.75L66.745,42.75zM42.295,50.75L30.205,50.75C28.295,50.75,26.745,52.311,26.745,54.199L26.745,66.299C26.745,68.19,28.295,69.75,30.205,69.75L42.295,69.75C44.195,69.75,45.745,68.189,45.745,66.299L45.745,54.199C45.745,52.311,44.195,50.75,42.295,50.75zM42.745,66.75L29.745,66.75L29.745,53.75L42.745,53.75L42.745,66.75zM28.565,28.178L28.176,28.555C22.281,34.467,23.582,38.343,28.352,43.124C33.144,47.927,37.059,49.206,42.926,43.33L43.316,42.955C49.222,37.036,47.899,33.148,43.136,28.371C38.348,23.579,34.441,22.29,28.565,28.178zM66.295,50.75L54.205,50.75C52.295,50.75,50.745,52.311,50.745,54.199L50.745,66.299C50.745,68.19,52.295,69.75,54.205,69.75L66.295,69.75C68.195,69.75,69.745,68.189,69.745,66.299L69.745,54.199C69.745,52.311,68.195,50.75,66.295,50.75zM66.745,66.75L53.745,66.75L53.745,53.75L66.745,53.75L66.745,66.75z"/>
  <linearGradient id="SVGID_1_" gradientUnits="userSpaceOnUse" x1="242.9961" y1="-157.7495" x2="242.9961" y2="-112.25" gradientTransform="matrix(1 0 0 -1 -196 -88)">
    <stop offset="0" stop-color="#D0CBC5"/>
    <stop offset="0.5031" stop-color="#FAFCEF"/>
    <stop offset="0.9693" stop-color="#FFFFFF"/>
  </linearGradient>
  <path fill="url(#SVGID_1_)" d="M66.295,26.75L54.205,26.75C52.295,26.75,50.745,28.31,50.745,30.2L50.745,42.3C50.745,44.19,52.295,45.75,54.205,45.75L66.295,45.75C68.195,45.75,69.745,44.19,69.745,42.3L69.745,30.2C69.745,28.31,68.195,26.75,66.295,26.75zM66.745,42.75L53.745,42.75L53.745,29.75L66.745,29.75L66.745,42.75zM42.295,50.75L30.205,50.75C28.295,50.75,26.745,52.311,26.745,54.199L26.745,66.299C26.745,68.19,28.295,69.75,30.205,69.75L42.295,69.75C44.195,69.75,45.745,68.189,45.745,66.299L45.745,54.199C45.745,52.311,44.195,50.75,42.295,50.75zM42.745,66.75L29.745,66.75L29.745,53.75L42.745,53.75L42.745,66.75zM28.565,28.178L28.176,28.555C22.281,34.467,23.582,38.343,28.352,43.124C33.144,47.927,37.059,49.206,42.926,43.33L43.316,42.955C49.222,37.036,47.899,33.148,43.136,28.371C38.348,23.579,34.441,22.29,28.565,28.178zM66.295,50.75L54.205,50.75C52.295,50.75,50.745,52.311,50.745,54.199L50.745,66.299C50.745,68.19,52.295,69.75,54.205,69.75L66.295,69.75C68.195,69.75,69.745,68.189,69.745,66.299L69.745,54.199C69.745,52.311,68.195,50.75,66.295,50.75zM66.745,66.75L53.745,66.75L53.745,53.75L66.745,53.75L66.745,66.75z"/>
  <path fill="#FFFFFF" d="M29.745,67.75L29.745,66.75L42.745,66.75L42.745,67.75L29.745,67.75zM42.295,50.75L30.205,50.75C28.295,50.75,26.745,52.311,26.745,54.199L26.745,55.199C26.745,53.31,28.295,51.75,30.205,51.75L42.295,51.75C44.195,51.75,45.745,53.311,45.745,55.199L45.745,54.199C45.745,52.311,44.195,50.75,42.295,50.75zM66.745,43.75L66.745,42.75L53.745,42.75L53.745,43.75L66.745,43.75zM66.745,67.75L66.745,66.75L53.745,66.75L53.745,67.75L66.745,67.75zM28.565,28.178L28.176,28.555C25.211,31.529,24.069,33.987,24.271,36.305C24.435,34.276,25.633,32.105,28.176,29.555L28.565,29.178C34.441,23.29,38.348,24.579,43.136,29.37C45.505,31.746,47.02,33.902,47.221,36.198C47.436,33.519,45.846,31.088,43.136,28.37C38.348,23.579,34.441,22.29,28.565,28.178zM66.295,26.75L54.205,26.75C52.295,26.75,50.745,28.31,50.745,30.2L50.745,31.2C50.745,29.31,52.295,27.75,54.205,27.75L66.295,27.75C68.195,27.75,69.745,29.31,69.745,31.2L69.745,30.2C69.745,28.31,68.195,26.75,66.295,26.75zM66.295,50.75L54.205,50.75C52.295,50.75,50.745,52.311,50.745,54.199L50.745,55.199C50.745,53.31,52.295,51.75,54.205,51.75L66.295,51.75C68.195,51.75,69.745,53.311,69.745,55.199L69.745,54.199C69.745,52.311,68.195,50.75,66.295,50.75z"/>
</svg>
