<?xml version="1.0" encoding="UTF-8"?>
<!DOCTYPE svg PUBLIC "-//W3C//DTD SVG 1.1 Tiny//EN" "http://www.w3.org/Graphics/SVG/1.1/DTD/svg11-tiny.dtd">
<svg baseProfile="tiny" height="96px" version="1.1" viewBox="0 0 96 96" width="96px" x="0px" xmlns="http://www.w3.org/2000/svg" xmlns:xlink="http://www.w3.org/1999/xlink" y="0px">
<linearGradient gradientTransform="matrix(1 0 0 -1 -249.4805 -277.0195)" gradientUnits="userSpaceOnUse" id="SVGID_1_" x1="297.4795" x2="297.4795" y1="-285.0195" y2="-365.0195">
<stop offset="0" style="stop-color:#FF3FAE"/>
<stop offset="1" style="stop-color:#900074"/>
</linearGradient>
<path d="M88,48c0,29.633-10.361,40-40,40C18.366,88,8,77.633,8,48C8,18.366,18.366,8,48,8  C77.639,8,88,18.366,88,48z" fill="url(#SVGID_1_)"/>
<linearGradient gradientTransform="matrix(1 0 0 -1 -249.4805 -277.0195)" gradientUnits="userSpaceOnUse" id="SVGID_2_" x1="297.4795" x2="297.4795" y1="-285.2734" y2="-364.5185">
<stop offset="0" style="stop-color:#FFFFFF"/>
<stop offset="1" style="stop-color:#FFFFFF;stop-opacity:0"/>
</linearGradient>
<path d="M48,8C18.366,8,8,18.366,8,48c0,29.633,10.366,40,40,40  c29.639,0,40-10.367,40-40C88,18.366,77.639,8,48,8z M48,87C18.842,87,9,77.158,9,48S18.842,9,48,9s39,9.842,39,39S77.158,87,48,87z  " fill="url(#SVGID_2_)" fill-opacity="0.25"/>
<rect fill="none" height="96" width="96"/>
<path d="M67,31.788v-5.614c0-3.177-2.357-5.573-5.486-5.573c-0.481,0-0.961,0.06-1.422,0.179l-20.115,5.027  C37.139,26.512,35,29.249,35,32.173v23.429c-1.773,0.014-3.63,0.373-5.376,1.041c-6.326,2.408-9.972,8.381-8.126,13.311  c1.299,3.482,4.896,5.646,9.385,5.646c1.808,0,3.708-0.361,5.496-1.045c4.083-1.556,7.129-4.498,8.173-7.662  c1.731,2.328,4.747,3.707,8.331,3.707c1.811,0,3.709-0.361,5.492-1.043c5.002-1.904,8.447-5.896,8.566-9.818  c0.01-0.051,0.021-0.182,0.035-0.314c6.877-0.96,11.977-6.779,11.977-13.817C78.953,38.577,73.863,32.76,67,31.788z M52.299,51.402  c-0.227,0.076-0.449,0.156-0.672,0.24C48.852,52.7,46.534,54.45,45,56.572V42.806l6.768-1.695c-0.483,1.434-0.729,2.94-0.729,4.497  C51.037,47.609,51.473,49.594,52.299,51.402z" fill-opacity="0.03"/>
<path d="M66.2,32.5v-6.327c0-2.721-2.015-4.773-4.687-4.773c-0.414,0-0.83,0.052-1.229,0.155l-20.117,5.028  c-2.491,0.619-4.37,3.023-4.37,5.59V56.42c-0.229-0.012-0.46-0.02-0.693-0.02c-1.707,0-3.505,0.344-5.198,0.992  c-5.916,2.25-9.353,7.762-7.662,12.28c1.18,3.162,4.489,5.126,8.636,5.126c1.708,0,3.511-0.342,5.211-0.992  c4.7-1.789,7.943-5.531,8.059-9.199c0.005-0.027,0.011-0.082,0.018-0.149c0.024,0.071,0.049,0.144,0.077,0.216  c1.18,3.162,4.488,5.126,8.636,5.126c1.711,0,3.513-0.342,5.208-0.989c4.7-1.789,7.945-5.531,8.063-9.211  c0.017-0.088,0.047-0.455,0.047-0.543v-0.349c6.763-0.606,11.953-6.222,11.953-13.101C78.152,38.724,72.963,33.108,66.2,32.5z   M44.2,59.877V42.181l8.897-2.229c-0.83,1.747-1.261,3.671-1.261,5.655c0,2.212,0.55,4.366,1.603,6.29  c-0.516,0.138-1.025,0.303-1.528,0.496C48.01,53.877,45.187,56.775,44.2,59.877z" fill-opacity="0.03"/>
<path d="M65.4,33.252v-7.079c0-2.265-1.672-3.973-3.887-3.973c-0.348,0-0.695,0.043-1.035,0.13l-20.117,5.029  c-2.145,0.534-3.762,2.603-3.762,4.814v25.122c-0.484-0.063-0.984-0.094-1.494-0.094c-1.609,0-3.307,0.324-4.914,0.938  c-5.505,2.098-8.733,7.147-7.197,11.256C24.056,72.234,27.078,74,30.883,74c1.613,0,3.316-0.325,4.926-0.939  c4.4-1.676,7.44-5.172,7.556-8.59c0.012-0.066,0.036-0.348,0.036-0.414v-22.5l11.316-2.835c-1.352,2.01-2.078,4.385-2.078,6.885  c0,2.436,0.723,4.812,2.057,6.823c-0.84,0.158-1.676,0.396-2.498,0.709c-5.507,2.098-8.736,7.147-7.199,11.256  c1.058,2.84,4.08,4.605,7.885,4.605c1.614,0,3.317-0.325,4.924-0.939c4.401-1.674,7.441-5.172,7.56-8.59  c0.012-0.066,0.034-0.348,0.034-0.414v-1.101c6.629-0.216,11.953-5.673,11.953-12.349C77.354,38.927,72.027,33.469,65.4,33.252z   M66.159,45.612l-2.375,1.433l0.002-2.858L66.159,45.612z" fill-opacity="0.03"/>
<path d="M64.992,34.046c-0.131,0-0.262,0.002-0.393,0.007v-7.88c0-1.809-1.326-3.173-3.086-3.173  c-0.281,0-0.563,0.036-0.841,0.106l-20.118,5.029c-1.799,0.448-3.156,2.184-3.156,4.038v26.075c-0.723-0.164-1.49-0.246-2.293-0.246  c-1.513,0-3.113,0.307-4.628,0.885c-5.096,1.941-8.116,6.529-6.733,10.229c0.941,2.521,3.675,4.086,7.138,4.086  c1.517,0,3.121-0.307,4.641-0.887c4.1-1.563,6.939-4.812,7.052-7.979c0.008-0.045,0.024-0.231,0.024-0.276V40.933l14.296-3.582  c-2.188,2.135-3.459,5.079-3.459,8.256c0,2.747,0.971,5.368,2.711,7.434c-1.219,0.1-2.471,0.387-3.67,0.846  c-5.097,1.941-8.118,6.529-6.733,10.229c0.941,2.521,3.675,4.086,7.138,4.086c1.518,0,3.122-0.307,4.639-0.887  c4.103-1.563,6.941-4.812,7.056-7.979c0.008-0.045,0.022-0.231,0.022-0.276v-1.9c0.133,0.005,0.262,0.006,0.394,0.006  c6.375,0,11.562-5.184,11.562-11.555C76.553,39.232,71.367,34.046,64.992,34.046z M67.711,45.609l-4.727,2.853l0.002-5.688  L67.711,45.609z" fill-opacity="0.05"/>
<path d="M64.992,34.846c-0.396,0-0.795,0.022-1.192,0.066v-8.739c0-1.353-0.981-2.374-2.286-2.374  c-0.211,0-0.431,0.027-0.646,0.082l-20.119,5.031c-1.429,0.355-2.548,1.788-2.548,3.261v27.142  c-0.921-0.336-1.969-0.514-3.094-0.514c-1.417,0-2.918,0.287-4.343,0.831c-4.686,1.786-7.499,5.914-6.269,9.201  c0.821,2.2,3.27,3.565,6.388,3.565c1.419,0,2.925-0.287,4.355-0.832c3.768-1.438,6.438-4.45,6.549-7.369  c0.008-0.045,0.012-0.094,0.012-0.143V40.309l18.4-4.61v0.279c-3.641,1.813-5.963,5.537-5.963,9.629c0,3.23,1.447,6.229,3.849,8.243  c-0.317-0.031-0.646-0.047-0.979-0.047c-1.416,0-2.916,0.286-4.342,0.83c-4.688,1.786-7.5,5.914-6.27,9.201  c0.821,2.2,3.27,3.566,6.388,3.566c1.421,0,2.925-0.289,4.354-0.834c3.769-1.437,6.438-4.449,6.55-7.369  c0.008-0.045,0.013-0.094,0.013-0.141v-2.761c0.396,0.044,0.794,0.065,1.192,0.065c5.935,0,10.761-4.825,10.761-10.755  C75.753,39.673,70.928,34.846,64.992,34.846z M62.186,41.362l7.078,4.245l-7.078,4.273V41.362z" fill-opacity="0.05"/>
<path d="M64.992,35.646c-0.684,0-1.35,0.07-1.992,0.2v-9.673c0-1.1-0.873-1.781-1.939-1.516l-20.119,5.031  C39.874,29.955,39,31.073,39,32.173v28.413c-1.916-1.189-4.947-1.352-7.952-0.206c-4.284,1.634-6.883,5.292-5.805,8.175  c1.078,2.887,5.424,3.896,9.709,2.266c3.608-1.375,6.009-4.188,6.038-6.764H41V39.685l20-5.011v1.813  c-3.51,1.54-5.963,5.042-5.963,9.121c0,4.078,2.453,7.578,5.963,9.117v0.862c-1.916-1.188-4.947-1.353-7.951-0.206  c-4.285,1.633-6.883,5.292-5.805,8.176c1.078,2.885,5.425,3.896,9.709,2.266c3.607-1.375,6.01-4.188,6.037-6.764H63v-3.695  c0.645,0.133,1.311,0.201,1.992,0.201c5.502,0,9.961-4.459,9.961-9.957C74.953,40.105,70.494,35.646,64.992,35.646z M70.008,46.091  l-7.816,4.69c-0.446,0.266-0.807,0.061-0.807-0.456V40.89c0-0.519,0.359-0.727,0.807-0.458l7.816,4.688  C70.451,45.39,70.451,45.825,70.008,46.091z" fill-opacity="0.05"/>
<path d="M61.061,23.058l-20.119,5.031C39.874,28.354,39,29.474,39,30.573v28.414  c-1.916-1.189-4.947-1.353-7.952-0.207c-4.284,1.633-6.883,5.293-5.805,8.176c1.078,2.886,5.424,3.896,9.709,2.266  c3.608-1.375,6.009-4.188,6.038-6.765H41V38.084l20-5.011v2.871c0.628-0.313,1.299-0.556,2-0.715V24.573  C63,23.474,62.127,22.792,61.061,23.058z M61,53.986c-1.916-1.189-4.947-1.353-7.951-0.207c-4.285,1.633-6.883,5.293-5.805,8.176  c1.078,2.886,5.425,3.896,9.709,2.266c3.607-1.375,6.01-4.188,6.037-6.765H63v-4.675c-0.701-0.159-1.372-0.403-2-0.717V53.986z" fill="#FFFFFF"/>
<path d="M62.99,53.456c-0.027,2.577-2.43,5.39-6.037,6.765c-4.006,1.524-8.063,0.738-9.455-1.727  c-0.542,1.164-0.663,2.367-0.255,3.461c1.078,2.886,5.425,3.896,9.709,2.266c3.606-1.375,6.01-4.188,6.036-6.765H63v-4H62.99z   M34.953,65.221c-4.006,1.524-8.063,0.738-9.455-1.727c-0.542,1.164-0.663,2.367-0.255,3.461c1.078,2.886,5.424,3.896,9.709,2.266  c3.608-1.375,6.009-4.188,6.038-6.765H41v-4h-0.009C40.962,61.033,38.561,63.846,34.953,65.221z M61,29.073l-20,5.011v4l20-5.011  V29.073z" fill-opacity="0.04"/>
<path d="M30.884,69.5c-2.563,0-4.544-1.042-5.172-2.721c-0.258-0.688-0.279-1.449-0.068-2.237  c1.13,1.241,3.013,1.958,5.24,1.958c1.383,0,2.85-0.281,4.247-0.811c2.361-0.902,4.279-2.431,5.369-4.153v0.825  c-0.006,0.027-0.009,0.059-0.009,0.09c-0.026,2.438-2.375,5.029-5.716,6.302C33.492,69.242,32.147,69.5,30.884,69.5L30.884,69.5z   M52.885,64.5c-2.563,0-4.545-1.042-5.172-2.721c-0.258-0.688-0.279-1.449-0.068-2.237c1.13,1.241,3.014,1.958,5.24,1.958  c1.383,0,2.852-0.281,4.246-0.811c2.361-0.902,4.278-2.431,5.369-4.153v0.825c-0.006,0.027-0.01,0.059-0.01,0.09  c-0.024,2.438-2.375,5.029-5.715,6.302C55.492,64.242,54.146,64.5,52.885,64.5L52.885,64.5z M41.5,34.475l19-4.761v2.969l-19,4.761  V34.475z" fill-opacity="0.05"/>
<path d="M31.048,58.779c-3.859,1.471-6.339,4.584-6.009,7.296c0.293-2.442,2.619-5.003,6.009-6.296  c3.005-1.146,6.036-0.982,7.952,0.207v-1C37.084,57.797,34.053,57.635,31.048,58.779z M61.061,23.058l-20.119,5.031  C39.874,28.354,39,29.474,39,30.573v1c0-1.1,0.874-2.219,1.941-2.484l20.12-5.031C62.127,23.792,63,24.474,63,25.573v-1  C63,23.474,62.127,22.792,61.061,23.058z M53.049,53.779c-3.859,1.471-6.339,4.584-6.01,7.296c0.293-2.442,2.619-5.003,6.01-6.296  c3.004-1.146,6.035-0.982,7.951,0.207v-1C59.084,52.797,56.053,52.635,53.049,53.779z" fill="#FFFFFF"/>
<path d="M74.953,44.007c0,5.498-4.459,9.956-9.961,9.956c-5.497,0-9.955-4.458-9.955-9.956  c0-5.501,4.458-9.961,9.955-9.961C70.494,34.046,74.953,38.505,74.953,44.007 M70.008,43.52l-7.816-4.688  c-0.446-0.268-0.807-0.06-0.807,0.458v9.435c0,0.518,0.359,0.723,0.807,0.457l7.816-4.689C70.451,44.225,70.451,43.79,70.008,43.52" fill="#FFFFFF"/>
</svg>
