<?xml version="1.0" encoding="UTF-8"?>
<!DOCTYPE svg PUBLIC "-//W3C//DTD SVG 1.1 Tiny//EN" "http://www.w3.org/Graphics/SVG/1.1/DTD/svg11-tiny.dtd">
<svg baseProfile="tiny" height="96px" version="1.1" viewBox="0 0 96 96" width="96px" x="0px" xmlns="http://www.w3.org/2000/svg" xmlns:xlink="http://www.w3.org/1999/xlink" y="0px">
<rect fill="none" height="96" width="96"/>
<path d="M88,49c0,29.635-10.363,40-40,40C18.365,89,8,78.635,8,49C8,19.367,18.365,9,48,9C77.637,9,88,19.367,88,49z" fill-opacity="0.4" stroke-opacity="0.4"/>
<linearGradient gradientUnits="userSpaceOnUse" id="SVGID_1_" x1="47.9995" x2="47.9995" y1="6.8105" y2="84.6841">
<stop offset="0" style="stop-color:#A7B7C2"/>
<stop offset="1" style="stop-color:#555E70"/>
</linearGradient>
<path d="M88,48c0,29.635-10.363,40-40,40C18.365,88,8,77.635,8,48C8,18.367,18.365,8,48,8  C77.637,8,88,18.367,88,48z" fill="url(#SVGID_1_)"/>
<linearGradient gradientUnits="userSpaceOnUse" id="SVGID_2_" x1="47.9995" x2="47.9995" y1="8.2534" y2="87.4985">
<stop offset="0" style="stop-color:#FFFFFF"/>
<stop offset="1" style="stop-color:#FFFFFF;stop-opacity:0"/>
</linearGradient>
<path d="M48,8C18.365,8,8,18.367,8,48c0,29.635,10.365,40,40,40c29.637,0,40-10.365,40-40  C88,18.367,77.637,8,48,8z M48,87C18.842,87,9,77.158,9,48S18.842,9,48,9s39,9.842,39,39S77.158,87,48,87z" fill="url(#SVGID_2_)" fill-opacity="0.25" stroke-opacity="0.25"/>
<path d="M44.813,81c-2.398,0-4.459-1.686-5.01-4.098l-0.457-2.315c-1.074-0.367-2.127-0.804-3.145-1.304l-1.865,1.25  c-0.947,0.597-1.932,0.891-2.949,0.891c-1.371,0-2.648-0.527-3.6-1.483l-4.436-4.435c-1.709-1.71-1.969-4.367-0.629-6.464  l1.299-1.941c-0.5-1.015-0.936-2.066-1.303-3.139l-2.201-0.435c-2.492-0.57-4.213-2.639-4.213-5.037v-6.287  c0-2.402,1.688-4.463,4.102-5.012l2.32-0.459c0.365-1.069,0.801-2.118,1.299-3.13l-1.256-1.88c-1.367-2.151-1.121-4.831,0.582-6.535  l4.445-4.445c0.941-0.949,2.217-1.474,3.586-1.474c1.014,0,2.006,0.29,2.871,0.84l1.965,1.314c1.01-0.495,2.055-0.928,3.119-1.291  l0.438-2.225c0.572-2.492,2.641-4.212,5.037-4.212H51.1c2.398,0,4.459,1.683,5.01,4.092l0.467,2.352  c1.063,0.364,2.104,0.797,3.107,1.29l1.893-1.269c0.924-0.588,1.938-0.892,2.951-0.892c1.369,0,2.645,0.526,3.594,1.481l4.438,4.438  c1.701,1.692,1.969,4.343,0.646,6.442l-1.33,1.989c0.494,1.01,0.928,2.051,1.291,3.108l2.23,0.44  c2.492,0.563,4.213,2.632,4.213,5.035v6.287c0,2.397-1.684,4.458-4.094,5.01l-2.34,0.464c-0.365,1.067-0.799,2.113-1.293,3.122  l1.26,1.883c1.367,2.151,1.123,4.831-0.584,6.537l-4.445,4.443c-0.943,0.95-2.219,1.475-3.588,1.475  c-1.004,0-1.99-0.285-2.852-0.826l-1.971-1.321c-1.016,0.501-2.064,0.938-3.133,1.304l-0.434,2.205C55.568,79.279,53.5,81,51.1,81  H44.813z M47.947,47.342c-1.111,0-2.018,0.905-2.018,2.018c0,1.11,0.906,2.014,2.018,2.014s2.014-0.903,2.014-2.014  C49.961,48.247,49.059,47.342,47.947,47.342L47.947,47.342z" fill-opacity="0.02" stroke-opacity="0.02"/>
<path d="M44.813,80c-1.93,0-3.588-1.365-4.035-3.32l-0.564-2.86c-1.406-0.445-2.775-1.013-4.084-1.692l-2.35,1.575  c-0.77,0.484-1.566,0.722-2.393,0.722c-1.102,0-2.129-0.422-2.891-1.188l-4.438-4.437c-1.375-1.375-1.578-3.521-0.492-5.218  l1.611-2.41c-0.68-1.304-1.246-2.671-1.691-4.077l-2.775-0.548c-2.018-0.462-3.406-2.127-3.406-4.056v-6.287  c0-1.933,1.367-3.592,3.324-4.036l2.863-0.566c0.447-1.404,1.014-2.768,1.689-4.068l-1.58-2.365  c-1.107-1.742-0.912-3.902,0.457-5.272l4.445-4.445c0.756-0.761,1.779-1.181,2.879-1.181c0.824,0,1.631,0.236,2.334,0.684  l2.432,1.627c1.301-0.675,2.66-1.238,4.057-1.681l0.553-2.798c0.463-2.018,2.127-3.405,4.055-3.405H51.1  c1.93,0,3.588,1.363,4.035,3.315l0.572,2.895c1.393,0.442,2.75,1.005,4.047,1.68l2.379-1.594c0.752-0.478,1.572-0.723,2.395-0.723  c1.1,0,2.125,0.421,2.885,1.187l4.439,4.439c1.369,1.361,1.578,3.502,0.508,5.203l-1.641,2.45c0.674,1.299,1.238,2.656,1.68,4.048  l2.805,0.554c2.018,0.456,3.406,2.121,3.406,4.054v6.287c0,1.929-1.363,3.588-3.316,4.035l-2.885,0.571  c-0.443,1.399-1.008,2.761-1.682,4.061l1.586,2.368c1.105,1.741,0.912,3.901-0.461,5.273l-4.445,4.443  c-0.756,0.762-1.781,1.182-2.881,1.182c-0.816,0-1.617-0.232-2.318-0.673l-2.434-1.631c-1.305,0.68-2.668,1.248-4.07,1.693  l-0.547,2.778C54.695,78.61,53.029,80,51.1,80H44.813z M47.947,46.342c-1.664,0-3.018,1.354-3.018,3.018  c0,1.662,1.354,3.014,3.018,3.014c1.662,0,3.014-1.352,3.014-3.014C50.961,47.695,49.609,46.342,47.947,46.342L47.947,46.342z" fill-opacity="0.05" stroke-opacity="0.05"/>
<path d="M44.813,79c-1.461,0-2.719-1.046-3.061-2.543l-0.676-3.421c-1.744-0.506-3.422-1.202-5.004-2.074l-2.85,1.91  c-0.592,0.372-1.201,0.552-1.836,0.552c-0.834,0-1.607-0.317-2.18-0.894l-4.441-4.438c-1.039-1.04-1.188-2.674-0.357-3.973  l1.934-2.892c-0.873-1.583-1.568-3.261-2.074-4.999l-3.363-0.664c-1.543-0.354-2.6-1.615-2.6-3.074v-6.287  c0-1.463,1.047-2.721,2.545-3.061l3.426-0.678c0.506-1.735,1.199-3.409,2.072-4.989l-1.916-2.864  c-0.846-1.333-0.701-2.974,0.334-4.01l4.445-4.445c0.568-0.572,1.342-0.888,2.172-0.888c0.635,0,1.256,0.183,1.799,0.527  l2.908,1.948c1.58-0.868,3.25-1.561,4.98-2.063l0.668-3.387c0.355-1.543,1.615-2.599,3.074-2.599H51.1  c1.459,0,2.719,1.044,3.061,2.539l0.682,3.453c1.729,0.503,3.395,1.195,4.971,2.063l2.877-1.928  c0.576-0.366,1.205-0.554,1.838-0.554c0.832,0,1.604,0.316,2.176,0.892l4.441,4.441c1.035,1.03,1.188,2.661,0.367,3.964  l-1.959,2.925c0.869,1.578,1.561,3.245,2.064,4.971l3.393,0.67c1.541,0.349,2.6,1.609,2.6,3.072v6.287  c0,1.459-1.045,2.718-2.541,3.061l-3.443,0.682c-0.504,1.734-1.195,3.405-2.064,4.982l1.92,2.867  c0.846,1.331,0.703,2.972-0.336,4.01l-4.445,4.443c-0.568,0.572-1.342,0.889-2.174,0.889c-0.627,0-1.246-0.18-1.787-0.52  l-2.906-1.949c-1.584,0.874-3.258,1.57-4.994,2.076l-0.664,3.367C53.822,77.942,52.561,79,51.1,79H44.813z M47.947,45.342  c-2.215,0-4.018,1.803-4.018,4.018c0,2.213,1.803,4.014,4.018,4.014c2.213,0,4.014-1.801,4.014-4.014  C51.961,47.145,50.16,45.342,47.947,45.342L47.947,45.342z" fill-opacity="0.1" stroke-opacity="0.1"/>
<path d="M44.813,78c-0.99,0-1.848-0.726-2.086-1.766l-0.789-3.997c-2.078-0.547-4.061-1.368-5.908-2.45l-3.363,2.254  c-0.408,0.256-0.842,0.383-1.279,0.383c-0.564,0-1.088-0.212-1.471-0.598l-4.443-4.441c-0.705-0.706-0.797-1.827-0.221-2.728  l2.266-3.387c-1.084-1.85-1.906-3.83-2.449-5.903l-3.971-0.784c-1.068-0.245-1.793-1.103-1.793-2.093v-6.287  c0-0.993,0.727-1.85,1.766-2.085l4.004-0.792c0.545-2.07,1.367-4.048,2.447-5.894l-2.258-3.377  c-0.586-0.923-0.494-2.044,0.209-2.747l4.445-4.445c0.381-0.383,0.902-0.595,1.465-0.595c0.443,0,0.879,0.128,1.262,0.371  l3.402,2.278c1.846-1.077,3.82-1.895,5.885-2.438l0.789-3.992c0.244-1.067,1.102-1.792,2.092-1.792H51.1  c0.99,0,1.848,0.725,2.086,1.763l0.795,4.028c2.061,0.543,4.031,1.36,5.875,2.438l3.391-2.271c0.402-0.256,0.84-0.385,1.281-0.385  c0.564,0,1.084,0.212,1.467,0.597l4.443,4.443c0.703,0.699,0.797,1.819,0.229,2.725l-2.287,3.413  c1.076,1.844,1.896,3.815,2.439,5.876l3.998,0.79c1.066,0.241,1.793,1.099,1.793,2.091v6.287c0,0.99-0.725,1.848-1.764,2.086  l-4.02,0.795c-0.545,2.071-1.363,4.046-2.439,5.887l2.264,3.381c0.584,0.921,0.492,2.042-0.213,2.746l-4.445,4.443  c-0.381,0.383-0.902,0.596-1.467,0.596l0,0c-0.439,0-0.873-0.127-1.254-0.366l-3.396-2.277c-1.846,1.082-3.824,1.905-5.898,2.452  l-0.783,3.973C52.949,77.274,52.09,78,51.1,78H44.813z M47.947,44.342c-2.766,0-5.018,2.251-5.018,5.018  c0,2.765,2.252,5.014,5.018,5.014s5.014-2.249,5.014-5.014C52.961,46.593,50.713,44.342,47.947,44.342L47.947,44.342z" fill-opacity="0.15" stroke-opacity="0.15"/>
<path d="M74.621,45.094l-1.875-0.371l-2.682-0.529l-0.063-0.014c-0.57-2.426-1.529-4.703-2.809-6.762l0.041-0.063  l1.52-2.266l1.064-1.59c0.299-0.475,0.299-1.1-0.088-1.484l-2.219-2.221l-0.006-0.004l-2.221-2.221  c-0.385-0.387-1.01-0.387-1.482-0.086l-1.588,1.064l-2.27,1.52l-0.063,0.041c-2.057-1.279-4.334-2.238-6.762-2.807l-0.012-0.066  l-0.529-2.678l-0.369-1.877c-0.125-0.545-0.568-0.986-1.111-0.986h-3.139h-0.008h-3.141c-0.545,0-0.986,0.441-1.111,0.986  l-0.371,1.877l-0.527,2.678l-0.014,0.061c-2.428,0.568-4.709,1.525-6.771,2.805l-0.053-0.035l-2.268-1.518l-1.588-1.064  c-0.475-0.301-1.1-0.301-1.484,0.086l-2.221,2.221L28.4,29.795l-2.221,2.221c-0.387,0.387-0.387,1.01-0.086,1.484l1.063,1.59  l1.52,2.268l0.031,0.047c-1.285,2.063-2.246,4.348-2.816,6.779l-0.045,0.01l-2.678,0.529l-1.877,0.371  c-0.545,0.123-0.986,0.564-0.986,1.109v3.141v0.008v3.139c0,0.547,0.441,0.986,0.986,1.111l1.877,0.369l2.678,0.531l0.039,0.008  c0.568,2.438,1.529,4.725,2.818,6.791l-0.027,0.035l-1.52,2.27l-1.063,1.59c-0.301,0.471-0.301,1.096,0.086,1.482l2.221,2.219  l0.004,0.006l2.221,2.219c0.385,0.387,1.01,0.387,1.484,0.09l1.59-1.066l2.266-1.52L36,68.602c2.068,1.289,4.357,2.248,6.795,2.818  l0.008,0.035l0.527,2.682l0.371,1.875C43.826,76.559,44.268,77,44.813,77h3.141h0.008H51.1c0.543,0,0.986-0.441,1.111-0.988  l0.369-1.875l0.529-2.682l0.01-0.039c2.434-0.572,4.719-1.533,6.781-2.82l0.045,0.029l2.27,1.52l1.588,1.066  c0.473,0.297,1.098,0.297,1.482-0.09l2.221-2.219l0.006-0.006l2.219-2.219c0.387-0.387,0.387-1.012,0.088-1.482l-1.064-1.59  l-1.52-2.27l-0.033-0.051c1.283-2.061,2.238-4.342,2.807-6.771l0.057-0.012l2.682-0.531l1.875-0.369  c0.545-0.125,0.988-0.564,0.988-1.111v-3.139v-0.008v-3.141C75.609,45.658,75.166,45.217,74.621,45.094z M47.947,55.373  c-3.318,0-6.018-2.697-6.018-6.014c0-3.32,2.699-6.018,6.018-6.018c3.316,0,6.014,2.697,6.014,6.018  C53.961,52.676,51.264,55.373,47.947,55.373z" fill-opacity="0.2" stroke-opacity="0.2"/>
<linearGradient gradientUnits="userSpaceOnUse" id="SVGID_3_" x1="47.9565" x2="47.9565" y1="36.2788" y2="68.5307">
<stop offset="0" style="stop-color:#FFFFFF"/>
<stop offset="0.5743" style="stop-color:#B1B1B1"/>
<stop offset="1" style="stop-color:#FFFFFF"/>
</linearGradient>
<path d="M74.621,44.035l-1.875-0.371l-2.682-0.529l-0.063-0.014c-0.57-2.426-1.529-4.703-2.809-6.762  l0.041-0.063l1.52-2.266l1.064-1.59c0.299-0.475,0.299-1.1-0.088-1.484l-2.219-2.221l-0.006-0.004l-2.221-2.221  c-0.385-0.387-1.01-0.387-1.482-0.086l-1.588,1.064l-2.27,1.52l-0.063,0.041c-2.057-1.279-4.334-2.238-6.762-2.807l-0.012-0.066  L52.58,23.5l-0.369-1.877c-0.125-0.545-0.568-0.986-1.111-0.986h-3.139h-0.008h-3.141c-0.545,0-0.986,0.441-1.111,0.986L43.33,23.5  l-0.527,2.678l-0.014,0.061c-2.428,0.568-4.709,1.525-6.771,2.805l-0.053-0.035l-2.268-1.518l-1.588-1.064  c-0.475-0.301-1.1-0.301-1.484,0.086l-2.221,2.221L28.4,28.736l-2.221,2.221c-0.387,0.387-0.387,1.01-0.086,1.484l1.063,1.59  l1.52,2.268l0.031,0.047c-1.285,2.063-2.246,4.348-2.816,6.779l-0.045,0.01l-2.678,0.529l-1.877,0.371  c-0.545,0.123-0.986,0.564-0.986,1.109v3.141v0.008v3.139c0,0.547,0.441,0.986,0.986,1.111l1.877,0.369l2.678,0.531l0.039,0.008  c0.568,2.438,1.529,4.725,2.818,6.791l-0.027,0.035l-1.52,2.27l-1.063,1.59c-0.301,0.471-0.301,1.096,0.086,1.482l2.221,2.219  l0.004,0.006l2.221,2.219c0.385,0.387,1.01,0.387,1.484,0.09l1.59-1.066l2.266-1.52L36,67.543c2.068,1.289,4.357,2.248,6.795,2.818  l0.008,0.035l0.527,2.682l0.371,1.875c0.125,0.547,0.566,0.988,1.111,0.988h3.141h0.008H51.1c0.543,0,0.986-0.441,1.111-0.988  l0.369-1.875l0.529-2.682l0.01-0.039c2.434-0.572,4.719-1.533,6.781-2.82l0.045,0.029l2.27,1.52l1.588,1.066  c0.473,0.297,1.098,0.297,1.482-0.09l2.221-2.219l0.006-0.006l2.219-2.219c0.387-0.387,0.387-1.012,0.088-1.482l-1.064-1.59  l-1.52-2.27l-0.033-0.051c1.283-2.061,2.238-4.342,2.807-6.771l0.057-0.012l2.682-0.531l1.875-0.369  c0.545-0.125,0.988-0.564,0.988-1.111v-3.139v-0.008v-3.141C75.609,44.6,75.166,44.158,74.621,44.035z M47.947,56.658  c-4.613,0-8.361-3.748-8.361-8.357c0-4.611,3.748-8.361,8.361-8.361c4.609,0,8.357,3.75,8.357,8.361  C56.305,52.91,52.557,56.658,47.947,56.658z" fill="url(#SVGID_3_)"/>
<linearGradient gradientUnits="userSpaceOnUse" id="SVGID_4_" x1="47.9458" x2="47.9458" y1="27.6743" y2="60.8341">
<stop offset="0" style="stop-color:#FFFFFF"/>
<stop offset="0.3718" style="stop-color:#E9E9EA"/>
<stop offset="1" style="stop-color:#BBBDBF"/>
</linearGradient>
<path d="M47.947,34.234c-7.768,0-14.064,6.299-14.064,14.066c0,7.766,6.297,14.063,14.064,14.063  S62.01,56.066,62.01,48.301C62.01,40.533,55.715,34.234,47.947,34.234z M47.947,58.777c-5.779,0-10.479-4.699-10.479-10.477  c0-5.779,4.699-10.48,10.479-10.48c5.775,0,10.477,4.701,10.477,10.48C58.424,54.078,53.723,58.777,47.947,58.777z" fill="url(#SVGID_4_)"/>
<linearGradient gradientUnits="userSpaceOnUse" id="SVGID_5_" x1="47.9458" x2="47.9458" y1="36.2773" y2="68.5297">
<stop offset="0" style="stop-color:#FFFFFF"/>
<stop offset="0.5743" style="stop-color:#B1B1B1"/>
<stop offset="1" style="stop-color:#FFFFFF"/>
</linearGradient>
<path d="M47.947,34.234c-7.768,0-14.064,6.299-14.064,14.066c0,7.766,6.297,14.063,14.064,14.063  S62.01,56.066,62.01,48.301C62.01,40.533,55.715,34.234,47.947,34.234z M47.947,57.828c-5.254,0-9.529-4.273-9.529-9.527  c0-5.256,4.275-9.531,9.529-9.531c5.252,0,9.529,4.275,9.529,9.531C57.477,53.555,53.199,57.828,47.947,57.828z" fill="url(#SVGID_5_)"/>
<linearGradient gradientUnits="userSpaceOnUse" id="SVGID_6_" x1="47.9478" x2="47.9478" y1="56.874" y2="33.7987">
<stop offset="0" style="stop-color:#FFFFFF"/>
<stop offset="1" style="stop-color:#1F191A"/>
</linearGradient>
<path d="M47.947,39.777c-4.701,0-8.523,3.824-8.523,8.523s3.822,8.52,8.523,8.52  c4.699,0,8.523-3.82,8.523-8.52S52.646,39.777,47.947,39.777z M47.947,54.115c-3.209,0-5.818-2.609-5.818-5.814  c0-3.209,2.609-5.818,5.818-5.818c3.205,0,5.816,2.609,5.816,5.818C53.764,51.506,51.152,54.115,47.947,54.115z" fill="url(#SVGID_6_)"/>
<linearGradient gradientUnits="userSpaceOnUse" id="SVGID_7_" x1="47.9565" x2="47.9565" y1="25.6919" y2="117.3984">
<stop offset="0" style="stop-color:#FFFFFF"/>
<stop offset="0.5743" style="stop-color:#B2B2B2"/>
<stop offset="1" style="stop-color:#FFFFFF"/>
</linearGradient>
<path d="M51.1,21.623c0.023,0,0.115,0.078,0.141,0.191l0.373,1.875l0.527,2.684l0.014,0.066  l0.125,0.619l0.617,0.145c2.293,0.539,4.469,1.443,6.467,2.686l0.537,0.336l0.527-0.35l0.066-0.045l2.27-1.52l1.566-1.051  c0.061-0.039,0.133-0.063,0.197-0.063c0.035,0,0.057,0.01,0.061,0.014l2.191,2.188l0.02,0.021l0.016,0.016l2.219,2.219  c0.018,0.018,0.027,0.137-0.035,0.236l-1.064,1.59l-1.52,2.266l-0.041,0.061l-0.355,0.531l0.338,0.543  c1.242,2,2.146,4.174,2.686,6.467l0.145,0.617l0.625,0.123l0.063,0.014l2.682,0.531l1.85,0.363c0.139,0.033,0.217,0.125,0.217,0.148  v3.148v3.139c0,0.023-0.078,0.117-0.191,0.141l-1.877,0.371l-2.684,0.531l-0.057,0.012l-0.621,0.125l-0.145,0.617  c-0.539,2.299-1.441,4.479-2.686,6.477l-0.336,0.545l0.359,0.529l0.029,0.047l1.52,2.27l1.049,1.566  c0.08,0.123,0.068,0.24,0.051,0.258l-2.227,2.227l-2.219,2.219c-0.004,0.004-0.025,0.012-0.061,0.012  c-0.064,0-0.137-0.021-0.174-0.043l-1.59-1.068L60.5,66.75l-0.043-0.029l-0.533-0.361l-0.547,0.34c-2,1.248-4.184,2.156-6.484,2.697  l-0.629,0.186l-0.123,0.625l-0.527,2.678l-0.367,1.852c-0.031,0.141-0.123,0.217-0.146,0.217h-3.146h-3.141  c-0.023,0-0.117-0.076-0.143-0.191l-0.369-1.875l-0.539-2.721l-0.125-0.621L43.02,69.4c-2.305-0.539-4.488-1.445-6.496-2.695  l-0.576-0.313l-0.531,0.354l-2.27,1.52l-1.564,1.051c-0.061,0.039-0.135,0.061-0.197,0.061c-0.037,0-0.057-0.008-0.063-0.012  l-2.188-2.189l-0.021-0.021l-0.016-0.016l-2.219-2.219c-0.018-0.018-0.029-0.137,0.033-0.234l1.064-1.59l1.547-2.309l0.352-0.529  l-0.336-0.537c-1.25-2.006-2.156-4.191-2.693-6.496l-0.182-0.627l-0.625-0.125l-2.682-0.529l-1.848-0.365  c-0.143-0.029-0.219-0.123-0.219-0.146v-3.146v-3.141c0-0.023,0.076-0.115,0.191-0.143l1.875-0.369l2.727-0.541l0.621-0.123  l0.145-0.619c0.541-2.297,1.447-4.479,2.697-6.48l0.336-0.539l-0.354-0.531l-0.031-0.049l-1.521-2.27l-1.049-1.564  c-0.08-0.127-0.066-0.244-0.049-0.262l2.225-2.225l2.219-2.219c0.006-0.004,0.029-0.014,0.064-0.014c0.061,0,0.135,0.023,0.17,0.047  l1.592,1.066l2.27,1.52l0.053,0.035L36,30.219l0.541-0.336c2-1.244,4.176-2.146,6.473-2.684l0.617-0.145l0.127-0.623l0.012-0.063  l0.531-2.68l0.363-1.848c0.031-0.141,0.125-0.219,0.148-0.219h3.148H51.1 M51.1,20.637h-3.139h-0.008h-3.141  c-0.545,0-0.986,0.441-1.111,0.986L43.33,23.5l-0.527,2.678l-0.014,0.061c-2.428,0.568-4.709,1.525-6.771,2.805l-0.053-0.035  l-2.268-1.518l-1.588-1.064c-0.223-0.143-0.477-0.215-0.723-0.215c-0.283,0-0.557,0.096-0.762,0.301l-2.221,2.221L28.4,28.736  l-2.221,2.221c-0.387,0.387-0.387,1.01-0.086,1.484l1.063,1.59l1.52,2.268l0.031,0.047c-1.285,2.063-2.246,4.348-2.816,6.779  l-0.045,0.01l-2.678,0.529l-1.877,0.371c-0.545,0.123-0.986,0.564-0.986,1.109v3.141v0.008v3.139c0,0.547,0.441,0.986,0.986,1.111  l1.877,0.369l2.678,0.531l0.039,0.008c0.568,2.438,1.529,4.725,2.818,6.791l-0.027,0.035l-1.52,2.27l-1.063,1.59  c-0.301,0.471-0.301,1.096,0.086,1.482l2.221,2.219l0.004,0.006l2.221,2.219c0.205,0.207,0.479,0.301,0.76,0.301  c0.248,0,0.502-0.072,0.725-0.211l1.59-1.066l2.266-1.52L36,67.543c2.068,1.289,4.357,2.248,6.795,2.818l0.008,0.035l0.527,2.682  l0.371,1.875c0.125,0.547,0.566,0.988,1.111,0.988h3.141h0.008H51.1c0.543,0,0.986-0.441,1.111-0.988l0.369-1.875l0.529-2.682  l0.01-0.039c2.434-0.572,4.719-1.533,6.781-2.82l0.045,0.029l2.27,1.52l1.588,1.066c0.221,0.139,0.475,0.211,0.725,0.211  c0.281,0,0.553-0.094,0.758-0.301l2.221-2.219l0.006-0.006l2.219-2.219c0.387-0.387,0.387-1.012,0.088-1.482l-1.064-1.59l-1.52-2.27  l-0.033-0.051c1.283-2.061,2.238-4.342,2.807-6.771l0.057-0.012l2.682-0.531l1.875-0.369c0.545-0.125,0.988-0.564,0.988-1.111  v-3.139v-0.008v-3.141c0-0.545-0.443-0.986-0.988-1.109l-1.875-0.371l-2.682-0.529l-0.063-0.014  c-0.57-2.426-1.529-4.703-2.809-6.762l0.041-0.063l1.52-2.266l1.064-1.59c0.299-0.475,0.299-1.1-0.088-1.484l-2.219-2.221  l-0.006-0.004l-2.221-2.221c-0.203-0.205-0.477-0.301-0.758-0.301c-0.248,0-0.504,0.074-0.725,0.215l-1.588,1.064l-2.27,1.52  l-0.063,0.041c-2.057-1.279-4.334-2.238-6.762-2.807l-0.012-0.066L52.58,23.5l-0.369-1.877C52.086,21.078,51.643,20.637,51.1,20.637  L51.1,20.637z" fill="url(#SVGID_7_)" fill-opacity="0.63" stroke-opacity="0.63"/>
<linearGradient gradientUnits="userSpaceOnUse" id="SVGID_8_" x1="47.9468" x2="47.9468" y1="61.8896" y2="6.8529">
<stop offset="0" style="stop-color:#FFFFFF"/>
<stop offset="1" style="stop-color:#1F191A"/>
</linearGradient>
<path d="M47.947,34.234c7.768,0,14.063,6.299,14.063,14.066c0,7.766-6.295,14.063-14.063,14.063  s-14.064-6.297-14.064-14.063C33.883,40.533,40.18,34.234,47.947,34.234 M47.947,33.248c-8.299,0-15.053,6.752-15.053,15.053  c0,8.299,6.754,15.051,15.053,15.051S62.998,56.6,62.998,48.301C62.998,40,56.246,33.248,47.947,33.248L47.947,33.248z" fill="url(#SVGID_8_)"/>
<rect fill="none" height="80" width="80" x="8" y="8"/>
</svg>
