<?xml version="1.0" encoding="UTF-8"?>
<svg xmlns="http://www.w3.org/2000/svg" xmlns:xlink="http://www.w3.org/1999/xlink" baseProfile="tiny" contentScriptType="text/ecmascript" contentStyleType="text/css" height="96px" preserveAspectRatio="xMidYMid meet" version="1.1" viewBox="0 0 96 96" width="96px" x="0px" y="0px" zoomAndPan="magnify">
<rect fill="none" height="96" width="96"/>
<path d="M 88.0 49.0 C 88.0 78.632996 77.637 89.0 48.0 89.0 C 18.365 89.0 8.0 78.633 8.0 49.0 C 8.0 19.365 18.365 9.0 48.0 9.0 C 77.637 9.0 88.0 19.365 88.0 49.0 z " fill-opacity="0.4"/>
<linearGradient gradientUnits="userSpaceOnUse" id="SVGID_1_" x1="47.9995" x2="47.9995" y1="8" y2="88.0005">
<stop offset="0" stop-color="#fabf37"/>
<stop offset="1" stop-color="#de6f1d"/>
</linearGradient>
<path d="M 88.0 48.0 C 88.0 77.632996 77.637 88.0 48.0 88.0 C 18.365 88.0 8.0 77.633 8.0 48.0 C 8.0 18.365 18.365 8.0 48.0 8.0 C 77.637 8.0 88.0 18.365 88.0 48.0 z " fill="url(#SVGID_1_)"/>
<linearGradient gradientUnits="userSpaceOnUse" id="SVGID_2_" x1="47.9995" x2="47.9995" y1="8.2534" y2="87.4985">
<stop offset="0" stop-color="#ffffff"/>
<stop offset="1" stop-color="#ffffff" stop-opacity="0"/>
</linearGradient>
<path d="M 48.0 8.0 C 18.365 8.0 8.0 18.365 8.0 48.0 C 8.0 77.632996 18.365 88.0 48.0 88.0 C 77.637 88.0 88.0 77.633 88.0 48.0 C 88.0 18.365 77.637 8.0 48.0 8.0 z M 48.0 87.0 C 18.842 87.0 9.0 77.158 9.0 48.0 C 9.0 18.842003 18.842 9.0 48.0 9.0 C 77.158005 9.0 87.0 18.842 87.0 48.0 C 87.0 77.158005 77.158 87.0 48.0 87.0 z " fill="url(#SVGID_2_)" fill-opacity="0.25" stroke-opacity="0.25"/>
<linearGradient gradientUnits="userSpaceOnUse" id="SVGID_3_" x1="34.8491" x2="61.3029" y1="21.9487" y2="74.3524">
<stop offset="0" stop-color="#a6a6a6"/>
<stop offset="0.26" stop-color="#f7f7f7"/>
<stop offset="0.74" stop-color="#f7f7f7"/>
<stop offset="1" stop-color="#878787"/>
</linearGradient>
<path d="M 32.447 26.105 C 32.201 26.598 32.0 27.45 32.0 28.0 L 32.0 68.0 C 32.0 68.55 32.201 69.402 32.447 69.895 L 34.5 74.0 L 61.5 74.0 L 63.553 69.895 C 63.799 69.402 64.0 68.55 64.0 68.0 L 64.0 28.0 C 64.0 27.45 63.799 26.598 63.553 26.105 L 61.5 22.0 L 34.5 22.0 L 32.447 26.105 z " fill="url(#SVGID_3_)"/>
<path d="M 34.5 80.0 C 32.975 80.0 31.604 79.153 30.924 77.79 L 28.869 73.684 C 28.342 72.628 28.0 71.182 28.0 70.0 L 28.0 30.0 C 28.0 28.818 28.342 27.372 28.869 26.316 L 30.921999 22.211 C 31.605 20.847 32.977 20.0 34.5 20.0 L 61.5 20.0 C 63.025 20.0 64.395996 20.847 65.078 22.21 L 67.131004 26.315998 C 67.66 27.372 68.0 28.818 68.0 30.0 L 68.0 70.0 C 68.0 71.182 67.66 72.628 67.131 73.684 L 65.077995 77.789 C 64.395 79.153 63.023 80.0 61.5 80.0 L 34.5 80.0 z " fill-opacity="0.02"/>
<path d="M 34.5 79.0 C 33.357 79.0 32.328 78.365 31.818 77.343 L 29.763 73.237 C 29.307 72.322 29.0 71.022 29.0 70.0 L 29.0 30.0 C 29.0 28.978 29.307 27.678 29.764 26.764 L 31.817 22.659 C 32.33 21.635 33.357 21.0 34.5 21.0 L 61.5 21.0 C 62.645 21.0 63.672 21.635 64.182 22.657 L 66.237 26.763 C 66.693 27.678 67.0 28.978 67.0 30.0 L 67.0 70.0 C 67.0 71.022 66.693 72.322 66.236 73.236 L 64.183 77.341 C 63.672 78.365 62.645 79.0 61.5 79.0 L 34.5 79.0 z " fill-opacity="0.05"/>
<path d="M 34.5 78.0 C 33.738 78.0 33.053 77.577 32.713 76.896 L 30.658 72.79 C 30.271 72.014 30.0 70.867 30.0 70.0 L 30.0 30.0 C 30.0 29.133 30.271 27.986 30.658 27.211 L 32.711002 23.106 C 33.053 22.423 33.738 22.0 34.5 22.0 L 61.5 22.0 C 62.262 22.0 62.947 22.423 63.289 23.104 L 65.342 27.21 C 65.73 27.986 66.0 29.133 66.0 30.0 L 66.0 70.0 C 66.0 70.867 65.73 72.014 65.342 72.789 L 63.289 76.894005 C 62.947 77.577 62.262 78.0 61.5 78.0 L 34.5 78.0 z " fill-opacity="0.05"/>
<path d="M 34.5 77.0 C 34.121 77.0 33.775 76.786 33.605 76.447 L 31.552 72.341995 C 31.238 71.711 31.0 70.705 31.0 70.0 L 31.0 30.0 C 31.0 29.295 31.238 28.289 31.553 27.658 L 33.606 23.553001 C 33.775 23.214 34.121 23.0 34.5 23.0 L 61.5 23.0 C 61.879 23.0 62.225 23.214 62.395 23.553 L 64.448 27.657999 C 64.764 28.289 65.0 29.295 65.0 30.0 L 65.0 70.0 C 65.0 70.705 64.764 71.711 64.447 72.342 L 62.393997 76.44701 C 62.225 76.786 61.879 77.0 61.5 77.0 L 34.5 77.0 z " fill-opacity="0.1"/>
<path d="M 32.447 28.105 C 32.201 28.598 32.0 29.45 32.0 30.0 L 32.0 70.0 C 32.0 70.55 32.201 71.402 32.447 71.895 L 34.5 76.0 L 61.5 76.0 L 63.553 71.895 C 63.799 71.402 64.0 70.55 64.0 70.0 L 64.0 30.0 C 64.0 29.45 63.799 28.598 63.553 28.105 L 61.5 24.0 L 34.5 24.0 L 32.447 28.105 z " fill-opacity="0.15"/>
<linearGradient gradientUnits="userSpaceOnUse" id="SVGID_4_" x1="34.8491" x2="61.3029" y1="21.9487" y2="74.3524">
<stop offset="0" stop-color="#cfcfcf"/>
<stop offset="0.26" stop-color="#f7f7f7"/>
<stop offset="0.74" stop-color="#f7f7f7"/>
<stop offset="1" stop-color="#878787"/>
</linearGradient>
<path d="M 32.447 26.105 C 32.201 26.598 32.0 27.45 32.0 28.0 L 32.0 68.0 C 32.0 68.55 32.201 69.402 32.447 69.895 L 34.5 74.0 L 61.5 74.0 L 63.553 69.895 C 63.799 69.402 64.0 68.55 64.0 68.0 L 64.0 28.0 C 64.0 27.45 63.799 26.598 63.553 26.105 L 61.5 22.0 L 34.5 22.0 L 32.447 26.105 z " fill="url(#SVGID_4_)"/>
<linearGradient gradientUnits="userSpaceOnUse" id="SVGID_5_" x1="47.9995" x2="47.9995" y1="68" y2="71">
<stop offset="0" stop-color="#808184"/>
<stop offset="1" stop-color="#ffffff"/>
</linearGradient>
<path d="M 44.0 71.0 C 43.174 71.0 42.5 70.327 42.5 69.5 C 42.5 68.673 43.174 68.0 44.0 68.0 L 52.0 68.0 C 52.828 68.0 53.5 68.673 53.5 69.5 C 53.5 70.327 52.828 71.0 52.0 71.0 L 44.0 71.0 z " fill="url(#SVGID_5_)"/>
<linearGradient gradientUnits="userSpaceOnUse" id="SVGID_6_" x1="48.0005" x2="48.0005" y1="70.5" y2="68.5">
<stop offset="0" stop-color="#323233"/>
<stop offset="1" stop-color="#5a5b5c"/>
</linearGradient>
<path d="M 53.0 69.5 C 53.0 70.05 52.549 70.5 52.0 70.5 L 44.0 70.5 C 43.451 70.5 43.0 70.05 43.0 69.5 L 43.0 69.5 C 43.0 68.95 43.451 68.5 44.0 68.5 L 52.0 68.5 C 52.549 68.5 53.0 68.95 53.0 69.5 L 53.0 69.5 z " fill="url(#SVGID_6_)"/>
<linearGradient gradientUnits="userSpaceOnUse" id="SVGID_7_" x1="48.0005" x2="48.0005" y1="70.5" y2="68.5">
<stop offset="0" stop-color="#ffffff" stop-opacity="0"/>
<stop offset="1" stop-color="#ffffff"/>
</linearGradient>
<path d="M 52.0 68.5 L 44.0 68.5 C 43.451 68.5 43.0 68.95 43.0 69.5 C 43.0 70.05 43.451 70.5 44.0 70.5 L 52.0 70.5 C 52.549 70.5 53.0 70.05 53.0 69.5 C 53.0 68.95 52.549 68.5 52.0 68.5 z M 52.0 70.0 L 44.0 70.0 C 43.725 70.0 43.5 69.775 43.5 69.5 C 43.5 69.225 43.725 69.0 44.0 69.0 L 52.0 69.0 C 52.275 69.0 52.5 69.225 52.5 69.5 C 52.5 69.775 52.275 70.0 52.0 70.0 z " fill="url(#SVGID_7_)" fill-opacity="0.25" stroke-opacity="0.25"/>
<linearGradient gradientUnits="userSpaceOnUse" id="SVGID_8_" x1="48.0005" x2="48.0005" y1="73.9014" y2="21.8005">
<stop offset="0" stop-color="#ffffff" stop-opacity="0"/>
<stop offset="1" stop-color="#ffffff"/>
</linearGradient>
<path d="M 63.553 26.105 L 61.5 22.0 L 34.5 22.0 L 32.447 26.105 C 32.201 26.598 32.0 27.45 32.0 28.0 L 32.0 68.0 C 32.0 68.55 32.201 69.402 32.447 69.895 L 34.5 74.0 L 61.5 74.0 L 63.553 69.895 C 63.799 69.402 64.0 68.55 64.0 68.0 L 64.0 28.0 C 64.0 27.45 63.799 26.598 63.553 26.105 z M 63.0 68.0 C 63.0 68.393 62.834 69.096 62.658 69.447 L 60.881 73.0 L 35.119 73.0 L 33.342 69.447 C 33.166 69.096 33.0 68.393 33.0 68.0 L 33.0 28.0 C 33.0 27.607 33.166 26.904 33.342 26.553 L 35.119 23.0 L 60.880997 23.0 L 62.657997 26.553 C 62.834 26.904 63.0 27.607 63.0 28.0 L 63.0 68.0 z " fill="url(#SVGID_8_)" fill-opacity="0.25" stroke-opacity="0.25"/>
<linearGradient gradientUnits="userSpaceOnUse" id="SVGID_9_" x1="47.9995" x2="47.9995" y1="68.583" y2="74.0836">
<stop offset="0" stop-color="#000000" stop-opacity="0.06"/>
<stop offset="1" stop-color="#000000" stop-opacity="0.2"/>
</linearGradient>
<path d="M 61.5 73.0 L 34.5 73.0 L 32.447 68.895 C 32.201 68.402 32.0 67.55 32.0 67.0 L 32.0 68.0 C 32.0 68.55 32.201 69.402 32.447 69.895 L 34.5 74.0 L 61.5 74.0 L 63.553 69.895 C 63.799 69.402 64.0 68.55 64.0 68.0 L 64.0 67.0 C 64.0 67.55 63.799 68.402 63.553 68.895 L 61.5 73.0 z " fill="url(#SVGID_9_)"/>
<linearGradient gradientUnits="userSpaceOnUse" id="SVGID_10_" x1="48.0005" x2="48.0005" y1="29" y2="22">
<stop offset="0" stop-color="#fdfdfe" stop-opacity="0.06"/>
<stop offset="1" stop-color="#fdfdfe" stop-opacity="0.8"/>
</linearGradient>
<path d="M 63.553 26.105 L 61.5 22.0 L 34.5 22.0 L 32.447 26.105 C 32.201 26.598 32.0 27.45 32.0 28.0 L 32.0 29.0 C 32.0 28.45 32.201 27.598 32.447 27.105 L 34.5 23.0 L 61.5 23.0 L 63.553 27.105 C 63.799 27.598 64.0 28.45 64.0 29.0 L 64.0 28.0 C 64.0 27.45 63.799 26.598 63.553 26.105 z " fill="url(#SVGID_10_)"/>
<linearGradient gradientUnits="userSpaceOnUse" id="SVGID_11_" x1="47.9995" x2="47.9995" y1="10.7285" y2="50.8138">
<stop offset="0" stop-color="#c25100"/>
<stop offset="1" stop-color="#a82400"/>
</linearGradient>
<path d="M 62.0 63.0 C 62.0 64.65 60.65 66.0 59.0 66.0 L 37.0 66.0 C 35.35 66.0 34.0 64.65 34.0 63.0 L 34.0 29.0 C 34.0 27.35 35.35 26.0 37.0 26.0 L 59.0 26.0 C 60.65 26.0 62.0 27.35 62.0 29.0 L 62.0 63.0 z " fill="url(#SVGID_11_)"/>
<linearGradient gradientUnits="userSpaceOnUse" id="SVGID_12_" x1="47.9995" x2="47.9995" y1="-15.5259" y2="73.031">
<stop offset="0" stop-color="#c25100"/>
<stop offset="1" stop-color="#a82400"/>
</linearGradient>
<rect fill="url(#SVGID_12_)" height="36" width="24" x="36" y="28"/>
<linearGradient gradientUnits="userSpaceOnUse" id="SVGID_13_" x1="48.0005" x2="48.0005" y1="47" y2="27">
<stop offset="0" stop-color="#fdfdfe" stop-opacity="0.06"/>
<stop offset="0.1" stop-color="#fdfdfe" stop-opacity="0.06"/>
<stop offset="1" stop-color="#fdfdfe" stop-opacity="0.25"/>
</linearGradient>
<path d="M 61.0 47.0 L 61.0 29.0 C 61.0 27.897 60.102 27.0 59.0 27.0 L 37.0 27.0 C 35.898 27.0 35.0 27.897 35.0 29.0 L 35.0 47.0 L 61.0 47.0 z " fill="url(#SVGID_13_)"/>
<path d="M 52.0 55.0 C 46.486 55.0 42.0 50.514 42.0 45.0 L 42.0 36.0 C 42.0 30.486 46.486 26.0 52.0 26.0 L 73.757996 26.0 L 76.879 22.879 C 77.445 22.313 78.199 22.0 79.0 22.0 C 79.398 22.0 79.787 22.077 80.154 22.23 C 81.273 22.693 82.0 23.781 82.0 25.0 L 82.0 45.0 C 82.0 50.514 77.514 55.0 72.0 55.0 L 52.0 55.0 z " fill-opacity="0.05"/>
<path d="M 52.0 54.0 C 47.037 54.0 43.0 49.963 43.0 45.0 L 43.0 36.0 C 43.0 31.037 47.037 27.0 52.0 27.0 L 74.172 27.0 L 77.586 23.586 C 77.965 23.208 78.465 23.0 79.0 23.0 C 79.266 23.0 79.525 23.052 79.768 23.153 C 80.514 23.462 81.0 24.187 81.0 25.0 L 81.0 45.0 C 81.0 49.963 76.963 54.0 72.0 54.0 L 52.0 54.0 z " fill-opacity="0.1"/>
<path d="M 52.0 53.0 C 47.59 53.0 44.0 49.411 44.0 45.0 L 44.0 36.0 C 44.0 31.589 47.59 28.0 52.0 28.0 L 74.586 28.0 L 78.293 24.293 C 78.484 24.102 78.74 24.0 79.0 24.0 C 79.129 24.0 79.26 24.024 79.383 24.076 C 79.758 24.23 80.0 24.596 80.0 25.0 L 80.0 45.0 C 80.0 49.411 76.412 53.0 72.0 53.0 L 52.0 53.0 z " fill-opacity="0.1"/>
<path d="M 75.0 29.0 L 52.0 29.0 C 48.15 29.0 45.0 32.15 45.0 36.0 L 45.0 45.0 C 45.0 48.85 48.15 52.0 52.0 52.0 L 72.0 52.0 C 75.85 52.0 79.0 48.85 79.0 45.0 L 79.0 25.0 L 75.0 29.0 z " fill-opacity="0.3"/>
<linearGradient gradientUnits="userSpaceOnUse" id="SVGID_14_" x1="62" x2="62" y1="26.3037" y2="49.4892">
<stop offset="0" stop-color="#fafcef"/>
<stop offset="0.3232" stop-color="#fafcef"/>
<stop offset="1" stop-color="#d0cbc5"/>
</linearGradient>
<path d="M 75.0 28.0 L 52.0 28.0 C 48.15 28.0 45.0 31.15 45.0 35.0 L 45.0 44.0 C 45.0 47.85 48.15 51.0 52.0 51.0 L 72.0 51.0 C 75.85 51.0 79.0 47.85 79.0 44.0 L 79.0 24.0 L 75.0 28.0 z " fill="url(#SVGID_14_)"/>
<path d="M 72.0 48.0 L 52.0 48.0 C 48.15 48.0 45.0 44.85 45.0 41.0 L 45.0 44.0 C 45.0 47.85 48.15 51.0 52.0 51.0 L 72.0 51.0 C 75.85 51.0 79.0 47.85 79.0 44.0 L 79.0 41.0 C 79.0 44.85 75.85 48.0 72.0 48.0 z " fill-opacity="0.02"/>
<path d="M 52.0 50.5 C 48.697 50.5 45.961 48.022 45.553 44.828 C 46.863 47.025 49.262 48.5 52.0 48.5 L 72.0 48.5 C 74.738 48.5 77.139 47.025 78.447 44.828 C 78.041 48.022 75.305 50.5 72.0 50.5 L 52.0 50.5 z " fill-opacity="0.05"/>
<path d="M 75.0 28.0 L 52.0 28.0 C 48.15 28.0 45.0 31.15 45.0 35.0 L 45.0 36.0 C 45.0 32.15 48.15 29.0 52.0 29.0 L 75.0 29.0 L 79.0 25.0 L 79.0 24.0 L 75.0 28.0 z " fill="#ffffff"/>
<linearGradient gradientUnits="userSpaceOnUse" id="SVGID_15_" x1="62" x2="62" y1="32" y2="48">
<stop offset="0" stop-color="#ec8624"/>
<stop offset="1" stop-color="#bf5619"/>
</linearGradient>
<path d="M 62.0 44.0 C 60.896 44.0 60.0 44.896 60.0 46.0 C 60.0 47.104 60.896 48.0 62.0 48.0 C 63.105 48.0 64.0 47.104 64.0 46.0 C 64.0 44.896 63.105 44.0 62.0 44.0 z M 63.5 42.0 L 64.0 32.0 L 60.0 32.0 L 60.5 42.0 L 63.5 42.0 z " fill="url(#SVGID_15_)"/>
</svg>
