<?xml version="1.0" encoding="UTF-8" standalone="no"?>
<!-- Generator: Adobe Illustrator 15.0.2, SVG Export Plug-In . SVG Version: 6.00 Build 0)  -->

<svg
   xmlns:dc="http://purl.org/dc/elements/1.1/"
   xmlns:cc="http://creativecommons.org/ns#"
   xmlns:rdf="http://www.w3.org/1999/02/22-rdf-syntax-ns#"
   xmlns:svg="http://www.w3.org/2000/svg"
   xmlns="http://www.w3.org/2000/svg"
   xmlns:xlink="http://www.w3.org/1999/xlink"
   xmlns:sodipodi="http://sodipodi.sourceforge.net/DTD/sodipodi-0.dtd"
   xmlns:inkscape="http://www.inkscape.org/namespaces/inkscape"
   id="Layer_1"
   enable-background="new 0 0 96 96"
   xml:space="preserve"
   height="96px"
   viewBox="0 0 96 96"
   width="96px"
   version="1.1"
   y="0px"
   x="0px"
   inkscape:version="0.48.4 r9939"
   sodipodi:docname="StatusPage.svg"><sodipodi:namedview
   pagecolor="#ffffff"
   bordercolor="#666666"
   borderopacity="1"
   objecttolerance="10"
   gridtolerance="10"
   guidetolerance="10"
   inkscape:pageopacity="0"
   inkscape:pageshadow="2"
   inkscape:window-width="1440"
   inkscape:window-height="838"
   id="namedview3145"
   showgrid="false"
   inkscape:zoom="6.1554362"
   inkscape:cx="47.694724"
   inkscape:cy="58.544247"
   inkscape:window-x="-8"
   inkscape:window-y="-8"
   inkscape:window-maximized="1"
   inkscape:current-layer="Layer_1" /><metadata
   id="metadata3188"><rdf:RDF><cc:Work
       rdf:about=""><dc:format>image/svg+xml</dc:format><dc:type
         rdf:resource="http://purl.org/dc/dcmitype/StillImage" /><dc:title /></cc:Work></rdf:RDF></metadata><defs
   id="defs3186">
	<linearGradient
   id="linearGradient3252"
   y2="585.94"
   gradientUnits="userSpaceOnUse"
   x2="-300.27"
   gradientTransform="translate(348.2749,-498.4453)"
   y1="506.7"
   x1="-300.27"><stop
     id="stop3148"
     stop-color="#FFF"
     offset="0" /><stop
     id="stop3150"
     stop-color="#FFF"
     stop-opacity="0"
     offset="1" /></linearGradient><linearGradient
   id="linearGradient3255"
   y2="197.24"
   gradientUnits="userSpaceOnUse"
   x2="-126"
   gradientTransform="matrix(1,0,0,-1,174,219)"
   y1="122.4"
   x1="-126"><stop
     id="stop3141"
     stop-color="#006325"
     offset="0" /><stop
     id="stop3143"
     stop-color="#80C341"
     offset="1" /></linearGradient><linearGradient
   id="linearGradient3244-9"
   y2="33"
   gradientUnits="userSpaceOnUse"
   x2="48"
   y1="50"
   x1="48"><stop
     id="stop3165-8"
     stop-color="#D0CBC5"
     offset="0" /><stop
     id="stop3167-3"
     stop-color="#FAFCEF"
     offset="0.5031" /><stop
     id="stop3169-8"
     stop-color="#FFF"
     offset="0.9693" /><stop
     id="stop3171-6"
     stop-color="#FFF"
     offset="1" /></linearGradient><linearGradient
   id="linearGradient3240-9"
   y2="36"
   gradientUnits="userSpaceOnUse"
   x2="48"
   y1="50"
   x1="48"><stop
     id="stop3178-6"
     stop-color="#000"
     offset="0" /><stop
     id="stop3180-6"
     stop-color="#000"
     stop-opacity="0"
     offset="1" /></linearGradient><linearGradient
   id="linearGradient4243"
   y2="35.403"
   gradientUnits="userSpaceOnUse"
   x2="49.062"
   gradientTransform="matrix(1.125,0,0,1.1410256,-7.7167559,-4.9927527)"
   y1="48.4"
   x1="49.225"><stop
     id="stop3165-4-8"
     stop-color="#D0CBC5"
     offset="0" /><stop
     id="stop3167-0-2"
     stop-color="#FAFCEF"
     offset="0.5031" /><stop
     id="stop3169-9-6"
     stop-color="#FFF"
     offset="0.9693" /><stop
     id="stop3171-4-2"
     stop-color="#FFF"
     offset="1" /></linearGradient><linearGradient
   id="SVGID_1_-0"
   y2="-2305.3"
   gradientUnits="userSpaceOnUse"
   x2="34.141"
   gradientTransform="matrix(1,0,0,-1,-0.1401,-2301.3369)"
   y1="-2353.3"
   x1="34.141"><stop
     id="stop4413"
     stop-color="#D0CBC5"
     offset="0" /><stop
     id="stop4415"
     stop-color="#FAFCEF"
     offset="0.5031" /><stop
     id="stop4417"
     stop-color="#FFF"
     offset="0.9693" /><stop
     id="stop4419"
     stop-color="#FFF"
     offset="1" /></linearGradient><linearGradient
   id="SVGID_2_-8"
   y2="2383.1"
   gradientUnits="userSpaceOnUse"
   x2="30.931"
   gradientTransform="translate(-0.1201,-2357.4316)"
   y1="2389.5"
   x1="35.741"><stop
     id="stop4431"
     stop-color="#D0CBC5"
     offset="0" /><stop
     id="stop4433"
     stop-color="#FAFCEF"
     offset="0.5031" /><stop
     id="stop4435"
     stop-color="#FFF"
     offset="0.9693" /><stop
     id="stop4437"
     stop-color="#FFF"
     offset="1" /></linearGradient><linearGradient
   id="SVGID_3_-92"
   y2="-2319.1"
   gradientUnits="userSpaceOnUse"
   x2="34.158"
   gradientTransform="matrix(1,0,0,-1,-0.1401,-2301.3369)"
   y1="-2339.6"
   x1="34.158"><stop
     id="stop4469"
     stop-color="#D0CBC5"
     offset="0" /><stop
     id="stop4471"
     stop-color="#FAFCEF"
     offset="0.5031" /><stop
     id="stop4473"
     stop-color="#FFF"
     offset="0.9693" /><stop
     id="stop4475"
     stop-color="#FFF"
     offset="1" /></linearGradient><linearGradient
   id="SVGID_1_"
   gradientUnits="userSpaceOnUse"
   x1="34.140598"
   y1="-2353.3369"
   x2="34.140598"
   y2="-2305.3369"
   gradientTransform="matrix(1,0,0,-1,-0.1401,-2301.3369)"><stop
     offset="0"
     stop-color="#D0CBC5"
     id="stop3315" /><stop
     offset="0.5031"
     stop-color="#FAFCEF"
     id="stop3317" /><stop
     offset="0.9693"
     stop-color="#FFFFFF"
     id="stop3319" /><stop
     offset="1"
     stop-color="#FFFFFF"
     id="stop3321" /></linearGradient><linearGradient
   id="SVGID_2_"
   gradientUnits="userSpaceOnUse"
   x1="35.741199"
   y1="2389.4883"
   x2="30.931299"
   y2="2383.1055"
   gradientTransform="translate(-0.1201,-2357.4316)"><stop
     offset="0"
     stop-color="#D0CBC5"
     id="stop3333" /><stop
     offset="0.5031"
     stop-color="#FAFCEF"
     id="stop3335" /><stop
     offset="0.9693"
     stop-color="#FFFFFF"
     id="stop3337" /><stop
     offset="1"
     stop-color="#FFFFFF"
     id="stop3339" /></linearGradient><linearGradient
   id="SVGID_3_"
   gradientUnits="userSpaceOnUse"
   x1="34.158199"
   y1="-2339.6123"
   x2="34.158199"
   y2="-2319.0518"
   gradientTransform="matrix(1,0,0,-1,-0.1401,-2301.3369)"><stop
     offset="0"
     stop-color="#D0CBC5"
     id="stop3371" /><stop
     offset="0.5031"
     stop-color="#FAFCEF"
     id="stop3373" /><stop
     offset="0.9693"
     stop-color="#FFFFFF"
     id="stop3375" /><stop
     offset="1"
     stop-color="#FFFFFF"
     id="stop3377" /></linearGradient><linearGradient
   id="linearGradient3531"
   gradientUnits="userSpaceOnUse"
   x1="34.158199"
   y1="-2339.6123"
   x2="34.158199"
   y2="-2319.0518"
   gradientTransform="matrix(1,0,0,-1,-0.1401,-2301.3369)"><stop
     offset="0"
     stop-color="#D0CBC5"
     id="stop3533" /><stop
     offset="0.5031"
     stop-color="#FAFCEF"
     id="stop3535" /><stop
     offset="0.9693"
     stop-color="#FFFFFF"
     id="stop3537" /><stop
     offset="1"
     stop-color="#FFFFFF"
     id="stop3539" /></linearGradient><linearGradient
   inkscape:collect="always"
   xlink:href="#SVGID_3_"
   id="linearGradient3806"
   gradientUnits="userSpaceOnUse"
   gradientTransform="matrix(1,0,0,-1,89.990456,-2278.1879)"
   x1="34.158199"
   y1="-2339.6123"
   x2="34.158199"
   y2="-2319.0518" /><linearGradient
   id="linearGradient3506"
   gradientUnits="userSpaceOnUse"
   x1="35.741199"
   y1="2389.4883"
   x2="30.931299"
   y2="2383.1055"
   gradientTransform="translate(-0.1201,-2357.4316)"><stop
     offset="0"
     stop-color="#D0CBC5"
     id="stop3508" /><stop
     offset="0.5031"
     stop-color="#FAFCEF"
     id="stop3510" /><stop
     offset="0.9693"
     stop-color="#FFFFFF"
     id="stop3512" /><stop
     offset="1"
     stop-color="#FFFFFF"
     id="stop3514" /></linearGradient><linearGradient
   inkscape:collect="always"
   xlink:href="#SVGID_2_"
   id="linearGradient3829"
   gradientUnits="userSpaceOnUse"
   gradientTransform="translate(90.010456,-2334.2826)"
   x1="35.741199"
   y1="2389.4883"
   x2="30.931299"
   y2="2383.1055" /><linearGradient
   id="linearGradient3491"
   gradientUnits="userSpaceOnUse"
   x1="34.140598"
   y1="-2353.3369"
   x2="34.140598"
   y2="-2305.3369"
   gradientTransform="matrix(1,0,0,-1,-0.1401,-2301.3369)"><stop
     offset="0"
     stop-color="#D0CBC5"
     id="stop3493" /><stop
     offset="0.5031"
     stop-color="#FAFCEF"
     id="stop3495" /><stop
     offset="0.9693"
     stop-color="#FFFFFF"
     id="stop3497" /><stop
     offset="1"
     stop-color="#FFFFFF"
     id="stop3499" /></linearGradient><linearGradient
   inkscape:collect="always"
   xlink:href="#SVGID_1_"
   id="linearGradient3842"
   gradientUnits="userSpaceOnUse"
   gradientTransform="matrix(1,0,0,-1,89.990456,-2278.1879)"
   x1="34.140598"
   y1="-2353.3369"
   x2="34.140598"
   y2="-2305.3369" /><linearGradient
   inkscape:collect="always"
   xlink:href="#SVGID_1_"
   id="linearGradient3857"
   gradientUnits="userSpaceOnUse"
   gradientTransform="matrix(1,0,0,-1,89.990456,-2278.1879)"
   x1="34.140598"
   y1="-2353.3369"
   x2="34.140598"
   y2="-2305.3369" /></defs>
<rect
   id="rect3134"
   height="96"
   width="96"
   y="0"
   x="0"
   fill="none" /><path
   id="path3138"
   fill-opacity="0.4"
   d="M88,49c0,29.634-10.363,40-40,40-29.634,0-40-10.366-40-40,0-29.635,10.366-40,40-40,29.637,0,40,10.365,40,40z" /><path
   id="path3145"
   fill="url(#linearGradient3255)"
   d="M88,48c0,29.634-10.363,40-40,40-29.634,0-40-10.366-40-40,0-29.635,10.366-40,40-40,29.637,0,40,10.365,40,40z" /><path
   id="path3152"
   fill-opacity="0.25"
   fill="url(#linearGradient3252)"
   d="M48,8c-29.634,0-40,10.365-40,40,0,29.634,10.366,40,40,40,29.637,0,40-10.366,40-40,0-29.635-10.363-40-40-40zm0,79c-29.158,0-39-9.842-39-39s9.842-39,39-39,39,9.842,39,39-9.842,39-39,39z" />
<g
   id="g4076"
   transform="matrix(0.41219733,0,0,0.18533645,28.708248,26.038127)"><path
     id="path3154-7"
     d="M 68,31.5 H 28 c -4.136,0 -7.5,3.364 -7.5,7.5 v 12 c 0,1.379 1.121,2.5 2.5,2.5 h 50 c 1.379,0 2.5,-1.121 2.5,-2.5 V 39 c 0,-4.136 -3.364,-7.5 -7.5,-7.5 z m -1.5,9 v 5 h -7 v -5 h 7 z m -15,0 v 5 h -7 v -5 h 7 z"
     inkscape:connector-curvature="0"
     style="opacity:0.05" /><path
     id="path3156-5"
     d="M 68,32 H 28 c -3.859,0 -7,3.141 -7,7 v 12 c 0,1.104 0.897,2 2,2 h 50 c 1.103,0 2,-0.896 2,-2 V 39 c 0,-3.859 -3.141,-7 -7,-7 z m -1,8 v 6 h -8 v -6 h 8 z m -15,0 v 6 h -8 v -6 h 8 z"
     inkscape:connector-curvature="0"
     style="opacity:0.07000002" /><path
     id="path3158-7"
     d="M 68,32.5 H 28 c -3.584,0 -6.5,2.916 -6.5,6.5 v 12 c 0,0.827 0.673,1.5 1.5,1.5 h 50 c 0.827,0 1.5,-0.673 1.5,-1.5 V 39 c 0,-3.584 -2.916,-6.5 -6.5,-6.5 z m -0.5,7 v 7 h -9 v -7 h 9 z m -15,0 v 7 h -9 v -7 h 9 z"
     inkscape:connector-curvature="0"
     style="opacity:0.1" /><path
     id="path3160-8"
     d="M 68,33 H 28 c -3.309,0 -6,2.691 -6,6 v 12 c 0,0.551 0.448,1 1,1 h 50 c 0.552,0 1,-0.449 1,-1 V 39 c 0,-3.309 -2.691,-6 -6,-6 z m 0,6 v 8 H 58 v -8 h 10 z m -15,0 v 8 H 43 v -8 h 10 z"
     inkscape:connector-curvature="0"
     style="opacity:0.15" /><path
     id="path3162-2"
     d="M 68,33.5 H 28 c -3.032,0 -5.5,2.467 -5.5,5.5 v 12 c 0,0.276 0.224,0.5 0.5,0.5 h 50 c 0.276,0 0.5,-0.224 0.5,-0.5 V 39 c 0,-3.033 -2.468,-5.5 -5.5,-5.5 z m 0,5 c 0.275,0 0.5,0.225 0.5,0.5 v 8.5 h -11 v -9 H 68 z m -14.5,0 v 9 h -11 v -9 h 11 z"
     inkscape:connector-curvature="0"
     style="opacity:0.15" /><path
     id="path3173-7"
     d="M 68,33 H 28 c -2.757,0 -5,2.243 -5,5 V 50 H 73 V 38 c 0,-2.757 -2.243,-5 -5,-5 z M 42,47 V 37 H 54 V 47 H 42 z m 15,0 V 37 h 11 c 0.55,0 1,0.45 1,1 v 9 H 57 z"
     style="fill:url(#linearGradient3244-9)"
     inkscape:connector-curvature="0" /><path
     id="path3175-8"
     d="m 57,48 v -1 h 12 v 1 H 57 z m -3,0 V 47 H 42 v 1 H 54 z M 68,33 H 28 c -2.757,0 -5,2.243 -5,5 v 1 c 0,-2.757 2.243,-5 5,-5 h 40 c 2.757,0 5,2.243 5,5 v -1 c 0,-2.757 -2.243,-5 -5,-5 z"
     inkscape:connector-curvature="0"
     style="fill:#ffffff" /><path
     id="path3182-0"
     d="m 54,36 v 1 H 42 V 36 H 54 z M 23,50 H 73 V 49 H 23 v 1 z M 68,36 H 57 v 1 h 11 c 0.55,0 1,0.45 1,1 v -1 c 0,-0.55 -0.45,-1 -1,-1 z"
     style="fill:url(#linearGradient3240-9);fill-opacity:0.06000001"
     inkscape:connector-curvature="0" /><rect
     id="rect3298-2"
     height="14.459"
     width="48.25"
     y="35.403"
     x="23.719"
     style="fill:url(#linearGradient4243);fill-rule:nonzero" /></g><g
   id="g3851"
   transform="translate(-75.705439,-2.4368703)"><path
     id="path3310"
     d="m 112.13056,76.148959 c -0.956,0 -1.945,-0.67 -2.3,-1.559 l -1.258,-3.141 c -0.252,-0.631 -0.442,-1.62 -0.442,-2.3 l 0,-36 c 0,-0.68 0.19,-1.669 0.442,-2.3 l 1.258,-3.143 c 0.355,-0.887 1.344,-1.557 2.3,-1.557 l 24,0 c 0.956,0 1.945,0.67 2.3,1.558 l 1.259,3.142 c 0.252,0.631 0.441,1.62 0.441,2.3 l 0,36 c 0,0.68 -0.189,1.669 -0.441,2.3 l -1.259,3.143 c -0.355,0.887 -1.344,1.557 -2.3,1.557 l -24,0 z m 5.5,-6 c -0.275,0 -0.5,0.225 -0.5,0.5 0,0.275 0.225,0.5 0.5,0.5 l 13,0 c 0.275,0 0.5,-0.225 0.5,-0.5 0,-0.275 -0.225,-0.5 -0.5,-0.5 l -13,0 z m 17.5,-5 0,-31 -22,0 0,31 22,0 z"
     inkscape:connector-curvature="0"
     style="opacity:0.15" /><path
     id="path3312"
     d="m 138.75956,32.219959 -1.258,-3.143 c -0.204,-0.51 -0.821,-0.928 -1.371,-0.928 l -24,0 c -0.55,0 -1.167,0.418 -1.371,0.929 l -1.258,3.143 c -0.204,0.51 -0.371,1.378 -0.371,1.928 l 0,36 c 0,0.55 0.167,1.418 0.371,1.93 l 1.258,3.146 c 0.204,0.506 0.821,0.924 1.371,0.924 l 24,0 c 0.55,0 1.167,-0.418 1.371,-0.93 l 1.258,-3.146 c 0.204,-0.506 0.371,-1.374 0.371,-1.924 l 0,-36 c 0,-0.55 -0.167,-1.418 -0.371,-1.929 z m -8.129,40.929 -13,0 c -0.828,0 -1.5,-0.672 -1.5,-1.5 0,-0.828 0.672,-1.5 1.5,-1.5 l 13,0 c 0.828,0 1.5,0.672 1.5,1.5 0,0.828 -0.672,1.5 -1.5,1.5 z m 5.5,-6 -24,0 0,-33 24,0 0,33 z"
     inkscape:connector-curvature="0"
     style="opacity:0.3" /><path
     id="path3323"
     d="m 138.75956,31.219959 -1.258,-3.143 c -0.204,-0.51 -0.821,-0.928 -1.371,-0.928 l -24,0 c -0.55,0 -1.167,0.418 -1.371,0.929 l -1.258,3.143 c -0.204,0.51 -0.371,1.378 -0.371,1.928 l 0,36 c 0,0.55 0.167,1.418 0.371,1.93 l 1.258,3.146 c 0.204,0.506 0.821,0.924 1.371,0.924 l 24,0 c 0.55,0 1.167,-0.418 1.371,-0.93 l 1.258,-3.146 c 0.204,-0.506 0.371,-1.374 0.371,-1.924 l 0,-36 c 0,-0.55 -0.167,-1.418 -0.371,-1.929 z m -8.129,40.929 -13,0 c -0.828,0 -1.5,-0.672 -1.5,-1.5 0,-0.828 0.672,-1.5 1.5,-1.5 l 13,0 c 0.828,0 1.5,0.672 1.5,1.5 0,0.828 -0.672,1.5 -1.5,1.5 z m 5.5,-6 -24,0 0,-33 24,0 0,33 z"
     inkscape:connector-curvature="0"
     style="fill:url(#linearGradient3857)" /><path
     id="path3325"
     d="m 112.13056,67.148959 24,0 0,-1 -24,0 0,1 z m 18.5,5 -13,0 c -0.652,0 -1.201,-0.419 -1.408,-1 -0.056,0.157 -0.092,0.324 -0.092,0.5 0,0.828 0.672,1.5 1.5,1.5 l 13,0 c 0.828,0 1.5,-0.672 1.5,-1.5 0,-0.176 -0.036,-0.343 -0.092,-0.5 -0.207,0.581 -0.756,1 -1.408,1 z m 8.129,-40.929 -1.258,-3.143 c -0.204,-0.51 -0.821,-0.928 -1.371,-0.928 l -24,0 c -0.55,0 -1.167,0.418 -1.371,0.929 l -1.258,3.143 c -0.204,0.51 -0.371,1.378 -0.371,1.928 l 0,1 c 0,-0.55 0.167,-1.418 0.371,-1.929 l 1.258,-3.143 c 0.204,-0.51 0.821,-0.928 1.371,-0.928 l 24,0 c 0.55,0 1.167,0.418 1.371,0.929 l 1.258,3.143 c 0.204,0.51 0.371,1.378 0.371,1.928 l 0,-1 c 0,-0.55 -0.167,-1.418 -0.371,-1.929 z"
     inkscape:connector-curvature="0"
     style="fill:#ffffff" /></g><path
   style="opacity:0.15;display:none"
   inkscape:connector-curvature="0"
   display="inline"
   d="m 115.42656,61.354959 c -0.329,0 -0.621,-0.144 -0.802,-0.394 -0.115,-0.16 -0.283,-0.506 -0.111,-1.021 l 1.599,-4.802 c 0.162,-0.483 0.555,-1.117 0.914,-1.479 0,0 9.804,-9.801 10.067,-10.064 l 1.025,-1.028 c 0.406,-0.406 0.947,-0.629 1.521,-0.629 0.574,0 1.114,0.223 1.521,0.627 l 2.063,2.064 c 0.406,0.405 0.632,0.945 0.63,1.521 0,0.576 -0.226,1.115 -0.6311,1.52 l -11.0909,11.099 c -0.367,0.362 -1.002,0.756 -1.48,0.914 l -4.8,1.6 c -0.145,0.048 -0.287,0.072 -0.425,0.072 l 0,0 z m 2.427,-3.388 1.371,-0.479 -0.913,-0.915 -0.479,1.373 0.021,0.021 z"
   id="path3328" /><path
   style="opacity:0.3;display:none"
   inkscape:connector-curvature="0"
   display="inline"
   d="m 117.51656,53.461959 c -0.284,0.283 -0.62,0.826 -0.747,1.207 l -1.6,4.808 c -0.127,0.38 0.081,0.589 0.462,0.461 l 4.801,-1.604 c 0.38,-0.127 0.921,-0.465 1.208,-0.746 l 9.09,-9.083 -4.123,-4.124 -9.091,9.081 z m 2.34,3.845 -2.187,0.766 -0.637,-0.64 0.765,-2.187 0.429,-0.438 2.06,2.063 -0.43,0.436 z m 12.878,-12.877 -2.062,-2.063 c -0.567,-0.565 -1.494,-0.565 -2.062,0 l -1.025,1.028 4.124,4.124 1.024,-1.028 c 0.568,-0.566 0.568,-1.494 10e-4,-2.061 z"
   id="path3330" /><path
   style="fill:url(#linearGradient3829);display:none"
   inkscape:connector-curvature="0"
   display="inline"
   d="m 117.51656,54.154959 c -0.284,0.284 -0.62,0.827 -0.747,1.206 l -1.6,4.804 c -0.127,0.379 0.081,0.588 0.462,0.459 l 4.801,-1.599 c 0.38,-0.128 0.921,-0.464 1.208,-0.746 l 9.09,-9.084 -4.123,-4.124 -9.091,9.084 z m 2.34,3.848 -2.187,0.77 -0.637,-0.645 0.765,-2.188 0.429,-0.434 2.06,2.063 -0.43,0.434 z m 12.878,-12.879 -2.062,-2.063 c -0.567,-0.565 -1.494,-0.565 -2.062,0 l -1.025,1.028 4.124,4.124 1.024,-1.028 c 0.568,-0.566 0.568,-1.495 10e-4,-2.061 z"
   id="path3341" /><rect
   style="fill:none;display:none"
   x="113.74655"
   y="41.249958"
   display="inline"
   width="20.799"
   height="20.799"
   id="rect3343" /><g
   style="display:none"
   id="g3348"
   transform="translate(90.130556,23.148959)"><path
     id="path3350"
     d="m 29.066,17.278 c -0.105,0 -0.207,0.02 -0.299,0.062 -0.085,0.037 -0.166,0.09 -0.233,0.158 -0.072,0.071 -0.126,0.152 -0.164,0.242 -0.012,0.029 -0.02,0.055 -0.025,0.078 l 0,0 -1.083,3.247 -2.9299,0 c -0.101,0 -0.203,0.0199 -0.2951,0.0589 -0.0929,0.04 -0.1729,0.095 -0.2419,0.165 -0.065,0.064 -0.121,0.147 -0.159,0.24 -0.037,0.084 -0.057,0.184 -0.057,0.29 0,0.106 0.021,0.207 0.061,0.299 0.035,0.084 0.092,0.169 0.164,0.239 0.03,0.031 0.064,0.054 0.0889,0.07 l 0.002,0.006 2.347,1.689 -1.035,3.105 c -0.034,0.088 -0.051,0.18 -0.051,0.272 0,0.098 0.02,0.195 0.058,0.289 0.039,0.092 0.095,0.176 0.165,0.244 0.069,0.07 0.149,0.1229 0.237,0.161 0.087,0.038 0.19,0.0609 0.294,0.0609 0.106,0 0.207,-0.0219 0.3,-0.0629 0.055,-0.023 0.098,-0.056 0.118,-0.071 l 0.004,0.004 2.735,-1.968 2.735,1.968 0.004,-0.004 c 0.022,0.0179 0.061,0.047 0.114,0.071 0.099,0.042 0.198,0.0629 0.303,0.0629 0.105,0 0.205,-0.0209 0.298,-0.0629 0.0849,-0.036 0.1639,-0.089 0.232,-0.156 0.0679,-0.067 0.126,-0.152 0.165,-0.244 0.039,-0.092 0.0589,-0.19 0.0589,-0.291 0,-0.094 -0.017,-0.186 -0.051,-0.274 l -1.0339,-3.104 2.3459,-1.689 0.003,-0.007 c 0.021,-0.0129 0.048,-0.031 0.077,-0.057 l 0.018,-0.0179 c 0.068,-0.068 0.123,-0.15 0.161,-0.238 0.039,-0.092 0.06,-0.191 0.06,-0.295 0,-0.103 -0.021,-0.202 -0.06,-0.294 -0.037,-0.088 -0.091,-0.168 -0.159,-0.238 -0.072,-0.07 -0.152,-0.124 -0.24,-0.162 -0.094,-0.039 -0.193,-0.059 -0.292,-0.059 l -2.9289,0 -1.083,-3.247 -0.001,-0.001 c -0.005,-0.021 -0.013,-0.046 -0.023,-0.073 -0.042,-0.097 -0.096,-0.177 -0.164,-0.245 -0.068,-0.068 -0.148,-0.123 -0.239,-0.161 -0.096,-0.04 -0.197,-0.06 -0.301,-0.06 l 0,0 z"
     inkscape:connector-curvature="0"
     style="opacity:0.15" /></g><path
   style="opacity:0.15;display:none"
   inkscape:connector-curvature="0"
   display="inline"
   d="m 131.78256,51.337959 -4.047,0 c -1.545,0 -2.801,-1.256 -2.801,-2.8 l 0,-4.047 c 0,-1.544 1.256,-2.8 2.801,-2.8 l 4.047,0 c 1.545,0 2.801,1.256 2.801,2.8 l 0,4.047 c -0.001,1.545 -1.256,2.8 -2.801,2.8 z"
   id="path3352" /><path
   style="opacity:0.3;display:none"
   inkscape:connector-curvature="0"
   display="inline"
   d="m 131.78256,42.567959 -4.047,0 c -1.31,0 -2.361,1.06 -2.361,2.361 l 0,4.048 c 0,1.302 1.058,2.361 2.361,2.361 l 4.047,0 c 1.303,0 2.361,-1.06 2.361,-2.361 l 0,-4.048 c 0.001,-1.301 -1.058,-2.361 -2.361,-2.361 l 0,0 z"
   id="path3354" /><path
   style="opacity:0.15;display:none"
   inkscape:connector-curvature="0"
   display="inline"
   d="m 131.78256,61.863959 -4.047,0 c -1.545,0 -2.801,-1.257 -2.801,-2.8 l 0,-4.048 c 0,-1.545 1.256,-2.801 2.801,-2.801 l 4.047,0 c 1.545,0 2.801,1.256 2.801,2.801 l 0,4.048 c -0.001,1.542 -1.256,2.8 -2.801,2.8 z"
   id="path3356" /><path
   style="opacity:0.15;display:none"
   inkscape:connector-curvature="0"
   display="inline"
   d="m 121.25856,61.863959 -4.047,0 c -1.544,0 -2.8,-1.257 -2.8,-2.8 l 0,-4.048 c 0,-1.545 1.255,-2.801 2.8,-2.801 l 4.047,0 c 1.544,0 2.8,1.256 2.8,2.801 l 0,4.048 c 0,1.542 -1.257,2.8 -2.8,2.8 z"
   id="path3358" /><path
   style="opacity:0.3;display:none"
   inkscape:connector-curvature="0"
   display="inline"
   d="m 131.78256,53.091959 -4.047,0 c -1.31,0 -2.361,1.06 -2.361,2.361 l 0,4.049 c 0,1.302 1.058,2.355 2.361,2.355 l 4.047,0 c 1.303,0 2.361,-1.063 2.361,-2.355 l 0,-4.049 c 0.001,-1.301 -1.058,-2.361 -2.361,-2.361 l 0,0 z"
   id="path3360" /><path
   style="opacity:0.3;display:none"
   inkscape:connector-curvature="0"
   display="inline"
   d="m 121.25856,53.091959 -4.047,0 c -1.303,0 -2.361,1.06 -2.361,2.361 l 0,4.049 c 0,1.302 1.058,2.355 2.361,2.355 l 4.047,0 c 1.303,0 2.362,-1.063 2.362,-2.355 l 0,-4.049 c -10e-4,-1.301 -1.06,-2.361 -2.362,-2.361 l 0,0 z"
   id="path3362" /><g
   style="display:none"
   id="g3366"
   transform="translate(90.130556,23.148959)"><path
     id="path3368"
     d="m 34.091,22.134 c -0.016,-0.038 -0.039,-0.072 -0.067,-0.1 -0.023,-0.029 -0.063,-0.052 -0.101,-0.067 -0.037,-0.016 -0.08,-0.024 -0.123,-0.024 l -3.245,0 -1.182,-3.547 -0.006,0 c -0.0049,-0.016 -0.004,-0.033 -0.0089,-0.048 -0.017,-0.0369 -0.04,-0.0719 -0.068,-0.0999 -0.028,-0.029 -0.063,-0.051 -0.101,-0.068 -0.037,-0.016 -0.079,-0.024 -0.123,-0.024 -0.044,0 -0.084,0.008 -0.122,0.024 -0.038,0.017 -0.072,0.04 -0.102,0.068 -0.028,0.028 -0.052,0.0629 -0.067,0.0999 -0.006,0.016 -0.005,0.032 -0.009,0.048 l -0.0061,0 -1.182,3.547 -3.247,0 c -0.042,0 -0.084,0.008 -0.122,0.024 -0.038,0.016 -0.072,0.039 -0.101,0.067 -0.029,0.028 -0.052,0.063 -0.067,0.1 -0.017,0.039 -0.024,0.08 -0.024,0.124 0,0.043 0.007,0.084 0.024,0.123 0.016,0.037 0.039,0.072 0.067,0.1 0.012,0.012 0.029,0.02 0.044,0.029 l -0.003,0.006 2.608,1.8779 -1.142,3.421 c -0.015,0.038 -0.024,0.08 -0.024,0.124 0,0.043 0.009,0.085 0.024,0.122 0.016,0.038 0.04,0.072 0.068,0.1 0.028,0.028 0.062,0.052 0.1,0.068 0.037,0.016 0.08,0.025 0.123,0.025 0.044,0 0.086,-0.01 0.123,-0.025 0.017,-0.008 0.03,-0.021 0.045,-0.029 l -0.002,0.008 2.991,-2.153 0,0 0,0 2.991,2.153 L 32.051,28.2 c 0.016,0.008 0.027,0.022 0.044,0.029 0.038,0.016 0.08,0.025 0.124,0.025 0.044,0 0.085,-0.01 0.123,-0.025 0.038,-0.017 0.071,-0.04 0.1,-0.068 0.029,-0.027 0.0519,-0.063 0.068,-0.1 0.0159,-0.037 0.025,-0.079 0.025,-0.122 0,-0.044 -0.009,-0.085 -0.025,-0.124 l -1.141,-3.421 2.608,-1.878 -0.002,-0.006 c 0.015,-0.0089 0.0309,-0.0179 0.0439,-0.0289 0.023,-0.028 0.053,-0.063 0.063,-0.1 0.021,-0.039 0.021,-0.08 0.021,-0.123 C 34.115,22.214 34.107,22.172 34.091,22.134 z"
     inkscape:connector-curvature="0"
     style="opacity:0.3" /></g><path
   style="fill:url(#linearGradient3806);display:none"
   inkscape:connector-curvature="0"
   display="inline"
   d="m 131.78256,42.128959 -4.047,0 c -1.31,0 -2.361,1.06 -2.361,2.361 l 0,4.047 c 0,1.303 1.058,2.362 2.361,2.362 l 4.047,0 c 1.303,0 2.361,-1.059 2.361,-2.362 l 0,-4.047 c 0.001,-1.301 -1.058,-2.361 -2.361,-2.361 l 0,0 z m 0,10.525 -4.047,0 c -1.31,0 -2.361,1.06 -2.361,2.362 l 0,4.048 c 0,1.302 1.058,2.36 2.361,2.36 l 4.047,0 c 1.303,0 2.361,-1.063 2.361,-2.36 l 0,-4.048 c 0.001,-1.303 -1.058,-2.362 -2.361,-2.362 l 0,0 z m -7.537,-7.687 c 0,0.044 -0.008,0.085 -0.024,0.124 -0.016,0.037 -0.038,0.072 -0.067,0.1 -0.014,0.012 -0.024,0.02 -0.042,0.029 l 0.002,0.006 -2.608,1.877 1.141,3.421 c 0.016,0.0389 0.025,0.0799 0.025,0.124 0,0.044 -0.01,0.0849 -0.025,0.1229 -0.016,0.037 -0.0389,0.073 -0.0669,0.101 -0.029,0.028 -0.063,0.051 -0.1011,0.068 -0.0369,0.016 -0.0799,0.024 -0.1219,0.024 -0.044,0 -0.086,-0.009 -0.124,-0.024 -0.017,-0.008 -0.027,-0.021 -0.043,-0.031 l 0.002,0.008 -2.991,-2.153 0,0 0,0 -2.991,2.153 0.002,-0.008 c -0.015,0.01 -0.027,0.023 -0.045,0.031 -0.037,0.016 -0.079,0.024 -0.123,0.024 -0.043,0 -0.084,-0.009 -0.122,-0.024 -0.039,-0.017 -0.071,-0.04 -0.101,-0.068 -0.028,-0.028 -0.051,-0.0629 -0.067,-0.101 -0.016,-0.038 -0.025,-0.079 -0.025,-0.1229 0,-0.044 0.009,-0.085 0.025,-0.124 l 1.141,-3.421 -2.61,-1.878 0.002,-0.006 c -0.015,-0.009 -0.032,-0.018 -0.044,-0.029 -0.029,-0.028 -0.052,-0.063 -0.068,-0.1 -0.017,-0.039 -0.023,-0.08 -0.023,-0.124 0,-0.043 0.007,-0.085 0.023,-0.123 0.016,-0.037 0.039,-0.072 0.068,-0.1 0.028,-0.029 0.063,-0.052 0.1,-0.068 0.038,-0.016 0.081,-0.0239 0.123,-0.0239 l 3.246,0 1.182,-3.547 0.005,0 c 0.004,-0.016 0.003,-0.033 0.01,-0.048 0.016,-0.037 0.039,-0.072 0.067,-0.1 0.0289,-0.028 0.0629,-0.051 0.101,-0.068 0.0369,-0.016 0.0789,-0.024 0.1219,-0.024 0.043,0 0.085,0.008 0.123,0.024 0.038,0.017 0.071,0.04 0.101,0.068 0.028,0.028 0.051,0.063 0.067,0.1 0.006,0.015 0.005,0.032 0.009,0.048 l 0.006,0 1.182,3.547 3.243,0 c 0.043,0 0.085,0.0089 0.123,0.0239 0.038,0.017 0.072,0.039 0.101,0.068 0.027,0.027 0.057,0.063 0.066,0.1 0.017,0.039 0.025,0.081 0.025,0.124 z m -2.987,7.687 -4.047,0 c -1.303,0 -2.361,1.06 -2.361,2.362 l 0,4.048 c 0,1.302 1.058,2.36 2.361,2.36 l 4.047,0 c 1.303,0 2.362,-1.063 2.362,-2.36 l 0,-4.048 c -10e-4,-1.303 -1.06,-2.362 -2.362,-2.362 l 0,0 z"
   id="path3379" /></svg>