<?xml version="1.0" encoding="utf-8"?>
<!-- Generator: Adobe Illustrator 17.0.1, SVG Export Plug-In . SVG Version: 6.00 Build 0)  -->
<!DOCTYPE svg PUBLIC "-//W3C//DTD SVG 1.1//EN" "http://www.w3.org/Graphics/SVG/1.1/DTD/svg11.dtd">
<svg version="1.1"
	 id="Layer_1" xmlns:inkscape="http://www.inkscape.org/namespaces/inkscape" xmlns:sodipodi="http://sodipodi.sourceforge.net/DTD/sodipodi-0.dtd" xmlns:svg="http://www.w3.org/2000/svg" xmlns:rdf="http://www.w3.org/1999/02/22-rdf-syntax-ns#" xmlns:cc="http://creativecommons.org/ns#" xmlns:dc="http://purl.org/dc/elements/1.1/" sodipodi:docname="StatusPage.svg" inkscape:version="0.48.4 r9939"
	 xmlns="http://www.w3.org/2000/svg" xmlns:xlink="http://www.w3.org/1999/xlink" x="0px" y="0px" width="96px" height="96px"
	 viewBox="0 0 96 96" enable-background="new 0 0 96 96" xml:space="preserve">
<sodipodi:namedview  inkscape:cy="58.544247" inkscape:cx="47.694724" inkscape:zoom="6.1554362" showgrid="false" id="namedview3145" guidetolerance="10" gridtolerance="10" objecttolerance="10" borderopacity="1" bordercolor="#666666" pagecolor="#ffffff" inkscape:pageshadow="2" inkscape:window-maximized="1" inkscape:current-layer="Layer_1" inkscape:window-y="-8" inkscape:window-width="1440" inkscape:pageopacity="0" inkscape:window-height="838" inkscape:window-x="-8">
	</sodipodi:namedview>
<rect id="rect3134" fill="none" width="96" height="96"/>
<path id="path3138" fill-opacity="0.4" d="M88,49c0,29.634-10.363,40-40,40C18.366,89,8,78.634,8,49C8,19.365,18.366,9,48,9
	C77.637,9,88,19.365,88,49z"/>
<linearGradient id="path3145_1_" gradientUnits="userSpaceOnUse" x1="326.82" y1="-681.02" x2="326.82" y2="-606.18" gradientTransform="matrix(1 0 0 -1 -278.82 -584.42)">
	<stop  offset="0" style="stop-color:#941A1D"/>
	<stop  offset="1" style="stop-color:#D42027"/>
</linearGradient>
<path id="path3145" fill="url(#path3145_1_)" d="M88,48c0,29.634-10.363,40-40,40C18.366,88,8,77.634,8,48C8,18.365,18.366,8,48,8
	C77.637,8,88,18.365,88,48z"/>
<linearGradient id="path3152_1_" gradientUnits="userSpaceOnUse" x1="152.5451" y1="1194.12" x2="152.5451" y2="1273.36" gradientTransform="matrix(1 0 0 1 -104.5451 -1185.8652)">
	<stop  offset="0" style="stop-color:#FFFFFF"/>
	<stop  offset="1" style="stop-color:#FFFFFF;stop-opacity:0"/>
</linearGradient>
<path id="path3152" fill="url(#path3152_1_)" fill-opacity="0.25" d="M48,8C18.366,8,8,18.365,8,48c0,29.634,10.366,40,40,40
	c29.637,0,40-10.366,40-40C88,18.365,77.637,8,48,8z M48,87C18.842,87,9,77.158,9,48S18.842,9,48,9s39,9.842,39,39S77.158,87,48,87z
	"/>
<g id="g3851" transform="translate(-75.705439,-2.4368703)">
	<path id="path3310" inkscape:connector-curvature="0" opacity="0.15" enable-background="new    " d="M112.131,76.149
		c-0.956,0-1.945-0.67-2.3-1.559l-1.258-3.141c-0.252-0.631-0.442-1.62-0.442-2.3v-36c0-0.68,0.19-1.669,0.442-2.3l1.258-3.143
		c0.355-0.887,1.344-1.557,2.3-1.557h24c0.956,0,1.945,0.67,2.3,1.558l1.259,3.142c0.252,0.631,0.441,1.62,0.441,2.3v36
		c0,0.68-0.189,1.669-0.441,2.3l-1.259,3.143c-0.355,0.887-1.344,1.557-2.3,1.557H112.131z M117.631,70.149
		c-0.275,0-0.5,0.225-0.5,0.5s0.225,0.5,0.5,0.5h13c0.275,0,0.5-0.225,0.5-0.5s-0.225-0.5-0.5-0.5H117.631z M135.131,65.149v-31h-22
		v31H135.131z"/>
	<path id="path3312" inkscape:connector-curvature="0" opacity="0.3" enable-background="new    " d="M138.76,32.22l-1.258-3.143
		c-0.204-0.51-0.821-0.928-1.371-0.928h-24c-0.55,0-1.167,0.418-1.371,0.929l-1.258,3.143c-0.204,0.51-0.371,1.378-0.371,1.928v36
		c0,0.55,0.167,1.418,0.371,1.93l1.258,3.146c0.204,0.506,0.821,0.924,1.371,0.924h24c0.55,0,1.167-0.418,1.371-0.93l1.258-3.146
		c0.204-0.506,0.371-1.374,0.371-1.924v-36C139.131,33.599,138.964,32.731,138.76,32.22z M130.631,73.149h-13
		c-0.828,0-1.5-0.672-1.5-1.5s0.672-1.5,1.5-1.5h13c0.828,0,1.5,0.672,1.5,1.5S131.459,73.149,130.631,73.149z M136.131,67.149h-24
		v-33h24V67.149z"/>
	
		<linearGradient id="path3323_1_" gradientUnits="userSpaceOnUse" x1="638.3715" y1="-3156.7568" x2="638.3715" y2="-3108.7568" gradientTransform="matrix(1 0 0 -1 -514.2404 -3081.6079)">
		<stop  offset="0" style="stop-color:#D0CBC5"/>
		<stop  offset="0.5031" style="stop-color:#FAFCEF"/>
		<stop  offset="0.9693" style="stop-color:#FFFFFF"/>
		<stop  offset="1" style="stop-color:#FFFFFF"/>
	</linearGradient>
	<path id="path3323" inkscape:connector-curvature="0" fill="url(#path3323_1_)" d="M138.76,31.22l-1.258-3.143
		c-0.204-0.51-0.821-0.928-1.371-0.928h-24c-0.55,0-1.167,0.418-1.371,0.929l-1.258,3.143c-0.204,0.51-0.371,1.378-0.371,1.928v36
		c0,0.55,0.167,1.418,0.371,1.93l1.258,3.146c0.204,0.506,0.821,0.924,1.371,0.924h24c0.55,0,1.167-0.418,1.371-0.93l1.258-3.146
		c0.204-0.506,0.371-1.374,0.371-1.924v-36C139.131,32.599,138.964,31.731,138.76,31.22z M130.631,72.149h-13
		c-0.828,0-1.5-0.672-1.5-1.5s0.672-1.5,1.5-1.5h13c0.828,0,1.5,0.672,1.5,1.5S131.459,72.149,130.631,72.149z M136.131,66.149h-24
		v-33h24V66.149z"/>
	<path id="path3325" inkscape:connector-curvature="0" fill="#FFFFFF" d="M112.131,67.149h24v-1h-24V67.149z M130.631,72.149h-13
		c-0.652,0-1.201-0.419-1.408-1c-0.056,0.157-0.092,0.324-0.092,0.5c0,0.828,0.672,1.5,1.5,1.5h13c0.828,0,1.5-0.672,1.5-1.5
		c0-0.176-0.036-0.343-0.092-0.5C131.832,71.73,131.283,72.149,130.631,72.149z M138.76,31.22l-1.258-3.143
		c-0.204-0.51-0.821-0.928-1.371-0.928h-24c-0.55,0-1.167,0.418-1.371,0.929l-1.258,3.143c-0.204,0.51-0.371,1.378-0.371,1.928v1
		c0-0.55,0.167-1.418,0.371-1.929l1.258-3.143c0.204-0.51,0.821-0.928,1.371-0.928h24c0.55,0,1.167,0.418,1.371,0.929l1.258,3.143
		c0.204,0.51,0.371,1.378,0.371,1.928v-1C139.131,32.599,138.964,31.731,138.76,31.22z"/>
</g>
<g id="g3348" transform="translate(90.130556,23.148959)" display="none">
	<path id="path3350" inkscape:connector-curvature="0" display="inline" opacity="0.15" enable-background="new    " d="
		M29.066,17.278c-0.105,0-0.207,0.02-0.299,0.062c-0.085,0.037-0.166,0.09-0.233,0.158c-0.072,0.071-0.126,0.152-0.164,0.242
		c-0.012,0.029-0.02,0.055-0.025,0.078l0,0l-1.083,3.247h-2.93c-0.101,0-0.203,0.02-0.295,0.059
		c-0.093,0.04-0.173,0.095-0.242,0.165c-0.065,0.064-0.121,0.147-0.159,0.24c-0.037,0.084-0.057,0.184-0.057,0.29
		s0.021,0.207,0.061,0.299c0.035,0.084,0.092,0.169,0.164,0.239c0.03,0.031,0.064,0.054,0.089,0.07l0.002,0.006l2.347,1.689
		l-1.035,3.105c-0.034,0.088-0.051,0.18-0.051,0.272c0,0.098,0.02,0.195,0.058,0.289c0.039,0.092,0.095,0.176,0.165,0.244
		c0.069,0.07,0.149,0.123,0.237,0.161c0.087,0.038,0.19,0.061,0.294,0.061c0.106,0,0.207-0.022,0.3-0.063
		c0.055-0.023,0.098-0.056,0.118-0.071l0.004,0.004l2.735-1.968l2.735,1.968l0.004-0.004c0.022,0.018,0.061,0.047,0.114,0.071
		c0.099,0.042,0.198,0.063,0.303,0.063s0.205-0.021,0.298-0.063c0.085-0.036,0.164-0.089,0.232-0.156
		c0.068-0.067,0.126-0.152,0.165-0.244s0.059-0.19,0.059-0.291c0-0.094-0.017-0.186-0.051-0.274l-1.034-3.104l2.346-1.689
		l0.003-0.007c0.021-0.013,0.048-0.031,0.077-0.057l0.018-0.018c0.068-0.068,0.123-0.15,0.161-0.238
		c0.039-0.092,0.06-0.191,0.06-0.295c0-0.103-0.021-0.202-0.06-0.294c-0.037-0.088-0.091-0.168-0.159-0.238
		c-0.072-0.07-0.152-0.124-0.24-0.162c-0.094-0.039-0.193-0.059-0.292-0.059h-2.929l-1.083-3.247l-0.001-0.001
		c-0.005-0.021-0.013-0.046-0.023-0.073c-0.042-0.097-0.096-0.177-0.164-0.245c-0.068-0.068-0.148-0.123-0.239-0.161
		C29.271,17.298,29.17,17.278,29.066,17.278L29.066,17.278z"/>
</g>
<g id="g3366" transform="translate(90.130556,23.148959)" display="none">
	<path id="path3368" inkscape:connector-curvature="0" display="inline" opacity="0.3" enable-background="new    " d="
		M34.091,22.134c-0.016-0.038-0.039-0.072-0.067-0.1c-0.023-0.029-0.063-0.052-0.101-0.067c-0.037-0.016-0.08-0.024-0.123-0.024
		h-3.245l-1.182-3.547h-0.006c-0.005-0.016-0.004-0.033-0.009-0.048c-0.017-0.037-0.04-0.072-0.068-0.1
		c-0.028-0.029-0.063-0.051-0.101-0.068c-0.037-0.016-0.079-0.024-0.123-0.024c-0.044,0-0.084,0.008-0.122,0.024
		c-0.038,0.017-0.072,0.04-0.102,0.068c-0.028,0.028-0.052,0.063-0.067,0.1c-0.006,0.016-0.005,0.032-0.009,0.048H28.76
		l-1.182,3.547h-3.247c-0.042,0-0.084,0.008-0.122,0.024s-0.072,0.039-0.101,0.067s-0.052,0.063-0.067,0.1
		c-0.017,0.039-0.024,0.08-0.024,0.124c0,0.043,0.007,0.084,0.024,0.123c0.016,0.037,0.039,0.072,0.067,0.1
		c0.012,0.012,0.029,0.02,0.044,0.029l-0.003,0.006l2.608,1.878l-1.142,3.421c-0.015,0.038-0.024,0.08-0.024,0.124
		c0,0.043,0.009,0.085,0.024,0.122c0.016,0.038,0.04,0.072,0.068,0.1s0.062,0.052,0.1,0.068c0.037,0.016,0.08,0.025,0.123,0.025
		c0.044,0,0.086-0.01,0.123-0.025c0.017-0.008,0.03-0.021,0.045-0.029l-0.002,0.008l2.991-2.153l0,0l0,0l2.991,2.153L32.051,28.2
		c0.016,0.008,0.027,0.022,0.044,0.029c0.038,0.016,0.08,0.025,0.124,0.025s0.085-0.01,0.123-0.025
		c0.038-0.017,0.071-0.04,0.1-0.068c0.029-0.027,0.052-0.063,0.068-0.1c0.016-0.037,0.025-0.079,0.025-0.122
		c0-0.044-0.009-0.085-0.025-0.124l-1.141-3.421l2.608-1.878l-0.002-0.006c0.015-0.009,0.031-0.018,0.044-0.029
		c0.023-0.028,0.053-0.063,0.063-0.1c0.021-0.039,0.021-0.08,0.021-0.123C34.115,22.214,34.107,22.172,34.091,22.134z"/>
</g>
<g>
	<g>
		<rect x="38.353" y="39.141" fill="none" width="19.717" height="19.717"/>
	</g>
	<path fill-opacity="0.15" d="M49.095,56.455c-1.828,0-4.171-0.114-6.08-1.004c-1.416-0.805-1.767-1.641-1.818-2.205
		c-0.045-0.5,0.1-1.264,1.052-2.064c0.621-0.522,0.645-0.792,0.626-0.884c-0.092-0.452-1.466-0.874-2.375-1.153
		c-2.387-0.735-2.364-2.36-2.362-2.428c-0.009-0.643,0.252-1.249,0.775-1.779c1.902-1.928,6.94-2.438,9.339-2.438
		c0.12,0,0.235,0.001,0.343,0.004c8.361,0.189,10.117,3.911,10.117,7C58.713,53.402,54.488,56.455,49.095,56.455L49.095,56.455z
		 M45.147,51.913c-0.607,0-1.099,0.493-1.099,1.099c0,0.607,0.493,1.1,1.099,1.1c0.607,0,1.1-0.493,1.1-1.1
		C46.246,52.406,45.753,51.913,45.147,51.913L45.147,51.913z M54.245,46.398c-0.38,0-0.676,0.145-0.795,0.388
		c-0.121,0.249-0.018,0.519,0.053,0.657c0.144,0.276,0.414,0.526,0.742,0.685c0.246,0.119,0.506,0.182,0.754,0.182
		c0.379,0,0.676-0.145,0.794-0.387c0.09-0.186,0.055-0.383,0.009-0.514c-0.114-0.33-0.415-0.639-0.804-0.827
		C54.753,46.46,54.493,46.398,54.245,46.398L54.245,46.398z M45.048,45.176c-0.1,0-0.202,0.009-0.303,0.025
		c-0.361,0.059-0.692,0.221-0.908,0.445c-0.108,0.112-0.283,0.341-0.239,0.615c0.063,0.385,0.535,0.665,1.122,0.665
		c0.1,0,0.202-0.009,0.303-0.025c0.427-0.07,0.804-0.281,1.008-0.564c0.081-0.114,0.171-0.291,0.137-0.494
		C46.108,45.461,45.626,45.176,45.048,45.176L45.048,45.176z M49.861,44.875c-0.647,0-1.197,0.348-1.225,0.775
		c-0.019,0.277,0.177,0.488,0.295,0.59c0.237,0.203,0.581,0.333,0.946,0.358c0.045,0.003,0.088,0.005,0.132,0.005
		c0.658,0,1.196-0.34,1.225-0.774c0.032-0.466-0.536-0.9-1.241-0.948C49.948,44.876,49.904,44.875,49.861,44.875L49.861,44.875z"/>
	<path fill-opacity="0.3" d="M48.586,43.407c-2.829-0.063-10.062,0.699-10.019,3.798c0,0-0.043,1.358,2.059,2.005
		c1.877,0.577,3.799,1.178,1.899,2.775c-1.375,1.155-1.215,2.478,0.671,3.553c1.874,0.873,4.224,0.963,5.899,0.963
		c5.088,0,9.19-2.828,9.19-6.523C58.284,46.284,55.575,43.565,48.586,43.407z M43.176,46.805c-0.116-0.703,0.557-1.398,1.501-1.552
		c0.943-0.154,1.802,0.292,1.916,0.994c0.116,0.703-0.556,1.397-1.499,1.552C44.149,47.952,43.291,47.507,43.176,46.805z
		 M45.147,55.016c-0.844,0-1.528-0.685-1.528-1.529c0-0.845,0.685-1.528,1.528-1.528c0.844,0,1.529,0.684,1.529,1.528
		C46.675,54.331,45.99,55.016,45.147,55.016z M49.846,47.499c-0.955-0.065-1.688-0.695-1.639-1.405
		c0.048-0.709,0.862-1.234,1.814-1.168c0.954,0.065,1.688,0.694,1.639,1.405C51.613,47.042,50.801,47.564,49.846,47.499z
		 M56.179,48.583c-0.311,0.641-1.259,0.822-2.119,0.404c-0.86-0.416-1.305-1.274-0.994-1.915c0.311-0.641,1.259-0.823,2.12-0.404
		C56.046,47.085,56.49,47.943,56.179,48.583z"/>
	
		<linearGradient id="SVGID_1_" gradientUnits="userSpaceOnUse" x1="303.5856" y1="-338.4867" x2="303.5856" y2="-325.3885" gradientTransform="matrix(1 0 0 -1 -255.16 -282.46)">
		<stop  offset="0" style="stop-color:#D0CBC5"/>
		<stop  offset="0.5031" style="stop-color:#FAFCEF"/>
		<stop  offset="0.9693" style="stop-color:#FFFFFF"/>
		<stop  offset="1" style="stop-color:#FFFFFF"/>
	</linearGradient>
	<path fill="url(#SVGID_1_)" d="M48.586,42.932c-2.829-0.064-10.062,0.699-10.019,3.798c0,0-0.043,1.358,2.059,2.005
		c1.877,0.577,3.799,1.178,1.899,2.775c-1.375,1.155-1.215,2.478,0.671,3.553c1.874,0.874,4.224,0.964,5.899,0.964
		c5.088,0,9.19-2.828,9.19-6.523C58.284,45.81,55.575,43.09,48.586,42.932z M43.176,46.33c-0.116-0.703,0.557-1.398,1.501-1.552
		c0.943-0.154,1.802,0.292,1.916,0.994c0.116,0.703-0.556,1.397-1.499,1.552C44.149,47.477,43.291,47.032,43.176,46.33z
		 M45.147,54.541c-0.844,0-1.528-0.685-1.528-1.529c0-0.845,0.685-1.528,1.528-1.528c0.844,0,1.529,0.684,1.529,1.528
		C46.675,53.856,45.99,54.541,45.147,54.541z M49.846,47.025c-0.955-0.065-1.688-0.695-1.639-1.405
		c0.048-0.709,0.862-1.234,1.814-1.168c0.954,0.065,1.688,0.694,1.639,1.405C51.613,46.567,50.801,47.09,49.846,47.025z
		 M56.179,48.109c-0.311,0.641-1.259,0.822-2.119,0.404c-0.86-0.416-1.305-1.274-0.994-1.915c0.311-0.641,1.259-0.823,2.12-0.404
		C56.046,46.611,56.49,47.468,56.179,48.109z"/>
	<path fill="#FFFFFF" d="M45.147,54.541c-0.762,0-1.39-0.562-1.505-1.291c-0.012,0.078-0.024,0.156-0.024,0.237
		c0,0.844,0.685,1.529,1.528,1.529c0.844,0,1.529-0.685,1.529-1.529c0-0.081-0.012-0.159-0.024-0.237
		C46.536,53.98,45.909,54.541,45.147,54.541z M45.093,47.798c0.944-0.154,1.616-0.849,1.499-1.552
		c-0.005-0.027-0.017-0.052-0.024-0.079c-0.134,0.55-0.712,1.03-1.475,1.156c-0.907,0.148-1.726-0.259-1.892-0.914
		c-0.031,0.129-0.046,0.261-0.024,0.396C43.291,47.507,44.149,47.952,45.093,47.798z M42.525,51.51
		c-0.689,0.579-0.992,1.2-0.886,1.811c0.077-0.454,0.375-0.907,0.886-1.336c0.698-0.586,0.877-1.038,0.736-1.403
		C43.174,50.849,42.949,51.154,42.525,51.51z M49.846,47.025c-0.812-0.055-1.458-0.52-1.605-1.095
		c-0.013,0.054-0.03,0.108-0.034,0.165c-0.048,0.71,0.685,1.34,1.639,1.405c0.955,0.065,1.766-0.457,1.814-1.168
		c0.007-0.106-0.008-0.209-0.033-0.31C51.474,46.645,50.724,47.084,49.846,47.025z M56.179,48.109
		c-0.311,0.641-1.259,0.822-2.119,0.404c-0.578-0.279-0.961-0.759-1.061-1.237c-0.144,0.609,0.289,1.338,1.061,1.712
		c0.861,0.417,1.808,0.237,2.119-0.404c0.102-0.21,0.116-0.444,0.067-0.678C56.23,47.974,56.211,48.044,56.179,48.109z
		 M48.586,42.932c-2.829-0.064-10.062,0.699-10.019,3.798c0,0-0.001,0.07,0.019,0.181c0.402-2.853,7.263-3.566,10-3.505
		c6.765,0.153,9.52,2.706,9.689,6.22c0.001-0.042,0.009-0.081,0.009-0.123C58.284,45.81,55.575,43.09,48.586,42.932z"/>
</g>
</svg>
