<?xml version="1.0" encoding="utf-8"?>
<!-- Generator: Adobe Illustrator 17.0.1, SVG Export Plug-In . SVG Version: 6.00 Build 0)  -->
<!DOCTYPE svg PUBLIC "-//W3C//DTD SVG 1.1//EN" "http://www.w3.org/Graphics/SVG/1.1/DTD/svg11.dtd">
<svg version="1.1"
	 id="Layer_1" sodipodi:docname="StatusPage.svg" inkscape:version="0.48.4 r9939" xmlns:dc="http://purl.org/dc/elements/1.1/" xmlns:cc="http://creativecommons.org/ns#" xmlns:rdf="http://www.w3.org/1999/02/22-rdf-syntax-ns#" xmlns:svg="http://www.w3.org/2000/svg" xmlns:sodipodi="http://sodipodi.sourceforge.net/DTD/sodipodi-0.dtd" xmlns:inkscape="http://www.inkscape.org/namespaces/inkscape"
	 xmlns="http://www.w3.org/2000/svg" xmlns:xlink="http://www.w3.org/1999/xlink" x="0px" y="0px" width="96px" height="96px"
	 viewBox="0 0 96 96" enable-background="new 0 0 96 96" xml:space="preserve">
<sodipodi:namedview  inkscape:pageopacity="0" inkscape:cy="58.544247" inkscape:cx="47.694724" inkscape:zoom="6.1554362" showgrid="false" id="namedview3145" guidetolerance="10" gridtolerance="10" objecttolerance="10" borderopacity="1" bordercolor="#666666" pagecolor="#ffffff" inkscape:current-layer="Layer_1" inkscape:window-maximized="1" inkscape:window-x="-8" inkscape:window-height="838" inkscape:window-width="1440" inkscape:window-y="-8" inkscape:pageshadow="2">
	</sodipodi:namedview>
<rect id="rect3134" fill="none" width="96" height="96"/>
<path id="path3138" fill-opacity="0.4" d="M88,49c0,29.634-10.363,40-40,40C18.366,89,8,78.634,8,49C8,19.365,18.366,9,48,9
	C77.637,9,88,19.365,88,49z"/>
<linearGradient id="path3145_1_" gradientUnits="userSpaceOnUse" x1="71.66" y1="398.56" x2="71.66" y2="323.72" gradientTransform="matrix(1 0 0 1 -23.66 -301.96)">
	<stop  offset="0" style="stop-color:#00669B"/>
	<stop  offset="1" style="stop-color:#5BCBF5"/>
</linearGradient>
<path id="path3145" fill="url(#path3145_1_)" d="M88,48c0,29.634-10.363,40-40,40C18.366,88,8,77.634,8,48C8,18.365,18.366,8,48,8
	C77.637,8,88,18.365,88,48z"/>
<linearGradient id="path3152_1_" gradientUnits="userSpaceOnUse" x1="-102.6149" y1="-730.66" x2="-102.6149" y2="-809.9" gradientTransform="matrix(1 0 0 -1 150.6149 -722.4053)">
	<stop  offset="0" style="stop-color:#FFFFFF"/>
	<stop  offset="1" style="stop-color:#FFFFFF;stop-opacity:0"/>
</linearGradient>
<path id="path3152" fill="url(#path3152_1_)" fill-opacity="0.25" d="M48,8C18.366,8,8,18.365,8,48c0,29.634,10.366,40,40,40
	c29.637,0,40-10.366,40-40C88,18.365,77.637,8,48,8z M48,87C18.842,87,9,77.158,9,48S18.842,9,48,9s39,9.842,39,39S77.158,87,48,87z
	"/>
<g id="g4076" transform="matrix(0.41219733,0,0,0.18533645,28.708248,26.038127)">
	<path id="path3154-7" inkscape:connector-curvature="0" opacity="0.05" enable-background="new    " d="M67.834,30.742h-40
		c-4.136,0-7.5,8.245-7.5,18.381v29.41c0,3.38,1.121,6.127,2.5,6.127h50c1.379,0,2.5-2.747,2.5-6.127v-29.41
		C75.334,38.987,71.97,30.742,67.834,30.742z M66.334,52.8v12.254h-7V52.8H66.334z M51.334,52.8v12.254h-7V52.8H51.334z"/>
	<path id="path3156-5" inkscape:connector-curvature="0" opacity="0.07" enable-background="new    " d="M67.834,31.967h-40
		c-3.859,0-7,7.698-7,17.156v29.41c0,2.706,0.897,4.902,2,4.902h50c1.103,0,2-2.196,2-4.902v-29.41
		C74.834,39.666,71.693,31.967,67.834,31.967z M66.834,51.574v14.705h-8V51.574H66.834z M51.834,51.574v14.705h-8V51.574H51.834z"/>
	<path id="path3158-7" inkscape:connector-curvature="0" opacity="0.1" enable-background="new    " d="M67.834,33.193h-40
		c-3.584,0-6.5,7.147-6.5,15.931v29.41c0,2.027,0.673,3.676,1.5,3.676h50c0.827,0,1.5-1.649,1.5-3.676v-29.41
		C74.334,40.34,71.418,33.193,67.834,33.193z M67.334,50.349v17.156h-9V50.349H67.334z M52.334,50.349v17.156h-9V50.349H52.334z"/>
	<path id="path3160-8" inkscape:connector-curvature="0" opacity="0.15" enable-background="new    " d="M67.834,34.418h-40
		c-3.309,0-6,6.595-6,14.705v29.41c0,1.35,0.448,2.451,1,2.451h50c0.552,0,1-1.1,1-2.451v-29.41
		C73.834,41.014,71.143,34.418,67.834,34.418z M67.834,49.123V68.73h-10V49.123H67.834z M52.834,49.123V68.73h-10V49.123H52.834z"/>
	<path id="path3162-2" inkscape:connector-curvature="0" opacity="0.15" enable-background="new    " d="M67.834,35.644h-40
		c-3.032,0-5.5,6.046-5.5,13.48v29.41c0,0.676,0.224,1.225,0.5,1.225h50c0.276,0,0.5-0.549,0.5-1.225v-29.41
		C73.334,41.69,70.866,35.644,67.834,35.644z M67.834,47.898c0.275,0,0.5,0.551,0.5,1.225v20.832h-11V47.898H67.834z M53.334,47.898
		v22.058h-11V47.898H53.334z"/>
	
		<linearGradient id="path3173-7_2_" gradientUnits="userSpaceOnUse" x1="1387.912" y1="-10592.9932" x2="1387.912" y2="-10551.3291" gradientTransform="matrix(0.4122 0 0 -0.1853 -524.2599 -1887.1849)">
		<stop  offset="0" style="stop-color:#D0CBC5"/>
		<stop  offset="0.5031" style="stop-color:#FAFCEF"/>
		<stop  offset="0.9693" style="stop-color:#FFFFFF"/>
		<stop  offset="1" style="stop-color:#FFFFFF"/>
	</linearGradient>
	<path id="path3173-7" inkscape:connector-curvature="0" fill="url(#path3173-7_2_)" d="M67.834,34.418h-40
		c-2.757,0-5,5.497-5,12.254v29.41h50v-29.41C72.834,39.916,70.591,34.418,67.834,34.418z M41.834,68.73V44.222h12V68.73H41.834z
		 M56.834,68.73V44.222h11c0.55,0,1,1.103,1,2.451V68.73H56.834z"/>
	<path id="path3175-8" inkscape:connector-curvature="0" fill="#FFFFFF" d="M56.834,71.181V68.73h12v2.451H56.834z M53.834,71.181
		V68.73h-12v2.451H53.834z M67.834,34.418h-40c-2.757,0-5,5.497-5,12.254v2.451c0-6.757,2.243-12.254,5-12.254h40
		c2.757,0,5,5.497,5,12.254v-2.451C72.834,39.916,70.591,34.418,67.834,34.418z"/>
	
		<linearGradient id="path3182-0_3_" gradientUnits="userSpaceOnUse" x1="1387.912" y1="-10592.9932" x2="1387.912" y2="-10558.6816" gradientTransform="matrix(0.4122 0 0 -0.1853 -524.2599 -1887.1849)">
		<stop  offset="0" style="stop-color:#000000"/>
		<stop  offset="1" style="stop-color:#000000;stop-opacity:0"/>
	</linearGradient>
	<path id="path3182-0" inkscape:connector-curvature="0" fill="url(#path3182-0_3_)" fill-opacity="0.06" d="M53.834,41.771v2.451
		h-12v-2.451H53.834z M22.834,76.083h50v-2.451h-50V76.083z M67.834,41.771h-11v2.451h11c0.55,0,1,1.103,1,2.451v-2.451
		C68.834,42.874,68.384,41.771,67.834,41.771z"/>
	
		<linearGradient id="rect3298-2_2_" gradientUnits="userSpaceOnUse" x1="1228.8678" y1="-9226.2266" x2="1228.4779" y2="-9195.1406" gradientTransform="matrix(0.4637 0 0 -0.2115 -521.9507 -1874.9075)">
		<stop  offset="0" style="stop-color:#D0CBC5"/>
		<stop  offset="0.5031" style="stop-color:#FAFCEF"/>
		<stop  offset="0.9693" style="stop-color:#FFFFFF"/>
		<stop  offset="1" style="stop-color:#FFFFFF"/>
	</linearGradient>
	<rect id="rect3298-2" x="23.553" y="40.308" fill="url(#rect3298-2_2_)" width="48.25" height="35.437"/>
</g>
<g id="g3851" transform="translate(-75.705439,-2.4368703)">
	<path id="path3310" inkscape:connector-curvature="0" opacity="0.15" enable-background="new    " d="M112.131,76.149
		c-0.956,0-1.945-0.67-2.3-1.559l-1.258-3.141c-0.252-0.631-0.442-1.62-0.442-2.3v-36c0-0.68,0.19-1.669,0.442-2.3l1.258-3.143
		c0.355-0.887,1.344-1.557,2.3-1.557h24c0.956,0,1.945,0.67,2.3,1.558l1.259,3.142c0.252,0.631,0.441,1.62,0.441,2.3v36
		c0,0.68-0.189,1.669-0.441,2.3l-1.259,3.143c-0.355,0.887-1.344,1.557-2.3,1.557C136.131,76.149,112.131,76.149,112.131,76.149z
		 M117.631,70.149c-0.275,0-0.5,0.225-0.5,0.5s0.225,0.5,0.5,0.5h13c0.275,0,0.5-0.225,0.5-0.5s-0.225-0.5-0.5-0.5
		C130.631,70.149,117.631,70.149,117.631,70.149z M135.131,65.149v-31h-22v31H135.131z"/>
	<path id="path3312" inkscape:connector-curvature="0" opacity="0.3" enable-background="new    " d="M138.76,32.22l-1.258-3.143
		c-0.204-0.51-0.821-0.928-1.371-0.928h-24c-0.55,0-1.167,0.418-1.371,0.929l-1.258,3.143c-0.204,0.51-0.371,1.378-0.371,1.928v36
		c0,0.55,0.167,1.418,0.371,1.93l1.258,3.146c0.204,0.506,0.821,0.924,1.371,0.924h24c0.55,0,1.167-0.418,1.371-0.93l1.258-3.146
		c0.204-0.506,0.371-1.374,0.371-1.924v-36C139.131,33.599,138.964,32.731,138.76,32.22z M130.631,73.149h-13
		c-0.828,0-1.5-0.672-1.5-1.5s0.672-1.5,1.5-1.5h13c0.828,0,1.5,0.672,1.5,1.5S131.459,73.149,130.631,73.149z M136.131,67.149h-24
		v-33h24V67.149z"/>
	
		<linearGradient id="path3323_1_" gradientUnits="userSpaceOnUse" x1="307.5056" y1="2876.7339" x2="307.5056" y2="2828.7339" gradientTransform="matrix(1 0 0 1 -183.375 -2801.5847)">
		<stop  offset="0" style="stop-color:#D0CBC5"/>
		<stop  offset="0.5031" style="stop-color:#FAFCEF"/>
		<stop  offset="0.9693" style="stop-color:#FFFFFF"/>
		<stop  offset="1" style="stop-color:#FFFFFF"/>
	</linearGradient>
	<path id="path3323" inkscape:connector-curvature="0" fill="url(#path3323_1_)" d="M138.76,31.22l-1.258-3.143
		c-0.204-0.51-0.821-0.928-1.371-0.928h-24c-0.55,0-1.167,0.418-1.371,0.929l-1.258,3.143c-0.204,0.51-0.371,1.378-0.371,1.928v36
		c0,0.55,0.167,1.418,0.371,1.93l1.258,3.146c0.204,0.506,0.821,0.924,1.371,0.924h24c0.55,0,1.167-0.418,1.371-0.93l1.258-3.146
		c0.204-0.506,0.371-1.374,0.371-1.924v-36C139.131,32.599,138.964,31.731,138.76,31.22z M130.631,72.149h-13
		c-0.828,0-1.5-0.672-1.5-1.5s0.672-1.5,1.5-1.5h13c0.828,0,1.5,0.672,1.5,1.5S131.459,72.149,130.631,72.149z M136.131,66.149h-24
		v-33h24V66.149z"/>
	<path id="path3325" inkscape:connector-curvature="0" fill="#FFFFFF" d="M112.131,67.149h24v-1h-24
		C112.131,66.149,112.131,67.149,112.131,67.149z M130.631,72.149h-13c-0.652,0-1.201-0.419-1.408-1
		c-0.056,0.157-0.092,0.324-0.092,0.5c0,0.828,0.672,1.5,1.5,1.5h13c0.828,0,1.5-0.672,1.5-1.5c0-0.176-0.036-0.343-0.092-0.5
		C131.832,71.73,131.283,72.149,130.631,72.149z M138.76,31.22l-1.258-3.143c-0.204-0.51-0.821-0.928-1.371-0.928h-24
		c-0.55,0-1.167,0.418-1.371,0.929l-1.258,3.143c-0.204,0.51-0.371,1.378-0.371,1.928v1c0-0.55,0.167-1.418,0.371-1.929l1.258-3.143
		c0.204-0.51,0.821-0.928,1.371-0.928h24c0.55,0,1.167,0.418,1.371,0.929l1.258,3.143c0.204,0.51,0.371,1.378,0.371,1.928v-1
		C139.131,32.599,138.964,31.731,138.76,31.22z"/>
</g>
<g id="g3348" transform="translate(90.130556,23.148959)" display="none">
	<path id="path3350" inkscape:connector-curvature="0" display="inline" opacity="0.15" enable-background="new    " d="
		M29.066,17.278c-0.105,0-0.207,0.02-0.299,0.062c-0.085,0.037-0.166,0.09-0.233,0.158c-0.072,0.071-0.126,0.152-0.164,0.242
		c-0.012,0.029-0.02,0.055-0.025,0.078l0,0l-1.083,3.247h-2.93c-0.101,0-0.203,0.02-0.295,0.059
		c-0.093,0.04-0.173,0.095-0.242,0.165c-0.065,0.064-0.121,0.147-0.159,0.24c-0.037,0.084-0.057,0.184-0.057,0.29
		s0.021,0.207,0.061,0.299c0.035,0.084,0.092,0.169,0.164,0.239c0.03,0.031,0.064,0.054,0.089,0.07l0.002,0.006l2.347,1.689
		l-1.035,3.105c-0.034,0.088-0.051,0.18-0.051,0.272c0,0.098,0.02,0.195,0.058,0.289c0.039,0.092,0.095,0.176,0.165,0.244
		c0.069,0.07,0.149,0.123,0.237,0.161c0.087,0.038,0.19,0.061,0.294,0.061c0.106,0,0.207-0.022,0.3-0.063
		c0.055-0.023,0.098-0.056,0.118-0.071l0.004,0.004l2.735-1.968l2.735,1.968l0.004-0.004c0.022,0.018,0.061,0.047,0.114,0.071
		c0.099,0.042,0.198,0.063,0.303,0.063s0.205-0.021,0.298-0.063c0.085-0.036,0.164-0.089,0.232-0.156
		c0.068-0.067,0.126-0.152,0.165-0.244s0.059-0.19,0.059-0.291c0-0.094-0.017-0.186-0.051-0.274l-1.034-3.104l2.346-1.689
		l0.003-0.007c0.021-0.013,0.048-0.031,0.077-0.057l0.018-0.018c0.068-0.068,0.123-0.15,0.161-0.238
		c0.039-0.092,0.06-0.191,0.06-0.295c0-0.103-0.021-0.202-0.06-0.294c-0.037-0.088-0.091-0.168-0.159-0.238
		c-0.072-0.07-0.152-0.124-0.24-0.162c-0.094-0.039-0.193-0.059-0.292-0.059h-2.929l-1.083-3.247l-0.001-0.001
		c-0.005-0.021-0.013-0.046-0.023-0.073c-0.042-0.097-0.096-0.177-0.164-0.245c-0.068-0.068-0.148-0.123-0.239-0.161
		C29.271,17.298,29.17,17.278,29.066,17.278C29.066,17.278,29.066,17.278,29.066,17.278z"/>
</g>
<g id="g3366" transform="translate(90.130556,23.148959)" display="none">
	<path id="path3368" inkscape:connector-curvature="0" display="inline" opacity="0.3" enable-background="new    " d="
		M34.091,22.134c-0.016-0.038-0.039-0.072-0.067-0.1c-0.023-0.029-0.063-0.052-0.101-0.067c-0.037-0.016-0.08-0.024-0.123-0.024
		h-3.245l-1.182-3.547h-0.006c-0.005-0.016-0.004-0.033-0.009-0.048c-0.017-0.037-0.04-0.072-0.068-0.1
		c-0.028-0.029-0.063-0.051-0.101-0.068c-0.037-0.016-0.079-0.024-0.123-0.024c-0.044,0-0.084,0.008-0.122,0.024
		c-0.038,0.017-0.072,0.04-0.102,0.068c-0.028,0.028-0.052,0.063-0.067,0.1c-0.006,0.016-0.005,0.032-0.009,0.048H28.76
		l-1.182,3.547h-3.247c-0.042,0-0.084,0.008-0.122,0.024s-0.072,0.039-0.101,0.067s-0.052,0.063-0.067,0.1
		c-0.017,0.039-0.024,0.08-0.024,0.124c0,0.043,0.007,0.084,0.024,0.123c0.016,0.037,0.039,0.072,0.067,0.1
		c0.012,0.012,0.029,0.02,0.044,0.029l-0.003,0.006l2.608,1.878l-1.142,3.421c-0.015,0.038-0.024,0.08-0.024,0.124
		c0,0.043,0.009,0.085,0.024,0.122c0.016,0.038,0.04,0.072,0.068,0.1s0.062,0.052,0.1,0.068c0.037,0.016,0.08,0.025,0.123,0.025
		c0.044,0,0.086-0.01,0.123-0.025c0.017-0.008,0.03-0.021,0.045-0.029l-0.002,0.008l2.991-2.153l0,0l0,0l2.991,2.153L32.051,28.2
		c0.016,0.008,0.027,0.022,0.044,0.029c0.038,0.016,0.08,0.025,0.124,0.025s0.085-0.01,0.123-0.025
		c0.038-0.017,0.071-0.04,0.1-0.068c0.029-0.027,0.052-0.063,0.068-0.1c0.016-0.037,0.025-0.079,0.025-0.122
		c0-0.044-0.009-0.085-0.025-0.124l-1.141-3.421l2.608-1.878l-0.002-0.006c0.015-0.009,0.031-0.018,0.044-0.029
		c0.023-0.028,0.053-0.063,0.063-0.1c0.021-0.039,0.021-0.08,0.021-0.123C34.115,22.214,34.107,22.172,34.091,22.134z"/>
</g>
<g id="g4076_1_" transform="matrix(0.41219733,0,0,0.18533645,28.708248,26.038127)">
	<path id="path3154-7_1_" inkscape:connector-curvature="0" opacity="0.05" enable-background="new    " d="M32.759,128.78h29.987
		c3.101,0,5.623-6.151,5.623-13.713V93.126c0-2.521-0.84-4.571-1.874-4.571H29.011c-1.034,0-1.874,2.05-1.874,4.571v21.941
		C27.137,122.63,29.659,128.78,32.759,128.78z M33.884,112.325v-9.142h5.248v9.142H33.884z M45.129,112.325v-9.142h5.248v9.142
		H45.129z"/>
	<path id="path3156-5_1_" inkscape:connector-curvature="0" opacity="0.07" enable-background="new    " d="M32.759,127.866h29.987
		c2.893,0,5.248-5.743,5.248-12.799V93.126c0-2.019-0.672-3.657-1.499-3.657H29.011c-0.827,0-1.499,1.638-1.499,3.657v21.941
		C27.512,122.123,29.866,127.866,32.759,127.866z M33.509,113.239v-10.971h5.997v10.971H33.509z M44.754,113.239v-10.971h5.997
		v10.971H44.754z"/>
	<path id="path3158-7_1_" inkscape:connector-curvature="0" opacity="0.1" enable-background="new    " d="M32.759,126.952h29.987
		c2.687,0,4.873-5.332,4.873-11.885V93.126c0-1.512-0.505-2.743-1.125-2.743H29.011c-0.62,0-1.125,1.231-1.125,2.743v21.941
		C27.887,121.62,30.073,126.952,32.759,126.952z M33.134,114.153v-12.799h6.747v12.799H33.134z M44.379,114.153v-12.799h6.747
		v12.799H44.379z"/>
	<path id="path3160-8_1_" inkscape:connector-curvature="0" opacity="0.15" enable-background="new    " d="M32.759,126.038h29.987
		c2.481,0,4.498-4.92,4.498-10.971V93.126c0-1.007-0.336-1.828-0.75-1.828H29.011c-0.414,0-0.75,0.821-0.75,1.828v21.941
		C28.261,121.118,30.279,126.038,32.759,126.038z M32.759,115.067V100.44h7.497v14.627H32.759z M44.005,115.067V100.44h7.497v14.627
		H44.005z"/>
	<path id="path3162-2_1_" inkscape:connector-curvature="0" opacity="0.15" enable-background="new    " d="M32.759,125.124h29.987
		c2.273,0,4.123-4.511,4.123-10.056V93.126c0-0.505-0.168-0.914-0.375-0.914H29.011c-0.207,0-0.375,0.41-0.375,0.914v21.941
		C28.636,120.613,30.486,125.124,32.759,125.124z M32.759,115.981c-0.206,0-0.375-0.411-0.375-0.914V99.526h8.246v16.456H32.759z
		 M43.63,115.981V99.526h8.246v16.456H43.63z"/>
	
		<linearGradient id="path3173-7_3_" gradientUnits="userSpaceOnUse" x1="302.2164" y1="-11341.0615" x2="302.2164" y2="-11309.9785" gradientTransform="matrix(-0.4122 0 0 0.1853 172.3257 2196.8667)">
		<stop  offset="0" style="stop-color:#D0CBC5"/>
		<stop  offset="0.5031" style="stop-color:#FAFCEF"/>
		<stop  offset="0.9693" style="stop-color:#FFFFFF"/>
		<stop  offset="1" style="stop-color:#FFFFFF"/>
	</linearGradient>
	<path id="path3173-7_1_" inkscape:connector-curvature="0" fill="url(#path3173-7_3_)" d="M32.759,126.038h29.987
		c2.067,0,3.748-4.101,3.748-9.142V94.955H29.011v21.941C29.011,121.937,30.693,126.038,32.759,126.038z M52.251,100.44v18.284
		h-8.996V100.44H52.251z M41.006,100.44v18.284h-8.246c-0.412,0-0.75-0.823-0.75-1.828V100.44H41.006z"/>
	<path id="path3175-8_1_" inkscape:connector-curvature="0" fill="#FFFFFF" d="M41.006,98.611v1.828H32.01v-1.828H41.006z
		 M43.255,98.611v1.828h8.996v-1.828H43.255z M32.759,126.038h29.987c2.067,0,3.748-4.101,3.748-9.142v-1.828
		c0,5.041-1.682,9.142-3.748,9.142H32.759c-2.067,0-3.748-4.101-3.748-9.142v1.828C29.011,121.937,30.693,126.038,32.759,126.038z"
		/>
	
		<linearGradient id="path3182-0_5_" gradientUnits="userSpaceOnUse" x1="302.2164" y1="-11341.0615" x2="302.2164" y2="-11315.4639" gradientTransform="matrix(-0.4122 0 0 0.1853 172.3257 2196.8667)">
		<stop  offset="0" style="stop-color:#000000"/>
		<stop  offset="1" style="stop-color:#000000;stop-opacity:0"/>
	</linearGradient>
	<path id="path3182-0_1_" inkscape:connector-curvature="0" fill="url(#path3182-0_5_)" fill-opacity="0.06" d="M43.255,120.553
		v-1.828h8.996v1.828H43.255z M66.495,94.955H29.011v1.828h37.484V94.955z M32.759,120.553h8.246v-1.828h-8.246
		c-0.412,0-0.75-0.823-0.75-1.828v1.828C32.01,119.73,32.347,120.553,32.759,120.553z"/>
	
		<linearGradient id="rect3298-2_3_" gradientUnits="userSpaceOnUse" x1="263.7662" y1="-9881.707" x2="263.4753" y2="-9858.5137" gradientTransform="matrix(-0.4637 0 0 0.2115 170.0164 2184.5894)">
		<stop  offset="0" style="stop-color:#D0CBC5"/>
		<stop  offset="0.5031" style="stop-color:#FAFCEF"/>
		<stop  offset="0.9693" style="stop-color:#FFFFFF"/>
		<stop  offset="1" style="stop-color:#FFFFFF"/>
	</linearGradient>
	<rect id="rect3298-2_1_" x="29.784" y="95.207" fill="url(#rect3298-2_3_)" width="36.172" height="26.437"/>
</g>
</svg>
