<?xml version="1.0" encoding="utf-8"?>
<!-- Generator: Adobe Illustrator 17.0.1, SVG Export Plug-In . SVG Version: 6.00 Build 0)  -->
<!DOCTYPE svg PUBLIC "-//W3C//DTD SVG 1.1//EN" "http://www.w3.org/Graphics/SVG/1.1/DTD/svg11.dtd">
<svg version="1.1"
	 id="svg2" xmlns:dc="http://purl.org/dc/elements/1.1/" xmlns:cc="http://creativecommons.org/ns#" xmlns:rdf="http://www.w3.org/1999/02/22-rdf-syntax-ns#" xmlns:svg="http://www.w3.org/2000/svg"
	 xmlns="http://www.w3.org/2000/svg" xmlns:xlink="http://www.w3.org/1999/xlink" x="0px" y="0px" width="96px" height="96px"
	 viewBox="0 0 96 96" enable-background="new 0 0 96 96" xml:space="preserve">
<g>
	<g>
		<rect y="0.61" fill="none" width="96" height="96"/>
	</g>
	<path fill-opacity="0.4" d="M88,48.61c0,29.635-10.363,40-40,40c-29.635,0-40-10.365-40-40c0-29.633,10.365-40,40-40
		C77.637,8.61,88,18.977,88,48.61z"/>
	
		<linearGradient id="SVGID_1_" gradientUnits="userSpaceOnUse" x1="262.3202" y1="430.3404" x2="262.3202" y2="508.2135" gradientTransform="matrix(1 0 0 1 -214.3202 -423.92)">
		<stop  offset="0" style="stop-color:#A7B7C2"/>
		<stop  offset="1" style="stop-color:#555E70"/>
	</linearGradient>
	<path fill="url(#SVGID_1_)" d="M88,47.61c0,29.635-10.363,40-40,40c-29.635,0-40-10.365-40-40c0-29.633,10.365-40,40-40
		C77.637,7.61,88,17.977,88,47.61z"/>
	
		<linearGradient id="SVGID_2_" gradientUnits="userSpaceOnUse" x1="293.16" y1="-336.4599" x2="293.16" y2="-256.6808" gradientTransform="matrix(1 0 0 -1 -222.66 -248.96)">
		<stop  offset="0" style="stop-color:#4A4B4D"/>
		<stop  offset="1" style="stop-color:#AFB1B3"/>
	</linearGradient>
	<path fill="url(#SVGID_2_)" d="M53,87.5c25.807-1.173,35-11.99,35-39.89c0-27.904-9.193-38.718-35-39.889V87.5z"/>
	<path fill="#FFFFFF" fill-opacity="0.3" d="M54,7.78c-0.334-0.02-0.66-0.043-1-0.059V87.5c0.34-0.017,0.666-0.039,1-0.06V7.78z"/>
	<path fill-opacity="0.05" d="M53,87.5V7.721c-0.656-0.028-1.322-0.053-2-0.069v79.917C51.678,87.551,52.344,87.528,53,87.5z"/>
	<path fill-opacity="0.2" d="M53,87.5V7.721c-0.328-0.014-0.666-0.022-1-0.034v79.847C52.334,87.522,52.672,87.513,53,87.5z"/>
	
		<linearGradient id="SVGID_3_" gradientUnits="userSpaceOnUse" x1="262.3202" y1="431.7827" x2="262.3202" y2="511.0273" gradientTransform="matrix(1 0 0 1 -214.3202 -423.92)">
		<stop  offset="0" style="stop-color:#FFFFFF"/>
		<stop  offset="1" style="stop-color:#FFFFFF;stop-opacity:0"/>
	</linearGradient>
	<path fill="url(#SVGID_3_)" fill-opacity="0.25" d="M48,7.61c-29.635,0-40,10.367-40,40c0,29.635,10.365,40,40,40
		c29.637,0,40-10.365,40-40C88,17.977,77.637,7.61,48,7.61z M48,86.61c-29.158,0-39-9.842-39-39s9.842-39,39-39s39,9.842,39,39
		S77.158,86.61,48,86.61z"/>
</g>
<g>
	<g id="_x23_000000ff-1-4" transform="matrix(0.1618816,0,0,0.15967251,11.825712,20.90712)">
		<path id="path6-0" fill="#1A1A1A" fill-opacity="0.4314" d="M239.012,46.271c21.838-3.251,44.52-1.101,65.272,6.489
			c35.327,12.538,64.488,40.537,79.527,74.75c16.849,37.497,16.897,82.166,0.151,119.712c-13.151,29.962-36.955,55.27-66.491,69.496
			c-36.195,17.902-80.619,18.006-116.896,0.257c-28.302-13.48-51.412-37.13-64.965-65.331
			c-14.599-29.956-18.336-65.001-10.798-97.434c7.888-35.375,29.774-67.539,60.199-87.34
			C201.213,56.161,219.798,49.06,239.012,46.271 M245.901,66.696c-27.94,3.101-54.326,17.201-72.84,38.302
			c-18.936,21.238-29.837,49.326-30.712,77.719c-1.424,31.968,9.875,64.451,31.451,88.168c17.163,19.174,40.862,32.537,66.322,36.61
			c27.189,4.611,56.006-1.138,79.226-16.024c22.254-14.042,39.387-35.742,48.327-60.438c8.964-24.55,10.002-51.888,3.149-77.086
			c-7.698-28.626-26.109-54.374-51.253-70.212c-21.747-13.914-48.248-19.862-73.748-16.987
			C245.823,66.748,245.901,66.696,245.901,66.696z"/>
		<path id="path8-7-9" fill="#1A1A1A" fill-opacity="0.4314" d="M106.776,111.26c10.099-7.376,21.962-11.688,33.236-16.889
			c-17.301,25.764-29.563,55.738-30.299,87.11c-0.989,18.629,3.037,37.1,8.835,54.714c5.864,16.636,14.801,31.938,23.901,46.989
			c-10.448-5.15-21.25-9.676-31.062-16c-2.624-1.878-5.387-3.798-7.152-6.575c-14.122-26.372-18.55-56.916-17.374-86.542
			c0.449-6.498,0.112-13.183,2.175-19.446c3.55-11.853,6.349-24.063,11.887-35.201c1.677-2.862,3.025-6.174,5.852-8.113v-0.047
			L106.776,111.26z"/>
		<path id="path10-4" fill="#1A1A1A" fill-opacity="0.4314" d="M203.264,113.86c18.01,6.899,34.386,17.186,51.108,26.638
			c25.065,14.574,50.692,28.262,74.719,44.549c-37.788,21.559-75.238,43.723-112.917,65.496c-6.85,4.141-13.637,8.379-20.499,12.513
			c17.175-27.363,33.264-55.448,52.085-81.734C232.961,158.809,218.112,136.333,203.264,113.86z"/>
		<path id="path12-8" fill="#1A1A1A" fill-opacity="0.4314" d="M73.687,132.045c4.914-5.899,11.839-9.538,18.089-13.798
			c-12.189,26.299-18.025,55.699-15.29,84.652c1.502,13.608,4.162,27.167,8.865,40.072c2.537,6.654,5.137,13.272,7.649,19.926
			c-8.026-6.202-19.051-11.143-21.551-21.95c-7.311-23.993-8.548-49.497-6.723-74.389C67.112,154.947,68.527,142.859,73.687,132.045
			z"/>
		<path id="path14-8" fill="#1A1A1A" fill-opacity="0.4314" d="M40.937,176.483c3.264-12.627,9.74-24.975,19.826-33.488
			c-3.788,10.7-4.763,22.213-5.999,33.452c-1.574,20.715,1.626,41.424,6.15,61.582c-8.539-9.584-15.639-20.697-19.365-33.063
			c-1.225-9.419-1.46-19.033-0.612-28.495C40.937,176.471,40.937,176.483,40.937,176.483z"/>
	</g>
	<g id="_x23_000000ff-1-4-2" transform="matrix(0.1618816,0,0,0.15967251,9.2223217,17.978306)">
		<path id="path6-0-4" fill="#1A1A1A" fill-opacity="0.2772" d="M234.99,41.685c21.841-3.248,44.523-1.098,65.275,6.489
			c35.327,12.538,64.488,40.537,79.521,74.75c16.855,37.5,16.903,82.159,0.157,119.712c-13.151,29.962-36.955,55.277-66.491,69.502
			c-36.195,17.895-80.625,17.993-116.899,0.245c-28.302-13.474-51.412-37.124-64.962-65.319
			c-14.602-29.968-18.339-65.004-10.801-97.44c7.888-35.375,29.774-67.536,60.199-87.337
			C197.191,51.575,215.78,44.474,234.99,41.685 M241.879,62.113c-27.94,3.098-54.326,17.198-72.837,38.298
			c-18.939,21.238-29.84,49.326-30.715,77.725c-1.424,31.962,9.875,64.451,31.451,88.162c17.163,19.174,40.862,32.537,66.325,36.61
			c27.189,4.618,56-1.138,79.226-16.024c22.248-14.036,39.387-35.736,48.327-60.432c8.958-24.556,9.996-51.891,3.149-77.092
			c-7.698-28.626-26.115-54.374-51.253-70.212c-21.753-13.911-48.248-19.862-73.748-16.987
			C241.804,62.161,241.879,62.113,241.879,62.113z"/>
		<path id="path8-7-9-5" fill="#1A1A1A" fill-opacity="0.2772" d="M102.755,106.674c10.099-7.376,21.962-11.688,33.236-16.886
			c-17.298,25.761-29.563,55.735-30.299,87.11c-0.989,18.626,3.037,37.103,8.838,54.717c5.861,16.636,14.801,31.938,23.898,46.983
			c-10.448-5.15-21.25-9.676-31.062-15.999c-2.624-1.872-5.387-3.804-7.149-6.575c-14.125-26.378-18.55-56.91-17.377-86.539
			c0.452-6.498,0.115-13.186,2.175-19.449c3.55-11.85,6.352-24.063,11.89-35.201c1.674-2.862,3.022-6.174,5.849-8.113
			L102.755,106.674L102.755,106.674z"/>
		<path id="path10-4-5" fill="#1A1A1A" fill-opacity="0.2772" d="M199.242,109.273c18.013,6.899,34.386,17.189,51.111,26.638
			c25.059,14.574,50.686,28.262,74.713,44.549c-37.788,21.565-75.238,43.73-112.911,65.503c-6.85,4.134-13.64,8.373-20.502,12.513
			c17.175-27.363,33.264-55.454,52.088-81.741C228.94,154.223,214.09,131.749,199.242,109.273z"/>
		<path id="path12-8-1" fill="#1A1A1A" fill-opacity="0.2772" d="M69.666,127.462c4.914-5.902,11.839-9.538,18.089-13.801
			c-12.189,26.299-18.025,55.699-15.286,84.646c1.499,13.614,4.162,27.18,8.862,40.078c2.537,6.648,5.137,13.278,7.649,19.926
			c-8.023-6.202-19.051-11.137-21.548-21.95c-7.314-23.987-8.551-49.5-6.726-74.386C63.094,150.36,64.505,138.272,69.666,127.462z"
			/>
		<path id="path14-8-7" fill="#1A1A1A" fill-opacity="0.2772" d="M36.918,171.897c3.261-12.623,9.737-24.975,19.823-33.488
			c-3.785,10.7-4.763,22.213-5.999,33.452c-1.574,20.709,1.626,41.424,6.15,61.588c-8.536-9.59-15.636-20.703-19.361-33.063
			c-1.225-9.425-1.463-19.039-0.612-28.501L36.918,171.897L36.918,171.897z"/>
	</g>
	<g id="_x23_000000ff-1" transform="matrix(0.1618816,0,0,0.15967251,10.198593,19.117289)">
		<path id="path6" fill="#F2F2F2" stroke="#2F2C2C" stroke-width="4.1114" stroke-opacity="0.3267" d="M236.497,43.469
			c21.838-3.251,44.526-1.101,65.278,6.489c35.327,12.538,64.488,40.537,79.521,74.75c16.855,37.497,16.903,82.159,0.151,119.712
			c-13.145,29.962-36.949,55.277-66.485,69.502c-36.201,17.895-80.628,17.993-116.902,0.245
			c-28.299-13.474-51.412-37.124-64.962-65.319c-14.602-29.968-18.339-65.004-10.801-97.44c7.888-35.375,29.777-67.539,60.202-87.34
			C198.698,53.359,217.287,46.258,236.497,43.469 M243.386,63.893c-27.937,3.101-54.326,17.201-72.837,38.302
			c-18.939,21.238-29.837,49.326-30.712,77.722c-1.427,31.965,9.872,64.454,31.448,88.159c17.163,19.18,40.865,32.543,66.328,36.617
			c27.183,4.618,55.994-1.138,79.22-16.024c22.254-14.036,39.393-35.736,48.327-60.438c8.964-24.55,10.002-51.885,3.155-77.086
			c-7.704-28.626-26.115-54.374-51.253-70.212c-21.753-13.914-48.248-19.862-73.754-16.987
			C243.308,63.946,243.386,63.893,243.386,63.893z"/>
		<path id="path8-7" fill="#F2F2F2" stroke="#2F2C2C" stroke-width="4.1114" stroke-opacity="0.3267" d="M104.262,108.458
			c10.102-7.376,21.965-11.688,33.239-16.889c-17.301,25.764-29.563,55.738-30.302,87.113c-0.986,18.62,3.037,37.103,8.838,54.711
			c5.864,16.642,14.801,31.938,23.901,46.989c-10.451-5.15-21.25-9.676-31.065-15.999c-2.624-1.878-5.387-3.804-7.149-6.581
			c-14.125-26.372-18.55-56.903-17.374-86.532c0.449-6.501,0.112-13.186,2.175-19.449c3.55-11.853,6.349-24.063,11.887-35.201
			c1.674-2.862,3.025-6.174,5.849-8.113L104.262,108.458L104.262,108.458z"/>
		<path id="path10" fill="#F2F2F2" stroke="#2F2C2C" stroke-width="4.1114" stroke-opacity="0.3267" d="M200.748,111.057
			c18.013,6.899,34.389,17.186,51.114,26.638c25.059,14.574,50.686,28.262,74.707,44.549
			c-37.788,21.565-75.232,43.723-112.908,65.503c-6.85,4.134-13.637,8.373-20.499,12.513c17.175-27.363,33.261-55.454,52.088-81.741
			C230.45,156.007,215.597,133.53,200.748,111.057z"/>
		<path id="path12" fill="#F2F2F2" stroke="#2F2C2C" stroke-width="4.1114" stroke-opacity="0.3267" d="M71.176,129.243
			c4.911-5.899,11.836-9.538,18.086-13.798c-12.186,26.299-18.025,55.699-15.286,84.646c1.499,13.614,4.162,27.18,8.862,40.078
			c2.537,6.648,5.137,13.278,7.649,19.92c-8.023-6.196-19.048-11.131-21.548-21.944c-7.314-23.987-8.551-49.503-6.726-74.389
			C64.6,152.144,66.012,140.056,71.176,129.243z"/>
		<path id="path14" fill="#F2F2F2" stroke="#2F2C2C" stroke-width="4.1114" stroke-opacity="0.3267" d="M38.425,173.681
			c3.264-12.627,9.737-24.975,19.826-33.488c-3.788,10.7-4.763,22.213-6.002,33.452c-1.574,20.709,1.626,41.424,6.15,61.588
			c-8.536-9.59-15.636-20.703-19.361-33.063c-1.225-9.431-1.463-19.039-0.612-28.501v0.012L38.425,173.681z"/>
	</g>
</g>
</svg>
