<?xml version="1.0" encoding="UTF-8"?>
<svg xmlns="http://www.w3.org/2000/svg" xmlns:xlink="http://www.w3.org/1999/xlink" baseProfile="tiny" contentScriptType="text/ecmascript" contentStyleType="text/css" height="96px" preserveAspectRatio="xMidYMid meet" version="1.1" viewBox="0 0 96 96" width="96px" x="0px" y="0px" zoomAndPan="magnify">
<path d="M 88.0 49.0 C 88.0 78.634 77.637 89.0 48.0 89.0 C 18.365 89.0 8.0 78.634 8.0 49.0 C 8.0 19.365997 18.365 9.0 48.0 9.0 C 77.637 9.0 88.0 19.366 88.0 49.0 z " fill-opacity="0.4" stroke-opacity="0.4"/>
<rect fill="none" height="80" width="80" x="8" y="8"/>
<rect fill="none" height="96" width="96"/>
<linearGradient gradientUnits="userSpaceOnUse" id="SVGID_1_" x1="47.9995" x2="47.9995" y1="8.5449" y2="89.2398">
<stop offset="0" stop-color="#96d63a"/>
<stop offset="1" stop-color="#0f581c"/>
</linearGradient>
<path d="M 88.0 48.0 C 88.0 77.634 77.637 88.0 48.0 88.0 C 18.365 88.0 8.0 77.634 8.0 48.0 C 8.0 18.365997 18.365 8.0 48.0 8.0 C 77.637 8.0 88.0 18.366 88.0 48.0 z " fill="url(#SVGID_1_)"/>
<path d="M 48.0 8.0 C 18.365 8.0 8.0 18.366 8.0 48.0 C 8.0 77.634 18.365 88.0 48.0 88.0 C 77.637 88.0 88.0 77.634 88.0 48.0 C 88.0 18.365997 77.637 8.0 48.0 8.0 z M 48.0 82.0 C 22.71 82.0 15.0 74.289 15.0 49.0 C 15.0 23.71 22.71 16.0 48.0 16.0 C 53.916 16.0 58.785 16.474 62.813 17.444 L 47.87 32.387 L 41.855 26.371002 C 41.065 25.586002 40.052 25.153002 39.003 25.153002 C 37.060997 25.153002 35.454998 26.618002 35.189 28.614002 L 30.008999 61.985 C 29.971998 62.282 29.952 62.572002 29.952 62.868 C 29.958 64.501 30.559 65.891 31.697 66.895 C 32.654 67.726 33.885002 68.166 35.256 68.166 C 35.536 68.166 35.824 68.147 36.184002 68.098 L 69.423004 62.869 C 70.982 62.66 72.198006 61.684 72.678 60.259 C 73.157 58.842 72.772 57.282997 71.676 56.193 L 65.665 50.181 L 79.931 35.915 C 80.649 39.586 81.0 43.89 81.0 49.0 C 81.0 74.289 73.29 82.0 48.0 82.0 z " fill-opacity="0.05" stroke-opacity="0.05"/>
<path d="M 48.0 8.0 C 18.365 8.0 8.0 18.366 8.0 48.0 C 8.0 77.634 18.365 88.0 48.0 88.0 C 77.637 88.0 88.0 77.634 88.0 48.0 C 88.0 18.365997 77.637 8.0 48.0 8.0 z M 48.0 83.0 C 22.262 83.0 14.0 74.738 14.0 49.0 C 14.0 23.262001 22.262001 15.0 48.0 15.0 C 54.827 15.0 60.329002 15.631 64.748 16.924 L 47.87 33.801 L 41.149998 27.079998 C 40.547997 26.481998 39.787 26.152998 39.003998 26.152998 C 37.567997 26.152998 36.378998 27.260998 36.177998 28.766998 L 31.002 62.11 C 30.970001 62.365 30.953001 62.614002 30.953001 62.865 C 30.958 64.203 31.44 65.334 32.353 66.14 C 33.125 66.811 34.129 67.165 35.256 67.165 C 35.493 67.165 35.738 67.149 36.028 67.108 L 69.29 61.877003 C 70.463 61.72 71.375 60.995003 71.73 59.939003 C 72.08501 58.885002 71.79301 57.72 70.968 56.899002 L 64.25 50.18 L 80.517 33.913002 C 81.515 38.028 82.0 42.986 82.0 49.0 C 82.0 74.738 73.738 83.0 48.0 83.0 z " fill-opacity="0.1" stroke-opacity="0.1"/>
<path d="M 42.724 8.121 C 42.704998 8.122001 42.686 8.123 42.666 8.124001 C 17.109 9.371 8.0 20.219 8.0 48.0 C 8.0 77.634 18.365 88.0 48.0 88.0 C 77.637 88.0 88.0 77.634 88.0 48.0 C 88.0 20.219 78.892 9.370998 53.334 8.124001 C 53.308 8.122001 53.278 8.122001 53.252 8.120001 C 52.43 8.081001 51.593 8.051001 50.737 8.031001 C 49.843 8.011 48.932 8.0 48.0 8.0 C 47.068 8.0 46.157 8.011 45.263 8.031 C 44.398 8.051 43.553 8.081 42.724 8.121 z M 66.614 16.472 L 47.87 35.215 L 40.445 27.789 C 40.033 27.38 39.52 27.153 39.003998 27.153 C 38.060997 27.153 37.303997 27.889 37.165997 28.921 L 31.993996 62.234 C 31.967997 62.447002 31.952995 62.655003 31.952995 62.862 C 31.956995 63.906998 32.319996 64.778 33.009995 65.386 C 33.597996 65.897 34.374996 66.166 35.256996 66.166 C 35.450996 66.166 35.651997 66.152 35.873997 66.122 L 69.158 60.887 C 69.944 60.782 70.55299 60.308002 70.784 59.620003 C 71.016 58.930004 70.815994 58.158 70.26299 57.606003 L 62.837994 50.180004 L 81.037994 31.980003 C 82.356 36.488 83.0 42.079 83.0 49.0 C 83.0 75.168 74.168 84.0 48.0 84.0 C 21.832 84.0 13.0 75.168 13.0 49.0 C 13.0 22.831 21.832 14.0 48.0 14.0 C 55.738 14.0 61.85 14.81 66.614 16.472 z " fill-opacity="0.1" stroke-opacity="0.1"/>
<path d="M 47.994 8.0 C 18.529 8.0 8.118 18.257 8.0 47.5 C 8.118 76.744 18.529 87.0 47.994 87.0 C 77.461 87.0 87.869995 76.744 87.988 47.5 C 87.87 18.257 77.461 8.0 47.994 8.0 z M 83.994 48.0 C 83.994 74.673996 74.666 84.0 47.994003 84.0 C 21.324003 84.0 11.994003 74.673996 11.994003 48.0 C 11.994003 21.328 21.324003 12.0 47.994003 12.0 C 56.465004 12.0 63.182003 12.945 68.41 15.084 L 47.864 35.629 L 39.733997 27.499 C 39.093 26.862001 38.273 27.137001 38.148 28.074001 L 32.98 61.358 C 32.959 61.529003 32.947 61.695004 32.947 61.857002 C 32.949997 62.611004 33.197 63.222004 33.659 63.629 C 34.162 64.066 34.902 64.244 35.713 64.133 L 69.020004 58.895004 C 69.915 58.775005 70.132 57.893005 69.55 57.313004 L 61.418003 49.180004 L 81.485 29.113005 C 83.218 34.104 83.994 40.332 83.994 48.0 z " fill-opacity="0.3" stroke-opacity="0.3"/>
<path d="M 48.0 9.0 C 18.535 9.0 8.124 19.257 8.006 48.5 C 8.124 77.744 18.535 88.0 48.0 88.0 C 77.466995 88.0 87.876 77.744 87.994 48.5 C 87.876 19.257 77.467 9.0 48.0 9.0 z M 84.0 49.0 C 84.0 75.673996 74.672 85.0 48.0 85.0 C 21.33 85.0 12.0 75.673996 12.0 49.0 C 12.0 22.328 21.33 13.0 48.0 13.0 C 56.471 13.0 63.188 13.945 68.416 16.084 L 47.87 36.629 L 39.739998 28.499 C 39.099 27.862001 38.279 28.137001 38.154 29.074001 L 32.986 62.358 C 32.965 62.529003 32.953 62.695004 32.953 62.857002 C 32.955997 63.611004 33.203 64.222 33.665 64.629005 C 34.168 65.066 34.908 65.244 35.719 65.133 L 69.026 59.895004 C 69.921 59.775005 70.138 58.893005 69.556 58.313004 L 61.424 50.180004 L 81.491 30.113005 C 83.224 35.104 84.0 41.332 84.0 49.0 z " fill-opacity="0.3" stroke-opacity="0.3"/>
<linearGradient gradientUnits="userSpaceOnUse" id="SVGID_2_" x1="48.0005" x2="48.0005" y1="88" y2="8.0005">
<stop offset="0" stop-color="#cccac6"/>
<stop offset="1" stop-color="#ffffff"/>
</linearGradient>
<path d="M 48.0 8.0 C 18.365 8.0 8.0 18.367 8.0 48.0 C 8.0 77.635 18.365 88.0 48.0 88.0 C 77.637 88.0 88.0 77.635 88.0 48.0 C 88.0 18.367 77.637 8.0 48.0 8.0 z M 48.0 84.0 C 21.33 84.0 12.0 74.673996 12.0 48.0 C 12.0 21.328 21.33 12.0 48.0 12.0 C 56.471 12.0 63.188 12.945 68.416 15.084 L 47.87 35.629 L 39.739998 27.499 C 39.099 26.862001 38.279 27.137001 38.154 28.074001 L 32.986 61.358 C 32.965 61.529003 32.953 61.695004 32.953 61.857002 C 32.955997 62.611004 33.203 63.222004 33.665 63.629 C 34.168 64.066 34.908 64.244 35.719 64.133 L 69.026 58.895004 C 69.921 58.775005 70.138 57.893005 69.556 57.313004 L 61.424 49.180004 L 81.491 29.113005 C 83.224 34.104 84.0 40.332 84.0 48.0 C 84.0 74.674 74.672 84.0 48.0 84.0 z " fill="url(#SVGID_2_)"/>
<path d="M 47.87 35.629 L 39.739998 27.499 C 39.099 26.862001 38.279 27.137001 38.154 28.074001 L 32.986 61.358 C 32.965 61.529003 32.953 61.695004 32.953 61.857002 C 32.953 62.016003 32.971 62.167004 32.993 62.313004 L 38.154 29.074005 C 38.279 28.136005 39.099 27.862005 39.739998 28.499004 L 47.87 36.629005 L 68.416 16.084005 C 68.181 15.988006 67.926 15.907005 67.685 15.815005 L 47.87 35.629 z M 48.0 8.0 C 18.365 8.0 8.0 18.367 8.0 48.0 C 8.0 48.17 8.005 48.331 8.006 48.5 C 8.124 19.257 18.535 9.0 48.0 9.0 C 77.466995 9.0 87.876 19.257 87.994 48.5 C 87.995 48.331 88.0 48.17 88.0 48.0 C 88.0 18.367 77.637 8.0 48.0 8.0 z M 48.0 84.0 C 21.5 84.0 12.124001 74.784 12.0060005 48.5 C 12.005 48.669 12.0 48.83 12.0 49.0 C 12.0 75.673996 21.33 85.0 48.0 85.0 C 74.672 85.0 84.0 75.673996 84.0 49.0 C 84.0 48.842 83.994 48.694 83.994 48.537 C 83.866 74.792 74.489 84.0 48.0 84.0 z M 69.556 58.313 C 69.621 58.378 69.672 58.447998 69.718 58.518 C 69.97 58.179 69.929 57.685 69.556 57.313 L 61.924 49.68 L 61.424 50.18 L 69.556 58.313 z " fill="#ffffff"/>
<linearGradient gradientUnits="userSpaceOnUse" id="SVGID_3_" x1="48.0005" x2="48.0005" y1="88" y2="46.0005">
<stop offset="0" stop-color="#f4f5e9" stop-opacity="0.0714"/>
<stop offset="0.7939" stop-color="#a09c98"/>
<stop offset="1" stop-color="#a09c98"/>
</linearGradient>
<path d="M 48.0 84.0 C 19.046 84.0 8.492 74.095 8.022 46.0 C 8.012 46.66 8.0 47.319 8.0 48.0 C 8.0 77.635 18.365 88.0 48.0 88.0 C 77.637 88.0 88.0 77.635 88.0 48.0 C 88.0 47.319 87.988 46.66 87.978 46.0 C 87.508 74.095 76.956 84.0 48.0 84.0 z " fill="url(#SVGID_3_)" fill-opacity="0.3" stroke-opacity="0.3"/>
<linearGradient gradientUnits="userSpaceOnUse" id="SVGID_4_" x1="47.9995" x2="47.9995" y1="8.2534" y2="87.4985">
<stop offset="0" stop-color="#ffffff"/>
<stop offset="1" stop-color="#ffffff" stop-opacity="0"/>
</linearGradient>
<path d="M 48.0 8.0 C 18.365 8.0 8.0 18.367 8.0 48.0 C 8.0 77.635 18.365 88.0 48.0 88.0 C 77.637 88.0 88.0 77.635 88.0 48.0 C 88.0 18.367 77.637 8.0 48.0 8.0 z M 48.0 87.0 C 18.842 87.0 9.0 77.158 9.0 48.0 C 9.0 18.842003 18.842 9.0 48.0 9.0 C 77.158005 9.0 87.0 18.842 87.0 48.0 C 87.0 77.158005 77.158 87.0 48.0 87.0 z " fill="url(#SVGID_4_)" fill-opacity="0.15" stroke-opacity="0.15"/>
</svg>
