<?xml version="1.0" encoding="utf-8"?>
<!-- Generator: Adobe Illustrator 15.0.0, SVG Export Plug-In . SVG Version: 6.00 Build 0)  -->
<!DOCTYPE svg PUBLIC "-//W3C//DTD SVG 1.1//EN" "http://www.w3.org/Graphics/SVG/1.1/DTD/svg11.dtd">
<svg version="1.1" id="Слой_1" xmlns="http://www.w3.org/2000/svg" xmlns:xlink="http://www.w3.org/1999/xlink" x="0px" y="0px"
	 width="96px" height="96px" viewBox="0 0 96 96" enable-background="new 0 0 96 96" xml:space="preserve">
<g id="Подложка">
	<path opacity="0.3" fill-opacity="0.4" enable-background="new    " d="M88,51.045c0,29.633-10.363,40-40,40
		c-29.635,0-40-10.367-40-40c0-29.635,10.365-40,40-40C77.637,11.045,88,21.41,88,51.045z"/>
	<path opacity="0.3" fill-opacity="0.4" enable-background="new    " d="M88,50.701c0,29.633-10.363,40-40,40
		c-29.635,0-40-10.367-40-40c0-29.635,10.365-40,40-40C77.637,10.701,88,21.066,88,50.701z"/>
	<path opacity="0.3" fill-opacity="0.4" enable-background="new    " d="M88,50.357c0,29.633-10.363,40-40,40
		c-29.635,0-40-10.367-40-40c0-29.635,10.365-40,40-40C77.637,10.357,88,20.723,88,50.357z"/>
	<path opacity="0.4" fill="#1C1C1C" enable-background="new    " d="M88,49.357c0,29.633-10.363,40-40,40c-29.635,0-40-10.367-40-40
		c0-29.635,10.365-40,40-40C77.637,9.357,88,19.723,88,49.357z"/>
	<path opacity="0.25" stroke="#020202" stroke-width="2.5" stroke-miterlimit="10" enable-background="new    " d="M88,48
		c0,29.633-10.363,40-40,40C18.365,88,8,77.633,8,48C8,18.365,18.365,8,48,8C77.637,8,88,18.365,88,48z"/>
	<path opacity="0.35" stroke="#020202" stroke-width="2" stroke-miterlimit="10" enable-background="new    " d="M88,48
		c0,29.633-10.363,40-40,40C18.365,88,8,77.633,8,48C8,18.365,18.365,8,48,8C77.637,8,88,18.365,88,48z"/>
	<path opacity="0.4" stroke="#020202" stroke-miterlimit="10" enable-background="new    " d="M88,48c0,29.633-10.363,40-40,40
		C18.365,88,8,77.633,8,48C8,18.365,18.365,8,48,8C77.637,8,88,18.365,88,48z"/>
	
		<linearGradient id="SVGID_1_" gradientUnits="userSpaceOnUse" x1="473.4707" y1="5769.7666" x2="473.4707" y2="5850.46" gradientTransform="matrix(1 0 0 1 -425.4707 -5761.2217)">
		<stop  offset="0" style="stop-color:#0077CD"/>
		<stop  offset="1" style="stop-color:#003F9A"/>
	</linearGradient>
	<path fill="url(#SVGID_1_)" d="M88,48c0,29.633-10.363,40-40,40C18.365,88,8,77.633,8,48C8,18.365,18.365,8,48,8
		C77.637,8,88,18.365,88,48z"/>
	<g opacity="0.25">
		
			<linearGradient id="SVGID_2_" gradientUnits="userSpaceOnUse" x1="473.4707" y1="5768.7803" x2="473.4707" y2="5851.4927" gradientTransform="matrix(1 0 0 1 -425.4707 -5761.2217)">
			<stop  offset="0" style="stop-color:#FFFFFF"/>
			<stop  offset="1" style="stop-color:#FFFFFF;stop-opacity:0"/>
		</linearGradient>
		<path fill="url(#SVGID_2_)" d="M48,89C17.729,89,7,78.271,7,48C7,17.729,17.729,7,48,7c30.271,0,41,10.729,41,41
			C89,78.271,78.271,89,48,89z M48,10c-28.766,0-38,9.234-38,38c0,28.768,9.234,38,38,38c28.768,0,38-9.232,38-38
			C86,19.234,76.768,10,48,10z"/>
	</g>
</g>
<g id="Картинка">
	<g id="Слой_2">
		<g opacity="0.1">
			<path fill="#020202" d="M37.62,54.994c0.177-0.001,0.177-0.001,0.177-0.001c0.581-0.251,1.201-0.964,1.377-1.583
				c0.176-0.622,0.315-2.13,0.312-3.353c-0.004-1.227-0.011-3.313-0.015-4.644s-0.155-2.836-0.333-3.35
				c-0.18-0.513-0.607-1.15-0.945-1.415c-0.341-0.265-1.003-0.625-1.474-0.801c-0.47-0.176-0.655-0.61-0.415-0.966
				c0.242-0.354,0.929-0.879,1.525-1.165c0.597-0.286,1.562-0.593,2.144-0.684c0.582-0.09,1.626-0.167,2.322-0.169
				c0.697-0.002,1.979-0.006,2.853-0.009s2.21,0.108,2.971,0.248s1.675,0.441,2.032,0.67c0.355,0.23,0.768,0.677,0.913,0.996
				c0.146,0.318,0.271,1.727,0.276,3.13l0.026,8.303c0.005,1.4,0.104,2.825,0.216,3.162c0.114,0.338,0.302,0.757,0.415,0.933
				c0.114,0.181,0.406,0.395,0.648,0.481c0.239,0.088,0.743,0,1.113-0.196c0.371-0.193,0.991-0.807,1.382-1.358
				c0.385-0.552,1.176-1.74,1.755-2.65c0.579-0.904,1.472-2.444,1.988-3.421c0.515-0.978,1.211-2.416,1.549-3.195
				c0.337-0.78,0.822-1.898,1.079-2.483c0.258-0.586,0.666-1.356,0.906-1.711c0.241-0.355,0.756-0.749,1.145-0.874
				c0.387-0.125,1.853-0.225,3.255-0.221l5.541,0.015c1.402,0.004,2.764,0.064,3.021,0.135c0.262,0.07,0.553,0.316,0.649,0.545
				c0.102,0.232,0.181,0.624,0.182,0.872s-0.155,0.944-0.35,1.548c-0.19,0.603-0.68,1.823-1.079,2.71
				c-0.401,0.887-1.18,2.326-1.723,3.194c-0.547,0.872-1.441,2.252-1.989,3.069c-0.548,0.819-1.496,2.08-2.107,2.81
				c-0.611,0.731-1.376,1.761-1.696,2.293c-0.322,0.531-0.625,1.315-0.673,1.739c-0.048,0.43,0.034,0.979,0.181,1.228
				c0.146,0.247,0.998,1.335,1.896,2.415l6.013,7.254c0.897,1.08,1.629,2.313,1.63,2.736c0.002,0.427-0.074,1.006-0.172,1.289
				c-0.099,0.286-0.399,0.69-0.675,0.902c-0.273,0.214-0.806,0.461-1.174,0.553c-0.371,0.092-1.824,0.166-3.229,0.171l-4.954,0.016
				c-1.402,0.005-3.057-0.306-3.67-0.696c-0.615-0.389-1.692-1.239-2.391-1.89c-0.694-0.654-1.76-1.811-2.361-2.571
				c-0.602-0.76-1.371-1.743-1.713-2.185c-0.341-0.44-0.938-0.934-1.325-1.091c-0.39-0.157-1.051-0.055-1.47,0.231
				c-0.42,0.284-0.946,0.954-1.172,1.486c-0.227,0.53-0.454,2.113-0.51,3.517c0,0-0.009,0.223-0.008,0.414c0,0.194,0,0.194,0,0.194
				c-0.158,1.064-0.524,2.095-0.814,2.29c-0.29,0.196-0.886,0.357-1.319,0.359c-0.436,0.001-1.906,0.006-3.264,0.01
				c-1.358,0.005-3.345-0.146-4.413-0.34c-1.067-0.192-2.856-0.779-3.974-1.308c-1.117-0.528-2.776-1.595-3.684-2.372
				s-2.427-2.258-3.377-3.292l-0.679-0.739c-0.95-1.033-2.345-2.847-3.104-4.026l-1.205-1.88c-0.758-1.182-1.906-3.165-2.551-4.411
				l-1.087-2.1c-0.646-1.245-1.669-3.303-2.275-4.563l-0.045-0.099c-0.607-1.266-1.567-3.35-2.134-4.635l-0.069-0.159
				c-0.567-1.283-1.139-2.71-1.269-3.17c-0.131-0.461-0.147-1.099-0.034-1.418c0.113-0.32,0.693-0.728,1.291-0.906
				c0.599-0.179,2.234-0.33,3.639-0.334l3.483-0.012c1.402-0.004,2.736,0.093,2.963,0.216c0.228,0.124,0.626,0.528,0.886,0.899
				c0.259,0.371,0.793,1.429,1.184,2.35c0.392,0.92,1.031,2.455,1.423,3.411c0.393,0.956,1.057,2.303,1.481,2.994
				c0.422,0.687,1.047,1.718,1.389,2.282c0.341,0.564,0.874,1.448,1.183,1.961c0.31,0.516,0.761,1.167,1.005,1.448
				C36.36,54.313,37.038,54.747,37.62,54.994L37.62,54.994z"/>
		</g>
		<g opacity="0.15">
			<path fill="#020202" d="M37.617,53.994c0.177-0.001,0.177-0.001,0.177-0.001c0.582-0.251,1.201-0.964,1.378-1.583
				c0.176-0.622,0.315-2.13,0.311-3.353c-0.004-1.227-0.011-3.313-0.015-4.644s-0.155-2.836-0.333-3.35
				c-0.18-0.513-0.606-1.15-0.945-1.415c-0.341-0.265-1.003-0.625-1.474-0.801c-0.47-0.176-0.655-0.61-0.415-0.966
				c0.243-0.354,0.929-0.879,1.525-1.165c0.597-0.286,1.562-0.593,2.144-0.684c0.582-0.09,1.626-0.167,2.321-0.169
				c0.697-0.002,1.979-0.006,2.853-0.009s2.21,0.108,2.971,0.248c0.761,0.14,1.676,0.441,2.031,0.67
				c0.356,0.23,0.769,0.677,0.914,0.996c0.146,0.318,0.271,1.727,0.275,3.13l0.027,8.303c0.005,1.4,0.104,2.825,0.216,3.162
				c0.114,0.338,0.301,0.757,0.415,0.933c0.114,0.181,0.405,0.395,0.648,0.481c0.239,0.088,0.743,0,1.113-0.196
				c0.37-0.193,0.99-0.807,1.381-1.358c0.385-0.552,1.176-1.74,1.755-2.65c0.579-0.904,1.472-2.444,1.989-3.422
				c0.515-0.978,1.211-2.415,1.548-3.195c0.338-0.78,0.823-1.898,1.08-2.483c0.258-0.586,0.665-1.356,0.906-1.711
				c0.241-0.355,0.756-0.749,1.144-0.874c0.388-0.125,1.853-0.225,3.255-0.221l5.541,0.015c1.403,0.004,2.765,0.064,3.021,0.135
				c0.261,0.07,0.553,0.316,0.649,0.545c0.101,0.23,0.18,0.622,0.181,0.87s-0.155,0.944-0.349,1.548
				c-0.19,0.603-0.68,1.823-1.079,2.71c-0.401,0.887-1.18,2.326-1.723,3.194c-0.547,0.871-1.442,2.251-1.989,3.068
				c-0.548,0.818-1.497,2.083-2.107,2.812c-0.611,0.729-1.377,1.761-1.697,2.293c-0.321,0.532-0.624,1.316-0.672,1.74
				c-0.048,0.429,0.033,0.979,0.18,1.227c0.146,0.247,0.999,1.335,1.896,2.415l6.014,7.252c0.896,1.085,1.63,2.317,1.631,2.741
				c0.001,0.427-0.075,1.006-0.173,1.289c-0.098,0.286-0.398,0.689-0.674,0.903c-0.273,0.214-0.806,0.461-1.174,0.551
				c-0.37,0.093-1.823,0.168-3.229,0.173l-4.954,0.016c-1.402,0.005-3.056-0.307-3.671-0.696c-0.614-0.39-1.691-1.241-2.389-1.891
				c-0.695-0.654-1.76-1.81-2.363-2.571c-0.601-0.759-1.369-1.743-1.711-2.184c-0.342-0.441-0.939-0.935-1.326-1.092
				c-0.39-0.158-1.051-0.055-1.47,0.232c-0.42,0.284-0.946,0.952-1.172,1.485c-0.228,0.53-0.455,2.113-0.509,3.516
				c0,0-0.009,0.224-0.009,0.416c0.001,0.193,0.001,0.193,0.001,0.193c-0.158,1.064-0.524,2.094-0.814,2.29
				c-0.291,0.196-0.886,0.356-1.32,0.358c-0.435,0.001-1.906,0.006-3.264,0.01c-1.358,0.005-3.344-0.146-4.413-0.339
				c-1.067-0.191-2.856-0.779-3.974-1.307c-1.117-0.528-2.776-1.596-3.684-2.373c-0.909-0.776-2.428-2.258-3.378-3.292l-0.678-0.739
				c-0.95-1.033-2.346-2.846-3.104-4.026l-1.204-1.88c-0.758-1.181-1.907-3.165-2.551-4.411l-1.087-2.101
				c-0.645-1.245-1.669-3.302-2.275-4.563l-0.045-0.098c-0.607-1.266-1.567-3.351-2.134-4.635l-0.069-0.159
				c-0.567-1.283-1.139-2.71-1.269-3.17c-0.131-0.461-0.146-1.099-0.034-1.418c0.113-0.319,0.693-0.728,1.291-0.906
				c0.599-0.179,2.234-0.33,3.639-0.334l3.483-0.012c1.402-0.004,2.737,0.093,2.964,0.216c0.227,0.124,0.625,0.528,0.886,0.899
				c0.259,0.371,0.792,1.429,1.183,2.35c0.393,0.92,1.031,2.455,1.423,3.411c0.393,0.956,1.057,2.303,1.481,2.993
				c0.422,0.688,1.047,1.716,1.389,2.283c0.342,0.565,0.874,1.448,1.184,1.961c0.31,0.517,0.761,1.167,1.005,1.448
				C36.357,53.313,37.035,53.747,37.617,53.994L37.617,53.994z"/>
		</g>
		<g opacity="0.2">
			<path fill="#020202" d="M37.614,52.994c0.177-0.001,0.177-0.001,0.177-0.001c0.581-0.251,1.201-0.964,1.377-1.583
				c0.176-0.622,0.315-2.13,0.311-3.353c-0.004-1.226-0.011-3.313-0.015-4.643s-0.155-2.836-0.333-3.35
				c-0.181-0.513-0.607-1.15-0.946-1.415c-0.341-0.265-1.003-0.625-1.473-0.801c-0.47-0.176-0.655-0.61-0.416-0.966
				c0.243-0.354,0.929-0.879,1.525-1.165c0.597-0.286,1.562-0.593,2.144-0.684c0.582-0.09,1.626-0.167,2.322-0.169
				c0.697-0.002,1.979-0.006,2.853-0.009s2.21,0.108,2.97,0.248s1.675,0.441,2.032,0.67c0.356,0.23,0.768,0.677,0.913,0.996
				c0.146,0.318,0.271,1.727,0.276,3.13l0.027,8.303c0.004,1.401,0.103,2.826,0.215,3.163c0.115,0.338,0.302,0.757,0.416,0.933
				c0.113,0.181,0.405,0.395,0.647,0.481c0.239,0.088,0.743,0,1.114-0.196c0.37-0.193,0.99-0.807,1.381-1.358
				c0.385-0.552,1.176-1.74,1.755-2.65c0.579-0.904,1.472-2.444,1.989-3.422c0.514-0.978,1.21-2.415,1.548-3.195
				c0.337-0.78,0.822-1.898,1.079-2.483c0.258-0.586,0.666-1.356,0.907-1.711c0.241-0.355,0.755-0.749,1.144-0.874
				c0.387-0.125,1.853-0.225,3.255-0.221l5.541,0.015c1.402,0.004,2.764,0.064,3.021,0.135c0.261,0.07,0.553,0.316,0.648,0.545
				c0.101,0.23,0.181,0.622,0.181,0.87c0.001,0.248-0.154,0.944-0.348,1.548c-0.19,0.603-0.68,1.823-1.079,2.71
				c-0.401,0.887-1.181,2.326-1.724,3.194c-0.547,0.871-1.441,2.251-1.988,3.068c-0.549,0.818-1.497,2.083-2.108,2.813
				c-0.61,0.729-1.376,1.76-1.696,2.292c-0.321,0.532-0.625,1.316-0.672,1.74c-0.049,0.429,0.033,0.979,0.18,1.227
				c0.146,0.247,0.998,1.335,1.896,2.416l6.013,7.251c0.897,1.085,1.63,2.317,1.632,2.741c0.001,0.427-0.075,1.006-0.173,1.289
				c-0.098,0.286-0.399,0.689-0.674,0.903c-0.273,0.214-0.806,0.461-1.174,0.551c-0.371,0.093-1.824,0.168-3.229,0.173l-4.954,0.016
				c-1.402,0.005-3.056-0.307-3.67-0.696s-1.691-1.241-2.389-1.891c-0.696-0.654-1.76-1.81-2.363-2.57
				c-0.602-0.76-1.37-1.744-1.711-2.185c-0.343-0.441-0.939-0.935-1.326-1.092c-0.391-0.158-1.051-0.055-1.47,0.232
				c-0.42,0.284-0.946,0.952-1.172,1.485c-0.228,0.53-0.455,2.113-0.509,3.516c0,0-0.01,0.224-0.009,0.416
				c0.001,0.193,0.001,0.193,0.001,0.193c-0.159,1.064-0.524,2.094-0.815,2.29c-0.29,0.196-0.886,0.356-1.319,0.358
				c-0.435,0.001-1.907,0.006-3.265,0.01c-1.358,0.005-3.344-0.146-4.412-0.339c-1.068-0.191-2.857-0.779-3.974-1.307
				c-1.117-0.528-2.776-1.596-3.684-2.373c-0.908-0.776-2.427-2.258-3.377-3.292l-0.679-0.739c-0.95-1.033-2.345-2.846-3.104-4.026
				l-1.205-1.88c-0.758-1.181-1.906-3.165-2.551-4.411l-1.087-2.101c-0.645-1.245-1.669-3.302-2.275-4.564l-0.045-0.096
				c-0.607-1.266-1.567-3.351-2.134-4.635l-0.07-0.159c-0.567-1.283-1.139-2.71-1.269-3.17c-0.131-0.461-0.146-1.099-0.034-1.418
				c0.113-0.319,0.693-0.728,1.291-0.906c0.598-0.179,2.234-0.33,3.639-0.334l3.483-0.012c1.402-0.004,2.737,0.093,2.964,0.216
				c0.227,0.124,0.625,0.528,0.886,0.899c0.259,0.371,0.793,1.429,1.184,2.35c0.392,0.92,1.031,2.455,1.423,3.411
				c0.392,0.956,1.056,2.303,1.481,2.992c0.422,0.689,1.046,1.717,1.388,2.284c0.342,0.563,0.874,1.448,1.184,1.961
				c0.31,0.517,0.761,1.167,1.005,1.448C36.354,52.313,37.031,52.747,37.614,52.994L37.614,52.994z"/>
		</g>
		<g opacity="0.2">
			<path fill="#020202" d="M37.61,51.994c0.177-0.001,0.177-0.001,0.177-0.001c0.581-0.251,1.201-0.964,1.377-1.583
				c0.176-0.622,0.315-2.13,0.312-3.353c-0.004-1.224-0.011-3.312-0.016-4.641c-0.004-1.329-0.155-2.836-0.333-3.35
				c-0.181-0.513-0.607-1.15-0.946-1.415c-0.34-0.265-1.003-0.625-1.473-0.801c-0.47-0.176-0.655-0.61-0.415-0.966
				c0.242-0.354,0.929-0.879,1.525-1.165c0.597-0.286,1.562-0.593,2.144-0.684c0.582-0.09,1.626-0.167,2.322-0.169
				c0.697-0.002,1.979-0.006,2.853-0.009s2.21,0.109,2.971,0.248c0.76,0.14,1.675,0.441,2.032,0.67
				c0.355,0.23,0.768,0.677,0.913,0.996c0.146,0.318,0.271,1.727,0.275,3.13l0.027,8.303c0.005,1.401,0.104,2.826,0.216,3.162
				c0.114,0.338,0.302,0.757,0.415,0.933c0.114,0.18,0.406,0.395,0.648,0.481c0.239,0.088,0.743,0,1.113-0.196
				c0.371-0.194,0.99-0.807,1.382-1.358c0.385-0.552,1.176-1.742,1.755-2.652c0.579-0.904,1.471-2.444,1.988-3.421
				c0.515-0.978,1.211-2.415,1.548-3.195c0.338-0.78,0.823-1.898,1.08-2.483c0.258-0.586,0.666-1.356,0.906-1.711
				c0.241-0.355,0.756-0.749,1.144-0.874s1.854-0.225,3.256-0.221l5.541,0.015c1.402,0.004,2.764,0.064,3.021,0.135
				c0.261,0.07,0.553,0.316,0.649,0.545c0.101,0.23,0.18,0.622,0.181,0.87s-0.155,0.944-0.349,1.548
				c-0.19,0.603-0.68,1.823-1.079,2.71c-0.401,0.887-1.18,2.326-1.723,3.194c-0.547,0.871-1.441,2.251-1.989,3.069
				c-0.548,0.817-1.497,2.083-2.107,2.811c-0.611,0.727-1.376,1.76-1.697,2.291c-0.321,0.532-0.624,1.316-0.672,1.74
				c-0.048,0.429,0.034,0.979,0.18,1.228c0.146,0.247,0.999,1.335,1.896,2.414l6.013,7.252c0.897,1.085,1.63,2.317,1.631,2.741
				c0.002,0.427-0.074,1.006-0.172,1.289c-0.098,0.286-0.399,0.69-0.674,0.902c-0.274,0.214-0.807,0.461-1.175,0.553
				c-0.37,0.092-1.823,0.166-3.229,0.171l-4.954,0.016c-1.402,0.005-3.056-0.306-3.67-0.696c-0.615-0.389-1.692-1.239-2.39-1.89
				c-0.695-0.654-1.76-1.811-2.362-2.571c-0.602-0.76-1.37-1.743-1.712-2.185c-0.342-0.44-0.939-0.934-1.325-1.091
				c-0.391-0.157-1.052-0.055-1.471,0.231c-0.42,0.284-0.945,0.954-1.172,1.486c-0.228,0.53-0.454,2.113-0.509,3.517
				c0,0-0.009,0.223-0.008,0.414c0,0.194,0,0.194,0,0.194c-0.158,1.064-0.524,2.095-0.814,2.29c-0.29,0.196-0.886,0.357-1.32,0.359
				c-0.435,0.001-1.906,0.006-3.264,0.01c-1.358,0.005-3.344-0.146-4.412-0.34c-1.067-0.192-2.856-0.779-3.974-1.308
				c-1.117-0.528-2.776-1.595-3.684-2.372c-0.908-0.777-2.427-2.258-3.377-3.292l-0.679-0.739c-0.95-1.033-2.345-2.847-3.104-4.026
				l-1.205-1.88c-0.758-1.182-1.906-3.165-2.551-4.411l-1.087-2.1c-0.645-1.245-1.669-3.302-2.275-4.567l-0.045-0.095
				c-0.607-1.266-1.567-3.351-2.134-4.635l-0.069-0.159c-0.567-1.283-1.139-2.71-1.27-3.17c-0.131-0.461-0.146-1.099-0.034-1.418
				c0.113-0.32,0.693-0.728,1.291-0.906c0.599-0.179,2.234-0.33,3.639-0.334l3.483-0.012c1.402-0.004,2.736,0.093,2.964,0.216
				c0.227,0.124,0.625,0.528,0.886,0.899c0.259,0.371,0.793,1.429,1.184,2.35c0.392,0.92,1.031,2.455,1.423,3.411
				c0.392,0.956,1.056,2.303,1.481,2.992c0.422,0.689,1.047,1.717,1.388,2.284c0.342,0.564,0.874,1.449,1.184,1.958
				c0.309,0.517,0.76,1.168,1.004,1.448C36.35,51.313,37.028,51.747,37.61,51.994L37.61,51.994z"/>
		</g>
		<g>
			<path fill="#FFFFFF" d="M37.604,49.994c0.177-0.001,0.177-0.001,0.177-0.001c0.582-0.251,1.201-0.964,1.378-1.583
				c0.176-0.622,0.315-2.13,0.311-3.353c-0.004-1.223-0.011-3.311-0.015-4.64s-0.155-2.836-0.333-3.35
				c-0.18-0.513-0.606-1.15-0.945-1.415c-0.341-0.265-1.003-0.625-1.473-0.801s-0.656-0.61-0.416-0.965
				c0.243-0.355,0.929-0.879,1.525-1.166c0.597-0.286,1.562-0.593,2.144-0.684c0.582-0.09,1.626-0.167,2.322-0.169
				c0.697-0.002,1.979-0.006,2.853-0.009s2.21,0.109,2.97,0.248c0.76,0.14,1.675,0.441,2.032,0.67
				c0.356,0.23,0.768,0.677,0.913,0.996c0.146,0.318,0.271,1.727,0.276,3.13l0.027,8.303c0.004,1.402,0.103,2.827,0.215,3.162
				c0.114,0.337,0.302,0.756,0.415,0.934c0.114,0.178,0.406,0.394,0.648,0.481c0.239,0.088,0.743,0,1.113-0.196
				c0.371-0.196,0.991-0.809,1.382-1.359c0.385-0.549,1.176-1.74,1.755-2.646c0.579-0.905,1.472-2.445,1.988-3.421
				c0.515-0.977,1.211-2.415,1.549-3.196c0.337-0.78,0.822-1.898,1.079-2.483c0.258-0.586,0.666-1.357,0.907-1.711
				c0.24-0.355,0.755-0.749,1.144-0.874c0.387-0.125,1.853-0.225,3.255-0.221l5.541,0.015c1.402,0.005,2.764,0.065,3.021,0.135
				c0.261,0.07,0.553,0.316,0.648,0.545c0.101,0.23,0.18,0.622,0.181,0.87s-0.154,0.945-0.348,1.548
				c-0.19,0.604-0.68,1.823-1.079,2.71c-0.401,0.888-1.181,2.326-1.724,3.195c-0.547,0.871-1.441,2.25-1.988,3.069
				c-0.549,0.818-1.497,2.082-2.108,2.81c-0.61,0.729-1.376,1.76-1.696,2.292c-0.321,0.533-0.625,1.317-0.672,1.741
				c-0.049,0.428,0.033,0.979,0.18,1.226c0.146,0.247,0.998,1.335,1.896,2.416l6.013,7.253c0.897,1.078,1.63,2.311,1.632,2.734
				c0.001,0.427-0.075,1.006-0.173,1.289c-0.098,0.286-0.399,0.69-0.674,0.902c-0.273,0.214-0.807,0.461-1.174,0.553
				c-0.371,0.092-1.824,0.166-3.229,0.171l-4.954,0.016c-1.402,0.005-3.056-0.306-3.67-0.696c-0.614-0.389-1.691-1.239-2.389-1.89
				c-0.696-0.654-1.76-1.811-2.363-2.571c-0.602-0.759-1.37-1.743-1.711-2.185c-0.343-0.441-0.94-0.935-1.326-1.092
				c-0.391-0.158-1.051-0.055-1.47,0.232c-0.42,0.284-0.946,0.952-1.172,1.485c-0.229,0.53-0.455,2.113-0.509,3.516
				c0,0-0.01,0.224-0.009,0.416c0.001,0.193,0.001,0.193,0.001,0.193c-0.159,1.064-0.524,2.094-0.815,2.29
				c-0.29,0.196-0.886,0.356-1.32,0.358c-0.435,0.001-1.906,0.006-3.264,0.011c-1.358,0.004-3.344-0.146-4.412-0.34
				c-1.068-0.191-2.857-0.779-3.974-1.307c-1.117-0.528-2.776-1.596-3.684-2.373c-0.908-0.776-2.428-2.258-3.377-3.292l-0.679-0.739
				c-0.95-1.033-2.346-2.846-3.104-4.026l-1.204-1.88c-0.758-1.181-1.907-3.165-2.551-4.411l-1.087-2.101
				c-0.645-1.245-1.669-3.301-2.275-4.566l-0.045-0.095c-0.607-1.266-1.567-3.351-2.135-4.635l-0.069-0.159
				c-0.567-1.283-1.139-2.71-1.269-3.17c-0.131-0.461-0.146-1.099-0.034-1.418s0.693-0.728,1.291-0.906
				c0.599-0.179,2.234-0.33,3.639-0.334l3.483-0.012c1.402-0.004,2.737,0.093,2.964,0.216c0.227,0.124,0.625,0.528,0.886,0.899
				c0.259,0.371,0.792,1.429,1.184,2.35c0.392,0.92,1.031,2.455,1.423,3.411c0.393,0.956,1.057,2.303,1.481,2.992
				c0.422,0.689,1.046,1.717,1.388,2.283c0.342,0.565,0.874,1.449,1.184,1.961c0.31,0.515,0.761,1.165,1.005,1.45
				C36.344,49.313,37.021,49.747,37.604,49.994L37.604,49.994z"/>
		</g>
		<g>
			
				<linearGradient id="SVGID_3_" gradientUnits="userSpaceOnUse" x1="710.8447" y1="1599.457" x2="710.8447" y2="1636.835" gradientTransform="matrix(1 -0.0033 0.0033 1 -669.9559 -1564.4967)">
				<stop  offset="0" style="stop-color:#FAFCEF"/>
				<stop  offset="0.3232" style="stop-color:#FAFCEF"/>
				<stop  offset="1" style="stop-color:#D0CBC5"/>
			</linearGradient>
			<path fill="url(#SVGID_3_)" d="M37.606,50.755c0.177-0.001,0.177-0.001,0.177-0.001c0.581-0.25,1.201-0.961,1.377-1.582
				c0.176-0.619,0.315-2.129,0.311-3.352c-0.004-1.224-0.011-3.312-0.015-4.641c-0.004-1.329-0.155-2.837-0.333-3.35
				c-0.181-0.513-0.607-1.15-0.946-1.415c-0.341-0.265-1.003-0.625-1.473-0.801c-0.47-0.177-0.655-0.61-0.416-0.966
				c0.243-0.355,0.929-0.879,1.525-1.165c0.596-0.286,1.562-0.593,2.144-0.684c0.582-0.09,1.626-0.166,2.322-0.168
				c0.697-0.002,1.979-0.006,2.853-0.009s2.21,0.108,2.97,0.248c0.761,0.14,1.676,0.44,2.031,0.67
				c0.356,0.23,0.769,0.678,0.914,0.996c0.146,0.319,0.271,1.727,0.275,3.13l0.027,8.301c0.005,1.403,0.102,2.827,0.216,3.163
				c0.114,0.338,0.301,0.758,0.415,0.936s0.405,0.394,0.648,0.479c0.239,0.088,0.743,0,1.113-0.195
				c0.372-0.194,0.99-0.81,1.381-1.359c0.386-0.55,1.177-1.739,1.756-2.648c0.578-0.905,1.471-2.445,1.988-3.422
				c0.515-0.978,1.211-2.415,1.548-3.195c0.338-0.78,0.823-1.898,1.08-2.484c0.258-0.586,0.665-1.356,0.906-1.711
				s0.756-0.749,1.144-0.874c0.388-0.125,1.854-0.225,3.256-0.221l5.541,0.015c1.402,0.004,2.764,0.064,3.021,0.135
				c0.261,0.07,0.553,0.315,0.649,0.546c0.099,0.231,0.181,0.623,0.182,0.871s-0.155,0.944-0.35,1.548
				c-0.19,0.603-0.68,1.822-1.079,2.709c-0.401,0.887-1.18,2.326-1.723,3.195c-0.547,0.871-1.442,2.251-1.989,3.069
				c-0.548,0.815-1.496,2.08-2.107,2.81s-1.376,1.761-1.697,2.292c-0.321,0.532-0.624,1.316-0.672,1.743
				c-0.048,0.426,0.033,0.976,0.18,1.225s0.999,1.335,1.896,2.416l6.014,7.252c0.897,1.081,1.629,2.312,1.63,2.737
				c0.002,0.426-0.075,1.006-0.173,1.289c-0.099,0.284-0.398,0.691-0.675,0.905c-0.272,0.214-0.805,0.461-1.174,0.551
				c-0.37,0.091-1.823,0.168-3.228,0.173l-4.954,0.016c-1.402,0.005-3.057-0.308-3.67-0.696c-0.615-0.391-1.693-1.241-2.391-1.893
				c-0.694-0.654-1.76-1.812-2.361-2.57c-0.602-0.76-1.371-1.744-1.713-2.186c-0.341-0.442-0.938-0.934-1.326-1.092
				c-0.389-0.157-1.051-0.056-1.47,0.232c-0.419,0.284-0.946,0.951-1.171,1.485c-0.227,0.531-0.455,2.114-0.51,3.518
				c0,0-0.009,0.225-0.009,0.414c0.001,0.192,0.001,0.192,0.001,0.192c-0.158,1.064-0.524,2.096-0.814,2.292
				c-0.291,0.194-0.886,0.356-1.32,0.358c-0.437,0.001-1.905,0.006-3.264,0.011c-1.359,0.004-3.344-0.149-4.411-0.34
				c-1.068-0.191-2.857-0.781-3.974-1.309c-1.118-0.527-2.776-1.595-3.684-2.371c-0.908-0.775-2.427-2.26-3.375-3.292l-0.682-0.739
				c-0.948-1.034-2.345-2.846-3.104-4.027l-1.205-1.879c-0.758-1.181-1.906-3.167-2.551-4.412l-1.087-2.096
				c-0.645-1.246-1.669-3.304-2.275-4.569l-0.045-0.096c-0.607-1.266-1.567-3.351-2.134-4.635l-0.07-0.159
				c-0.567-1.283-1.139-2.71-1.269-3.171c-0.131-0.461-0.146-1.099-0.034-1.418c0.112-0.319,0.693-0.727,1.291-0.906
				c0.599-0.179,2.234-0.329,3.639-0.333l3.483-0.012c1.402-0.004,2.737,0.093,2.964,0.216c0.228,0.124,0.625,0.528,0.886,0.899
				c0.259,0.372,0.792,1.428,1.184,2.349c0.392,0.92,1.031,2.455,1.423,3.411c0.392,0.956,1.056,2.301,1.481,2.991
				c0.422,0.69,1.046,1.718,1.388,2.285c0.342,0.565,0.874,1.448,1.183,1.961c0.31,0.517,0.761,1.164,1.005,1.445
				C36.347,50.073,37.024,50.509,37.606,50.755L37.606,50.755z"/>
		</g>
	</g>
</g>
</svg>
