<?xml version="1.0" encoding="utf-8"?>
<!-- Generator: Adobe Illustrator 17.0.1, SVG Export Plug-In . SVG Version: 6.00 Build 0)  -->
<!DOCTYPE svg PUBLIC "-//W3C//DTD SVG 1.1//EN" "http://www.w3.org/Graphics/SVG/1.1/DTD/svg11.dtd">
<svg version="1.1" id="Слой_1" xmlns="http://www.w3.org/2000/svg" xmlns:xlink="http://www.w3.org/1999/xlink" x="0px" y="0px"
	 width="40px" height="40px" viewBox="0 0 40 40" enable-background="new 0 0 40 40" xml:space="preserve">
<g id="Картинка">
	<g id="Слой_2">
		<g opacity="0.1">
			<path fill="#030303" d="M14.373,21.278c0.116-0.001,0.116-0.001,0.116-0.001c0.381-0.165,0.787-0.632,0.902-1.038
				c0.115-0.408,0.206-1.396,0.204-2.198c-0.003-0.804-0.007-2.171-0.01-3.044c-0.003-0.872-0.102-1.859-0.218-2.196
				c-0.118-0.336-0.398-0.754-0.619-0.927c-0.223-0.174-0.657-0.41-0.966-0.525c-0.308-0.115-0.429-0.4-0.272-0.633
				c0.159-0.232,0.609-0.576,0.999-0.764c0.391-0.187,1.024-0.389,1.405-0.448c0.381-0.059,1.066-0.109,1.522-0.111
				c0.457-0.001,1.297-0.004,1.87-0.006c0.573-0.002,1.448,0.071,1.947,0.163c0.499,0.092,1.098,0.289,1.332,0.439
				c0.233,0.151,0.503,0.444,0.598,0.653c0.096,0.208,0.178,1.132,0.181,2.051l0.017,5.442c0.003,0.918,0.068,1.852,0.142,2.072
				c0.075,0.222,0.198,0.496,0.272,0.611c0.075,0.119,0.266,0.259,0.425,0.315c0.157,0.058,0.487,0,0.729-0.128
				c0.243-0.126,0.65-0.529,0.906-0.89c0.252-0.362,0.771-1.14,1.15-1.737c0.379-0.592,0.965-1.602,1.303-2.242
				c0.338-0.641,0.794-1.583,1.015-2.094c0.221-0.511,0.539-1.244,0.707-1.627c0.169-0.384,0.436-0.889,0.594-1.121
				c0.158-0.233,0.495-0.491,0.75-0.573c0.254-0.082,1.214-0.147,2.133-0.145l3.632,0.01c0.919,0.003,1.812,0.042,1.98,0.088
				c0.172,0.046,0.362,0.207,0.425,0.357c0.067,0.152,0.119,0.409,0.119,0.572c0.001,0.163-0.102,0.619-0.229,1.015
				c-0.125,0.395-0.446,1.195-0.707,1.776c-0.263,0.581-0.773,1.524-1.129,2.093c-0.359,0.572-0.944,1.476-1.304,2.011
				c-0.359,0.537-0.98,1.363-1.381,1.842c-0.4,0.479-0.902,1.154-1.112,1.503c-0.211,0.348-0.41,0.862-0.441,1.14
				c-0.031,0.282,0.022,0.642,0.119,0.805c0.096,0.162,0.654,0.875,1.243,1.583l3.941,4.754c0.588,0.708,1.068,1.516,1.068,1.793
				c0.001,0.28-0.049,0.659-0.113,0.845c-0.065,0.187-0.262,0.452-0.442,0.591c-0.179,0.14-0.528,0.302-0.769,0.362
				c-0.243,0.06-1.195,0.109-2.116,0.112l-3.247,0.01c-0.919,0.003-2.004-0.201-2.405-0.456c-0.403-0.255-1.109-0.812-1.567-1.239
				c-0.455-0.429-1.154-1.187-1.547-1.685c-0.395-0.498-0.899-1.142-1.123-1.432c-0.223-0.288-0.615-0.612-0.868-0.715
				c-0.256-0.103-0.689-0.036-0.963,0.151c-0.275,0.186-0.62,0.625-0.768,0.974c-0.149,0.347-0.298,1.385-0.334,2.305
				c0,0-0.006,0.146-0.005,0.271c0,0.127,0,0.127,0,0.127c-0.104,0.697-0.343,1.373-0.533,1.501
				c-0.19,0.128-0.581,0.234-0.864,0.235c-0.286,0.001-1.249,0.004-2.139,0.007c-0.89,0.003-2.192-0.096-2.892-0.223
				c-0.699-0.126-1.872-0.511-2.605-0.857c-0.732-0.346-1.819-1.045-2.415-1.555c-0.595-0.509-1.591-1.48-2.213-2.158l-0.445-0.484
				c-0.623-0.677-1.537-1.866-2.034-2.639l-0.79-1.232c-0.497-0.775-1.249-2.074-1.672-2.891l-0.712-1.376
				c-0.423-0.816-1.094-2.165-1.491-2.991l-0.029-0.065c-0.398-0.83-1.027-2.196-1.399-3.038l-0.045-0.104
				c-0.372-0.841-0.747-1.776-0.832-2.078c-0.086-0.302-0.096-0.72-0.022-0.929c0.074-0.21,0.454-0.477,0.846-0.594
				c0.393-0.117,1.464-0.216,2.385-0.219l2.283-0.008c0.919-0.003,1.793,0.061,1.942,0.142c0.149,0.081,0.41,0.346,0.581,0.589
				c0.17,0.243,0.52,0.937,0.776,1.54c0.257,0.603,0.676,1.609,0.933,2.236c0.258,0.627,0.693,1.509,0.971,1.962
				c0.277,0.45,0.686,1.126,0.91,1.496c0.223,0.37,0.573,0.949,0.775,1.285c0.203,0.338,0.499,0.765,0.659,0.949
				C13.547,20.832,13.991,21.116,14.373,21.278L14.373,21.278z"/>
		</g>
		<g opacity="0.15">
			<path fill="#030303" d="M14.371,20.623c0.116-0.001,0.116-0.001,0.116-0.001c0.381-0.165,0.787-0.632,0.903-1.038
				c0.115-0.408,0.206-1.396,0.204-2.198c-0.003-0.804-0.007-2.171-0.01-3.044c-0.003-0.872-0.102-1.859-0.218-2.196
				c-0.118-0.336-0.397-0.754-0.619-0.927c-0.223-0.174-0.657-0.41-0.966-0.525c-0.308-0.115-0.429-0.4-0.272-0.633
				c0.159-0.232,0.609-0.576,0.999-0.764c0.391-0.187,1.024-0.389,1.405-0.448c0.381-0.059,1.066-0.109,1.521-0.111
				c0.457-0.001,1.297-0.004,1.87-0.006c0.573-0.002,1.448,0.071,1.947,0.163c0.499,0.092,1.098,0.289,1.331,0.439
				c0.233,0.151,0.504,0.444,0.599,0.653c0.096,0.208,0.178,1.132,0.18,2.051l0.018,5.442c0.003,0.918,0.068,1.852,0.142,2.072
				c0.075,0.222,0.197,0.496,0.272,0.611c0.075,0.119,0.265,0.259,0.425,0.315c0.157,0.058,0.487,0,0.729-0.128
				c0.242-0.126,0.649-0.529,0.905-0.89c0.252-0.362,0.771-1.14,1.15-1.737c0.379-0.592,0.965-1.602,1.304-2.243
				c0.338-0.641,0.794-1.583,1.015-2.094c0.222-0.511,0.539-1.244,0.708-1.627c0.169-0.384,0.436-0.889,0.594-1.121
				c0.158-0.233,0.495-0.491,0.75-0.573c0.254-0.082,1.214-0.147,2.133-0.145l3.632,0.01c0.92,0.003,1.812,0.042,1.98,0.088
				c0.171,0.046,0.362,0.207,0.425,0.357c0.066,0.151,0.118,0.408,0.119,0.57c0.001,0.163-0.102,0.619-0.229,1.015
				c-0.125,0.395-0.446,1.195-0.707,1.776c-0.263,0.581-0.773,1.524-1.129,2.093c-0.359,0.571-0.945,1.475-1.304,2.011
				c-0.359,0.536-0.981,1.365-1.381,1.843c-0.4,0.478-0.902,1.154-1.112,1.503c-0.21,0.349-0.409,0.863-0.44,1.14
				c-0.031,0.281,0.022,0.642,0.118,0.804c0.096,0.162,0.655,0.875,1.243,1.583l3.942,4.753c0.587,0.711,1.068,1.519,1.069,1.796
				c0.001,0.28-0.049,0.659-0.113,0.845c-0.064,0.187-0.261,0.452-0.442,0.592c-0.179,0.14-0.528,0.302-0.769,0.361
				c-0.243,0.061-1.195,0.11-2.116,0.113l-3.247,0.01c-0.919,0.003-2.003-0.201-2.406-0.456c-0.402-0.256-1.108-0.813-1.566-1.239
				c-0.456-0.429-1.154-1.186-1.549-1.685c-0.394-0.497-0.897-1.142-1.121-1.431c-0.224-0.289-0.615-0.613-0.869-0.716
				c-0.256-0.104-0.689-0.036-0.963,0.152c-0.275,0.186-0.62,0.624-0.768,0.973c-0.149,0.347-0.298,1.385-0.334,2.304
				c0,0-0.006,0.147-0.006,0.273c0.001,0.126,0.001,0.126,0.001,0.126c-0.104,0.697-0.343,1.372-0.534,1.501
				c-0.191,0.128-0.581,0.233-0.865,0.235c-0.285,0.001-1.249,0.004-2.139,0.007c-0.89,0.003-2.192-0.096-2.892-0.222
				c-0.699-0.125-1.872-0.511-2.605-0.857c-0.732-0.346-1.819-1.046-2.415-1.555c-0.596-0.509-1.591-1.48-2.214-2.158l-0.444-0.484
				c-0.623-0.677-1.538-1.865-2.034-2.639l-0.789-1.232c-0.497-0.774-1.25-2.074-1.672-2.891l-0.712-1.377
				c-0.423-0.816-1.094-2.164-1.491-2.991L2.625,16.76c-0.398-0.83-1.027-2.196-1.399-3.038l-0.045-0.104
				c-0.372-0.841-0.747-1.776-0.832-2.078c-0.086-0.302-0.096-0.72-0.022-0.929c0.074-0.209,0.454-0.477,0.846-0.594
				C1.565,9.9,2.637,9.801,3.558,9.799l2.283-0.008C6.76,9.788,7.634,9.852,7.783,9.932c0.149,0.081,0.41,0.346,0.581,0.589
				c0.17,0.243,0.519,0.937,0.775,1.54c0.258,0.603,0.676,1.609,0.933,2.236c0.258,0.627,0.693,1.509,0.971,1.962
				c0.277,0.451,0.686,1.125,0.91,1.496c0.224,0.37,0.573,0.949,0.776,1.285c0.203,0.339,0.499,0.765,0.659,0.949
				C13.545,20.176,13.989,20.461,14.371,20.623L14.371,20.623z"/>
		</g>
		<g opacity="0.2">
			<path fill="#030303" d="M14.369,19.967c0.116-0.001,0.116-0.001,0.116-0.001c0.381-0.165,0.787-0.632,0.902-1.038
				c0.115-0.408,0.206-1.396,0.204-2.198c-0.003-0.804-0.007-2.171-0.01-3.043c-0.003-0.872-0.102-1.859-0.218-2.196
				c-0.119-0.336-0.398-0.754-0.62-0.927c-0.223-0.174-0.657-0.41-0.965-0.525c-0.308-0.115-0.429-0.4-0.273-0.633
				c0.159-0.232,0.609-0.576,0.999-0.764c0.391-0.187,1.024-0.389,1.405-0.448c0.381-0.059,1.066-0.109,1.522-0.111
				c0.457-0.001,1.297-0.004,1.87-0.006c0.573-0.002,1.448,0.071,1.947,0.163c0.498,0.092,1.098,0.289,1.332,0.439
				c0.233,0.151,0.503,0.444,0.598,0.653c0.096,0.208,0.178,1.132,0.181,2.051l0.018,5.442c0.003,0.918,0.068,1.852,0.141,2.073
				c0.075,0.222,0.198,0.496,0.273,0.611c0.074,0.119,0.265,0.259,0.424,0.315c0.157,0.058,0.487,0,0.73-0.128
				c0.242-0.126,0.649-0.529,0.905-0.89c0.252-0.362,0.771-1.14,1.15-1.737c0.379-0.592,0.965-1.602,1.304-2.243
				c0.337-0.641,0.793-1.583,1.015-2.094c0.221-0.511,0.539-1.244,0.707-1.627c0.169-0.384,0.437-0.889,0.594-1.121
				s0.495-0.491,0.75-0.573c0.254-0.082,1.214-0.147,2.133-0.145l3.632,0.01c0.919,0.003,1.812,0.042,1.98,0.088
				c0.171,0.046,0.362,0.207,0.425,0.357c0.066,0.151,0.119,0.408,0.119,0.57c0.001,0.163-0.101,0.619-0.228,1.015
				c-0.125,0.395-0.446,1.195-0.707,1.776c-0.263,0.581-0.774,1.524-1.13,2.093c-0.359,0.571-0.944,1.475-1.303,2.011
				c-0.36,0.536-0.981,1.365-1.382,1.844c-0.4,0.478-0.902,1.154-1.112,1.502c-0.21,0.349-0.41,0.863-0.44,1.14
				c-0.032,0.281,0.022,0.642,0.118,0.804c0.096,0.162,0.654,0.875,1.243,1.583l3.941,4.752c0.588,0.711,1.068,1.519,1.07,1.796
				c0.001,0.28-0.049,0.659-0.113,0.845c-0.064,0.187-0.262,0.452-0.442,0.592c-0.179,0.14-0.528,0.302-0.769,0.361
				c-0.243,0.061-1.195,0.11-2.116,0.113l-3.247,0.01c-0.919,0.003-2.003-0.201-2.405-0.456c-0.402-0.255-1.108-0.813-1.566-1.239
				c-0.456-0.429-1.154-1.186-1.549-1.684c-0.395-0.498-0.898-1.143-1.121-1.432c-0.225-0.289-0.615-0.613-0.869-0.716
				c-0.256-0.104-0.689-0.036-0.963,0.152c-0.275,0.186-0.62,0.624-0.768,0.973c-0.149,0.347-0.298,1.385-0.334,2.304
				c0,0-0.007,0.147-0.006,0.273c0.001,0.126,0.001,0.126,0.001,0.126c-0.104,0.697-0.343,1.372-0.534,1.501
				c-0.19,0.128-0.581,0.233-0.864,0.235c-0.285,0.001-1.25,0.004-2.14,0.007c-0.89,0.003-2.192-0.096-2.892-0.222
				c-0.7-0.125-1.872-0.511-2.605-0.857s-1.819-1.046-2.415-1.555c-0.595-0.509-1.591-1.48-2.213-2.158L9.351,27.3
				c-0.623-0.677-1.537-1.865-2.034-2.639l-0.79-1.232c-0.497-0.774-1.249-2.074-1.672-2.891l-0.712-1.377
				c-0.423-0.816-1.094-2.164-1.491-2.991l-0.029-0.063c-0.398-0.83-1.027-2.196-1.399-3.038l-0.046-0.104
				c-0.372-0.841-0.747-1.776-0.832-2.078c-0.086-0.302-0.096-0.72-0.022-0.929C0.397,9.749,0.778,9.481,1.17,9.364
				c0.392-0.117,1.464-0.216,2.385-0.219l2.283-0.008C6.756,9.135,7.631,9.198,7.78,9.279C7.929,9.36,8.19,9.625,8.361,9.868
				c0.17,0.243,0.52,0.937,0.776,1.54c0.257,0.603,0.676,1.609,0.933,2.236c0.257,0.627,0.692,1.509,0.971,1.961
				c0.277,0.452,0.686,1.125,0.91,1.497c0.224,0.369,0.573,0.949,0.776,1.285c0.203,0.339,0.499,0.765,0.659,0.949
				C13.543,19.521,13.987,19.805,14.369,19.967L14.369,19.967z"/>
		</g>
		<g opacity="0.2">
			<path fill="#030303" d="M14.366,19.312c0.116-0.001,0.116-0.001,0.116-0.001c0.381-0.165,0.787-0.632,0.902-1.038
				c0.115-0.408,0.206-1.396,0.204-2.198c-0.003-0.802-0.007-2.171-0.01-3.042c-0.003-0.871-0.102-1.859-0.218-2.196
				c-0.119-0.336-0.398-0.754-0.62-0.927c-0.223-0.174-0.657-0.41-0.965-0.525c-0.308-0.115-0.429-0.4-0.272-0.633
				c0.159-0.232,0.609-0.576,0.999-0.764c0.391-0.187,1.024-0.389,1.405-0.448c0.381-0.059,1.066-0.109,1.522-0.111
				c0.457-0.001,1.297-0.004,1.87-0.006c0.573-0.002,1.448,0.071,1.947,0.163c0.498,0.092,1.098,0.289,1.332,0.439
				c0.233,0.151,0.503,0.444,0.598,0.653c0.096,0.208,0.178,1.132,0.18,2.051l0.018,5.442c0.003,0.918,0.068,1.852,0.142,2.072
				c0.075,0.222,0.198,0.496,0.272,0.611c0.075,0.118,0.266,0.259,0.425,0.315c0.157,0.058,0.487,0,0.729-0.128
				c0.243-0.127,0.649-0.529,0.906-0.89c0.252-0.362,0.771-1.142,1.15-1.738c0.379-0.592,0.964-1.602,1.303-2.242
				c0.338-0.641,0.794-1.583,1.015-2.094c0.222-0.511,0.539-1.244,0.708-1.627c0.169-0.384,0.437-0.889,0.594-1.121
				c0.158-0.233,0.495-0.491,0.75-0.573s1.215-0.147,2.134-0.145l3.632,0.01c0.919,0.003,1.812,0.042,1.98,0.088
				c0.171,0.046,0.362,0.207,0.425,0.357c0.066,0.151,0.118,0.408,0.119,0.57c0.001,0.163-0.102,0.619-0.229,1.015
				c-0.125,0.395-0.446,1.195-0.707,1.776c-0.263,0.581-0.773,1.524-1.129,2.093c-0.359,0.571-0.944,1.475-1.304,2.011
				c-0.359,0.535-0.981,1.365-1.381,1.842c-0.4,0.476-0.902,1.154-1.112,1.502c-0.21,0.349-0.409,0.863-0.44,1.14
				c-0.031,0.281,0.022,0.642,0.118,0.805c0.096,0.162,0.655,0.875,1.243,1.582l3.941,4.753c0.588,0.711,1.068,1.519,1.069,1.796
				c0.001,0.28-0.049,0.659-0.113,0.845c-0.064,0.187-0.262,0.452-0.442,0.591c-0.18,0.14-0.529,0.302-0.77,0.362
				c-0.243,0.06-1.195,0.109-2.116,0.112l-3.247,0.01c-0.919,0.003-2.003-0.201-2.405-0.456c-0.403-0.255-1.109-0.812-1.566-1.239
				c-0.456-0.429-1.154-1.187-1.548-1.685c-0.395-0.498-0.898-1.142-1.122-1.432c-0.224-0.288-0.615-0.612-0.868-0.715
				c-0.256-0.103-0.689-0.036-0.964,0.151c-0.275,0.186-0.619,0.625-0.768,0.974c-0.149,0.347-0.298,1.385-0.334,2.305
				c0,0-0.006,0.146-0.005,0.271c0,0.127,0,0.127,0,0.127c-0.104,0.697-0.343,1.373-0.533,1.501
				c-0.19,0.128-0.581,0.234-0.865,0.235c-0.285,0.001-1.249,0.004-2.139,0.007c-0.89,0.003-2.192-0.096-2.892-0.223
				c-0.699-0.126-1.872-0.511-2.605-0.857c-0.732-0.346-1.819-1.045-2.415-1.555c-0.595-0.509-1.591-1.48-2.213-2.158l-0.445-0.484
				c-0.623-0.677-1.537-1.866-2.034-2.639l-0.79-1.232c-0.497-0.775-1.249-2.074-1.672-2.891l-0.712-1.376
				c-0.423-0.816-1.094-2.164-1.491-2.993L2.62,15.45c-0.398-0.83-1.027-2.196-1.399-3.038l-0.045-0.104
				c-0.372-0.841-0.747-1.776-0.832-2.078C0.258,9.928,0.248,9.51,0.321,9.3c0.074-0.21,0.454-0.477,0.846-0.594
				C1.56,8.589,2.632,8.49,3.553,8.488L5.835,8.48c0.919-0.003,1.793,0.061,1.943,0.142c0.149,0.081,0.41,0.346,0.581,0.589
				c0.17,0.243,0.52,0.937,0.776,1.54c0.257,0.603,0.676,1.609,0.933,2.236c0.257,0.627,0.692,1.509,0.971,1.961
				c0.277,0.452,0.686,1.125,0.91,1.497c0.224,0.37,0.573,0.95,0.776,1.283c0.203,0.339,0.498,0.766,0.658,0.949
				C13.54,18.865,13.985,19.15,14.366,19.312L14.366,19.312z"/>
		</g>
		<g>
			<path fill="#FFFFFF" d="M14.362,18.001C14.478,18,14.478,18,14.478,18c0.381-0.165,0.787-0.632,0.903-1.038
				c0.115-0.408,0.206-1.396,0.204-2.198c-0.003-0.802-0.007-2.17-0.01-3.041c-0.003-0.871-0.102-1.859-0.218-2.196
				c-0.118-0.336-0.397-0.754-0.619-0.927c-0.223-0.174-0.657-0.41-0.965-0.525c-0.308-0.115-0.43-0.4-0.273-0.632
				c0.159-0.233,0.609-0.576,0.999-0.764c0.391-0.187,1.024-0.389,1.405-0.448c0.381-0.059,1.066-0.109,1.522-0.111
				c0.457-0.001,1.297-0.004,1.87-0.006c0.573-0.002,1.448,0.071,1.947,0.163c0.498,0.092,1.098,0.289,1.332,0.439
				c0.233,0.151,0.503,0.444,0.598,0.653c0.096,0.208,0.178,1.132,0.181,2.051l0.018,5.442c0.003,0.919,0.068,1.853,0.141,2.072
				c0.075,0.221,0.198,0.495,0.272,0.612c0.075,0.117,0.266,0.258,0.425,0.315c0.157,0.058,0.487,0,0.729-0.128
				c0.243-0.128,0.65-0.53,0.906-0.891c0.252-0.36,0.771-1.14,1.15-1.734c0.379-0.593,0.965-1.602,1.303-2.242
				c0.338-0.64,0.794-1.583,1.015-2.095c0.221-0.511,0.539-1.244,0.707-1.627c0.169-0.384,0.436-0.889,0.594-1.121
				c0.157-0.233,0.495-0.491,0.75-0.573c0.254-0.082,1.214-0.147,2.133-0.145l3.632,0.01c0.919,0.003,1.812,0.043,1.98,0.088
				c0.171,0.046,0.362,0.207,0.425,0.357c0.066,0.151,0.118,0.408,0.119,0.57c0.001,0.163-0.101,0.619-0.228,1.015
				c-0.125,0.396-0.446,1.195-0.707,1.776c-0.263,0.582-0.774,1.524-1.13,2.094c-0.359,0.571-0.944,1.475-1.303,2.011
				c-0.36,0.536-0.981,1.365-1.382,1.842c-0.4,0.478-0.902,1.154-1.112,1.502c-0.21,0.349-0.41,0.863-0.44,1.141
				c-0.032,0.281,0.022,0.642,0.118,0.804c0.096,0.162,0.654,0.875,1.243,1.583l3.941,4.754c0.588,0.707,1.068,1.515,1.07,1.792
				c0.001,0.28-0.049,0.659-0.113,0.845c-0.064,0.187-0.262,0.452-0.442,0.591c-0.179,0.14-0.529,0.302-0.769,0.362
				c-0.243,0.06-1.195,0.109-2.116,0.112l-3.247,0.01c-0.919,0.003-2.003-0.201-2.405-0.456c-0.402-0.255-1.108-0.812-1.566-1.239
				c-0.456-0.429-1.154-1.187-1.549-1.685c-0.395-0.497-0.898-1.142-1.121-1.432c-0.225-0.289-0.616-0.613-0.869-0.716
				c-0.256-0.104-0.689-0.036-0.963,0.152c-0.275,0.186-0.62,0.624-0.768,0.973c-0.15,0.347-0.298,1.385-0.334,2.304
				c0,0-0.007,0.147-0.006,0.273c0.001,0.126,0.001,0.126,0.001,0.126c-0.104,0.697-0.343,1.372-0.534,1.501
				c-0.19,0.128-0.581,0.233-0.865,0.235c-0.285,0.001-1.249,0.004-2.139,0.007c-0.89,0.003-2.192-0.096-2.892-0.223
				c-0.7-0.125-1.872-0.511-2.605-0.857s-1.819-1.046-2.415-1.555c-0.595-0.509-1.591-1.48-2.213-2.158l-0.445-0.484
				c-0.623-0.677-1.538-1.865-2.034-2.639l-0.789-1.232c-0.497-0.774-1.25-2.074-1.672-2.891l-0.712-1.377
				c-0.423-0.816-1.094-2.163-1.491-2.993l-0.029-0.062c-0.398-0.83-1.027-2.196-1.399-3.038l-0.045-0.104
				C0.801,10.156,0.426,9.221,0.341,8.92C0.255,8.618,0.245,8.199,0.319,7.99s0.454-0.477,0.846-0.594
				C1.558,7.279,2.629,7.18,3.55,7.178L5.833,7.17c0.919-0.003,1.794,0.061,1.943,0.142c0.149,0.081,0.41,0.346,0.581,0.589
				c0.17,0.243,0.519,0.937,0.776,1.54c0.257,0.603,0.676,1.609,0.933,2.236c0.258,0.627,0.693,1.509,0.971,1.961
				c0.277,0.452,0.686,1.125,0.91,1.496c0.224,0.37,0.573,0.95,0.776,1.285c0.203,0.338,0.499,0.764,0.659,0.95
				C13.536,17.555,13.98,17.839,14.362,18.001L14.362,18.001z"/>
		</g>
		<g>
			
				<linearGradient id="SVGID_1_" gradientUnits="userSpaceOnUse" x1="938.5527" y1="-1911.7388" x2="938.5527" y2="-1936.2382" gradientTransform="matrix(1 -0.0033 -0.0033 -1 -924.908 -1902.0293)">
				<stop  offset="0" style="stop-color:#FAFBF0"/>
				<stop  offset="0.3232" style="stop-color:#FAFBF0"/>
				<stop  offset="1" style="stop-color:#D0CBC5"/>
			</linearGradient>
			<path fill="url(#SVGID_1_)" d="M14.364,18.5c0.116-0.001,0.116-0.001,0.116-0.001c0.381-0.164,0.787-0.63,0.902-1.037
				c0.115-0.406,0.206-1.395,0.204-2.197c-0.003-0.802-0.007-2.171-0.01-3.042c-0.003-0.871-0.102-1.859-0.218-2.196
				c-0.119-0.336-0.398-0.754-0.62-0.927c-0.223-0.174-0.657-0.41-0.965-0.525c-0.308-0.116-0.429-0.4-0.273-0.633
				c0.159-0.233,0.609-0.576,0.999-0.764c0.391-0.187,1.024-0.389,1.405-0.448c0.381-0.059,1.066-0.109,1.522-0.11
				c0.457-0.001,1.297-0.004,1.87-0.006c0.573-0.002,1.448,0.071,1.947,0.163c0.499,0.092,1.098,0.288,1.331,0.439
				c0.233,0.151,0.504,0.444,0.599,0.653c0.096,0.209,0.178,1.132,0.18,2.051l0.018,5.441c0.003,0.92,0.067,1.853,0.142,2.073
				c0.075,0.222,0.197,0.497,0.272,0.613c0.075,0.117,0.265,0.258,0.425,0.314c0.157,0.058,0.487,0,0.729-0.128
				c0.244-0.127,0.649-0.531,0.905-0.891c0.253-0.36,0.771-1.14,1.151-1.736c0.379-0.593,0.964-1.602,1.303-2.243
				c0.338-0.641,0.794-1.583,1.015-2.094c0.222-0.511,0.539-1.244,0.708-1.628c0.169-0.384,0.436-0.889,0.594-1.121
				c0.158-0.233,0.495-0.491,0.75-0.573s1.215-0.147,2.134-0.145l3.632,0.01c0.919,0.003,1.812,0.042,1.98,0.088
				c0.171,0.046,0.362,0.206,0.425,0.358c0.065,0.151,0.119,0.408,0.119,0.571c0.001,0.163-0.102,0.619-0.229,1.015
				c-0.125,0.395-0.446,1.194-0.707,1.775c-0.263,0.581-0.773,1.524-1.129,2.094c-0.359,0.571-0.945,1.475-1.304,2.011
				c-0.359,0.534-0.98,1.363-1.381,1.842s-0.902,1.154-1.112,1.502c-0.21,0.349-0.409,0.863-0.44,1.142
				c-0.031,0.279,0.022,0.64,0.118,0.803c0.096,0.163,0.655,0.875,1.243,1.583l3.942,4.753c0.588,0.708,1.068,1.515,1.068,1.794
				c0.001,0.279-0.049,0.659-0.113,0.845c-0.065,0.186-0.261,0.453-0.442,0.593c-0.178,0.14-0.528,0.302-0.769,0.361
				c-0.243,0.06-1.195,0.11-2.116,0.113l-3.247,0.01c-0.919,0.003-2.004-0.202-2.405-0.456c-0.403-0.256-1.11-0.813-1.567-1.241
				c-0.455-0.429-1.154-1.188-1.547-1.684c-0.395-0.498-0.899-1.143-1.123-1.433c-0.223-0.29-0.615-0.612-0.869-0.716
				c-0.255-0.103-0.689-0.037-0.963,0.152c-0.275,0.186-0.62,0.623-0.767,0.973c-0.149,0.348-0.298,1.386-0.334,2.306
				c0,0-0.006,0.147-0.006,0.271c0.001,0.126,0.001,0.126,0.001,0.126c-0.104,0.697-0.343,1.374-0.533,1.502
				c-0.191,0.127-0.581,0.233-0.865,0.235c-0.286,0.001-1.249,0.004-2.139,0.007c-0.891,0.003-2.192-0.098-2.891-0.223
				c-0.7-0.125-1.872-0.512-2.605-0.858c-0.733-0.345-1.819-1.045-2.415-1.554c-0.595-0.508-1.591-1.481-2.212-2.158l-0.447-0.484
				c-0.621-0.678-1.537-1.865-2.034-2.639l-0.79-1.232c-0.497-0.774-1.249-2.076-1.672-2.892l-0.712-1.374
				c-0.423-0.817-1.094-2.165-1.491-2.995l-0.029-0.063c-0.398-0.83-1.027-2.196-1.399-3.038l-0.046-0.104
				C0.799,10.658,0.424,9.723,0.339,9.42C0.253,9.118,0.243,8.7,0.317,8.491C0.39,8.282,0.771,8.015,1.163,7.897
				C1.556,7.78,2.627,7.682,3.548,7.679l2.283-0.008C6.75,7.669,7.625,7.732,7.773,7.813c0.149,0.081,0.41,0.346,0.581,0.589
				c0.17,0.244,0.519,0.936,0.776,1.54c0.257,0.603,0.676,1.609,0.933,2.236c0.257,0.627,0.692,1.508,0.971,1.96
				c0.277,0.452,0.686,1.126,0.91,1.498c0.224,0.37,0.573,0.949,0.775,1.285c0.203,0.339,0.499,0.763,0.659,0.947
				C13.538,18.053,13.982,18.339,14.364,18.5L14.364,18.5z"/>
		</g>
	</g>
</g>
</svg>
